<?xml version="1.0" encoding="UTF-8" standalone="no"?>
<!-- Created with Fritzing (https://fritzing.org/) -->

<svg
   x="0in"
   width="2.03543in"
   height="3.04967in"
   version="1.2"
   y="0in"
   viewBox="0 0 146.551 219.576"
   id="svg409"
   sodipodi:docname="almost_pullup_schem.svg"
   inkscape:version="1.2.2 (b0a8486541, 2022-12-01)"
   xmlns:inkscape="http://www.inkscape.org/namespaces/inkscape"
   xmlns:sodipodi="http://sodipodi.sourceforge.net/DTD/sodipodi-0.dtd"
   xmlns="http://www.w3.org/2000/svg"
   xmlns:svg="http://www.w3.org/2000/svg">
  <defs
     id="defs413" />
  <sodipodi:namedview
     id="namedview411"
     pagecolor="#ffffff"
     bordercolor="#000000"
     borderopacity="0.25"
     inkscape:showpageshadow="2"
     inkscape:pageopacity="0.0"
     inkscape:pagecheckerboard="0"
     inkscape:deskcolor="#d1d1d1"
     inkscape:document-units="in"
     showgrid="false"
     inkscape:zoom="2.8828256"
     inkscape:cx="66.254442"
     inkscape:cy="118.63361"
     inkscape:window-width="1920"
     inkscape:window-height="1029"
     inkscape:window-x="0"
     inkscape:window-y="0"
     inkscape:window-maximized="1"
     inkscape:current-layer="svg409" />
  <g
     id="watermark">
    <g
       id="g24">
      <g
         id="g22">
        <path
           d="M121.819,213.376c-0.604,0,-1.131,0.325,-1.422,0.809l-2.796,0l3.96,-4.071c0.146,-0.146,0.289,-0.322,0.428,-0.521c0.149,-0.222,0.228,-0.479,0.228,-0.768c0,-0.279,-0.097,-0.518,-0.287,-0.71c-0.19,-0.188,-0.444,-0.287,-0.754,-0.287l-4.636,0c-0.305,0,-0.555,0.06,-0.742,0.17c-0.219,0.13,-0.33,0.368,-0.33,0.707c0,0.329,0.111,0.562,0.33,0.692c0.188,0.111,0.438,0.168,0.742,0.168l3.148,0l-3.974,4.086c-0.146,0.147,-0.289,0.315,-0.425,0.504c-0.153,0.212,-0.23,0.472,-0.23,0.771c0,0.28,0.096,0.521,0.288,0.711c0.188,0.188,0.442,0.285,0.754,0.285l4.315,0c0.293,0.467,0.812,0.776,1.4,0.776c0.916,0,1.66,-0.744,1.66,-1.661C123.478,214.121,122.733,213.376,121.819,213.376zM121.819,215.639c-0.334,0,-0.604,-0.271,-0.604,-0.604c0,-0.333,0.27,-0.604,0.604,-0.604c0.332,0,0.604,0.271,0.604,0.604C122.422,215.37,122.151,215.639,121.819,215.639z"
           fill="#8C8C8C"
           id="path2" />
        <path
           d="M104.876,203.334c-0.914,0,-1.659,0.745,-1.659,1.66c0,0.916,0.745,1.66,1.659,1.66s1.658,-0.744,1.658,-1.66C106.536,204.079,105.792,203.334,104.876,203.334zM104.877,205.597c-0.333,0,-0.604,-0.27,-0.604,-0.603s0.271,-0.603,0.604,-0.603c0.331,0,0.604,0.27,0.604,0.603S105.208,205.597,104.877,205.597z"
           fill="#8C8C8C"
           id="path4" />
        <path
           d="M113.397,207.996c-0.193,-0.111,-0.439,-0.169,-0.732,-0.169l-1.465,0L111.2,205.305c0,-0.292,-0.057,-0.538,-0.166,-0.729C110.944,204.419,110.751,204.234,110.341,204.234c-0.34,0,-0.578,0.116,-0.709,0.342c-0.109,0.193,-0.167,0.438,-0.167,0.729l0,2.521l-0.481,0c-0.295,0,-0.539,0.06,-0.731,0.169c-0.228,0.129,-0.341,0.368,-0.341,0.708c0,0.412,0.185,0.603,0.341,0.692c0.192,0.111,0.438,0.168,0.731,0.168l0.481,0l0,4.362c0,0.277,0.026,0.533,0.081,0.768c0.056,0.246,0.154,0.464,0.298,0.645c0.146,0.186,0.345,0.332,0.595,0.436c0.241,0.098,0.555,0.146,0.93,0.146l0.896,0c0.292,0,0.539,-0.054,0.731,-0.166c0.154,-0.089,0.341,-0.281,0.341,-0.693c0,-0.338,-0.114,-0.578,-0.341,-0.709c-0.192,-0.109,-0.439,-0.168,-0.731,-0.168l-0.821,0c-0.138,0,-0.19,-0.019,-0.207,-0.024c-0.014,-0.034,-0.035,-0.103,-0.035,-0.231L111.202,209.564l1.465,0c0.295,0,0.541,-0.057,0.734,-0.168c0.152,-0.09,0.34,-0.28,0.34,-0.692C113.737,208.364,113.624,208.125,113.397,207.996z"
           fill="#8C8C8C"
           id="path6" />
        <path
           d="M104.942,207.826l-1.191,0c-0.292,0,-0.538,0.059,-0.731,0.169c-0.226,0.129,-0.341,0.368,-0.341,0.708c0,0.412,0.188,0.604,0.341,0.691c0.193,0.113,0.439,0.168,0.731,0.168l0.544,0l0,5.362c0,0.293,0.057,0.539,0.167,0.73c0.131,0.227,0.367,0.341,0.708,0.341c0.411,0,0.604,-0.187,0.692,-0.341c0.111,-0.191,0.168,-0.438,0.168,-0.73L106.03,208.914c0,-0.386,-0.084,-0.656,-0.256,-0.83C105.599,207.912,105.329,207.826,104.942,207.826z"
           fill="#8C8C8C"
           id="path8" />
        <path
           d="M101.107,207.996c-0.193,-0.111,-0.44,-0.169,-0.732,-0.169l-0.604,0c-0.25,0,-0.498,0.063,-0.734,0.187c-0.226,0.119,-0.433,0.271,-0.616,0.453l-0.644,0.604l0,-0.247c0,-0.291,-0.055,-0.538,-0.168,-0.729c-0.128,-0.228,-0.368,-0.34,-0.707,-0.34c-0.41,0,-0.604,0.184,-0.693,0.34c-0.11,0.191,-0.167,0.438,-0.167,0.729l0,4.801c-0.475,0.293,-0.791,0.816,-0.791,1.412c0,0.917,0.745,1.661,1.658,1.661c0.916,0,1.66,-0.744,1.66,-1.661c0,-0.596,-0.317,-1.119,-0.792,-1.412l0,-2.21l1.738,-1.564c0.1,-0.09,0.199,-0.164,0.297,-0.217c0.084,-0.045,0.174,-0.067,0.274,-0.067l0.288,0c0.292,0,0.539,-0.056,0.732,-0.169c0.155,-0.088,0.339,-0.279,0.339,-0.691C101.447,208.364,101.332,208.125,101.107,207.996zM96.908,215.639c-0.332,0,-0.603,-0.271,-0.603,-0.604c0,-0.333,0.271,-0.604,0.603,-0.604c0.333,0,0.604,0.271,0.604,0.604C97.512,215.37,97.241,215.639,96.908,215.639z"
           fill="#8C8C8C"
           id="path10" />
        <path
           d="M94.391,204.477c-0.193,-0.111,-0.44,-0.167,-0.731,-0.167l-0.59,0c-0.2,0,-0.389,0.004,-0.562,0.016c-0.176,0.009,-0.345,0.035,-0.506,0.07c-0.168,0.041,-0.336,0.109,-0.496,0.202c-0.158,0.093,-0.319,0.222,-0.48,0.382c-0.334,0.314,-0.554,0.656,-0.652,1.017c-0.094,0.348,-0.143,0.735,-0.143,1.151l0,0.678l-0.483,0c-0.292,0,-0.539,0.059,-0.73,0.169c-0.227,0.13,-0.342,0.369,-0.342,0.708c0,0.412,0.185,0.604,0.341,0.693c0.191,0.111,0.438,0.166,0.73,0.166l0.483,0l0,5.362c0,0.293,0.057,0.539,0.167,0.73c0.13,0.227,0.367,0.341,0.708,0.341c0.411,0,0.603,-0.187,0.692,-0.341c0.111,-0.191,0.168,-0.438,0.168,-0.73l0,-5.36l0.92,0c0.293,0,0.54,-0.057,0.732,-0.168c0.155,-0.09,0.34,-0.28,0.34,-0.692c0,-0.34,-0.114,-0.579,-0.34,-0.708c-0.189,-0.111,-0.436,-0.17,-0.729,-0.17l-0.92,0l0,-0.678c0,-0.218,0.019,-0.41,0.056,-0.571c0.032,-0.141,0.103,-0.261,0.218,-0.367l0.002,-0.004l0.002,-0.002c0.082,-0.082,0.176,-0.126,0.29,-0.136c0.15,-0.015,0.339,-0.022,0.564,-0.022l0.56,0c0.291,0,0.539,-0.058,0.731,-0.168c0.154,-0.088,0.339,-0.281,0.339,-0.693C94.731,204.846,94.616,204.607,94.391,204.477z"
           fill="#8C8C8C"
           id="path12" />
        <path
           d="M146.384,208.094c-0.089,-0.156,-0.282,-0.34,-0.693,-0.34c-0.339,0,-0.578,0.113,-0.707,0.34c-0.078,0.133,-0.127,0.293,-0.152,0.477l-0.021,-0.021c-0.216,-0.236,-0.466,-0.42,-0.747,-0.539c-0.277,-0.119,-0.563,-0.183,-0.849,-0.183l-0.709,0c-0.249,0,-0.466,0.015,-0.64,0.041c-0.182,0.026,-0.352,0.074,-0.51,0.14c-0.158,0.066,-0.313,0.15,-0.459,0.254c-0.139,0.097,-0.303,0.226,-0.486,0.377c-0.188,0.156,-0.342,0.302,-0.463,0.434c-0.127,0.141,-0.23,0.293,-0.306,0.455c-0.069,0.16,-0.122,0.337,-0.147,0.523c-0.026,0.178,-0.041,0.391,-0.041,0.631l0,2.386c0,0.24,0.015,0.451,0.041,0.631c0.025,0.188,0.078,0.361,0.147,0.521c0.074,0.164,0.179,0.318,0.306,0.457c0.119,0.129,0.274,0.274,0.463,0.433c0.186,0.153,0.35,0.28,0.486,0.379c0.146,0.103,0.299,0.188,0.459,0.254c0.158,0.065,0.329,0.112,0.51,0.14c0.174,0.026,0.389,0.039,0.64,0.039l0.709,0c0.298,0,0.591,-0.066,0.87,-0.199c0.244,-0.114,0.492,-0.291,0.73,-0.523l0,1.434c0,0.18,-0.025,0.334,-0.072,0.465c-0.043,0.119,-0.159,0.258,-0.344,0.406c-0.154,0.127,-0.309,0.217,-0.457,0.264c-0.15,0.049,-0.341,0.074,-0.563,0.074l-2.203,0c-0.293,0,-0.538,0.055,-0.732,0.166c-0.152,0.088,-0.34,0.282,-0.34,0.692c0,0.341,0.115,0.579,0.34,0.71c0.194,0.109,0.439,0.167,0.732,0.167l2.326,0c0.247,0,0.463,-0.015,0.638,-0.041c0.179,-0.026,0.351,-0.073,0.513,-0.14c0.153,-0.064,0.31,-0.15,0.455,-0.254c0.143,-0.101,0.305,-0.227,0.487,-0.379c0.185,-0.153,0.343,-0.299,0.463,-0.431c0.128,-0.141,0.229,-0.294,0.304,-0.456c0.071,-0.162,0.123,-0.338,0.148,-0.523c0.025,-0.182,0.041,-0.393,0.041,-0.631l0,-7.898C146.551,208.532,146.497,208.285,146.384,208.094zM144.815,212.554c0,0.188,-0.062,0.35,-0.188,0.49c-0.15,0.172,-0.394,0.403,-0.716,0.686l-0.002,0.003l-0.002,0.004c-0.139,0.13,-0.291,0.237,-0.453,0.325c-0.148,0.082,-0.325,0.121,-0.526,0.121L142.627,214.183c-0.222,0,-0.41,-0.021,-0.563,-0.072c-0.148,-0.049,-0.301,-0.137,-0.453,-0.264c-0.231,-0.186,-0.315,-0.322,-0.346,-0.404c-0.049,-0.131,-0.072,-0.285,-0.072,-0.465l0,-2.206c0,-0.18,0.023,-0.336,0.072,-0.467c0.029,-0.082,0.113,-0.217,0.346,-0.403c0.152,-0.127,0.305,-0.216,0.453,-0.265c0.153,-0.049,0.342,-0.072,0.563,-0.072l0.301,0c0.212,0,0.388,0.037,0.526,0.113c0.152,0.082,0.308,0.191,0.457,0.324c0.322,0.293,0.564,0.529,0.716,0.7c0.128,0.146,0.188,0.304,0.188,0.492L144.815,212.554z"
           fill="#8C8C8C"
           id="path14" />
        <path
           d="M126.405,203.334c-0.914,0,-1.66,0.745,-1.66,1.66c0,0.916,0.746,1.66,1.66,1.66s1.66,-0.744,1.66,-1.66C128.065,204.079,127.319,203.334,126.405,203.334zM126.405,205.597c-0.332,0,-0.604,-0.27,-0.604,-0.603s0.271,-0.603,0.604,-0.603s0.604,0.27,0.604,0.603C127.009,205.327,126.737,205.597,126.405,205.597z"
           fill="#8C8C8C"
           id="path16" />
        <path
           d="M137.091,213.602l-0.107,-3.419c-0.011,-0.178,-0.021,-0.338,-0.031,-0.489c-0.01,-0.162,-0.037,-0.322,-0.082,-0.476c-0.045,-0.158,-0.11,-0.309,-0.198,-0.453c-0.093,-0.146,-0.216,-0.289,-0.37,-0.42c-0.225,-0.192,-0.443,-0.334,-0.646,-0.416c-0.207,-0.084,-0.461,-0.127,-0.754,-0.127l-1.012,0c-0.259,0,-0.501,0.058,-0.716,0.164c-0.197,0.098,-0.39,0.203,-0.572,0.315l-0.003,0.002l-0.003,0.003l-0.837,0.555l0,-0.041c0,-0.291,-0.057,-0.539,-0.168,-0.733c-0.129,-0.226,-0.367,-0.339,-0.707,-0.339c-0.411,0,-0.604,0.185,-0.693,0.339c-0.109,0.194,-0.168,0.438,-0.168,0.733l0,6.099c0,0.295,0.059,0.539,0.168,0.734c0.09,0.153,0.282,0.338,0.693,0.338c0.34,0,0.578,-0.114,0.707,-0.338c0.111,-0.195,0.168,-0.439,0.168,-0.734L131.76,210.864l1.953,-1.215c0.04,-0.024,0.082,-0.048,0.121,-0.063c0.031,-0.016,0.07,-0.025,0.115,-0.031c0.049,-0.012,0.117,-0.016,0.195,-0.016l0.362,0c0.188,0,0.334,0.021,0.435,0.059c0.082,0.029,0.143,0.076,0.18,0.143c0.05,0.078,0.08,0.18,0.098,0.303c0.02,0.139,0.034,0.309,0.045,0.504l0.096,3.097c-0.457,0.297,-0.762,0.811,-0.762,1.394c0,0.917,0.746,1.661,1.66,1.661c0.916,0,1.66,-0.744,1.66,-1.661C137.917,214.427,137.584,213.889,137.091,213.602zM136.257,215.639c-0.334,0,-0.602,-0.271,-0.602,-0.604c0,-0.333,0.268,-0.604,0.602,-0.604c0.333,0,0.604,0.271,0.604,0.604C136.862,215.37,136.59,215.639,136.257,215.639z"
           fill="#8C8C8C"
           id="path18" />
        <path
           d="M126.468,207.826l-1.193,0c-0.293,0,-0.539,0.059,-0.731,0.169c-0.226,0.129,-0.341,0.368,-0.341,0.708c0,0.412,0.186,0.604,0.341,0.691c0.192,0.113,0.438,0.168,0.731,0.168l0.545,0l0,5.362c0,0.293,0.055,0.539,0.168,0.73c0.127,0.227,0.365,0.341,0.707,0.341c0.41,0,0.604,-0.187,0.691,-0.341c0.111,-0.191,0.17,-0.438,0.17,-0.73L127.556,208.914c0,-0.386,-0.085,-0.656,-0.259,-0.83C127.125,207.912,126.852,207.826,126.468,207.826z"
           fill="#8C8C8C"
           id="path20" />
      </g>
    </g>
  </g>
  <g
     partID="854107360"
     id="g68">
    <g
       transform="translate(19.4238,72.6665)"
       id="g66">
      <g
         transform="matrix(0,1,-1,0,0,0)"
         id="g64">
        <g
           id="schematic">
          <line
             stroke-linecap="round"
             stroke="#000000"
             y1="11.159"
             stroke-width="0.7"
             y2="11.159"
             x1="19.8"
             x2="21.6"
             fill="none"
             id="line27" />
          <line
             stroke-linecap="round"
             stroke="#000000"
             y1="11.159"
             stroke-width="0.7"
             y2="7.559"
             x1="7.2"
             x2="19.8"
             fill="none"
             id="line29" />
          <circle
             stroke="#000000"
             stroke-width="0.7"
             cx="7.2"
             r="0.36"
             fill="none"
             cy="11.159"
             id="circle31" />
          <circle
             stroke="#000000"
             stroke-width="0.7"
             cx="21.6"
             r="0.36"
             fill="none"
             cy="11.159"
             id="circle33" />
          <g
             transform="matrix(1, 0, 0, 1, 2.7612, 2.718)"
             id="g37">
            <text
               font-family="'DroidSans'"
               font-size="2"
               fill="#787878"
               id="text35">1</text>
          </g>
          <g
             transform="matrix(1, 0, 0, 1, 24.604, 2.718)"
             id="g41">
            <text
               font-family="'DroidSans'"
               font-size="2"
               fill="#787878"
               id="text39">2</text>
          </g>
          <g
             transform="matrix(1, 0, 0, 1, 2.7612, 16.843)"
             id="g45">
            <text
               font-family="'DroidSans'"
               font-size="2"
               fill="#787878"
               id="text43">1</text>
          </g>
          <g
             transform="matrix(1, 0, 0, 1, 24.604, 16.843)"
             id="g49">
            <text
               font-family="'DroidSans'"
               font-size="2"
               fill="#787878"
               id="text47">2</text>
          </g>
          <line
             stroke-linecap="round"
             stroke="#000000"
             y1="3.96"
             stroke-width="0.7"
             y2="18.359"
             x1="21.6"
             x2="21.6"
             fill="none"
             id="line51" />
          <line
             stroke-linecap="round"
             stroke="#000000"
             y1="3.96"
             stroke-width="0.7"
             y2="18.359"
             x1="7.2"
             x2="7.2"
             fill="none"
             id="line53" />
          <line
             stroke-linecap="round"
             stroke="#555555"
             y1="18.359"
             stroke-width="0.7"
             y2="18.359"
             x1="0.322"
             id="connector3pin"
             x2="7.2"
             fill="none" />
          <line
             stroke-linecap="round"
             stroke="#555555"
             y1="3.96"
             stroke-width="0.7"
             y2="3.96"
             x1="0.322"
             id="connector2pin"
             x2="7.2"
             fill="none" />
          <g
             points="0.822,4.281,0.837,3.64,0,3.64,0,4.281"
             id="connector2terminal"
             fill="none" />
          <g
             points="0.822,18.694,0.837,18.053,0,18.053,0,18.694"
             id="connector3terminal"
             fill="none" />
          <line
             stroke-linecap="round"
             stroke="#555555"
             y1="18.359"
             stroke-width="0.7"
             y2="18.359"
             x1="28.451"
             id="connector1pin"
             x2="21.6"
             fill="none" />
          <g
             x="27.806"
             width="0.994"
             height="0.672"
             y="18.006"
             id="connector1terminal"
             fill="none" />
          <g
             x="27.712"
             width="1.088"
             height="0.719"
             y="3.6"
             id="connector0terminal"
             fill="none" />
          <line
             stroke-linecap="round"
             stroke="#555555"
             y1="3.96"
             stroke-width="0.7"
             y2="3.96"
             x1="28.451"
             id="connector0pin"
             x2="21.6"
             fill="none" />
        </g>
      </g>
    </g>
  </g>
  <g
     partID="58580"
     id="g355">
    <g
       transform="translate(22.6503,15.485)"
       id="g353">
      <g
         id="g351">
        <rect
           stroke-linecap="round"
           x="14.85"
           stroke="#000000"
           stroke-width="0.3175"
           width="78.3"
           height="150.3"
           y="14.85"
           fill="#FFFFFF"
           id="rect70" />
        <line
           stroke-linecap="round"
           stroke="#787878"
           y1="28.8"
           stroke-width="0.2469"
           y2="28.8"
           x1="93.25"
           id="connector61pin"
           x2="107.65"
           fill="none" />
        <g
           transform="matrix(1, 0, 0, 1, 82.2432, 29.5)"
           id="g75">
          <text
             font-family="'DroidSans'"
             font-size="3.5"
             fill="#8C8C8C"
             id="text73">D0/RX</text>
        </g>
        <g
           x="107.65"
           width="0.699"
           height="0.7"
           y="28.45"
           id="connector61terminal"
           fill="none" />
        <line
           stroke-linecap="round"
           stroke="#787878"
           y1="36"
           stroke-width="0.2469"
           y2="36"
           x1="93.25"
           id="connector62pin"
           x2="107.65"
           fill="none" />
        <g
           transform="matrix(1, 0, 0, 1, 82.4912, 36.7012)"
           id="g81">
          <text
             font-family="'DroidSans'"
             font-size="3.5"
             fill="#8C8C8C"
             id="text79">D1/TX</text>
        </g>
        <g
           x="107.65"
           width="0.699"
           height="0.7"
           y="35.65"
           id="connector62terminal"
           fill="none" />
        <line
           stroke-linecap="round"
           stroke="#787878"
           y1="43.2"
           stroke-width="0.2469"
           y2="43.2"
           x1="93.25"
           id="connector63pin"
           x2="107.65"
           fill="none" />
        <g
           transform="matrix(1, 0, 0, 1, 87.5283, 43.9004)"
           id="g87">
          <text
             font-family="'DroidSans'"
             font-size="3.5"
             fill="#8C8C8C"
             id="text85">D2</text>
        </g>
        <g
           x="107.65"
           width="0.699"
           height="0.7"
           y="42.85"
           id="connector63terminal"
           fill="none" />
        <line
           stroke-linecap="round"
           stroke="#787878"
           y1="50.4"
           stroke-width="0.2469"
           y2="50.4"
           x1="93.25"
           id="connector64pin"
           x2="107.65"
           fill="none" />
        <g
           transform="matrix(1, 0, 0, 1, 78.4639, 51.0996)"
           id="g93">
          <text
             font-family="'DroidSans'"
             font-size="3.5"
             fill="#8C8C8C"
             id="text91">D3 PWM</text>
        </g>
        <g
           x="107.65"
           width="0.699"
           height="0.7"
           y="50.05"
           id="connector64terminal"
           fill="none" />
        <line
           stroke-linecap="round"
           stroke="#787878"
           y1="57.6"
           stroke-width="0.2469"
           y2="57.6"
           x1="93.25"
           id="connector65pin"
           x2="107.65"
           fill="none" />
        <g
           transform="matrix(1, 0, 0, 1, 87.5283, 58.3008)"
           id="g99">
          <text
             font-family="'DroidSans'"
             font-size="3.5"
             fill="#8C8C8C"
             id="text97">D4</text>
        </g>
        <g
           x="107.65"
           width="0.699"
           height="0.7"
           y="57.25"
           id="connector65terminal"
           fill="none" />
        <line
           stroke-linecap="round"
           stroke="#787878"
           y1="64.8"
           stroke-width="0.2469"
           y2="64.8"
           x1="93.25"
           id="connector66pin"
           x2="107.65"
           fill="none" />
        <g
           transform="matrix(1, 0, 0, 1, 78.4639, 65.5)"
           id="g105">
          <text
             font-family="'DroidSans'"
             font-size="3.5"
             fill="#8C8C8C"
             id="text103">D5 PWM</text>
        </g>
        <g
           x="107.65"
           width="0.699"
           height="0.7"
           y="64.45"
           id="connector66terminal"
           fill="none" />
        <line
           stroke-linecap="round"
           stroke="#787878"
           y1="72"
           stroke-width="0.2469"
           y2="72"
           x1="93.25"
           id="connector67pin"
           x2="107.65"
           fill="none" />
        <g
           transform="matrix(1, 0, 0, 1, 78.4639, 72.7012)"
           id="g111">
          <text
             font-family="'DroidSans'"
             font-size="3.5"
             fill="#8C8C8C"
             id="text109">D6 PWM</text>
        </g>
        <g
           x="107.65"
           width="0.699"
           height="0.7"
           y="71.65"
           id="connector67terminal"
           fill="none" />
        <line
           stroke-linecap="round"
           stroke="#787878"
           y1="79.2"
           stroke-width="0.2469"
           y2="79.2"
           x1="93.25"
           id="connector68pin"
           x2="107.65"
           fill="none" />
        <g
           transform="matrix(1, 0, 0, 1, 87.5283, 79.9004)"
           id="g117">
          <text
             font-family="'DroidSans'"
             font-size="3.5"
             fill="#8C8C8C"
             id="text115">D7</text>
        </g>
        <g
           x="107.65"
           width="0.699"
           height="0.7"
           y="78.85"
           id="connector68terminal"
           fill="none" />
        <line
           stroke-linecap="round"
           stroke="#787878"
           y1="86.4"
           stroke-width="0.2469"
           y2="86.4"
           x1="93.25"
           id="connector51pin"
           x2="107.65"
           fill="none" />
        <g
           transform="matrix(1, 0, 0, 1, 87.5283, 87.0996)"
           id="g123">
          <text
             font-family="'DroidSans'"
             font-size="3.5"
             fill="#8C8C8C"
             id="text121">D8</text>
        </g>
        <g
           x="107.65"
           width="0.699"
           height="0.7"
           y="86.05"
           id="connector51terminal"
           fill="none" />
        <line
           stroke-linecap="round"
           stroke="#787878"
           y1="93.6"
           stroke-width="0.2469"
           y2="93.6"
           x1="93.25"
           id="connector52pin"
           x2="107.65"
           fill="none" />
        <g
           transform="matrix(1, 0, 0, 1, 78.4639, 94.3008)"
           id="g129">
          <text
             font-family="'DroidSans'"
             font-size="3.5"
             fill="#8C8C8C"
             id="text127">D9 PWM</text>
        </g>
        <g
           x="107.65"
           width="0.699"
           height="0.699"
           y="93.25"
           id="connector52terminal"
           fill="none" />
        <line
           stroke-linecap="round"
           stroke="#787878"
           y1="100.8"
           stroke-width="0.2469"
           y2="100.8"
           x1="93.25"
           id="connector53pin"
           x2="107.65"
           fill="none" />
        <g
           transform="matrix(1, 0, 0, 1, 71.5967, 101.5)"
           id="g135">
          <text
             font-family="'DroidSans'"
             font-size="3.5"
             fill="#8C8C8C"
             id="text133">D10 PWM/SS</text>
        </g>
        <g
           x="107.65"
           width="0.699"
           height="0.701"
           y="100.449"
           id="connector53terminal"
           fill="none" />
        <line
           stroke-linecap="round"
           stroke="#787878"
           y1="108"
           stroke-width="0.2469"
           y2="108"
           x1="93.25"
           id="connector54pin"
           x2="107.65"
           fill="none" />
        <g
           transform="matrix(1, 0, 0, 1, 66.585, 108.701)"
           id="g141">
          <text
             font-family="'DroidSans'"
             font-size="3.5"
             fill="#8C8C8C"
             id="text139">D11 PWM/MOSI</text>
        </g>
        <g
           x="107.65"
           width="0.699"
           height="0.699"
           y="107.65"
           id="connector54terminal"
           fill="none" />
        <line
           stroke-linecap="round"
           stroke="#787878"
           y1="115.2"
           stroke-width="0.2469"
           y2="115.2"
           x1="93.25"
           id="connector55pin"
           x2="107.65"
           fill="none" />
        <g
           transform="matrix(1, 0, 0, 1, 75.6494, 115.9)"
           id="g147">
          <text
             font-family="'DroidSans'"
             font-size="3.5"
             fill="#8C8C8C"
             id="text145">D12/MISO</text>
        </g>
        <g
           x="107.65"
           width="0.699"
           height="0.7"
           y="114.85"
           id="connector55terminal"
           fill="none" />
        <line
           y1="122.4"
           y2="122.4"
           x1="93.25"
           id="connector41pin"
           x2="107.65"
           fill="none" />
        <rect
           x="107.65"
           width="0.699"
           height="0.7"
           y="122.05"
           id="connector41terminal"
           fill="none" />
        <line
           stroke-linecap="round"
           stroke="#787878"
           y1="122.4"
           stroke-width="0.2469"
           y2="122.4"
           x1="93.25"
           id="connector56pin"
           x2="107.65"
           fill="none" />
        <g
           transform="matrix(1, 0, 0, 1, 78.3408, 123.1)"
           id="g155">
          <text
             font-family="'DroidSans'"
             font-size="3.5"
             fill="#8C8C8C"
             id="text153">D13/SCK</text>
        </g>
        <g
           x="107.65"
           width="0.699"
           height="0.7"
           y="122.05"
           id="connector56terminal"
           fill="none" />
        <line
           y1="28.8"
           y2="28.8"
           x1="0.35"
           id="connector43pin"
           x2="14.75"
           fill="none" />
        <g
           x="-0.35"
           width="0.7"
           height="0.7"
           y="28.45"
           id="connector43terminal"
           fill="none" />
        <line
           stroke-linecap="round"
           stroke="#787878"
           y1="28.8"
           stroke-width="0.2469"
           y2="28.8"
           x1="0.35"
           id="connector85pin"
           x2="14.75"
           fill="none" />
        <g
           transform="matrix(1, 0, 0, 1, 16.1494, 29.5)"
           id="g163">
          <text
             font-family="'DroidSans'"
             font-size="3.5"
             fill="#8C8C8C"
             id="text161">RESET</text>
        </g>
        <g
           x="-0.35"
           width="0.7"
           height="0.7"
           y="28.45"
           id="connector85terminal"
           fill="none" />
        <line
           stroke-linecap="round"
           stroke="#787878"
           y1="36"
           stroke-width="0.2469"
           y2="36"
           x1="0.35"
           id="connector49pin"
           x2="14.75"
           fill="none" />
        <g
           transform="matrix(1, 0, 0, 1, 16.1494, 36.7012)"
           id="g169">
          <text
             font-family="'DroidSans'"
             font-size="3.5"
             fill="#8C8C8C"
             id="text167">RESET2</text>
        </g>
        <rect
           x="-0.35"
           width="0.7"
           height="0.7"
           y="35.65"
           id="connector49terminal"
           fill="none" />
        <line
           stroke-linecap="round"
           stroke="#787878"
           y1="43.2"
           stroke-width="0.2469"
           y2="43.2"
           x1="0.35"
           id="connector58pin"
           x2="14.75"
           fill="none" />
        <g
           transform="matrix(1, 0, 0, 1, 16.1494, 43.9004)"
           id="g175">
          <text
             font-family="'DroidSans'"
             font-size="3.5"
             fill="#8C8C8C"
             id="text173">AREF</text>
        </g>
        <g
           x="-0.35"
           width="0.7"
           height="0.7"
           y="42.85"
           id="connector58terminal"
           fill="none" />
        <line
           stroke-linecap="round"
           stroke="#787878"
           y1="50.4"
           stroke-width="0.2469"
           y2="50.4"
           x1="0.35"
           id="connector84pin"
           x2="14.75"
           fill="none" />
        <g
           transform="matrix(1, 0, 0, 1, 16.1494, 51.0996)"
           id="g181">
          <text
             font-family="'DroidSans'"
             font-size="3.5"
             fill="#8C8C8C"
             id="text179">I</text>
        </g>
        <g
           transform="matrix(1, 0, 0, 1, 17.3013, 51.0996)"
           id="g185">
          <text
             font-family="'DroidSans'"
             font-size="3.5"
             fill="#8C8C8C"
             id="text183">O</text>
        </g>
        <g
           transform="matrix(1, 0, 0, 1, 19.8989, 51.0996)"
           id="g189">
          <text
             font-family="'DroidSans'"
             font-size="3.5"
             fill="#8C8C8C"
             id="text187">R</text>
        </g>
        <g
           transform="matrix(1, 0, 0, 1, 21.9634, 51.0996)"
           id="g193">
          <text
             font-family="'DroidSans'"
             font-size="3.5"
             fill="#8C8C8C"
             id="text191">E</text>
        </g>
        <g
           transform="matrix(1, 0, 0, 1, 23.8105, 51.0996)"
           id="g197">
          <text
             font-family="'DroidSans'"
             font-size="3.5"
             fill="#8C8C8C"
             id="text195">F</text>
        </g>
        <g
           x="-0.35"
           width="0.7"
           height="0.7"
           y="50.05"
           id="connector84terminal"
           fill="none" />
        <line
           stroke-linecap="round"
           stroke="#787878"
           y1="64.8"
           stroke-width="0.2469"
           y2="64.8"
           x1="0.35"
           id="line200"
           x2="14.75"
           fill="none" />
        <g
           transform="matrix(1, 0, 0, 1, 16.1494, 65.5)"
           id="g204">
          <text
             font-family="'DroidSans'"
             font-size="3.5"
             fill="#8C8C8C"
             id="text202">A0</text>
        </g>
        <g
           x="-0.35"
           width="0.7"
           height="0.7"
           y="64.45"
           id="g206"
           fill="none" />
        <line
           stroke-linecap="round"
           stroke="#787878"
           y1="72"
           stroke-width="0.2469"
           y2="72"
           x1="0.35"
           id="line208"
           x2="14.75"
           fill="none" />
        <g
           transform="matrix(1, 0, 0, 1, 16.1494, 72.7012)"
           id="g212">
          <text
             font-family="'DroidSans'"
             font-size="3.5"
             fill="#8C8C8C"
             id="text210">A1</text>
        </g>
        <g
           x="-0.35"
           width="0.7"
           height="0.7"
           y="71.65"
           id="g214"
           fill="none" />
        <line
           stroke-linecap="round"
           stroke="#787878"
           y1="79.2"
           stroke-width="0.2469"
           y2="79.2"
           x1="0.35"
           id="line216"
           x2="14.75"
           fill="none" />
        <g
           transform="matrix(1, 0, 0, 1, 16.1494, 79.9004)"
           id="g220">
          <text
             font-family="'DroidSans'"
             font-size="3.5"
             fill="#8C8C8C"
             id="text218">A2</text>
        </g>
        <g
           x="-0.35"
           width="0.7"
           height="0.7"
           y="78.85"
           id="g222"
           fill="none" />
        <line
           stroke-linecap="round"
           stroke="#787878"
           y1="86.4"
           stroke-width="0.2469"
           y2="86.4"
           x1="0.35"
           id="line224"
           x2="14.75"
           fill="none" />
        <g
           transform="matrix(1, 0, 0, 1, 16.1494, 87.0996)"
           id="g228">
          <text
             font-family="'DroidSans'"
             font-size="3.5"
             fill="#8C8C8C"
             id="text226">A3</text>
        </g>
        <g
           x="-0.35"
           width="0.7"
           height="0.7"
           y="86.05"
           id="g230"
           fill="none" />
        <line
           y1="93.6"
           y2="93.6"
           x1="0.35"
           id="connector39pin"
           x2="14.75"
           fill="none" />
        <g
           x="-0.35"
           width="0.7"
           height="0.699"
           y="93.25"
           id="connector39terminal"
           fill="none" />
        <line
           stroke-linecap="round"
           stroke="#787878"
           y1="93.6"
           stroke-width="0.2469"
           y2="93.6"
           x1="0.35"
           id="connector42pin"
           x2="14.75"
           fill="none" />
        <g
           x="-0.35"
           width="0.7"
           height="0.699"
           y="93.25"
           id="connector42terminal"
           fill="none" />
        <line
           y1="93.6"
           y2="93.6"
           x1="0.35"
           id="connector4pin"
           x2="14.75"
           fill="none" />
        <g
           x="-0.35"
           width="0.7"
           height="0.699"
           y="93.25"
           id="connector4terminal"
           fill="none" />
        <line
           stroke-linecap="round"
           stroke="#787878"
           y1="93.6"
           stroke-width="0.2469"
           y2="93.6"
           x1="0.35"
           id="connector59pin"
           x2="14.75"
           fill="none" />
        <g
           x="-0.35"
           width="0.7"
           height="0.699"
           y="93.25"
           id="connector59terminal"
           fill="none" />
        <line
           y1="100.8"
           y2="100.8"
           x1="0.35"
           id="connector5pin"
           x2="14.75"
           fill="none" />
        <g
           x="-0.35"
           width="0.7"
           height="0.701"
           y="100.449"
           id="connector5terminal"
           fill="none" />
        <line
           stroke-linecap="round"
           stroke="#787878"
           y1="100.8"
           stroke-width="0.2469"
           y2="100.8"
           x1="0.35"
           id="connector60pin"
           x2="14.75"
           fill="none" />
        <g
           x="-0.35"
           width="0.7"
           height="0.701"
           y="100.449"
           id="connector60terminal"
           fill="none" />
        <line
           stroke-linecap="round"
           stroke="#787878"
           y1="136.8"
           stroke-width="0.2469"
           y2="136.8"
           x1="0.35"
           id="connector91pin"
           x2="14.75"
           fill="none" />
        <g
           transform="matrix(1, 0, 0, 1, 16.1494, 137.5)"
           id="g247">
          <text
             font-family="'DroidSans'"
             font-size="3.5"
             fill="#8C8C8C"
             id="text245">N/C</text>
        </g>
        <g
           x="-0.35"
           width="0.7"
           height="0.701"
           y="136.449"
           id="connector91terminal"
           fill="none" />
        <line
           y1="165.25"
           y2="179.65"
           x1="57.6"
           id="connector88pin"
           x2="57.6"
           fill="none" />
        <g
           x="57.25"
           width="0.699"
           height="0.699"
           y="179.65"
           id="connector88terminal"
           fill="none" />
        <line
           y1="165.25"
           y2="179.65"
           x1="57.6"
           id="connector57pin"
           x2="57.6"
           fill="none" />
        <g
           x="57.25"
           width="0.699"
           height="0.699"
           y="179.65"
           id="connector57terminal"
           fill="none" />
        <line
           y1="165.25"
           y2="179.65"
           x1="57.6"
           id="connector44pin"
           x2="57.6"
           fill="none" />
        <g
           x="57.25"
           width="0.699"
           height="0.699"
           y="179.65"
           id="connector44terminal"
           fill="none" />
        <line
           y1="165.25"
           y2="179.65"
           x1="57.6"
           id="connector50pin"
           x2="57.6"
           fill="none" />
        <rect
           x="57.25"
           width="0.699"
           height="0.699"
           y="179.65"
           id="connector50terminal"
           fill="none" />
        <line
           stroke-linecap="round"
           stroke="#787878"
           y1="165.25"
           stroke-width="0.2469"
           y2="179.65"
           x1="57.6"
           id="connector89pin"
           x2="57.6"
           fill="none" />
        <g
           transform="matrix(1, 0, 0, 1, 20.5669, 57.8026)"
           id="g269">
          <g
             id="g267">
            <g
               transform="rotate(270)"
               id="g265">
              <g
                 id="g263">
                <g
                   transform="matrix(1, 0, 0, 1, -106.047, 37.7329)"
                   id="g261">
                  <text
                     font-family="'DroidSans'"
                     font-size="3.5"
                     fill="#8C8C8C"
                     id="text259">GND</text>
                </g>
              </g>
            </g>
          </g>
        </g>
        <g
           x="57.25"
           width="0.699"
           height="0.699"
           y="179.65"
           id="connector89terminal"
           fill="none" />
        <line
           stroke-linecap="round"
           stroke="#787878"
           y1="0.35"
           stroke-width="0.2469"
           y2="14.75"
           x1="36"
           id="connector86pin"
           x2="36"
           fill="none" />
        <g
           transform="matrix(1, 0, 0, 1, 12.9469, 5.69736)"
           id="g283">
          <g
             id="g281">
            <g
               transform="rotate(270)"
               id="g279">
              <g
                 id="g277">
                <g
                   transform="matrix(1, 0, 0, 1, -16.2968, 23.7533)"
                   id="g275">
                  <text
                     font-family="'DroidSans'"
                     font-size="3.5"
                     fill="#8C8C8C"
                     id="text273">3V3</text>
                </g>
              </g>
            </g>
          </g>
        </g>
        <g
           x="35.65"
           width="0.7"
           height="0.7"
           y="-0.35"
           id="connector86terminal"
           fill="none" />
        <line
           y1="0.35"
           y2="14.75"
           x1="50.4"
           id="connector40pin"
           x2="50.4"
           fill="none" />
        <g
           x="50.05"
           width="0.7"
           height="0.7"
           y="-0.35"
           id="connector40terminal"
           fill="none" />
        <line
           y1="0.35"
           y2="14.75"
           x1="50.4"
           id="connector46pin"
           x2="50.4"
           fill="none" />
        <rect
           x="50.05"
           width="0.7"
           height="0.7"
           y="-0.35"
           id="connector46terminal"
           fill="none" />
        <line
           stroke-linecap="round"
           stroke="#787878"
           y1="0.35"
           stroke-width="0.2469"
           y2="14.75"
           x1="50.4"
           id="connector87pin"
           x2="50.4"
           fill="none" />
        <g
           transform="matrix(1, 0, 0, 1, 18.0269, 5.69736)"
           id="g301">
          <g
             id="g299">
            <g
               transform="rotate(270)"
               id="g297">
              <g
                 id="g295">
                <g
                   transform="matrix(1, 0, 0, 1, -14.369, 33.0737)"
                   id="g293">
                  <text
                     font-family="'DroidSans'"
                     font-size="3.5"
                     fill="#8C8C8C"
                     id="text291">5V</text>
                </g>
              </g>
            </g>
          </g>
        </g>
        <g
           x="50.05"
           width="0.7"
           height="0.7"
           y="-0.35"
           id="connector87terminal"
           fill="none" />
        <line
           stroke-linecap="round"
           stroke="#787878"
           y1="0.35"
           stroke-width="0.2469"
           y2="14.75"
           x1="64.8"
           id="connector90pin"
           x2="64.8"
           fill="none" />
        <g
           transform="matrix(1, 0, 0, 1, 23.1069, 5.69736)"
           id="g315">
          <g
             id="g313">
            <g
               transform="rotate(270)"
               id="g311">
              <g
                 id="g309">
                <g
                   transform="matrix(1, 0, 0, 1, -16.1776, 42.3922)"
                   id="g307">
                  <text
                     font-family="'DroidSans'"
                     font-size="3.5"
                     fill="#8C8C8C"
                     id="text305">VIN</text>
                </g>
              </g>
            </g>
          </g>
        </g>
        <g
           x="64.449"
           width="0.701"
           height="0.7"
           y="-0.35"
           id="connector90terminal"
           fill="none" />
        <g
           transform="matrix(1, 0, 0, 1, 46.7861, 81.3828)"
           id="g319">
          <text
             font-family="'DroidSans'"
             font-size="4.25"
             id="label">Arduino</text>
        </g>
        <g
           transform="matrix(1, 0, 0, 1, 50.4893, 85.916)"
           id="g322">
          <text
             font-family="'DroidSans'"
             font-size="4.25"
             id="label_1_">Uno</text>
        </g>
        <g
           transform="matrix(1, 0, 0, 1, 48.5928, 90.4512)"
           id="g325">
          <text
             font-family="'DroidSans'"
             font-size="4.25"
             id="label_2_">(Rev3)</text>
        </g>
        <g
           transform="matrix(1, 0, 0, 1, 50.1416, 94.9844)"
           id="g329">
          <text
             font-family="'DroidSans'"
             font-size="4.25"
             id="text327">I</text>
        </g>
        <g
           transform="matrix(1, 0, 0, 1, 51.54, 94.9844)"
           id="g333">
          <text
             font-family="'DroidSans'"
             font-size="4.25"
             id="text331">C</text>
        </g>
        <g
           transform="matrix(1, 0, 0, 1, 54.103, 94.9844)"
           id="g337">
          <text
             font-family="'DroidSans'"
             font-size="4.25"
             id="text335">S</text>
        </g>
        <g
           transform="matrix(1, 0, 0, 1, 56.3086, 94.9844)"
           id="g341">
          <text
             font-family="'DroidSans'"
             font-size="4.25"
             id="text339">P</text>
        </g>
        <g
           transform="matrix(1, 0, 0, 1, 16.1494, 94.9844)"
           id="g345">
          <text
             font-family="'DroidSans'"
             font-size="3.5"
             fill="#8C8C8C"
             id="text343">A4/SDA</text>
        </g>
        <g
           transform="matrix(1, 0, 0, 1, 16.1494, 102.184)"
           id="g349">
          <text
             font-family="'DroidSans'"
             font-size="3.5"
             fill="#8C8C8C"
             id="text347">A5/SCL</text>
        </g>
      </g>
    </g>
  </g>
  <g
     partID="854113700"
     id="g359">
    <line
       stroke-linecap="round"
       stroke="#404040"
       y1="8.31956"
       stroke-width="0.699998"
       y2="73.085"
       x1="15.3811"
       x2="15.4633"
       id="line357" />
  </g>
  <g
     partID="854113800"
     id="g363">
    <line
       stroke-linecap="round"
       stroke="#404040"
       y1="8.31956"
       stroke-width="0.699998"
       y2="8.31956"
       x1="73.0505"
       x2="15.3811"
       id="line361" />
  </g>
  <g
     partID="854113710"
     id="g367">
    <line
       stroke-linecap="round"
       stroke="#404040"
       y1="15.485"
       stroke-width="0.699998"
       y2="8.31955"
       x1="73.0503"
       x2="73.0505"
       id="line365" />
  </g>
  <g
     partID="854114030"
     id="g371">
    <line
       stroke-linecap="round"
       stroke="#404040"
       y1="1.05028"
       stroke-width="0.699998"
       y2="73.085"
       x1="1.08487"
       x2="1.05028"
       id="line369" />
  </g>
  <g
     partID="854113910"
     id="g375">
    <line
       stroke-linecap="round"
       stroke="#404040"
       y1="1.05839"
       stroke-width="0.699998"
       y2="1.05028"
       x1="137.957"
       x2="1.08487"
       id="line373" />
  </g>
  <g
     partID="854114100"
     id="g379">
    <line
       stroke-linecap="round"
       stroke="#404040"
       y1="58.7116"
       stroke-width="0.699998"
       y2="1.05839"
       x1="137.957"
       x2="137.957"
       id="line377" />
  </g>
  <g
     partID="854113920"
     id="g383">
    <line
       stroke-linecap="round"
       stroke="#404040"
       y1="58.685"
       stroke-width="0.699998"
       y2="58.7116"
       x1="130.65"
       x2="137.957"
       id="line381" />
  </g>
  <g
     partID="854113060"
     id="g387">
    <line
       stroke-linecap="round"
       stroke="#404040"
       y1="195.479"
       stroke-width="0.699998"
       y2="100.923"
       x1="15.5024"
       x2="15.4643"
       id="line385" />
  </g>
  <g
     partID="854112460"
     id="g391">
    <line
       stroke-linecap="round"
       stroke="#404040"
       y1="195.484"
       stroke-width="0.699998"
       y2="195.478"
       x1="80.2498"
       x2="15.5024"
       id="line389" />
  </g>
  <g
     partID="854107360"
     id="g407">
    <g
       transform="translate(0.516952,64.66)"
       id="g405">
      <g
         font-family="'DroidSans'"
         fill-opacity="1"
         stroke="none"
         font-size="5"
         font-style="normal"
         font-weight="normal"
         id="g403"
         fill="#000000">
        <text
           x="0"
           y="3.75"
           id="text401">S1</text>
      </g>
    </g>
  </g>
</svg>
