<?xml version='1.0' encoding='UTF-8' standalone='no'?>
<!-- Created with Fritzing (https://fritzing.org/) -->
<svg xmlns="http://www.w3.org/2000/svg" x="0in" height="3.15021in" viewBox="0 0 199.878 226.815" baseProfile="tiny" xmlns:svg="http://www.w3.org/2000/svg" width="2.77608in" y="0in" version="1.2" >
 <g id="watermark" >
  <g >
   <g >
    <path fill="#8C8C8C" d="M175.146,220.615c-0.604,0,-1.131,0.325,-1.422,0.809l-2.796,0l3.96,-4.071c0.146,-0.146,0.289,-0.322,0.428,-0.521c0.149,-0.222,0.228,-0.479,0.228,-0.768c0,-0.279,-0.097,-0.518,-0.287,-0.71c-0.19,-0.188,-0.444,-0.287,-0.754,-0.287l-4.636,0c-0.305,0,-0.555,0.06,-0.742,0.17c-0.219,0.13,-0.33,0.368,-0.33,0.707c0,0.329,0.111,0.562,0.33,0.692c0.188,0.111,0.438,0.168,0.742,0.168l3.148,0l-3.974,4.086c-0.146,0.147,-0.289,0.315,-0.425,0.504c-0.153,0.212,-0.23,0.472,-0.23,0.771c0,0.28,0.096,0.521,0.288,0.711c0.188,0.188,0.442,0.285,0.754,0.285l4.315,0c0.293,0.467,0.812,0.776,1.4,0.776c0.916,0,1.66,-0.744,1.66,-1.661C176.805,221.36,176.06,220.615,175.146,220.615zM175.146,222.878c-0.334,0,-0.604,-0.271,-0.604,-0.604c0,-0.333,0.27,-0.604,0.604,-0.604c0.332,0,0.604,0.271,0.604,0.604C175.749,222.609,175.478,222.878,175.146,222.878z" />
    <path fill="#8C8C8C" d="M158.203,210.573c-0.914,0,-1.659,0.745,-1.659,1.66c0,0.916,0.745,1.66,1.659,1.66s1.658,-0.744,1.658,-1.66C159.863,211.318,159.119,210.573,158.203,210.573zM158.204,212.836c-0.333,0,-0.604,-0.27,-0.604,-0.603s0.271,-0.603,0.604,-0.603c0.331,0,0.604,0.27,0.604,0.603S158.535,212.836,158.204,212.836z" />
    <path fill="#8C8C8C" d="M166.724,215.235c-0.193,-0.111,-0.439,-0.169,-0.732,-0.169l-1.465,0L164.527,212.544c0,-0.292,-0.057,-0.538,-0.166,-0.729C164.271,211.658,164.078,211.473,163.668,211.473c-0.34,0,-0.578,0.116,-0.709,0.342c-0.109,0.193,-0.167,0.438,-0.167,0.729l0,2.521l-0.481,0c-0.295,0,-0.539,0.06,-0.731,0.169c-0.228,0.129,-0.341,0.368,-0.341,0.708c0,0.412,0.185,0.603,0.341,0.692c0.192,0.111,0.438,0.168,0.731,0.168l0.481,0l0,4.362c0,0.277,0.026,0.533,0.081,0.768c0.056,0.246,0.154,0.464,0.298,0.645c0.146,0.186,0.345,0.332,0.595,0.436c0.241,0.098,0.555,0.146,0.93,0.146l0.896,0c0.292,0,0.539,-0.054,0.731,-0.166c0.154,-0.089,0.341,-0.281,0.341,-0.693c0,-0.338,-0.114,-0.578,-0.341,-0.709c-0.192,-0.109,-0.439,-0.168,-0.731,-0.168l-0.821,0c-0.138,0,-0.19,-0.019,-0.207,-0.024c-0.014,-0.034,-0.035,-0.103,-0.035,-0.231L164.529,216.803l1.465,0c0.295,0,0.541,-0.057,0.734,-0.168c0.152,-0.09,0.34,-0.28,0.34,-0.692C167.064,215.603,166.951,215.364,166.724,215.235z" />
    <path fill="#8C8C8C" d="M158.269,215.065l-1.191,0c-0.292,0,-0.538,0.059,-0.731,0.169c-0.226,0.129,-0.341,0.368,-0.341,0.708c0,0.412,0.188,0.604,0.341,0.691c0.193,0.113,0.439,0.168,0.731,0.168l0.544,0l0,5.362c0,0.293,0.057,0.539,0.167,0.73c0.131,0.227,0.367,0.341,0.708,0.341c0.411,0,0.604,-0.187,0.692,-0.341c0.111,-0.191,0.168,-0.438,0.168,-0.73L159.357,216.153c0,-0.386,-0.084,-0.656,-0.256,-0.83C158.926,215.151,158.656,215.065,158.269,215.065z" />
    <path fill="#8C8C8C" d="M154.434,215.235c-0.193,-0.111,-0.44,-0.169,-0.732,-0.169l-0.604,0c-0.25,0,-0.498,0.063,-0.734,0.187c-0.226,0.119,-0.433,0.271,-0.616,0.453l-0.644,0.604l0,-0.247c0,-0.291,-0.055,-0.538,-0.168,-0.729c-0.128,-0.228,-0.368,-0.34,-0.707,-0.34c-0.41,0,-0.604,0.184,-0.693,0.34c-0.11,0.191,-0.167,0.438,-0.167,0.729l0,4.801c-0.475,0.293,-0.791,0.816,-0.791,1.412c0,0.917,0.745,1.661,1.658,1.661c0.916,0,1.66,-0.744,1.66,-1.661c0,-0.596,-0.317,-1.119,-0.792,-1.412l0,-2.21l1.738,-1.564c0.1,-0.09,0.199,-0.164,0.297,-0.217c0.084,-0.045,0.174,-0.067,0.274,-0.067l0.288,0c0.292,0,0.539,-0.056,0.732,-0.169c0.155,-0.088,0.339,-0.279,0.339,-0.691C154.774,215.603,154.659,215.364,154.434,215.235zM150.235,222.878c-0.332,0,-0.603,-0.271,-0.603,-0.604c0,-0.333,0.271,-0.604,0.603,-0.604c0.333,0,0.604,0.271,0.604,0.604C150.839,222.609,150.568,222.878,150.235,222.878z" />
    <path fill="#8C8C8C" d="M147.718,211.716c-0.193,-0.111,-0.44,-0.167,-0.731,-0.167l-0.59,0c-0.2,0,-0.389,0.004,-0.562,0.016c-0.176,0.009,-0.345,0.035,-0.506,0.07c-0.168,0.041,-0.336,0.109,-0.496,0.202c-0.158,0.093,-0.319,0.222,-0.48,0.382c-0.334,0.314,-0.554,0.656,-0.652,1.017c-0.094,0.348,-0.143,0.735,-0.143,1.151l0,0.678l-0.483,0c-0.292,0,-0.539,0.059,-0.73,0.169c-0.227,0.13,-0.342,0.369,-0.342,0.708c0,0.412,0.185,0.604,0.341,0.693c0.191,0.111,0.438,0.166,0.73,0.166l0.483,0l0,5.362c0,0.293,0.057,0.539,0.167,0.73c0.13,0.227,0.367,0.341,0.708,0.341c0.411,0,0.603,-0.187,0.692,-0.341c0.111,-0.191,0.168,-0.438,0.168,-0.73l0,-5.36l0.92,0c0.293,0,0.54,-0.057,0.732,-0.168c0.155,-0.09,0.34,-0.28,0.34,-0.692c0,-0.34,-0.114,-0.579,-0.34,-0.708c-0.189,-0.111,-0.436,-0.17,-0.729,-0.17l-0.92,0l0,-0.678c0,-0.218,0.019,-0.41,0.056,-0.571c0.032,-0.141,0.103,-0.261,0.218,-0.367l0.002,-0.004l0.002,-0.002c0.082,-0.082,0.176,-0.126,0.29,-0.136c0.15,-0.015,0.339,-0.022,0.564,-0.022l0.56,0c0.291,0,0.539,-0.058,0.731,-0.168c0.154,-0.088,0.339,-0.281,0.339,-0.693C148.058,212.085,147.943,211.846,147.718,211.716z" />
    <path fill="#8C8C8C" d="M199.711,215.333c-0.089,-0.156,-0.282,-0.34,-0.693,-0.34c-0.339,0,-0.578,0.113,-0.707,0.34c-0.078,0.133,-0.127,0.293,-0.152,0.477l-0.021,-0.021c-0.216,-0.236,-0.466,-0.42,-0.747,-0.539c-0.277,-0.119,-0.563,-0.183,-0.849,-0.183l-0.709,0c-0.249,0,-0.466,0.015,-0.64,0.041c-0.182,0.026,-0.352,0.074,-0.51,0.14c-0.158,0.066,-0.313,0.15,-0.459,0.254c-0.139,0.097,-0.303,0.226,-0.486,0.377c-0.188,0.156,-0.342,0.302,-0.463,0.434c-0.127,0.141,-0.23,0.293,-0.306,0.455c-0.069,0.16,-0.122,0.337,-0.147,0.523c-0.026,0.178,-0.041,0.391,-0.041,0.631l0,2.386c0,0.24,0.015,0.451,0.041,0.631c0.025,0.188,0.078,0.361,0.147,0.521c0.074,0.164,0.179,0.318,0.306,0.457c0.119,0.129,0.274,0.274,0.463,0.433c0.186,0.153,0.35,0.28,0.486,0.379c0.146,0.103,0.299,0.188,0.459,0.254c0.158,0.065,0.329,0.112,0.51,0.14c0.174,0.026,0.389,0.039,0.64,0.039l0.709,0c0.298,0,0.591,-0.066,0.87,-0.199c0.244,-0.114,0.492,-0.291,0.73,-0.523l0,1.434c0,0.18,-0.025,0.334,-0.072,0.465c-0.043,0.119,-0.159,0.258,-0.344,0.406c-0.154,0.127,-0.309,0.217,-0.457,0.264c-0.15,0.049,-0.341,0.074,-0.563,0.074l-2.203,0c-0.293,0,-0.538,0.055,-0.732,0.166c-0.152,0.088,-0.34,0.282,-0.34,0.692c0,0.341,0.115,0.579,0.34,0.71c0.194,0.109,0.439,0.167,0.732,0.167l2.326,0c0.247,0,0.463,-0.015,0.638,-0.041c0.179,-0.026,0.351,-0.073,0.513,-0.14c0.153,-0.064,0.31,-0.15,0.455,-0.254c0.143,-0.101,0.305,-0.227,0.487,-0.379c0.185,-0.153,0.343,-0.299,0.463,-0.431c0.128,-0.141,0.229,-0.294,0.304,-0.456c0.071,-0.162,0.123,-0.338,0.148,-0.523c0.025,-0.182,0.041,-0.393,0.041,-0.631l0,-7.898C199.878,215.771,199.824,215.524,199.711,215.333zM198.142,219.793c0,0.188,-0.062,0.35,-0.188,0.49c-0.15,0.172,-0.394,0.403,-0.716,0.686l-0.002,0.003l-0.002,0.004c-0.139,0.13,-0.291,0.237,-0.453,0.325c-0.148,0.082,-0.325,0.121,-0.526,0.121L195.954,221.422c-0.222,0,-0.41,-0.021,-0.563,-0.072c-0.148,-0.049,-0.301,-0.137,-0.453,-0.264c-0.231,-0.186,-0.315,-0.322,-0.346,-0.404c-0.049,-0.131,-0.072,-0.285,-0.072,-0.465l0,-2.206c0,-0.18,0.023,-0.336,0.072,-0.467c0.029,-0.082,0.113,-0.217,0.346,-0.403c0.152,-0.127,0.305,-0.216,0.453,-0.265c0.153,-0.049,0.342,-0.072,0.563,-0.072l0.301,0c0.212,0,0.388,0.037,0.526,0.113c0.152,0.082,0.308,0.191,0.457,0.324c0.322,0.293,0.564,0.529,0.716,0.7c0.128,0.146,0.188,0.304,0.188,0.492L198.142,219.793z" />
    <path fill="#8C8C8C" d="M179.732,210.573c-0.914,0,-1.66,0.745,-1.66,1.66c0,0.916,0.746,1.66,1.66,1.66s1.66,-0.744,1.66,-1.66C181.392,211.318,180.646,210.573,179.732,210.573zM179.732,212.836c-0.332,0,-0.604,-0.27,-0.604,-0.603s0.271,-0.603,0.604,-0.603s0.604,0.27,0.604,0.603C180.336,212.566,180.064,212.836,179.732,212.836z" />
    <path fill="#8C8C8C" d="M190.418,220.841l-0.107,-3.419c-0.011,-0.178,-0.021,-0.338,-0.031,-0.489c-0.01,-0.162,-0.037,-0.322,-0.082,-0.476c-0.045,-0.158,-0.11,-0.309,-0.198,-0.453c-0.093,-0.146,-0.216,-0.289,-0.37,-0.42c-0.225,-0.192,-0.443,-0.334,-0.646,-0.416c-0.207,-0.084,-0.461,-0.127,-0.754,-0.127l-1.012,0c-0.259,0,-0.501,0.058,-0.716,0.164c-0.197,0.098,-0.39,0.203,-0.572,0.315l-0.003,0.002l-0.003,0.003l-0.837,0.555l0,-0.041c0,-0.291,-0.057,-0.539,-0.168,-0.733c-0.129,-0.226,-0.367,-0.339,-0.707,-0.339c-0.411,0,-0.604,0.185,-0.693,0.339c-0.109,0.194,-0.168,0.438,-0.168,0.733l0,6.099c0,0.295,0.059,0.539,0.168,0.734c0.09,0.153,0.282,0.338,0.693,0.338c0.34,0,0.578,-0.114,0.707,-0.338c0.111,-0.195,0.168,-0.439,0.168,-0.734L185.087,218.103l1.953,-1.215c0.04,-0.024,0.082,-0.048,0.121,-0.063c0.031,-0.016,0.07,-0.025,0.115,-0.031c0.049,-0.012,0.117,-0.016,0.195,-0.016l0.362,0c0.188,0,0.334,0.021,0.435,0.059c0.082,0.029,0.143,0.076,0.18,0.143c0.05,0.078,0.08,0.18,0.098,0.303c0.02,0.139,0.034,0.309,0.045,0.504l0.096,3.097c-0.457,0.297,-0.762,0.811,-0.762,1.394c0,0.917,0.746,1.661,1.66,1.661c0.916,0,1.66,-0.744,1.66,-1.661C191.244,221.666,190.911,221.128,190.418,220.841zM189.584,222.878c-0.334,0,-0.602,-0.271,-0.602,-0.604c0,-0.333,0.268,-0.604,0.602,-0.604c0.333,0,0.604,0.271,0.604,0.604C190.189,222.609,189.917,222.878,189.584,222.878z" />
    <path fill="#8C8C8C" d="M179.795,215.065l-1.193,0c-0.293,0,-0.539,0.059,-0.731,0.169c-0.226,0.129,-0.341,0.368,-0.341,0.708c0,0.412,0.186,0.604,0.341,0.691c0.192,0.113,0.438,0.168,0.731,0.168l0.545,0l0,5.362c0,0.293,0.055,0.539,0.168,0.73c0.127,0.227,0.365,0.341,0.707,0.341c0.41,0,0.604,-0.187,0.691,-0.341c0.111,-0.191,0.17,-0.438,0.17,-0.73L180.883,216.153c0,-0.386,-0.085,-0.656,-0.259,-0.83C180.452,215.151,180.179,215.065,179.795,215.065z" />
   </g>
  </g>
 </g>
 <g partID="854106460">
  <g transform="translate(58.976,187.889)">
   <g transform="matrix(-1,0,0,-1,0,0)">
    <g id="schematic" >
     <path fill="#787878" d="M34.179,9.778l0.875,0c0.188,0,0.354,0.015,0.495,0.043c0.144,0.029,0.265,0.075,0.356,0.139c0.099,0.063,0.171,0.147,0.218,0.251c0.049,0.103,0.071,0.23,0.071,0.381c0,0.091,-0.014,0.176,-0.043,0.255c-0.026,0.079,-0.067,0.148,-0.123,0.209c-0.055,0.06,-0.12,0.11,-0.2,0.15s-0.17,0.066,-0.271,0.08l0,0.021c0.102,0.018,0.195,0.043,0.284,0.076c0.089,0.033,0.166,0.078,0.229,0.137c0.066,0.058,0.119,0.131,0.156,0.219c0.039,0.088,0.06,0.194,0.06,0.32c0,0.146,-0.024,0.277,-0.072,0.393c-0.047,0.114,-0.116,0.212,-0.207,0.292c-0.09,0.08,-0.198,0.141,-0.327,0.184c-0.13,0.042,-0.273,0.063,-0.438,0.063l-1.063,0L34.179,9.778zM34.586,11.142l0.535,0c0.123,0,0.228,-0.012,0.312,-0.033c0.084,-0.022,0.149,-0.055,0.201,-0.098c0.053,-0.044,0.09,-0.098,0.11,-0.163c0.022,-0.065,0.034,-0.141,0.034,-0.228c0,-0.176,-0.057,-0.302,-0.17,-0.378c-0.112,-0.076,-0.291,-0.114,-0.532,-0.114l-0.49,0L34.586,11.142zM34.586,11.483l0,1.16l0.584,0c0.129,0,0.235,-0.014,0.324,-0.043c0.088,-0.029,0.157,-0.07,0.211,-0.123s0.092,-0.116,0.114,-0.19c0.022,-0.074,0.035,-0.155,0.035,-0.245c0,-0.082,-0.013,-0.157,-0.037,-0.227c-0.022,-0.068,-0.063,-0.128,-0.116,-0.177c-0.056,-0.049,-0.13,-0.087,-0.22,-0.114c-0.092,-0.027,-0.205,-0.041,-0.338,-0.041L34.586,11.483z" />
     <path d="M18.565,15.1c-0.193,0,-0.35,-0.157,-0.35,-0.35l0,-7.2c0,-0.193,0.157,-0.35,0.35,-0.35s0.35,0.157,0.35,0.35l0,7.2C18.916,14.943,18.758,15.1,18.565,15.1z" />
     <path fill="none" d="M18.565,7.55L18.565,7.55L18.565,7.55z" />
     <path fill="#787878" d="M21.059,11.295l1.063,0l0,1.575c-0.081,0.026,-0.162,0.05,-0.243,0.07c-0.083,0.021,-0.167,0.038,-0.254,0.052c-0.086,0.014,-0.178,0.024,-0.271,0.032c-0.096,0.007,-0.197,0.011,-0.309,0.011c-0.229,0,-0.434,-0.038,-0.61,-0.115c-0.176,-0.077,-0.327,-0.187,-0.448,-0.33c-0.121,-0.143,-0.213,-0.316,-0.276,-0.521c-0.063,-0.205,-0.095,-0.434,-0.095,-0.688c0,-0.252,0.035,-0.479,0.104,-0.684c0.07,-0.203,0.171,-0.377,0.305,-0.521c0.133,-0.143,0.297,-0.253,0.493,-0.33c0.195,-0.076,0.418,-0.115,0.668,-0.115c0.163,0,0.318,0.017,0.47,0.049c0.147,0.032,0.287,0.079,0.418,0.141l-0.158,0.355c-0.053,-0.024,-0.11,-0.048,-0.172,-0.07c-0.062,-0.021,-0.123,-0.041,-0.188,-0.058c-0.064,-0.018,-0.131,-0.03,-0.197,-0.041c-0.068,-0.01,-0.137,-0.016,-0.205,-0.016c-0.178,0,-0.336,0.03,-0.475,0.089c-0.137,0.06,-0.252,0.146,-0.346,0.257c-0.094,0.111,-0.164,0.246,-0.211,0.406c-0.049,0.159,-0.073,0.34,-0.073,0.54c0,0.19,0.021,0.365,0.062,0.523c0.039,0.158,0.104,0.294,0.191,0.408c0.088,0.114,0.201,0.203,0.34,0.267c0.141,0.063,0.307,0.094,0.504,0.094c0.064,0,0.123,-0.002,0.178,-0.005c0.054,-0.004,0.103,-0.009,0.146,-0.015c0.046,-0.006,0.089,-0.013,0.129,-0.021c0.041,-0.009,0.08,-0.016,0.117,-0.023l0,-0.958L21.06,11.653L21.059,11.295L21.059,11.295z" />
     <path d="M32.963,15.1c-0.192,0,-0.351,-0.157,-0.351,-0.35L32.612,7.9L4.515,7.9l0,6.85c0,0.193,-0.157,0.35,-0.35,0.35s-0.35,-0.157,-0.35,-0.35L3.815,7.2l29.499,0l0,7.55C33.313,14.943,33.155,15.1,32.963,15.1z" />
     <path fill="#787878" d="M5.787,11.664l0,1.327L5.379,12.991L5.379,9.778l0.782,0c0.389,0,0.677,0.076,0.863,0.227c0.186,0.151,0.279,0.38,0.279,0.686c0,0.128,-0.018,0.239,-0.054,0.334c-0.036,0.096,-0.083,0.177,-0.143,0.245s-0.127,0.125,-0.204,0.171c-0.076,0.045,-0.154,0.082,-0.235,0.111l0.875,1.439L7.061,12.991L6.29,11.664L5.787,11.664zM5.787,11.317l0.36,0c0.132,0,0.244,-0.014,0.336,-0.039c0.092,-0.025,0.168,-0.063,0.228,-0.114c0.059,-0.051,0.103,-0.113,0.129,-0.188c0.027,-0.076,0.041,-0.164,0.041,-0.266c0,-0.105,-0.015,-0.194,-0.045,-0.268c-0.03,-0.073,-0.075,-0.133,-0.136,-0.18c-0.061,-0.046,-0.138,-0.08,-0.231,-0.102c-0.093,-0.021,-0.203,-0.032,-0.331,-0.032L5.787,10.128L5.787,11.317z" />
     <path d="M36.563,15.1l-3.602,0c-0.193,0,-0.35,-0.157,-0.35,-0.35s0.156,-0.35,0.35,-0.35l3.602,0c0.193,0,0.352,0.157,0.352,0.35S36.758,15.1,36.563,15.1z" />
     <path d="M32.963,15.1l-3.598,0c-0.193,0,-0.351,-0.157,-0.351,-0.35s0.155,-0.35,0.351,-0.35l3.598,0c0.192,0,0.351,0.157,0.351,0.35S33.155,15.1,32.963,15.1z" />
     <polygon points="36.563,21.951,32.963,21.951,29.365,21.951,32.963,14.75" fill="#FFFFFF" />
     <path d="M37.131,22.3l-8.332,0l4.164,-8.333L37.131,22.3zM29.933,21.599l6.065,0l-3.035,-6.066L29.933,21.599z" />
     <path d="M32.963,22.175c-0.124,0,-0.226,-0.102,-0.226,-0.225L32.737,14.75c0,-0.124,0.102,-0.225,0.226,-0.225s0.226,0.101,0.226,0.225l0,7.201C33.188,22.074,33.087,22.175,32.963,22.175z" />
     <path d="M37.582,16.414c-0.06,0,-0.115,-0.021,-0.159,-0.063c-0.088,-0.088,-0.088,-0.229,0,-0.317l2.34,-2.34c0.088,-0.088,0.229,-0.088,0.318,0c0.088,0.088,0.088,0.23,0,0.318L37.74,16.35C37.696,16.392,37.64,16.414,37.582,16.414z" />
     <path d="M37.224,13.176c-0.059,0,-0.115,-0.022,-0.158,-0.066c-0.09,-0.088,-0.09,-0.23,0,-0.318l2.34,-2.34c0.088,-0.088,0.229,-0.088,0.316,0s0.088,0.23,0,0.318l-2.34,2.34C37.338,13.154,37.278,13.176,37.224,13.176z" />
     <path d="M41.542,12.231l-1.08,2.52l-1.438,-1.439L41.542,12.231z" />
     <path d="M41.183,8.991l-1.078,2.52l-1.438,-1.438L41.183,8.991z" />
     <path d="M22.165,15.1l-3.599,0c-0.193,0,-0.35,-0.157,-0.35,-0.35s0.157,-0.35,0.35,-0.35l3.599,0c0.193,0,0.35,0.157,0.35,0.35S22.358,15.1,22.165,15.1z" />
     <path d="M18.565,15.1l-3.601,0c-0.193,0,-0.35,-0.157,-0.35,-0.35s0.157,-0.35,0.35,-0.35l3.601,0c0.193,0,0.35,0.157,0.35,0.35S18.758,15.1,18.565,15.1z" />
     <polygon points="22.165,21.951,18.565,21.951,14.964,21.951,18.565,14.75" fill="#FFFFFF" />
     <path d="M22.731,22.3l-8.333,0l4.167,-8.333L22.731,22.3zM15.53,21.599l6.067,0l-3.033,-6.066L15.53,21.599z" />
     <path d="M18.565,22.175c-0.124,0,-0.225,-0.102,-0.225,-0.225L18.34,14.75c0,-0.124,0.101,-0.225,0.225,-0.225s0.225,0.101,0.225,0.225l0,7.201C18.791,22.074,18.689,22.175,18.565,22.175z" />
     <path d="M23.183,16.414c-0.058,0,-0.113,-0.021,-0.158,-0.063c-0.088,-0.088,-0.088,-0.229,0,-0.317l2.342,-2.34c0.088,-0.088,0.229,-0.088,0.316,0c0.09,0.088,0.09,0.23,0,0.318l-2.341,2.339C23.298,16.392,23.24,16.414,23.183,16.414z" />
     <path d="M22.821,13.176c-0.057,0,-0.114,-0.022,-0.159,-0.066c-0.088,-0.088,-0.088,-0.23,0,-0.318l2.34,-2.34c0.088,-0.088,0.229,-0.088,0.317,0s0.088,0.23,0,0.318l-2.34,2.34C22.938,13.154,22.88,13.176,22.821,13.176z" />
     <path d="M27.144,12.231l-1.08,2.52l-1.438,-1.439L27.144,12.231z" />
     <path d="M26.783,8.991l-1.08,2.52l-1.438,-1.438L26.783,8.991z" />
     <path d="M7.766,15.1L4.165,15.1c-0.193,0,-0.35,-0.157,-0.35,-0.35s0.157,-0.35,0.35,-0.35l3.601,0c0.193,0,0.35,0.157,0.35,0.35S7.959,15.1,7.766,15.1z" />
     <path d="M4.165,15.1L0.566,15.1c-0.193,0,-0.35,-0.157,-0.35,-0.35s0.157,-0.35,0.35,-0.35l3.599,0c0.193,0,0.35,0.157,0.35,0.35S4.359,15.1,4.165,15.1z" />
     <polygon points="7.766,21.951,4.165,21.951,0.566,21.951,4.165,14.75" fill="#FFFFFF" />
     <path d="M8.332,22.3L0,22.3l4.166,-8.333L8.332,22.3zM1.133,21.599L7.2,21.599l-3.034,-6.066L1.133,21.599z" />
     <path d="M4.165,22.175c-0.124,0,-0.225,-0.102,-0.225,-0.225L3.94,14.75c0,-0.124,0.101,-0.225,0.225,-0.225S4.39,14.626,4.39,14.75l0,7.201C4.39,22.074,4.289,22.175,4.165,22.175z" />
     <path d="M8.783,16.414c-0.058,0,-0.115,-0.021,-0.159,-0.063c-0.088,-0.088,-0.088,-0.229,0,-0.317l2.339,-2.34c0.088,-0.088,0.23,-0.088,0.318,0c0.088,0.088,0.088,0.23,0,0.318L8.942,16.35C8.898,16.392,8.841,16.414,8.783,16.414z" />
     <path d="M8.422,13.176c-0.058,0,-0.115,-0.022,-0.159,-0.066c-0.087,-0.088,-0.087,-0.23,0,-0.318l2.341,-2.34c0.088,-0.088,0.23,-0.088,0.318,0s0.088,0.23,0,0.318l-2.341,2.34C8.537,13.154,8.48,13.176,8.422,13.176z" />
     <path d="M12.743,12.231l-1.08,2.52l-1.439,-1.439L12.743,12.231z" />
     <path d="M12.382,8.991l-1.08,2.52l-1.438,-1.438L12.382,8.991z" />
     <g >
      <path fill="#787878" id="connector3pin" d="M32.964,29.5c-0.193,0,-0.35,-0.156,-0.35,-0.35l0,-7.199c0,-0.193,0.156,-0.352,0.35,-0.352c0.194,0,0.35,0.156,0.35,0.352l0,7.199C33.313,29.343,33.157,29.5,32.964,29.5z" />
      <g x="32.663" height="2.397" fill="none" width="0.75" y="27.167" id="connector3terminal" />
      <path fill="#787878" id="connector1pin" d="M18.567,7.9c-0.193,0,-0.35,-0.157,-0.35,-0.35l0,-7.2c0,-0.193,0.157,-0.35,0.35,-0.35s0.35,0.157,0.35,0.35l0,7.2C18.917,7.744,18.76,7.9,18.567,7.9z" />
      <g x="18.205" height="2.399" fill="none" width="0.75" id="connector1terminal" />
      <path fill="#787878" id="connector2pin" d="M18.566,29.5c-0.193,0,-0.35,-0.156,-0.35,-0.35l0,-7.199c0,-0.193,0.157,-0.352,0.35,-0.352s0.35,0.156,0.35,0.352l0,7.199C18.916,29.343,18.759,29.5,18.566,29.5z" />
      <g x="18.163" height="2.397" fill="none" width="0.75" y="27.167" id="connector2terminal" />
      <path fill="#787878" id="connector0pin" d="M4.165,29.5c-0.193,0,-0.35,-0.156,-0.35,-0.35l0,-7.199c0,-0.193,0.157,-0.352,0.35,-0.352s0.35,0.156,0.35,0.352l0,7.199C4.515,29.343,4.359,29.5,4.165,29.5z" />
      <g x="3.726" height="2.397" fill="none" width="0.75" y="27.167" id="connector0terminal" />
     </g>
    </g>
   </g>
  </g>
 </g>
 <g partID="58580">
  <g transform="translate(69.238,22.7233)">
   <g id="schematic">
    <rect x="14.85" stroke-width="0.3175" stroke-linecap="round" height="150.3" fill="#FFFFFF" width="78.3" y="14.85" stroke="#000000"/>
    <line stroke-width="0.2469" stroke-linecap="round" y2="28.8" y1="28.8" fill="none" x1="93.25" stroke="#787878" x2="107.65" id="connector61pin"/>
    <g transform="matrix(1, 0, 0, 1, 82.2432, 29.5)">
     <text font-size="3.5" fill="#8C8C8C" font-family="'DroidSans'">D0/RX</text>
    </g>
    <g x="107.65" height="0.7" fill="none" width="0.699" y="28.45" id="connector61terminal"/>
    <line stroke-width="0.2469" stroke-linecap="round" y2="36" y1="36" fill="none" x1="93.25" stroke="#787878" x2="107.65" id="connector62pin"/>
    <g transform="matrix(1, 0, 0, 1, 82.4912, 36.7012)">
     <text font-size="3.5" fill="#8C8C8C" font-family="'DroidSans'">D1/TX</text>
    </g>
    <g x="107.65" height="0.7" fill="none" width="0.699" y="35.65" id="connector62terminal"/>
    <line stroke-width="0.2469" stroke-linecap="round" y2="43.2" y1="43.2" fill="none" x1="93.25" stroke="#787878" x2="107.65" id="connector63pin"/>
    <g transform="matrix(1, 0, 0, 1, 87.5283, 43.9004)">
     <text font-size="3.5" fill="#8C8C8C" font-family="'DroidSans'">D2</text>
    </g>
    <g x="107.65" height="0.7" fill="none" width="0.699" y="42.85" id="connector63terminal"/>
    <line stroke-width="0.2469" stroke-linecap="round" y2="50.4" y1="50.4" fill="none" x1="93.25" stroke="#787878" x2="107.65" id="connector64pin"/>
    <g transform="matrix(1, 0, 0, 1, 78.4639, 51.0996)">
     <text font-size="3.5" fill="#8C8C8C" font-family="'DroidSans'">D3 PWM</text>
    </g>
    <g x="107.65" height="0.7" fill="none" width="0.699" y="50.05" id="connector64terminal"/>
    <line stroke-width="0.2469" stroke-linecap="round" y2="57.6" y1="57.6" fill="none" x1="93.25" stroke="#787878" x2="107.65" id="connector65pin"/>
    <g transform="matrix(1, 0, 0, 1, 87.5283, 58.3008)">
     <text font-size="3.5" fill="#8C8C8C" font-family="'DroidSans'">D4</text>
    </g>
    <g x="107.65" height="0.7" fill="none" width="0.699" y="57.25" id="connector65terminal"/>
    <line stroke-width="0.2469" stroke-linecap="round" y2="64.8" y1="64.8" fill="none" x1="93.25" stroke="#787878" x2="107.65" id="connector66pin"/>
    <g transform="matrix(1, 0, 0, 1, 78.4639, 65.5)">
     <text font-size="3.5" fill="#8C8C8C" font-family="'DroidSans'">D5 PWM</text>
    </g>
    <g x="107.65" height="0.7" fill="none" width="0.699" y="64.45" id="connector66terminal"/>
    <line stroke-width="0.2469" stroke-linecap="round" y2="72" y1="72" fill="none" x1="93.25" stroke="#787878" x2="107.65" id="connector67pin"/>
    <g transform="matrix(1, 0, 0, 1, 78.4639, 72.7012)">
     <text font-size="3.5" fill="#8C8C8C" font-family="'DroidSans'">D6 PWM</text>
    </g>
    <g x="107.65" height="0.7" fill="none" width="0.699" y="71.65" id="connector67terminal"/>
    <line stroke-width="0.2469" stroke-linecap="round" y2="79.2" y1="79.2" fill="none" x1="93.25" stroke="#787878" x2="107.65" id="connector68pin"/>
    <g transform="matrix(1, 0, 0, 1, 87.5283, 79.9004)">
     <text font-size="3.5" fill="#8C8C8C" font-family="'DroidSans'">D7</text>
    </g>
    <g x="107.65" height="0.7" fill="none" width="0.699" y="78.85" id="connector68terminal"/>
    <line stroke-width="0.2469" stroke-linecap="round" y2="86.4" y1="86.4" fill="none" x1="93.25" stroke="#787878" x2="107.65" id="connector51pin"/>
    <g transform="matrix(1, 0, 0, 1, 87.5283, 87.0996)">
     <text font-size="3.5" fill="#8C8C8C" font-family="'DroidSans'">D8</text>
    </g>
    <g x="107.65" height="0.7" fill="none" width="0.699" y="86.05" id="connector51terminal"/>
    <line stroke-width="0.2469" stroke-linecap="round" y2="93.6" y1="93.6" fill="none" x1="93.25" stroke="#787878" x2="107.65" id="connector52pin"/>
    <g transform="matrix(1, 0, 0, 1, 78.4639, 94.3008)">
     <text font-size="3.5" fill="#8C8C8C" font-family="'DroidSans'">D9 PWM</text>
    </g>
    <g x="107.65" height="0.699" fill="none" width="0.699" y="93.25" id="connector52terminal"/>
    <line stroke-width="0.2469" stroke-linecap="round" y2="100.8" y1="100.8" fill="none" x1="93.25" stroke="#787878" x2="107.65" id="connector53pin"/>
    <g transform="matrix(1, 0, 0, 1, 71.5967, 101.5)">
     <text font-size="3.5" fill="#8C8C8C" font-family="'DroidSans'">D10 PWM/SS</text>
    </g>
    <g x="107.65" height="0.701" fill="none" width="0.699" y="100.449" id="connector53terminal"/>
    <line stroke-width="0.2469" stroke-linecap="round" y2="108" y1="108" fill="none" x1="93.25" stroke="#787878" x2="107.65" id="connector54pin"/>
    <g transform="matrix(1, 0, 0, 1, 66.585, 108.701)">
     <text font-size="3.5" fill="#8C8C8C" font-family="'DroidSans'">D11 PWM/MOSI</text>
    </g>
    <g x="107.65" height="0.699" fill="none" width="0.699" y="107.65" id="connector54terminal"/>
    <line stroke-width="0.2469" stroke-linecap="round" y2="115.2" y1="115.2" fill="none" x1="93.25" stroke="#787878" x2="107.65" id="connector55pin"/>
    <g transform="matrix(1, 0, 0, 1, 75.6494, 115.9)">
     <text font-size="3.5" fill="#8C8C8C" font-family="'DroidSans'">D12/MISO</text>
    </g>
    <g x="107.65" height="0.7" fill="none" width="0.699" y="114.85" id="connector55terminal"/>
    <line y2="122.4" y1="122.4" fill="none" x1="93.25" x2="107.65" id="connector41pin"/>
    <rect x="107.65" height="0.7" fill="none" width="0.699" y="122.05" id="connector41terminal"/>
    <line stroke-width="0.2469" stroke-linecap="round" y2="122.4" y1="122.4" fill="none" x1="93.25" stroke="#787878" x2="107.65" id="connector56pin"/>
    <g transform="matrix(1, 0, 0, 1, 78.3408, 123.1)">
     <text font-size="3.5" fill="#8C8C8C" font-family="'DroidSans'">D13/SCK</text>
    </g>
    <g x="107.65" height="0.7" fill="none" width="0.699" y="122.05" id="connector56terminal"/>
    <line y2="28.8" y1="28.8" fill="none" x1="0.35" x2="14.75" id="connector43pin"/>
    <g x="-0.35" height="0.7" fill="none" width="0.7" y="28.45" id="connector43terminal"/>
    <line stroke-width="0.2469" stroke-linecap="round" y2="28.8" y1="28.8" fill="none" x1="0.35" stroke="#787878" x2="14.75" id="connector85pin"/>
    <g transform="matrix(1, 0, 0, 1, 16.1494, 29.5)">
     <text font-size="3.5" fill="#8C8C8C" font-family="'DroidSans'">RESET</text>
    </g>
    <g x="-0.35" height="0.7" fill="none" width="0.7" y="28.45" id="connector85terminal"/>
    <line stroke-width="0.2469" stroke-linecap="round" y2="36" y1="36" fill="none" x1="0.35" stroke="#787878" x2="14.75" id="connector49pin"/>
    <g transform="matrix(1, 0, 0, 1, 16.1494, 36.7012)">
     <text font-size="3.5" fill="#8C8C8C" font-family="'DroidSans'">RESET2</text>
    </g>
    <rect x="-0.35" height="0.7" fill="none" width="0.7" y="35.65" id="connector49terminal"/>
    <line stroke-width="0.2469" stroke-linecap="round" y2="43.2" y1="43.2" fill="none" x1="0.35" stroke="#787878" x2="14.75" id="connector58pin"/>
    <g transform="matrix(1, 0, 0, 1, 16.1494, 43.9004)">
     <text font-size="3.5" fill="#8C8C8C" font-family="'DroidSans'">AREF</text>
    </g>
    <g x="-0.35" height="0.7" fill="none" width="0.7" y="42.85" id="connector58terminal"/>
    <line stroke-width="0.2469" stroke-linecap="round" y2="50.4" y1="50.4" fill="none" x1="0.35" stroke="#787878" x2="14.75" id="connector84pin"/>
    <g transform="matrix(1, 0, 0, 1, 16.1494, 51.0996)">
     <text font-size="3.5" fill="#8C8C8C" font-family="'DroidSans'">I</text>
    </g>
    <g transform="matrix(1, 0, 0, 1, 17.3013, 51.0996)">
     <text font-size="3.5" fill="#8C8C8C" font-family="'DroidSans'">O</text>
    </g>
    <g transform="matrix(1, 0, 0, 1, 19.8989, 51.0996)">
     <text font-size="3.5" fill="#8C8C8C" font-family="'DroidSans'">R</text>
    </g>
    <g transform="matrix(1, 0, 0, 1, 21.9634, 51.0996)">
     <text font-size="3.5" fill="#8C8C8C" font-family="'DroidSans'">E</text>
    </g>
    <g transform="matrix(1, 0, 0, 1, 23.8105, 51.0996)">
     <text font-size="3.5" fill="#8C8C8C" font-family="'DroidSans'">F</text>
    </g>
    <g x="-0.35" height="0.7" fill="none" width="0.7" y="50.05" id="connector84terminal"/>
    <line stroke-width="0.2469" stroke-linecap="round" y2="64.8" y1="64.8" fill="none" x1="0.35" stroke="#787878" x2="14.75" id="connector0pin"/>
    <g transform="matrix(1, 0, 0, 1, 16.1494, 65.5)">
     <text font-size="3.5" fill="#8C8C8C" font-family="'DroidSans'">A0</text>
    </g>
    <g x="-0.35" height="0.7" fill="none" width="0.7" y="64.45" id="connector0terminal"/>
    <line stroke-width="0.2469" stroke-linecap="round" y2="72" y1="72" fill="none" x1="0.35" stroke="#787878" x2="14.75" id="connector1pin"/>
    <g transform="matrix(1, 0, 0, 1, 16.1494, 72.7012)">
     <text font-size="3.5" fill="#8C8C8C" font-family="'DroidSans'">A1</text>
    </g>
    <g x="-0.35" height="0.7" fill="none" width="0.7" y="71.65" id="connector1terminal"/>
    <line stroke-width="0.2469" stroke-linecap="round" y2="79.2" y1="79.2" fill="none" x1="0.35" stroke="#787878" x2="14.75" id="connector2pin"/>
    <g transform="matrix(1, 0, 0, 1, 16.1494, 79.9004)">
     <text font-size="3.5" fill="#8C8C8C" font-family="'DroidSans'">A2</text>
    </g>
    <g x="-0.35" height="0.7" fill="none" width="0.7" y="78.85" id="connector2terminal"/>
    <line stroke-width="0.2469" stroke-linecap="round" y2="86.4" y1="86.4" fill="none" x1="0.35" stroke="#787878" x2="14.75" id="connector3pin"/>
    <g transform="matrix(1, 0, 0, 1, 16.1494, 87.0996)">
     <text font-size="3.5" fill="#8C8C8C" font-family="'DroidSans'">A3</text>
    </g>
    <g x="-0.35" height="0.7" fill="none" width="0.7" y="86.05" id="connector3terminal"/>
    <line y2="93.6" y1="93.6" fill="none" x1="0.35" x2="14.75" id="connector39pin"/>
    <g x="-0.35" height="0.699" fill="none" width="0.7" y="93.25" id="connector39terminal"/>
    <line stroke-width="0.2469" stroke-linecap="round" y2="93.6" y1="93.6" fill="none" x1="0.35" stroke="#787878" x2="14.75" id="connector42pin"/>
    <g x="-0.35" height="0.699" fill="none" width="0.7" y="93.25" id="connector42terminal"/>
    <line y2="93.6" y1="93.6" fill="none" x1="0.35" x2="14.75" id="connector4pin"/>
    <g x="-0.35" height="0.699" fill="none" width="0.7" y="93.25" id="connector4terminal"/>
    <line stroke-width="0.2469" stroke-linecap="round" y2="93.6" y1="93.6" fill="none" x1="0.35" stroke="#787878" x2="14.75" id="connector59pin"/>
    <g x="-0.35" height="0.699" fill="none" width="0.7" y="93.25" id="connector59terminal"/>
    <line y2="100.8" y1="100.8" fill="none" x1="0.35" x2="14.75" id="connector5pin"/>
    <g x="-0.35" height="0.701" fill="none" width="0.7" y="100.449" id="connector5terminal"/>
    <line stroke-width="0.2469" stroke-linecap="round" y2="100.8" y1="100.8" fill="none" x1="0.35" stroke="#787878" x2="14.75" id="connector60pin"/>
    <g x="-0.35" height="0.701" fill="none" width="0.7" y="100.449" id="connector60terminal"/>
    <line stroke-width="0.2469" stroke-linecap="round" y2="136.8" y1="136.8" fill="none" x1="0.35" stroke="#787878" x2="14.75" id="connector91pin"/>
    <g transform="matrix(1, 0, 0, 1, 16.1494, 137.5)">
     <text font-size="3.5" fill="#8C8C8C" font-family="'DroidSans'">N/C</text>
    </g>
    <g x="-0.35" height="0.701" fill="none" width="0.7" y="136.449" id="connector91terminal"/>
    <line y2="179.65" y1="165.25" fill="none" x1="57.6" x2="57.6" id="connector88pin"/>
    <g x="57.25" height="0.699" fill="none" width="0.699" y="179.65" id="connector88terminal"/>
    <line y2="179.65" y1="165.25" fill="none" x1="57.6" x2="57.6" id="connector57pin"/>
    <g x="57.25" height="0.699" fill="none" width="0.699" y="179.65" id="connector57terminal"/>
    <line y2="179.65" y1="165.25" fill="none" x1="57.6" x2="57.6" id="connector44pin"/>
    <g x="57.25" height="0.699" fill="none" width="0.699" y="179.65" id="connector44terminal"/>
    <line y2="179.65" y1="165.25" fill="none" x1="57.6" x2="57.6" id="connector50pin"/>
    <rect x="57.25" height="0.699" fill="none" width="0.699" y="179.65" id="connector50terminal"/>
    <line stroke-width="0.2469" stroke-linecap="round" y2="179.65" y1="165.25" fill="none" x1="57.6" stroke="#787878" x2="57.6" id="connector89pin"/>
    <g transform="matrix(1, 0, 0, 1, 20.5669, 57.8026)">
     <g>
      <g transform="rotate(270)">
       <g>
        <g transform="matrix(1, 0, 0, 1, -106.047, 37.7329)">
         <text font-size="3.5" fill="#8C8C8C" font-family="'DroidSans'">GND</text>
        </g>
       </g>
      </g>
     </g>
    </g>
    <g x="57.25" height="0.699" fill="none" width="0.699" y="179.65" id="connector89terminal"/>
    <line stroke-width="0.2469" stroke-linecap="round" y2="14.75" y1="0.35" fill="none" x1="36" stroke="#787878" x2="36" id="connector86pin"/>
    <g transform="matrix(1, 0, 0, 1, 12.9469, 5.69736)">
     <g>
      <g transform="rotate(270)">
       <g>
        <g transform="matrix(1, 0, 0, 1, -16.2968, 23.7533)">
         <text font-size="3.5" fill="#8C8C8C" font-family="'DroidSans'">3V3</text>
        </g>
       </g>
      </g>
     </g>
    </g>
    <g x="35.65" height="0.7" fill="none" width="0.7" y="-0.35" id="connector86terminal"/>
    <line y2="14.75" y1="0.35" fill="none" x1="50.4" x2="50.4" id="connector40pin"/>
    <g x="50.05" height="0.7" fill="none" width="0.7" y="-0.35" id="connector40terminal"/>
    <line y2="14.75" y1="0.35" fill="none" x1="50.4" x2="50.4" id="connector46pin"/>
    <rect x="50.05" height="0.7" fill="none" width="0.7" y="-0.35" id="connector46terminal"/>
    <line stroke-width="0.2469" stroke-linecap="round" y2="14.75" y1="0.35" fill="none" x1="50.4" stroke="#787878" x2="50.4" id="connector87pin"/>
    <g transform="matrix(1, 0, 0, 1, 18.0269, 5.69736)">
     <g>
      <g transform="rotate(270)">
       <g>
        <g transform="matrix(1, 0, 0, 1, -14.369, 33.0737)">
         <text font-size="3.5" fill="#8C8C8C" font-family="'DroidSans'">5V</text>
        </g>
       </g>
      </g>
     </g>
    </g>
    <g x="50.05" height="0.7" fill="none" width="0.7" y="-0.35" id="connector87terminal"/>
    <line stroke-width="0.2469" stroke-linecap="round" y2="14.75" y1="0.35" fill="none" x1="64.8" stroke="#787878" x2="64.8" id="connector90pin"/>
    <g transform="matrix(1, 0, 0, 1, 23.1069, 5.69736)">
     <g>
      <g transform="rotate(270)">
       <g>
        <g transform="matrix(1, 0, 0, 1, -16.1776, 42.3922)">
         <text font-size="3.5" fill="#8C8C8C" font-family="'DroidSans'">VIN</text>
        </g>
       </g>
      </g>
     </g>
    </g>
    <g x="64.449" height="0.7" fill="none" width="0.701" y="-0.35" id="connector90terminal"/>
    <g transform="matrix(1, 0, 0, 1, 46.7861, 81.3828)">
     <text font-size="4.25" font-family="'DroidSans'" id="label">Arduino</text>
    </g>
    <g transform="matrix(1, 0, 0, 1, 50.4893, 85.916)">
     <text font-size="4.25" font-family="'DroidSans'" id="label_1_">Uno</text>
    </g>
    <g transform="matrix(1, 0, 0, 1, 48.5928, 90.4512)">
     <text font-size="4.25" font-family="'DroidSans'" id="label_2_">(Rev3)</text>
    </g>
    <g transform="matrix(1, 0, 0, 1, 50.1416, 94.9844)">
     <text font-size="4.25" font-family="'DroidSans'">I</text>
    </g>
    <g transform="matrix(1, 0, 0, 1, 51.54, 94.9844)">
     <text font-size="4.25" font-family="'DroidSans'">C</text>
    </g>
    <g transform="matrix(1, 0, 0, 1, 54.103, 94.9844)">
     <text font-size="4.25" font-family="'DroidSans'">S</text>
    </g>
    <g transform="matrix(1, 0, 0, 1, 56.3086, 94.9844)">
     <text font-size="4.25" font-family="'DroidSans'">P</text>
    </g>
    <g transform="matrix(1, 0, 0, 1, 16.1494, 94.9844)">
     <text font-size="3.5" fill="#8C8C8C" font-family="'DroidSans'">A4/SDA</text>
    </g>
    <g transform="matrix(1, 0, 0, 1, 16.1494, 102.184)">
     <text font-size="3.5" fill="#8C8C8C" font-family="'DroidSans'">A5/SCL</text>
    </g>
   </g>
  </g>
 </g>
 <g partID="854106900">
  <g transform="translate(37.3418,95.0734)">
   <g transform="matrix(0,-1,1,0,0,0)">
    <g id="schematic" >
     <line y2="0.216" stroke-width="0.432002" stroke-linecap="round" y1="3.096" x1="7.55002" stroke="#000000" class="other" x2="8.63003" />
     <line y2="5.976" stroke-width="0.432002" stroke-linecap="round" y1="0.216" x1="8.63003" stroke="#000000" class="other" x2="10.43" />
     <line y2="0.216" stroke-width="0.432002" stroke-linecap="round" y1="5.976" x1="10.43" stroke="#000000" class="other" x2="12.23" />
     <line y2="5.976" stroke-width="0.432002" stroke-linecap="round" y1="0.216" x1="12.23" stroke="#000000" class="other" x2="14.03" />
     <line y2="0.216" stroke-width="0.432002" stroke-linecap="round" y1="5.976" x1="14.03" stroke="#000000" class="other" x2="15.8301" />
     <line y2="5.976" stroke-width="0.432002" stroke-linecap="round" y1="0.216" x1="15.8301" stroke="#000000" class="other" x2="17.6301" />
     <line y2="0.216" stroke-width="0.432002" stroke-linecap="round" y1="5.976" x1="17.6301" stroke="#000000" class="other" x2="19.4301" />
     <line y2="5.976" stroke-width="0.432002" stroke-linecap="round" y1="0.216" x1="19.4301" stroke="#000000" class="other" x2="21.2301" />
     <line y2="3.096" stroke-width="0.432002" stroke-linecap="round" y1="5.976" x1="21.2301" stroke="#000000" class="other" x2="21.9501" />
     <line y2="3.096" stroke-width="0.700001" stroke-linecap="round" connectorname="2" y1="3.096" x1="29.1502" stroke="#787878" class="pin" x2="21.9501" id="connector1pin" />
     <g x="29.1502" height="0.000283465" stroke-width="0" fill="none" width="0.000283466" y="3.096" stroke="none" class="terminal" id="connector1terminal" />
     <text stroke-width="0" font-size="2.50001" x="25.5501" fill="#8c8c8c" text-anchor="middle" y="2.046" font-family="'Droid Sans'" stroke="none" class="text" >2</text>
     <line y2="3.096" stroke-width="0.700001" stroke-linecap="round" connectorname="1" y1="3.096" x1="0.350001" stroke="#787878" class="pin" x2="7.55002" id="connector0pin" />
     <g x="0.350001" height="0.000283465" stroke-width="0" fill="none" width="0.000283466" y="3.096" stroke="none" class="terminal" id="connector0terminal" />
     <text stroke-width="0" font-size="2.50001" x="3.95001" fill="#8c8c8c" text-anchor="middle" y="2.046" font-family="'Droid Sans'" stroke="none" class="text" >1</text>
    </g>
   </g>
  </g>
 </g>
 <g partID="854106760">
  <g transform="translate(22.9418,123.873)">
   <g transform="matrix(0,-1,1,0,0,0)">
    <g id="schematic" >
     <line y2="0.216" stroke-width="0.432002" stroke-linecap="round" y1="3.096" x1="7.55002" stroke="#000000" class="other" x2="8.63003" />
     <line y2="5.976" stroke-width="0.432002" stroke-linecap="round" y1="0.216" x1="8.63003" stroke="#000000" class="other" x2="10.43" />
     <line y2="0.216" stroke-width="0.432002" stroke-linecap="round" y1="5.976" x1="10.43" stroke="#000000" class="other" x2="12.23" />
     <line y2="5.976" stroke-width="0.432002" stroke-linecap="round" y1="0.216" x1="12.23" stroke="#000000" class="other" x2="14.03" />
     <line y2="0.216" stroke-width="0.432002" stroke-linecap="round" y1="5.976" x1="14.03" stroke="#000000" class="other" x2="15.8301" />
     <line y2="5.976" stroke-width="0.432002" stroke-linecap="round" y1="0.216" x1="15.8301" stroke="#000000" class="other" x2="17.6301" />
     <line y2="0.216" stroke-width="0.432002" stroke-linecap="round" y1="5.976" x1="17.6301" stroke="#000000" class="other" x2="19.4301" />
     <line y2="5.976" stroke-width="0.432002" stroke-linecap="round" y1="0.216" x1="19.4301" stroke="#000000" class="other" x2="21.2301" />
     <line y2="3.096" stroke-width="0.432002" stroke-linecap="round" y1="5.976" x1="21.2301" stroke="#000000" class="other" x2="21.9501" />
     <line y2="3.096" stroke-width="0.700001" stroke-linecap="round" connectorname="2" y1="3.096" x1="29.1502" stroke="#787878" class="pin" x2="21.9501" id="connector1pin" />
     <g x="29.1502" height="0.000283465" stroke-width="0" fill="none" width="0.000283466" y="3.096" stroke="none" class="terminal" id="connector1terminal" />
     <text stroke-width="0" font-size="2.50001" x="25.5501" fill="#8c8c8c" text-anchor="middle" y="2.046" font-family="'Droid Sans'" stroke="none" class="text" >2</text>
     <line y2="3.096" stroke-width="0.700001" stroke-linecap="round" connectorname="1" y1="3.096" x1="0.350001" stroke="#787878" class="pin" x2="7.55002" id="connector0pin" />
     <g x="0.350001" height="0.000283465" stroke-width="0" fill="none" width="0.000283466" y="3.096" stroke="none" class="terminal" id="connector0terminal" />
     <text stroke-width="0" font-size="2.50001" x="3.95001" fill="#8c8c8c" text-anchor="middle" y="2.046" font-family="'Droid Sans'" stroke="none" class="text" >1</text>
    </g>
   </g>
  </g>
 </g>
 <g partID="63770">
  <g transform="translate(57.9342,29.5731)">
   <g transform="matrix(0,1,-1,0,0,0)">
    <g id="schematic" >
     <line y2="0.216" stroke-width="0.432002" stroke-linecap="round" y1="3.096" x1="7.55002" stroke="#000000" class="other" x2="8.63003" />
     <line y2="5.976" stroke-width="0.432002" stroke-linecap="round" y1="0.216" x1="8.63003" stroke="#000000" class="other" x2="10.43" />
     <line y2="0.216" stroke-width="0.432002" stroke-linecap="round" y1="5.976" x1="10.43" stroke="#000000" class="other" x2="12.23" />
     <line y2="5.976" stroke-width="0.432002" stroke-linecap="round" y1="0.216" x1="12.23" stroke="#000000" class="other" x2="14.03" />
     <line y2="0.216" stroke-width="0.432002" stroke-linecap="round" y1="5.976" x1="14.03" stroke="#000000" class="other" x2="15.8301" />
     <line y2="5.976" stroke-width="0.432002" stroke-linecap="round" y1="0.216" x1="15.8301" stroke="#000000" class="other" x2="17.6301" />
     <line y2="0.216" stroke-width="0.432002" stroke-linecap="round" y1="5.976" x1="17.6301" stroke="#000000" class="other" x2="19.4301" />
     <line y2="5.976" stroke-width="0.432002" stroke-linecap="round" y1="0.216" x1="19.4301" stroke="#000000" class="other" x2="21.2301" />
     <line y2="3.096" stroke-width="0.432002" stroke-linecap="round" y1="5.976" x1="21.2301" stroke="#000000" class="other" x2="21.9501" />
     <line y2="3.096" stroke-width="0.700001" stroke-linecap="round" connectorname="2" y1="3.096" x1="29.1502" stroke="#787878" class="pin" x2="21.9501" id="connector1pin" />
     <g x="29.1502" height="0.000283465" stroke-width="0" fill="none" width="0.000283466" y="3.096" stroke="none" class="terminal" id="connector1terminal" />
     <text stroke-width="0" font-size="2.50001" x="25.5501" fill="#8c8c8c" text-anchor="middle" y="2.046" font-family="'Droid Sans'" stroke="none" class="text" >2</text>
     <line y2="3.096" stroke-width="0.700001" stroke-linecap="round" connectorname="1" y1="3.096" x1="0.350001" stroke="#787878" class="pin" x2="7.55002" id="connector0pin" />
     <g x="0.350001" height="0.000283465" stroke-width="0" fill="none" width="0.000283466" y="3.096" stroke="none" class="terminal" id="connector0terminal" />
     <text stroke-width="0" font-size="2.50001" x="3.95001" fill="#8c8c8c" text-anchor="middle" y="2.046" font-family="'Droid Sans'" stroke="none" class="text" >1</text>
    </g>
   </g>
  </g>
 </g>
 <g partID="854107480">
  <line stroke-linecap="round" y2="94.7233" stroke-width="0.699998" y1="94.6741" x1="198.789" stroke="#404040" x2="177.238"/>
 </g>
 <g partID="854107430">
  <line stroke-linecap="round" y2="94.6741" stroke-width="0.699998" y1="1.05024" x1="198.827" stroke="#404040" x2="198.789"/>
 </g>
 <g partID="854107370">
  <line stroke-linecap="round" y2="1.05024" stroke-width="0.699998" y1="1.05032" x1="26.0402" stroke="#404040" x2="198.827"/>
 </g>
 <g partID="854107380">
  <line stroke-linecap="round" y2="1.05032" stroke-width="0.699998" y1="94.7231" x1="26.038" stroke="#404040" x2="26.0402"/>
 </g>
 <g partID="854107660">
  <line stroke-linecap="round" y2="87.5233" stroke-width="0.699998" y1="87.4618" x1="191.576" stroke="#404040" x2="177.238"/>
 </g>
 <g partID="854107610">
  <line stroke-linecap="round" y2="87.4618" stroke-width="0.699998" y1="8.32544" x1="191.552" stroke="#404040" x2="191.576"/>
 </g>
 <g partID="854107550">
  <line stroke-linecap="round" y2="8.32544" stroke-width="0.699998" y1="8.32544" x1="40.2875" stroke="#404040" x2="191.552"/>
 </g>
 <g partID="854107560">
  <line stroke-linecap="round" y2="8.32544" stroke-width="0.699998" y1="65.9231" x1="40.438" stroke="#404040" x2="40.2875"/>
 </g>
 <g partID="854107880">
  <line stroke-linecap="round" y2="73.1233" stroke-width="0.699998" y1="73.1845" x1="184.511" stroke="#404040" x2="177.238"/>
 </g>
 <g partID="854107830">
  <line stroke-linecap="round" y2="73.1845" stroke-width="0.699998" y1="15.6007" x1="184.58" stroke="#404040" x2="184.511"/>
 </g>
 <g partID="854107730">
  <line stroke-linecap="round" y2="15.6007" stroke-width="0.699998" y1="15.6007" x1="54.838" stroke="#404040" x2="184.58"/>
 </g>
 <g partID="854107740">
  <line stroke-linecap="round" y2="15.6007" stroke-width="0.699998" y1="29.9233" x1="54.838" stroke="#404040" x2="54.838"/>
 </g>
 <g partID="854108030">
  <line stroke-linecap="round" y2="186.69" stroke-width="0.699998" y1="202.635" x1="40.2875" stroke="#404040" x2="40.396"/>
 </g>
 <g partID="854108040">
  <line stroke-linecap="round" y2="202.635" stroke-width="0.699998" y1="202.722" x1="126.838" stroke="#404040" x2="40.2879"/>
 </g>
 <g partID="854108110">
  <line stroke-linecap="round" y2="159.523" stroke-width="0.699998" y1="123.517" x1="26.0402" stroke="#404040" x2="25.938"/>
 </g>
 <g partID="854108120">
  <line stroke-linecap="round" y2="123.517" stroke-width="0.699998" y1="123.523" x1="26.038" stroke="#404040" x2="26.0402"/>
 </g>
 <g partID="854108190">
  <line stroke-linecap="round" y2="159.523" stroke-width="0.699998" y1="130.792" x1="40.2875" stroke="#404040" x2="40.438"/>
 </g>
 <g partID="854108200">
  <line stroke-linecap="round" y2="130.792" stroke-width="0.699998" y1="94.7233" x1="40.438" stroke="#404040" x2="40.2875"/>
 </g>
 <g partID="854108270">
  <line stroke-linecap="round" y2="159.523" stroke-width="0.699998" y1="123.517" x1="54.838" stroke="#404040" x2="54.875"/>
 </g>
 <g partID="854108280">
  <line stroke-linecap="round" y2="123.517" stroke-width="0.699998" y1="58.7234" x1="54.838" stroke="#404040" x2="54.838"/>
 </g>
 <g partID="58580" id="partLabel">
  <g transform="translate(138.858,31.5558)">
   <g transform="matrix(1,0,0,1,0,0)">
    <g font-size="5" fill="#000000" font-style="normal" font-family="'DroidSans'" stroke="none" fill-opacity="1" id="schematicLabel" font-weight="normal">
     <text x="0" y="3.75">Microcontroller</text>
    </g>
   </g>
  </g>
 </g>
 <g partID="854106900" id="partLabel">
  <g transform="translate(41.2437,26.6198)">
   <g font-size="5" fill="#000000" font-style="normal" font-family="'DroidSans'" stroke="none" fill-opacity="1" id="schematicLabel" font-weight="normal">
    <text x="0" y="3.75">R3</text>
    <text x="0" y="8.75">220&#x3a9;</text>
    <text x="0" y="13.75">0.25</text>
   </g>
  </g>
 </g>
 <g partID="63770" id="partLabel">
  <g transform="translate(9.92512,93.1926)">
   <g font-size="5" fill="#000000" font-style="normal" font-family="'DroidSans'" stroke="none" fill-opacity="1" id="schematicLabel" font-weight="normal">
    <text x="0" y="3.75">R1</text>
    <text x="0" y="8.75">220&#x3a9;</text>
    <text x="0" y="13.75">0.25</text>
   </g>
  </g>
 </g>
 <g partID="854106760" id="partLabel">
  <g transform="translate(27.4499,64.2108)">
   <g font-size="5" fill="#000000" font-style="normal" font-family="'DroidSans'" stroke="none" fill-opacity="1" id="schematicLabel" font-weight="normal">
    <text x="0" y="3.75">R2</text>
    <text x="0" y="8.75">220&#x3a9;</text>
    <text x="0" y="13.75">0.25</text>
   </g>
  </g>
 </g>
 <g partID="854106460" id="partLabel">
  <g transform="translate(14.4,193.489)">
   <g transform="matrix(-1,0,0,-1,0,0)">
    <g font-size="5" fill="#000000" font-style="normal" font-family="'DroidSans'" stroke="none" fill-opacity="1" id="schematicLabel" font-weight="normal">
     <text x="0" y="3.75">LED1</text>
    </g>
   </g>
  </g>
 </g>
</svg>
