<?xml version='1.0' encoding='UTF-8' standalone='no'?>
<!-- Created with Fritzing (https://fritzing.org/) -->
<svg xmlns="http://www.w3.org/2000/svg" x="0in" y="0in" baseProfile="tiny" version="1.2" height="3.14941in" xmlns:svg="http://www.w3.org/2000/svg" viewBox="0 0 185.28 226.757"  width="2.57334in">
 <g id="watermark" >
  <g >
   <g >
    <path  d="M160.548,220.557c-0.604,0,-1.131,0.325,-1.422,0.809l-2.796,0l3.96,-4.071c0.146,-0.146,0.289,-0.322,0.428,-0.521c0.149,-0.222,0.228,-0.479,0.228,-0.768c0,-0.279,-0.097,-0.518,-0.287,-0.71c-0.19,-0.188,-0.444,-0.287,-0.754,-0.287l-4.636,0c-0.305,0,-0.555,0.06,-0.742,0.17c-0.219,0.13,-0.33,0.368,-0.33,0.707c0,0.329,0.111,0.562,0.33,0.692c0.188,0.111,0.438,0.168,0.742,0.168l3.148,0l-3.974,4.086c-0.146,0.147,-0.289,0.315,-0.425,0.504c-0.153,0.212,-0.23,0.472,-0.23,0.771c0,0.28,0.096,0.521,0.288,0.711c0.188,0.188,0.442,0.285,0.754,0.285l4.315,0c0.293,0.467,0.812,0.776,1.4,0.776c0.916,0,1.66,-0.744,1.66,-1.661C162.207,221.302,161.462,220.557,160.548,220.557zM160.548,222.82c-0.334,0,-0.604,-0.271,-0.604,-0.604c0,-0.333,0.27,-0.604,0.604,-0.604c0.332,0,0.604,0.271,0.604,0.604C161.151,222.551,160.88,222.82,160.548,222.82z" fill="#8C8C8C"/>
    <path  d="M143.605,210.515c-0.914,0,-1.659,0.745,-1.659,1.66c0,0.916,0.745,1.66,1.659,1.66s1.658,-0.744,1.658,-1.66C145.265,211.26,144.521,210.515,143.605,210.515zM143.606,212.778c-0.333,0,-0.604,-0.27,-0.604,-0.603s0.271,-0.603,0.604,-0.603c0.331,0,0.604,0.27,0.604,0.603S143.937,212.778,143.606,212.778z" fill="#8C8C8C"/>
    <path  d="M152.126,215.177c-0.193,-0.111,-0.439,-0.169,-0.732,-0.169l-1.465,0L149.929,212.486c0,-0.292,-0.057,-0.538,-0.166,-0.729C149.673,211.6,149.48,211.415,149.07,211.415c-0.34,0,-0.578,0.116,-0.709,0.342c-0.109,0.193,-0.167,0.438,-0.167,0.729l0,2.521l-0.481,0c-0.295,0,-0.539,0.06,-0.731,0.169c-0.228,0.129,-0.341,0.368,-0.341,0.708c0,0.412,0.185,0.603,0.341,0.692c0.192,0.111,0.438,0.168,0.731,0.168l0.481,0l0,4.362c0,0.277,0.026,0.533,0.081,0.768c0.056,0.246,0.154,0.464,0.298,0.645c0.146,0.186,0.345,0.332,0.595,0.436c0.241,0.098,0.555,0.146,0.93,0.146l0.896,0c0.292,0,0.539,-0.054,0.731,-0.166c0.154,-0.089,0.341,-0.281,0.341,-0.693c0,-0.338,-0.114,-0.578,-0.341,-0.709c-0.192,-0.109,-0.439,-0.168,-0.731,-0.168l-0.821,0c-0.138,0,-0.19,-0.019,-0.207,-0.024c-0.014,-0.034,-0.035,-0.103,-0.035,-0.231L149.931,216.745l1.465,0c0.295,0,0.541,-0.057,0.734,-0.168c0.152,-0.09,0.34,-0.28,0.34,-0.692C152.466,215.545,152.353,215.306,152.126,215.177z" fill="#8C8C8C"/>
    <path  d="M143.671,215.007l-1.191,0c-0.292,0,-0.538,0.059,-0.731,0.169c-0.226,0.129,-0.341,0.368,-0.341,0.708c0,0.412,0.188,0.604,0.341,0.691c0.193,0.113,0.439,0.168,0.731,0.168l0.544,0l0,5.362c0,0.293,0.057,0.539,0.167,0.73c0.131,0.227,0.367,0.341,0.708,0.341c0.411,0,0.604,-0.187,0.692,-0.341c0.111,-0.191,0.168,-0.438,0.168,-0.73L144.759,216.095c0,-0.386,-0.084,-0.656,-0.256,-0.83C144.328,215.093,144.058,215.007,143.671,215.007z" fill="#8C8C8C"/>
    <path  d="M139.836,215.177c-0.193,-0.111,-0.44,-0.169,-0.732,-0.169l-0.604,0c-0.25,0,-0.498,0.063,-0.734,0.187c-0.226,0.119,-0.433,0.271,-0.616,0.453l-0.644,0.604l0,-0.247c0,-0.291,-0.055,-0.538,-0.168,-0.729c-0.128,-0.228,-0.368,-0.34,-0.707,-0.34c-0.41,0,-0.604,0.184,-0.693,0.34c-0.11,0.191,-0.167,0.438,-0.167,0.729l0,4.801c-0.475,0.293,-0.791,0.816,-0.791,1.412c0,0.917,0.745,1.661,1.658,1.661c0.916,0,1.66,-0.744,1.66,-1.661c0,-0.596,-0.317,-1.119,-0.792,-1.412l0,-2.21l1.738,-1.564c0.1,-0.09,0.199,-0.164,0.297,-0.217c0.084,-0.045,0.174,-0.067,0.274,-0.067l0.288,0c0.292,0,0.539,-0.056,0.732,-0.169c0.155,-0.088,0.339,-0.279,0.339,-0.691C140.176,215.545,140.061,215.306,139.836,215.177zM135.637,222.82c-0.332,0,-0.603,-0.271,-0.603,-0.604c0,-0.333,0.271,-0.604,0.603,-0.604c0.333,0,0.604,0.271,0.604,0.604C136.241,222.551,135.97,222.82,135.637,222.82z" fill="#8C8C8C"/>
    <path  d="M133.12,211.658c-0.193,-0.111,-0.44,-0.167,-0.731,-0.167l-0.59,0c-0.2,0,-0.389,0.004,-0.562,0.016c-0.176,0.009,-0.345,0.035,-0.506,0.07c-0.168,0.041,-0.336,0.109,-0.496,0.202c-0.158,0.093,-0.319,0.222,-0.48,0.382c-0.334,0.314,-0.554,0.656,-0.652,1.017c-0.094,0.348,-0.143,0.735,-0.143,1.151l0,0.678l-0.483,0c-0.292,0,-0.539,0.059,-0.73,0.169c-0.227,0.13,-0.342,0.369,-0.342,0.708c0,0.412,0.185,0.604,0.341,0.693c0.191,0.111,0.438,0.166,0.73,0.166l0.483,0l0,5.362c0,0.293,0.057,0.539,0.167,0.73c0.13,0.227,0.367,0.341,0.708,0.341c0.411,0,0.603,-0.187,0.692,-0.341c0.111,-0.191,0.168,-0.438,0.168,-0.73l0,-5.36l0.92,0c0.293,0,0.54,-0.057,0.732,-0.168c0.155,-0.09,0.34,-0.28,0.34,-0.692c0,-0.34,-0.114,-0.579,-0.34,-0.708c-0.189,-0.111,-0.436,-0.17,-0.729,-0.17l-0.92,0l0,-0.678c0,-0.218,0.019,-0.41,0.056,-0.571c0.032,-0.141,0.103,-0.261,0.218,-0.367l0.002,-0.004l0.002,-0.002c0.082,-0.082,0.176,-0.126,0.29,-0.136c0.15,-0.015,0.339,-0.022,0.564,-0.022l0.56,0c0.291,0,0.539,-0.058,0.731,-0.168c0.154,-0.088,0.339,-0.281,0.339,-0.693C133.46,212.027,133.345,211.788,133.12,211.658z" fill="#8C8C8C"/>
    <path  d="M185.113,215.275c-0.089,-0.156,-0.282,-0.34,-0.693,-0.34c-0.339,0,-0.578,0.113,-0.707,0.34c-0.078,0.133,-0.127,0.293,-0.152,0.477l-0.021,-0.021c-0.216,-0.236,-0.466,-0.42,-0.747,-0.539c-0.277,-0.119,-0.563,-0.183,-0.849,-0.183l-0.709,0c-0.249,0,-0.466,0.015,-0.64,0.041c-0.182,0.026,-0.352,0.074,-0.51,0.14c-0.158,0.066,-0.313,0.15,-0.459,0.254c-0.139,0.097,-0.303,0.226,-0.486,0.377c-0.188,0.156,-0.342,0.302,-0.463,0.434c-0.127,0.141,-0.23,0.293,-0.306,0.455c-0.069,0.16,-0.122,0.337,-0.147,0.523c-0.026,0.178,-0.041,0.391,-0.041,0.631l0,2.386c0,0.24,0.015,0.451,0.041,0.631c0.025,0.188,0.078,0.361,0.147,0.521c0.074,0.164,0.179,0.318,0.306,0.457c0.119,0.129,0.274,0.274,0.463,0.433c0.186,0.153,0.35,0.28,0.486,0.379c0.146,0.103,0.299,0.188,0.459,0.254c0.158,0.065,0.329,0.112,0.51,0.14c0.174,0.026,0.389,0.039,0.64,0.039l0.709,0c0.298,0,0.591,-0.066,0.87,-0.199c0.244,-0.114,0.492,-0.291,0.73,-0.523l0,1.434c0,0.18,-0.025,0.334,-0.072,0.465c-0.043,0.119,-0.159,0.258,-0.344,0.406c-0.154,0.127,-0.309,0.217,-0.457,0.264c-0.15,0.049,-0.341,0.074,-0.563,0.074l-2.203,0c-0.293,0,-0.538,0.055,-0.732,0.166c-0.152,0.088,-0.34,0.282,-0.34,0.692c0,0.341,0.115,0.579,0.34,0.71c0.194,0.109,0.439,0.167,0.732,0.167l2.326,0c0.247,0,0.463,-0.015,0.638,-0.041c0.179,-0.026,0.351,-0.073,0.513,-0.14c0.153,-0.064,0.31,-0.15,0.455,-0.254c0.143,-0.101,0.305,-0.227,0.487,-0.379c0.185,-0.153,0.343,-0.299,0.463,-0.431c0.128,-0.141,0.229,-0.294,0.304,-0.456c0.071,-0.162,0.123,-0.338,0.148,-0.523c0.025,-0.182,0.041,-0.393,0.041,-0.631l0,-7.898C185.28,215.713,185.226,215.466,185.113,215.275zM183.544,219.735c0,0.188,-0.062,0.35,-0.188,0.49c-0.15,0.172,-0.394,0.403,-0.716,0.686l-0.002,0.003l-0.002,0.004c-0.139,0.13,-0.291,0.237,-0.453,0.325c-0.148,0.082,-0.325,0.121,-0.526,0.121L181.356,221.364c-0.222,0,-0.41,-0.021,-0.563,-0.072c-0.148,-0.049,-0.301,-0.137,-0.453,-0.264c-0.231,-0.186,-0.315,-0.322,-0.346,-0.404c-0.049,-0.131,-0.072,-0.285,-0.072,-0.465l0,-2.206c0,-0.18,0.023,-0.336,0.072,-0.467c0.029,-0.082,0.113,-0.217,0.346,-0.403c0.152,-0.127,0.305,-0.216,0.453,-0.265c0.153,-0.049,0.342,-0.072,0.563,-0.072l0.301,0c0.212,0,0.388,0.037,0.526,0.113c0.152,0.082,0.308,0.191,0.457,0.324c0.322,0.293,0.564,0.529,0.716,0.7c0.128,0.146,0.188,0.304,0.188,0.492L183.544,219.735z" fill="#8C8C8C"/>
    <path  d="M165.134,210.515c-0.914,0,-1.66,0.745,-1.66,1.66c0,0.916,0.746,1.66,1.66,1.66s1.66,-0.744,1.66,-1.66C166.794,211.26,166.048,210.515,165.134,210.515zM165.134,212.778c-0.332,0,-0.604,-0.27,-0.604,-0.603s0.271,-0.603,0.604,-0.603s0.604,0.27,0.604,0.603C165.738,212.508,165.466,212.778,165.134,212.778z" fill="#8C8C8C"/>
    <path  d="M175.82,220.783l-0.107,-3.419c-0.011,-0.178,-0.021,-0.338,-0.031,-0.489c-0.01,-0.162,-0.037,-0.322,-0.082,-0.476c-0.045,-0.158,-0.11,-0.309,-0.198,-0.453c-0.093,-0.146,-0.216,-0.289,-0.37,-0.42c-0.225,-0.192,-0.443,-0.334,-0.646,-0.416c-0.207,-0.084,-0.461,-0.127,-0.754,-0.127l-1.012,0c-0.259,0,-0.501,0.058,-0.716,0.164c-0.197,0.098,-0.39,0.203,-0.572,0.315l-0.003,0.002l-0.003,0.003l-0.837,0.555l0,-0.041c0,-0.291,-0.057,-0.539,-0.168,-0.733c-0.129,-0.226,-0.367,-0.339,-0.707,-0.339c-0.411,0,-0.604,0.185,-0.693,0.339c-0.109,0.194,-0.168,0.438,-0.168,0.733l0,6.099c0,0.295,0.059,0.539,0.168,0.734c0.09,0.153,0.282,0.338,0.693,0.338c0.34,0,0.578,-0.114,0.707,-0.338c0.111,-0.195,0.168,-0.439,0.168,-0.734L170.489,218.045l1.953,-1.215c0.04,-0.024,0.082,-0.048,0.121,-0.063c0.031,-0.016,0.07,-0.025,0.115,-0.031c0.049,-0.012,0.117,-0.016,0.195,-0.016l0.362,0c0.188,0,0.334,0.021,0.435,0.059c0.082,0.029,0.143,0.076,0.18,0.143c0.05,0.078,0.08,0.18,0.098,0.303c0.02,0.139,0.034,0.309,0.045,0.504l0.096,3.097c-0.457,0.297,-0.762,0.811,-0.762,1.394c0,0.917,0.746,1.661,1.66,1.661c0.916,0,1.66,-0.744,1.66,-1.661C176.646,221.608,176.313,221.07,175.82,220.783zM174.986,222.82c-0.334,0,-0.602,-0.271,-0.602,-0.604c0,-0.333,0.268,-0.604,0.602,-0.604c0.333,0,0.604,0.271,0.604,0.604C175.591,222.551,175.319,222.82,174.986,222.82z" fill="#8C8C8C"/>
    <path  d="M165.197,215.007l-1.193,0c-0.293,0,-0.539,0.059,-0.731,0.169c-0.226,0.129,-0.341,0.368,-0.341,0.708c0,0.412,0.186,0.604,0.341,0.691c0.192,0.113,0.438,0.168,0.731,0.168l0.545,0l0,5.362c0,0.293,0.055,0.539,0.168,0.73c0.127,0.227,0.365,0.341,0.707,0.341c0.41,0,0.604,-0.187,0.691,-0.341c0.111,-0.191,0.17,-0.438,0.17,-0.73L166.285,216.095c0,-0.386,-0.085,-0.656,-0.259,-0.83C165.854,215.093,165.581,215.007,165.197,215.007z" fill="#8C8C8C"/>
   </g>
  </g>
 </g>
 <g partID="854107360">
  <g transform="translate(58.1533,79.6987)">
   <g transform="matrix(0,1,-1,0,0,0)">
    <g id="schematic">
     <line stroke-linecap="round" y2="11.159" y1="11.159" x2="21.6" fill="none" stroke="#000000" stroke-width="0.7" x1="19.8"/>
     <line stroke-linecap="round" y2="7.559" y1="11.159" x2="19.8" fill="none" stroke="#000000" stroke-width="0.7" x1="7.2"/>
     <circle r="0.36" cx="7.2" fill="none" stroke="#000000" stroke-width="0.7" cy="11.159"/>
     <circle r="0.36" cx="21.6" fill="none" stroke="#000000" stroke-width="0.7" cy="11.159"/>
     <g transform="matrix(1, 0, 0, 1, 2.7612, 2.718)">
      <text font-family="'DroidSans'" font-size="2" fill="#787878">1</text>
     </g>
     <g transform="matrix(1, 0, 0, 1, 24.604, 2.718)">
      <text font-family="'DroidSans'" font-size="2" fill="#787878">2</text>
     </g>
     <g transform="matrix(1, 0, 0, 1, 2.7612, 16.843)">
      <text font-family="'DroidSans'" font-size="2" fill="#787878">1</text>
     </g>
     <g transform="matrix(1, 0, 0, 1, 24.604, 16.843)">
      <text font-family="'DroidSans'" font-size="2" fill="#787878">2</text>
     </g>
     <line stroke-linecap="round" y2="18.359" y1="3.96" x2="21.6" fill="none" stroke="#000000" stroke-width="0.7" x1="21.6"/>
     <line stroke-linecap="round" y2="18.359" y1="3.96" x2="7.2" fill="none" stroke="#000000" stroke-width="0.7" x1="7.2"/>
     <line stroke-linecap="round" y2="18.359" id="connector3pin" y1="18.359" x2="7.2" fill="none" stroke="#555555" stroke-width="0.7" x1="0.322"/>
     <line stroke-linecap="round" y2="3.96" id="connector2pin" y1="3.96" x2="7.2" fill="none" stroke="#555555" stroke-width="0.7" x1="0.322"/>
     <g id="connector2terminal" points="0.822,4.281,0.837,3.64,0,3.64,0,4.281" fill="none"/>
     <g id="connector3terminal" points="0.822,18.694,0.837,18.053,0,18.053,0,18.694" fill="none"/>
     <line stroke-linecap="round" y2="18.359" id="connector1pin" y1="18.359" x2="21.6" fill="none" stroke="#555555" stroke-width="0.7" x1="28.451"/>
     <g x="27.806" y="18.006" height="0.672" id="connector1terminal" fill="none" width="0.994"/>
     <g x="27.712" y="3.6" height="0.719" id="connector0terminal" fill="none" width="1.088"/>
     <line stroke-linecap="round" y2="3.96" id="connector0pin" y1="3.96" x2="21.6" fill="none" stroke="#555555" stroke-width="0.7" x1="28.451"/>
    </g>
   </g>
  </g>
 </g>
 <g partID="58580">
  <g transform="translate(61.3798,22.5172)">
   <g id="schematic">
    <rect x="14.85" y="14.85" stroke-linecap="round" height="150.3" fill="#FFFFFF" stroke="#000000" stroke-width="0.3175" width="78.3"/>
    <line stroke-linecap="round" y2="28.8" id="connector61pin" y1="28.8" x2="107.65" fill="none" stroke="#787878" stroke-width="0.2469" x1="93.25"/>
    <g transform="matrix(1, 0, 0, 1, 82.2432, 29.5)">
     <text font-family="'DroidSans'" font-size="3.5" fill="#8C8C8C">D0/RX</text>
    </g>
    <g x="107.65" y="28.45" height="0.7" id="connector61terminal" fill="none" width="0.699"/>
    <line stroke-linecap="round" y2="36" id="connector62pin" y1="36" x2="107.65" fill="none" stroke="#787878" stroke-width="0.2469" x1="93.25"/>
    <g transform="matrix(1, 0, 0, 1, 82.4912, 36.7012)">
     <text font-family="'DroidSans'" font-size="3.5" fill="#8C8C8C">D1/TX</text>
    </g>
    <g x="107.65" y="35.65" height="0.7" id="connector62terminal" fill="none" width="0.699"/>
    <line stroke-linecap="round" y2="43.2" id="connector63pin" y1="43.2" x2="107.65" fill="none" stroke="#787878" stroke-width="0.2469" x1="93.25"/>
    <g transform="matrix(1, 0, 0, 1, 87.5283, 43.9004)">
     <text font-family="'DroidSans'" font-size="3.5" fill="#8C8C8C">D2</text>
    </g>
    <g x="107.65" y="42.85" height="0.7" id="connector63terminal" fill="none" width="0.699"/>
    <line stroke-linecap="round" y2="50.4" id="connector64pin" y1="50.4" x2="107.65" fill="none" stroke="#787878" stroke-width="0.2469" x1="93.25"/>
    <g transform="matrix(1, 0, 0, 1, 78.4639, 51.0996)">
     <text font-family="'DroidSans'" font-size="3.5" fill="#8C8C8C">D3 PWM</text>
    </g>
    <g x="107.65" y="50.05" height="0.7" id="connector64terminal" fill="none" width="0.699"/>
    <line stroke-linecap="round" y2="57.6" id="connector65pin" y1="57.6" x2="107.65" fill="none" stroke="#787878" stroke-width="0.2469" x1="93.25"/>
    <g transform="matrix(1, 0, 0, 1, 87.5283, 58.3008)">
     <text font-family="'DroidSans'" font-size="3.5" fill="#8C8C8C">D4</text>
    </g>
    <g x="107.65" y="57.25" height="0.7" id="connector65terminal" fill="none" width="0.699"/>
    <line stroke-linecap="round" y2="64.8" id="connector66pin" y1="64.8" x2="107.65" fill="none" stroke="#787878" stroke-width="0.2469" x1="93.25"/>
    <g transform="matrix(1, 0, 0, 1, 78.4639, 65.5)">
     <text font-family="'DroidSans'" font-size="3.5" fill="#8C8C8C">D5 PWM</text>
    </g>
    <g x="107.65" y="64.45" height="0.7" id="connector66terminal" fill="none" width="0.699"/>
    <line stroke-linecap="round" y2="72" id="connector67pin" y1="72" x2="107.65" fill="none" stroke="#787878" stroke-width="0.2469" x1="93.25"/>
    <g transform="matrix(1, 0, 0, 1, 78.4639, 72.7012)">
     <text font-family="'DroidSans'" font-size="3.5" fill="#8C8C8C">D6 PWM</text>
    </g>
    <g x="107.65" y="71.65" height="0.7" id="connector67terminal" fill="none" width="0.699"/>
    <line stroke-linecap="round" y2="79.2" id="connector68pin" y1="79.2" x2="107.65" fill="none" stroke="#787878" stroke-width="0.2469" x1="93.25"/>
    <g transform="matrix(1, 0, 0, 1, 87.5283, 79.9004)">
     <text font-family="'DroidSans'" font-size="3.5" fill="#8C8C8C">D7</text>
    </g>
    <g x="107.65" y="78.85" height="0.7" id="connector68terminal" fill="none" width="0.699"/>
    <line stroke-linecap="round" y2="86.4" id="connector51pin" y1="86.4" x2="107.65" fill="none" stroke="#787878" stroke-width="0.2469" x1="93.25"/>
    <g transform="matrix(1, 0, 0, 1, 87.5283, 87.0996)">
     <text font-family="'DroidSans'" font-size="3.5" fill="#8C8C8C">D8</text>
    </g>
    <g x="107.65" y="86.05" height="0.7" id="connector51terminal" fill="none" width="0.699"/>
    <line stroke-linecap="round" y2="93.6" id="connector52pin" y1="93.6" x2="107.65" fill="none" stroke="#787878" stroke-width="0.2469" x1="93.25"/>
    <g transform="matrix(1, 0, 0, 1, 78.4639, 94.3008)">
     <text font-family="'DroidSans'" font-size="3.5" fill="#8C8C8C">D9 PWM</text>
    </g>
    <g x="107.65" y="93.25" height="0.699" id="connector52terminal" fill="none" width="0.699"/>
    <line stroke-linecap="round" y2="100.8" id="connector53pin" y1="100.8" x2="107.65" fill="none" stroke="#787878" stroke-width="0.2469" x1="93.25"/>
    <g transform="matrix(1, 0, 0, 1, 71.5967, 101.5)">
     <text font-family="'DroidSans'" font-size="3.5" fill="#8C8C8C">D10 PWM/SS</text>
    </g>
    <g x="107.65" y="100.449" height="0.701" id="connector53terminal" fill="none" width="0.699"/>
    <line stroke-linecap="round" y2="108" id="connector54pin" y1="108" x2="107.65" fill="none" stroke="#787878" stroke-width="0.2469" x1="93.25"/>
    <g transform="matrix(1, 0, 0, 1, 66.585, 108.701)">
     <text font-family="'DroidSans'" font-size="3.5" fill="#8C8C8C">D11 PWM/MOSI</text>
    </g>
    <g x="107.65" y="107.65" height="0.699" id="connector54terminal" fill="none" width="0.699"/>
    <line stroke-linecap="round" y2="115.2" id="connector55pin" y1="115.2" x2="107.65" fill="none" stroke="#787878" stroke-width="0.2469" x1="93.25"/>
    <g transform="matrix(1, 0, 0, 1, 75.6494, 115.9)">
     <text font-family="'DroidSans'" font-size="3.5" fill="#8C8C8C">D12/MISO</text>
    </g>
    <g x="107.65" y="114.85" height="0.7" id="connector55terminal" fill="none" width="0.699"/>
    <line y2="122.4" id="connector41pin" y1="122.4" x2="107.65" fill="none" x1="93.25"/>
    <rect x="107.65" y="122.05" height="0.7" id="connector41terminal" fill="none" width="0.699"/>
    <line stroke-linecap="round" y2="122.4" id="connector56pin" y1="122.4" x2="107.65" fill="none" stroke="#787878" stroke-width="0.2469" x1="93.25"/>
    <g transform="matrix(1, 0, 0, 1, 78.3408, 123.1)">
     <text font-family="'DroidSans'" font-size="3.5" fill="#8C8C8C">D13/SCK</text>
    </g>
    <g x="107.65" y="122.05" height="0.7" id="connector56terminal" fill="none" width="0.699"/>
    <line y2="28.8" id="connector43pin" y1="28.8" x2="14.75" fill="none" x1="0.35"/>
    <g x="-0.35" y="28.45" height="0.7" id="connector43terminal" fill="none" width="0.7"/>
    <line stroke-linecap="round" y2="28.8" id="connector85pin" y1="28.8" x2="14.75" fill="none" stroke="#787878" stroke-width="0.2469" x1="0.35"/>
    <g transform="matrix(1, 0, 0, 1, 16.1494, 29.5)">
     <text font-family="'DroidSans'" font-size="3.5" fill="#8C8C8C">RESET</text>
    </g>
    <g x="-0.35" y="28.45" height="0.7" id="connector85terminal" fill="none" width="0.7"/>
    <line stroke-linecap="round" y2="36" id="connector49pin" y1="36" x2="14.75" fill="none" stroke="#787878" stroke-width="0.2469" x1="0.35"/>
    <g transform="matrix(1, 0, 0, 1, 16.1494, 36.7012)">
     <text font-family="'DroidSans'" font-size="3.5" fill="#8C8C8C">RESET2</text>
    </g>
    <rect x="-0.35" y="35.65" height="0.7" id="connector49terminal" fill="none" width="0.7"/>
    <line stroke-linecap="round" y2="43.2" id="connector58pin" y1="43.2" x2="14.75" fill="none" stroke="#787878" stroke-width="0.2469" x1="0.35"/>
    <g transform="matrix(1, 0, 0, 1, 16.1494, 43.9004)">
     <text font-family="'DroidSans'" font-size="3.5" fill="#8C8C8C">AREF</text>
    </g>
    <g x="-0.35" y="42.85" height="0.7" id="connector58terminal" fill="none" width="0.7"/>
    <line stroke-linecap="round" y2="50.4" id="connector84pin" y1="50.4" x2="14.75" fill="none" stroke="#787878" stroke-width="0.2469" x1="0.35"/>
    <g transform="matrix(1, 0, 0, 1, 16.1494, 51.0996)">
     <text font-family="'DroidSans'" font-size="3.5" fill="#8C8C8C">I</text>
    </g>
    <g transform="matrix(1, 0, 0, 1, 17.3013, 51.0996)">
     <text font-family="'DroidSans'" font-size="3.5" fill="#8C8C8C">O</text>
    </g>
    <g transform="matrix(1, 0, 0, 1, 19.8989, 51.0996)">
     <text font-family="'DroidSans'" font-size="3.5" fill="#8C8C8C">R</text>
    </g>
    <g transform="matrix(1, 0, 0, 1, 21.9634, 51.0996)">
     <text font-family="'DroidSans'" font-size="3.5" fill="#8C8C8C">E</text>
    </g>
    <g transform="matrix(1, 0, 0, 1, 23.8105, 51.0996)">
     <text font-family="'DroidSans'" font-size="3.5" fill="#8C8C8C">F</text>
    </g>
    <g x="-0.35" y="50.05" height="0.7" id="connector84terminal" fill="none" width="0.7"/>
    <line stroke-linecap="round" y2="64.8" id="connector0pin" y1="64.8" x2="14.75" fill="none" stroke="#787878" stroke-width="0.2469" x1="0.35"/>
    <g transform="matrix(1, 0, 0, 1, 16.1494, 65.5)">
     <text font-family="'DroidSans'" font-size="3.5" fill="#8C8C8C">A0</text>
    </g>
    <g x="-0.35" y="64.45" height="0.7" id="connector0terminal" fill="none" width="0.7"/>
    <line stroke-linecap="round" y2="72" id="connector1pin" y1="72" x2="14.75" fill="none" stroke="#787878" stroke-width="0.2469" x1="0.35"/>
    <g transform="matrix(1, 0, 0, 1, 16.1494, 72.7012)">
     <text font-family="'DroidSans'" font-size="3.5" fill="#8C8C8C">A1</text>
    </g>
    <g x="-0.35" y="71.65" height="0.7" id="connector1terminal" fill="none" width="0.7"/>
    <line stroke-linecap="round" y2="79.2" id="connector2pin" y1="79.2" x2="14.75" fill="none" stroke="#787878" stroke-width="0.2469" x1="0.35"/>
    <g transform="matrix(1, 0, 0, 1, 16.1494, 79.9004)">
     <text font-family="'DroidSans'" font-size="3.5" fill="#8C8C8C">A2</text>
    </g>
    <g x="-0.35" y="78.85" height="0.7" id="connector2terminal" fill="none" width="0.7"/>
    <line stroke-linecap="round" y2="86.4" id="connector3pin" y1="86.4" x2="14.75" fill="none" stroke="#787878" stroke-width="0.2469" x1="0.35"/>
    <g transform="matrix(1, 0, 0, 1, 16.1494, 87.0996)">
     <text font-family="'DroidSans'" font-size="3.5" fill="#8C8C8C">A3</text>
    </g>
    <g x="-0.35" y="86.05" height="0.7" id="connector3terminal" fill="none" width="0.7"/>
    <line y2="93.6" id="connector39pin" y1="93.6" x2="14.75" fill="none" x1="0.35"/>
    <g x="-0.35" y="93.25" height="0.699" id="connector39terminal" fill="none" width="0.7"/>
    <line stroke-linecap="round" y2="93.6" id="connector42pin" y1="93.6" x2="14.75" fill="none" stroke="#787878" stroke-width="0.2469" x1="0.35"/>
    <g x="-0.35" y="93.25" height="0.699" id="connector42terminal" fill="none" width="0.7"/>
    <line y2="93.6" id="connector4pin" y1="93.6" x2="14.75" fill="none" x1="0.35"/>
    <g x="-0.35" y="93.25" height="0.699" id="connector4terminal" fill="none" width="0.7"/>
    <line stroke-linecap="round" y2="93.6" id="connector59pin" y1="93.6" x2="14.75" fill="none" stroke="#787878" stroke-width="0.2469" x1="0.35"/>
    <g x="-0.35" y="93.25" height="0.699" id="connector59terminal" fill="none" width="0.7"/>
    <line y2="100.8" id="connector5pin" y1="100.8" x2="14.75" fill="none" x1="0.35"/>
    <g x="-0.35" y="100.449" height="0.701" id="connector5terminal" fill="none" width="0.7"/>
    <line stroke-linecap="round" y2="100.8" id="connector60pin" y1="100.8" x2="14.75" fill="none" stroke="#787878" stroke-width="0.2469" x1="0.35"/>
    <g x="-0.35" y="100.449" height="0.701" id="connector60terminal" fill="none" width="0.7"/>
    <line stroke-linecap="round" y2="136.8" id="connector91pin" y1="136.8" x2="14.75" fill="none" stroke="#787878" stroke-width="0.2469" x1="0.35"/>
    <g transform="matrix(1, 0, 0, 1, 16.1494, 137.5)">
     <text font-family="'DroidSans'" font-size="3.5" fill="#8C8C8C">N/C</text>
    </g>
    <g x="-0.35" y="136.449" height="0.701" id="connector91terminal" fill="none" width="0.7"/>
    <line y2="179.65" id="connector88pin" y1="165.25" x2="57.6" fill="none" x1="57.6"/>
    <g x="57.25" y="179.65" height="0.699" id="connector88terminal" fill="none" width="0.699"/>
    <line y2="179.65" id="connector57pin" y1="165.25" x2="57.6" fill="none" x1="57.6"/>
    <g x="57.25" y="179.65" height="0.699" id="connector57terminal" fill="none" width="0.699"/>
    <line y2="179.65" id="connector44pin" y1="165.25" x2="57.6" fill="none" x1="57.6"/>
    <g x="57.25" y="179.65" height="0.699" id="connector44terminal" fill="none" width="0.699"/>
    <line y2="179.65" id="connector50pin" y1="165.25" x2="57.6" fill="none" x1="57.6"/>
    <rect x="57.25" y="179.65" height="0.699" id="connector50terminal" fill="none" width="0.699"/>
    <line stroke-linecap="round" y2="179.65" id="connector89pin" y1="165.25" x2="57.6" fill="none" stroke="#787878" stroke-width="0.2469" x1="57.6"/>
    <g transform="matrix(1, 0, 0, 1, 20.5669, 57.8026)">
     <g>
      <g transform="rotate(270)">
       <g>
        <g transform="matrix(1, 0, 0, 1, -106.047, 37.7329)">
         <text font-family="'DroidSans'" font-size="3.5" fill="#8C8C8C">GND</text>
        </g>
       </g>
      </g>
     </g>
    </g>
    <g x="57.25" y="179.65" height="0.699" id="connector89terminal" fill="none" width="0.699"/>
    <line stroke-linecap="round" y2="14.75" id="connector86pin" y1="0.35" x2="36" fill="none" stroke="#787878" stroke-width="0.2469" x1="36"/>
    <g transform="matrix(1, 0, 0, 1, 12.9469, 5.69736)">
     <g>
      <g transform="rotate(270)">
       <g>
        <g transform="matrix(1, 0, 0, 1, -16.2968, 23.7533)">
         <text font-family="'DroidSans'" font-size="3.5" fill="#8C8C8C">3V3</text>
        </g>
       </g>
      </g>
     </g>
    </g>
    <g x="35.65" y="-0.35" height="0.7" id="connector86terminal" fill="none" width="0.7"/>
    <line y2="14.75" id="connector40pin" y1="0.35" x2="50.4" fill="none" x1="50.4"/>
    <g x="50.05" y="-0.35" height="0.7" id="connector40terminal" fill="none" width="0.7"/>
    <line y2="14.75" id="connector46pin" y1="0.35" x2="50.4" fill="none" x1="50.4"/>
    <rect x="50.05" y="-0.35" height="0.7" id="connector46terminal" fill="none" width="0.7"/>
    <line stroke-linecap="round" y2="14.75" id="connector87pin" y1="0.35" x2="50.4" fill="none" stroke="#787878" stroke-width="0.2469" x1="50.4"/>
    <g transform="matrix(1, 0, 0, 1, 18.0269, 5.69736)">
     <g>
      <g transform="rotate(270)">
       <g>
        <g transform="matrix(1, 0, 0, 1, -14.369, 33.0737)">
         <text font-family="'DroidSans'" font-size="3.5" fill="#8C8C8C">5V</text>
        </g>
       </g>
      </g>
     </g>
    </g>
    <g x="50.05" y="-0.35" height="0.7" id="connector87terminal" fill="none" width="0.7"/>
    <line stroke-linecap="round" y2="14.75" id="connector90pin" y1="0.35" x2="64.8" fill="none" stroke="#787878" stroke-width="0.2469" x1="64.8"/>
    <g transform="matrix(1, 0, 0, 1, 23.1069, 5.69736)">
     <g>
      <g transform="rotate(270)">
       <g>
        <g transform="matrix(1, 0, 0, 1, -16.1776, 42.3922)">
         <text font-family="'DroidSans'" font-size="3.5" fill="#8C8C8C">VIN</text>
        </g>
       </g>
      </g>
     </g>
    </g>
    <g x="64.449" y="-0.35" height="0.7" id="connector90terminal" fill="none" width="0.701"/>
    <g transform="matrix(1, 0, 0, 1, 46.7861, 81.3828)">
     <text id="label" font-family="'DroidSans'" font-size="4.25">Arduino</text>
    </g>
    <g transform="matrix(1, 0, 0, 1, 50.4893, 85.916)">
     <text id="label_1_" font-family="'DroidSans'" font-size="4.25">Uno</text>
    </g>
    <g transform="matrix(1, 0, 0, 1, 48.5928, 90.4512)">
     <text id="label_2_" font-family="'DroidSans'" font-size="4.25">(Rev3)</text>
    </g>
    <g transform="matrix(1, 0, 0, 1, 50.1416, 94.9844)">
     <text font-family="'DroidSans'" font-size="4.25">I</text>
    </g>
    <g transform="matrix(1, 0, 0, 1, 51.54, 94.9844)">
     <text font-family="'DroidSans'" font-size="4.25">C</text>
    </g>
    <g transform="matrix(1, 0, 0, 1, 54.103, 94.9844)">
     <text font-family="'DroidSans'" font-size="4.25">S</text>
    </g>
    <g transform="matrix(1, 0, 0, 1, 56.3086, 94.9844)">
     <text font-family="'DroidSans'" font-size="4.25">P</text>
    </g>
    <g transform="matrix(1, 0, 0, 1, 16.1494, 94.9844)">
     <text font-family="'DroidSans'" font-size="3.5" fill="#8C8C8C">A4/SDA</text>
    </g>
    <g transform="matrix(1, 0, 0, 1, 16.1494, 102.184)">
     <text font-family="'DroidSans'" font-size="3.5" fill="#8C8C8C">A5/SCL</text>
    </g>
   </g>
  </g>
 </g>
 <g partID="62470">
  <g transform="translate(13.68,51.1014)">
   <g transform="matrix(-1,0,0,1,0,0)">
    <g id="schematic">
     <g>
      <path d="M13.5,14.966L9.9,14.966c-0.193,0,-0.35,-0.156,-0.35,-0.35s0.156,-0.35,0.35,-0.35L13.5,14.266c0.193,0,0.35,0.156,0.35,0.35S13.694,14.966,13.5,14.966z"/>
     </g>
     <g>
      <path d="M9.9,14.966L6.3,14.966c-0.193,0,-0.35,-0.156,-0.35,-0.35s0.157,-0.35,0.35,-0.35l3.6,0c0.193,0,0.35,0.156,0.35,0.35S10.093,14.966,9.9,14.966z"/>
     </g>
     <g>
      <polygon points="9.9,14.616,6.3,7.416,9.9,7.416,13.5,7.416" fill="#FFFFFF"/>
      <path d="M9.9,15.398L5.734,7.066l8.333,0L9.9,15.398zM6.866,7.766L9.9,13.834l3.034,-6.068L6.866,7.766z"/>
     </g>
     <g>
      <path d="M9.9,14.841c-0.124,0,-0.225,-0.101,-0.225,-0.225l0,-7.2c0,-0.124,0.101,-0.225,0.225,-0.225s0.225,0.101,0.225,0.225l0,7.2C10.124,14.74,10.024,14.841,9.9,14.841z"/>
     </g>
     <g>
      <path d="M1.8,12.141c-0.058,0,-0.115,-0.021,-0.159,-0.065c-0.088,-0.088,-0.088,-0.23,0,-0.318l2.34,-2.341c0.088,-0.088,0.23,-0.088,0.318,0s0.088,0.23,0,0.318l-2.34,2.341C1.915,12.12,1.858,12.141,1.8,12.141z"/>
     </g>
     <g>
      <path d="M2.16,15.381c-0.058,0,-0.115,-0.021,-0.159,-0.065c-0.088,-0.088,-0.088,-0.23,0,-0.318l2.34,-2.34c0.088,-0.088,0.23,-0.088,0.318,0s0.088,0.23,0,0.318l-2.34,2.34C2.276,15.359,2.218,15.381,2.16,15.381z"/>
     </g>
     <g id="connector0pin">
      <path d="M9.9,22.166c-0.193,0,-0.35,-0.156,-0.35,-0.35l0,-7.2c0,-0.193,0.156,-0.35,0.35,-0.35s0.35,0.156,0.35,0.35l0,7.2C10.249,22.01,10.093,22.166,9.9,22.166z" fill="#787878"/>
     </g>
     <g id="connector0terminal">
      <rect x="9.9" y="21.816" height="0.001" fill="none" width="0.001"/>
     </g>
     <g transform="matrix(1, 0, 0, 1, 3.429, 6.4262)">
      <g>
       <g transform="rotate(270)">
        <g>
         <g enable-background="new    ">
          <path d="M-11.647,5.54l-0.891,0L-12.538,5.388l0.342,-0.372c0.049,-0.053,0.093,-0.101,0.131,-0.145s0.071,-0.086,0.099,-0.128c0.026,-0.042,0.047,-0.084,0.062,-0.125c0.015,-0.043,0.021,-0.088,0.021,-0.138c0,-0.038,-0.005,-0.072,-0.017,-0.102s-0.027,-0.054,-0.047,-0.075c-0.021,-0.02,-0.045,-0.035,-0.073,-0.046s-0.06,-0.016,-0.094,-0.016c-0.062,0,-0.118,0.013,-0.167,0.038c-0.051,0.024,-0.098,0.057,-0.143,0.096l-0.1,-0.116c0.025,-0.023,0.055,-0.046,0.084,-0.065c0.029,-0.021,0.063,-0.039,0.097,-0.054s0.071,-0.026,0.109,-0.036c0.038,-0.008,0.079,-0.013,0.121,-0.013c0.063,0,0.119,0.009,0.169,0.026c0.051,0.018,0.094,0.043,0.129,0.076c0.035,0.032,0.063,0.072,0.082,0.119c0.019,0.048,0.028,0.101,0.028,0.16c0,0.056,-0.009,0.108,-0.026,0.158c-0.017,0.05,-0.041,0.1,-0.07,0.148c-0.031,0.048,-0.066,0.097,-0.109,0.146c-0.041,0.049,-0.087,0.1,-0.136,0.152L-12.32,5.37l0,0.008l0.673,0L-11.647,5.54z" fill="#787878"/>
         </g>
        </g>
       </g>
      </g>
     </g>
     <g id="connector1pin">
      <path d="M9.9,7.766c-0.193,0,-0.35,-0.157,-0.35,-0.35l0,-7.2c0,-0.193,0.156,-0.35,0.35,-0.35s0.35,0.157,0.35,0.35l0,7.2C10.249,7.609,10.093,7.766,9.9,7.766z" fill="#787878"/>
     </g>
     <g id="connector1terminal">
      <polygon points="9.9,0.216,9.901,0.216,9.901,0.216" fill="none"/>
     </g>
     <g transform="matrix(1, 0, 0, 1, 3.429, 1.3462)">
      <g>
       <g transform="rotate(270)">
        <g>
         <g enable-background="new    ">
          <path d="M-2.616,5.54l-0.172,0L-2.788,4.648c0,-0.028,0,-0.058,0,-0.09s0.001,-0.063,0.002,-0.095c0.001,-0.032,0.002,-0.063,0.003,-0.092c0.001,-0.028,0.002,-0.054,0.002,-0.076c-0.011,0.012,-0.021,0.021,-0.029,0.03s-0.017,0.017,-0.026,0.024s-0.018,0.016,-0.028,0.025c-0.01,0.008,-0.021,0.019,-0.035,0.03l-0.145,0.118l-0.094,-0.12l0.374,-0.292l0.146,0L-2.618,5.54z" fill="#787878"/>
         </g>
        </g>
       </g>
      </g>
     </g>
     <g>
      <path d="M0.18,13.536l1.08,-2.521l1.44,1.438L0.18,13.536z"/>
     </g>
     <g>
      <path d="M0.54,16.776l1.08,-2.521l1.438,1.438L0.54,16.776z"/>
     </g>
    </g>
   </g>
  </g>
 </g>
 <g partID="854108540">
  <g transform="translate(57.276,22.1671)">
   <g transform="matrix(0,1,-1,0,0,0)">
    <g id="schematic" >
     <line y2="0.216" stroke-linecap="round"  y1="3.096" x2="8.63003" class="other" x1="7.55002" stroke="#000000" stroke-width="0.432002"/>
     <line y2="5.976" stroke-linecap="round"  y1="0.216" x2="10.43" class="other" x1="8.63003" stroke="#000000" stroke-width="0.432002"/>
     <line y2="0.216" stroke-linecap="round"  y1="5.976" x2="12.23" class="other" x1="10.43" stroke="#000000" stroke-width="0.432002"/>
     <line y2="5.976" stroke-linecap="round"  y1="0.216" x2="14.03" class="other" x1="12.23" stroke="#000000" stroke-width="0.432002"/>
     <line y2="0.216" stroke-linecap="round"  y1="5.976" x2="15.8301" class="other" x1="14.03" stroke="#000000" stroke-width="0.432002"/>
     <line y2="5.976" stroke-linecap="round"  y1="0.216" x2="17.6301" class="other" x1="15.8301" stroke="#000000" stroke-width="0.432002"/>
     <line y2="0.216" stroke-linecap="round"  y1="5.976" x2="19.4301" class="other" x1="17.6301" stroke="#000000" stroke-width="0.432002"/>
     <line y2="5.976" stroke-linecap="round"  y1="0.216" x2="21.2301" class="other" x1="19.4301" stroke="#000000" stroke-width="0.432002"/>
     <line y2="3.096" stroke-linecap="round"  y1="5.976" x2="21.9501" class="other" x1="21.2301" stroke="#000000" stroke-width="0.432002"/>
     <line y2="3.096" stroke-linecap="round" id="connector1pin"  connectorname="2" y1="3.096" x2="21.9501" class="pin" x1="29.1502" stroke="#787878" stroke-width="0.700001"/>
     <g x="29.1502" y="3.096" height="0.000283465" id="connector1terminal"  class="terminal" stroke="none" stroke-width="0" fill="none" width="0.000283466"/>
     <text x="25.5501" y="2.046" font-family="'Droid Sans'"  text-anchor="middle" font-size="2.50001" class="text" stroke="none" stroke-width="0" fill="#8c8c8c">2</text>
     <line y2="3.096" stroke-linecap="round" id="connector0pin"  connectorname="1" y1="3.096" x2="7.55002" class="pin" x1="0.350001" stroke="#787878" stroke-width="0.700001"/>
     <g x="0.350001" y="3.096" height="0.000283465" id="connector0terminal"  class="terminal" stroke="none" stroke-width="0" fill="none" width="0.000283466"/>
     <text x="3.95001" y="2.046" font-family="'Droid Sans'"  text-anchor="middle" font-size="2.50001" class="text" stroke="none" stroke-width="0" fill="#8c8c8c">1</text>
    </g>
   </g>
  </g>
 </g>
 <g partID="63770">
  <g transform="translate(0.68368,138.067)">
   <g transform="matrix(0,-1,1,0,0,0)">
    <g id="schematic" >
     <line y2="0.216" stroke-linecap="round"  y1="3.096" x2="8.63003" class="other" x1="7.55002" stroke="#000000" stroke-width="0.432002"/>
     <line y2="5.976" stroke-linecap="round"  y1="0.216" x2="10.43" class="other" x1="8.63003" stroke="#000000" stroke-width="0.432002"/>
     <line y2="0.216" stroke-linecap="round"  y1="5.976" x2="12.23" class="other" x1="10.43" stroke="#000000" stroke-width="0.432002"/>
     <line y2="5.976" stroke-linecap="round"  y1="0.216" x2="14.03" class="other" x1="12.23" stroke="#000000" stroke-width="0.432002"/>
     <line y2="0.216" stroke-linecap="round"  y1="5.976" x2="15.8301" class="other" x1="14.03" stroke="#000000" stroke-width="0.432002"/>
     <line y2="5.976" stroke-linecap="round"  y1="0.216" x2="17.6301" class="other" x1="15.8301" stroke="#000000" stroke-width="0.432002"/>
     <line y2="0.216" stroke-linecap="round"  y1="5.976" x2="19.4301" class="other" x1="17.6301" stroke="#000000" stroke-width="0.432002"/>
     <line y2="5.976" stroke-linecap="round"  y1="0.216" x2="21.2301" class="other" x1="19.4301" stroke="#000000" stroke-width="0.432002"/>
     <line y2="3.096" stroke-linecap="round"  y1="5.976" x2="21.9501" class="other" x1="21.2301" stroke="#000000" stroke-width="0.432002"/>
     <line y2="3.096" stroke-linecap="round" id="connector1pin"  connectorname="2" y1="3.096" x2="21.9501" class="pin" x1="29.1502" stroke="#787878" stroke-width="0.700001"/>
     <g x="29.1502" y="3.096" height="0.000283465" id="connector1terminal"  class="terminal" stroke="none" stroke-width="0" fill="none" width="0.000283466"/>
     <text x="25.5501" y="2.046" font-family="'Droid Sans'"  text-anchor="middle" font-size="2.50001" class="text" stroke="none" stroke-width="0" fill="#8c8c8c">2</text>
     <line y2="3.096" stroke-linecap="round" id="connector0pin"  connectorname="1" y1="3.096" x2="7.55002" class="pin" x1="0.350001" stroke="#787878" stroke-width="0.700001"/>
     <g x="0.350001" y="3.096" height="0.000283465" id="connector0terminal"  class="terminal" stroke="none" stroke-width="0" fill="none" width="0.000283466"/>
     <text x="3.95001" y="2.046" font-family="'Droid Sans'"  text-anchor="middle" font-size="2.50001" class="text" stroke="none" stroke-width="0" fill="#8c8c8c">1</text>
    </g>
   </g>
  </g>
 </g>
 <g partID="854112350">
  <line stroke-linecap="round" y2="107.955" y1="202.638" x2="54.1938" stroke="#404040" x1="54.0982" stroke-width="0.699998"/>
 </g>
 <circle r="1.44" cx="54.1938" fill="black" cy="107.955" stroke-width="0" stroke="none"/>
 <g partID="854112190">
  <line stroke-linecap="round" y2="202.638" y1="202.638" x2="54.0982" stroke="#404040" x1="3.87984" stroke-width="0.699998"/>
 </g>
 <g partID="854112200">
  <line stroke-linecap="round" y2="202.638" y1="137.717" x2="3.87988" stroke="#404040" x1="3.77984" stroke-width="0.699998"/>
 </g>
 <g partID="854112460">
  <line stroke-linecap="round" y2="107.955" y1="202.638" x2="54.1938" stroke="#404040" x1="54.0982" stroke-width="0.699998"/>
 </g>
 <circle r="1.44" cx="54.1938" fill="black" cy="107.955" stroke-width="0" stroke="none"/>
 <g partID="854112470">
  <line stroke-linecap="round" y2="202.637" y1="202.516" x2="54.0982" stroke="#404040" x1="118.979" stroke-width="0.699998"/>
 </g>
 <g partID="854108360">
  <line stroke-linecap="round" y2="144.917" y1="144.862" x2="169.379" stroke="#404040" x1="183.949" stroke-width="0.699998"/>
 </g>
 <g partID="854108470">
  <line stroke-linecap="round" y2="1.05168" y1="1.05168" x2="183.949" stroke="#404040" x1="3.92544" stroke-width="0.699998"/>
 </g>
 <g partID="854108420">
  <line stroke-linecap="round" y2="144.862" y1="1.05168" x2="183.949" stroke="#404040" x1="183.949" stroke-width="0.699998"/>
 </g>
 <g partID="854108370">
  <line stroke-linecap="round" y2="1.05168" y1="51.3174" x2="3.9254" stroke="#404040" x1="3.77952" stroke-width="0.699998"/>
 </g>
 <g partID="854110070">
  <line stroke-linecap="round" y2="51.3174" y1="80.0951" x2="54.1798" stroke="#404040" x1="54.1909" stroke-width="0.699998"/>
 </g>
 <g partID="854110080">
  <line stroke-linecap="round" y2="80.0951" y1="80.1172" x2="54.1909" stroke="#404040" x1="54.1928" stroke-width="0.699998"/>
 </g>
 <circle r="1.44" cx="54.1928" fill="black" cy="80.1172" stroke-width="0" stroke="none"/>
 <g partID="854110290">
  <line stroke-linecap="round" y2="22.5172" y1="15.3282" x2="111.78" stroke="#404040" x1="111.87" stroke-width="0.699998"/>
 </g>
 <g partID="854110230">
  <line stroke-linecap="round" y2="15.3282" y1="15.3282" x2="111.87" stroke="#404040" x1="54.0675" stroke-width="0.699998"/>
 </g>
 <g partID="854110240">
  <line stroke-linecap="round" y2="15.3283" y1="22.5172" x2="54.0675" stroke="#404040" x1="54.1798" stroke-width="0.699998"/>
 </g>
 <g partID="854111200">
  <line stroke-linecap="round" y2="80.1172" y1="58.5111" x2="54.1928" stroke="#404040" x1="54.0982" stroke-width="0.699998"/>
 </g>
 <circle r="1.44" cx="54.1928" fill="black" cy="80.1172" stroke-width="0" stroke="none"/>
 <g partID="854111130">
  <line stroke-linecap="round" y2="58.5111" y1="58.5111" x2="54.0982" stroke="#404040" x1="54.0982" stroke-width="0.699998"/>
 </g>
 <g partID="854111420">
  <line stroke-linecap="round" y2="58.5111" y1="58.5111" x2="54.0982" stroke="#404040" x1="39.7859" stroke-width="0.699998"/>
 </g>
 <g partID="854110510">
  <line stroke-linecap="round" y2="58.5111" y1="8.01584" x2="39.786" stroke="#404040" x1="39.7909" stroke-width="0.699998"/>
 </g>
 <g partID="854110440">
  <line stroke-linecap="round" y2="8.01584" y1="8.01592" x2="39.791" stroke="#404040" x1="176.637" stroke-width="0.699998"/>
 </g>
 <g partID="854110360">
  <line stroke-linecap="round" y2="8.01592" y1="65.8186" x2="176.637" stroke="#404040" x1="176.637" stroke-width="0.699998"/>
 </g>
 <g partID="854110370">
  <line stroke-linecap="round" y2="65.8185" y1="65.7172" x2="176.637" stroke="#404040" x1="169.379" stroke-width="0.699998"/>
 </g>
 <g partID="67630">
  <line stroke-linecap="round" y2="202.517" y1="202.664" x2="118.979" stroke="#404040" x1="3.92544" stroke-width="0.699998"/>
 </g>
 <g partID="67710">
  <line stroke-linecap="round" y2="108.917" y1="87.4806" x2="3.77978" stroke="#404040" x1="3.63104" stroke-width="0.699998"/>
 </g>
 <g partID="67720">
  <line stroke-linecap="round" y2="87.4806" y1="72.9178" x2="3.63106" stroke="#404040" x1="3.77952" stroke-width="0.699998"/>
 </g>
 <g id="partLabel" partID="62470">
  <g transform="translate(6.01944,38.1603)">
   <g font-style="normal" id="schematicLabel" font-family="'DroidSans'" font-weight="normal" fill-opacity="1" font-size="5" fill="#000000" stroke="none">
    <text x="0" y="3.75">LED1</text>
    <text x="0" y="8.75">Red (633nm)</text>
   </g>
  </g>
 </g>
 <g id="partLabel" partID="58580">
  <g transform="translate(129.281,30.3872)">
   <g transform="matrix(1,0,0,1,0,0)">
    <g font-style="normal" id="schematicLabel" font-family="'DroidSans'" font-weight="normal" fill-opacity="1" font-size="5" fill="#000000" stroke="none">
     <text x="0" y="3.75">Microcontroller</text>
    </g>
   </g>
  </g>
 </g>
 <g id="partLabel" partID="854108540">
  <g transform="translate(58.9055,21.2189)">
   <g font-style="normal" id="schematicLabel" font-family="'DroidSans'" font-weight="normal" fill-opacity="1" font-size="5" fill="#000000" stroke="none">
    <text x="0" y="3.75">R2</text>
    <text x="0" y="8.75">10k&#x3a9;</text>
    <text x="0" y="13.75">0.25</text>
   </g>
  </g>
 </g>
 <g id="partLabel" partID="63770">
  <g transform="translate(11.8144,106.575)">
   <g font-style="normal" id="schematicLabel" font-family="'DroidSans'" font-weight="normal" fill-opacity="1" font-size="5" fill="#000000" stroke="none">
    <text x="0" y="3.75">R1</text>
    <text x="0" y="8.75">220&#x3a9;</text>
    <text x="0" y="13.75">0.25</text>
   </g>
  </g>
 </g>
 <g id="partLabel" partID="854107360">
  <g transform="translate(39.2465,71.6922)">
   <g font-style="normal" id="schematicLabel" font-family="'DroidSans'" font-weight="normal" fill-opacity="1" font-size="5" fill="#000000" stroke="none">
    <text x="0" y="3.75">S1</text>
   </g>
  </g>
 </g>
</svg>
