<?xml version='1.0' encoding='UTF-8' standalone='no'?>
<!-- Created with Fritzing (https://fritzing.org/) -->
<svg xmlns="http://www.w3.org/2000/svg" x="0in" y="0in"  version="1.2" viewBox="0 0 185.28 226.608" baseProfile="tiny" height="3.14734in" width="2.57334in" xmlns:svg="http://www.w3.org/2000/svg">
 <g  id="watermark">
  <g >
   <g >
    <path  fill="#8C8C8C" d="M160.548,220.408c-0.604,0,-1.131,0.325,-1.422,0.809l-2.796,0l3.96,-4.071c0.146,-0.146,0.289,-0.322,0.428,-0.521c0.149,-0.222,0.228,-0.479,0.228,-0.768c0,-0.279,-0.097,-0.518,-0.287,-0.71c-0.19,-0.188,-0.444,-0.287,-0.754,-0.287l-4.636,0c-0.305,0,-0.555,0.06,-0.742,0.17c-0.219,0.13,-0.33,0.368,-0.33,0.707c0,0.329,0.111,0.562,0.33,0.692c0.188,0.111,0.438,0.168,0.742,0.168l3.148,0l-3.974,4.086c-0.146,0.147,-0.289,0.315,-0.425,0.504c-0.153,0.212,-0.23,0.472,-0.23,0.771c0,0.28,0.096,0.521,0.288,0.711c0.188,0.188,0.442,0.285,0.754,0.285l4.315,0c0.293,0.467,0.812,0.776,1.4,0.776c0.916,0,1.66,-0.744,1.66,-1.661C162.207,221.153,161.462,220.408,160.548,220.408zM160.548,222.671c-0.334,0,-0.604,-0.271,-0.604,-0.604c0,-0.333,0.27,-0.604,0.604,-0.604c0.332,0,0.604,0.271,0.604,0.604C161.151,222.402,160.88,222.671,160.548,222.671z"/>
    <path  fill="#8C8C8C" d="M143.605,210.366c-0.914,0,-1.659,0.745,-1.659,1.66c0,0.916,0.745,1.66,1.659,1.66s1.658,-0.744,1.658,-1.66C145.265,211.111,144.521,210.366,143.605,210.366zM143.606,212.629c-0.333,0,-0.604,-0.27,-0.604,-0.603s0.271,-0.603,0.604,-0.603c0.331,0,0.604,0.27,0.604,0.603S143.937,212.629,143.606,212.629z"/>
    <path  fill="#8C8C8C" d="M152.126,215.028c-0.193,-0.111,-0.439,-0.169,-0.732,-0.169l-1.465,0L149.929,212.337c0,-0.292,-0.057,-0.538,-0.166,-0.729C149.673,211.451,149.48,211.266,149.07,211.266c-0.34,0,-0.578,0.116,-0.709,0.342c-0.109,0.193,-0.167,0.438,-0.167,0.729l0,2.521l-0.481,0c-0.295,0,-0.539,0.06,-0.731,0.169c-0.228,0.129,-0.341,0.368,-0.341,0.708c0,0.412,0.185,0.603,0.341,0.692c0.192,0.111,0.438,0.168,0.731,0.168l0.481,0l0,4.362c0,0.277,0.026,0.533,0.081,0.768c0.056,0.246,0.154,0.464,0.298,0.645c0.146,0.186,0.345,0.332,0.595,0.436c0.241,0.098,0.555,0.146,0.93,0.146l0.896,0c0.292,0,0.539,-0.054,0.731,-0.166c0.154,-0.089,0.341,-0.281,0.341,-0.693c0,-0.338,-0.114,-0.578,-0.341,-0.709c-0.192,-0.109,-0.439,-0.168,-0.731,-0.168l-0.821,0c-0.138,0,-0.19,-0.019,-0.207,-0.024c-0.014,-0.034,-0.035,-0.103,-0.035,-0.231L149.931,216.596l1.465,0c0.295,0,0.541,-0.057,0.734,-0.168c0.152,-0.09,0.34,-0.28,0.34,-0.692C152.466,215.396,152.353,215.157,152.126,215.028z"/>
    <path  fill="#8C8C8C" d="M143.671,214.858l-1.191,0c-0.292,0,-0.538,0.059,-0.731,0.169c-0.226,0.129,-0.341,0.368,-0.341,0.708c0,0.412,0.188,0.604,0.341,0.691c0.193,0.113,0.439,0.168,0.731,0.168l0.544,0l0,5.362c0,0.293,0.057,0.539,0.167,0.73c0.131,0.227,0.367,0.341,0.708,0.341c0.411,0,0.604,-0.187,0.692,-0.341c0.111,-0.191,0.168,-0.438,0.168,-0.73L144.759,215.946c0,-0.386,-0.084,-0.656,-0.256,-0.83C144.328,214.944,144.058,214.858,143.671,214.858z"/>
    <path  fill="#8C8C8C" d="M139.836,215.028c-0.193,-0.111,-0.44,-0.169,-0.732,-0.169l-0.604,0c-0.25,0,-0.498,0.063,-0.734,0.187c-0.226,0.119,-0.433,0.271,-0.616,0.453l-0.644,0.604l0,-0.247c0,-0.291,-0.055,-0.538,-0.168,-0.729c-0.128,-0.228,-0.368,-0.34,-0.707,-0.34c-0.41,0,-0.604,0.184,-0.693,0.34c-0.11,0.191,-0.167,0.438,-0.167,0.729l0,4.801c-0.475,0.293,-0.791,0.816,-0.791,1.412c0,0.917,0.745,1.661,1.658,1.661c0.916,0,1.66,-0.744,1.66,-1.661c0,-0.596,-0.317,-1.119,-0.792,-1.412l0,-2.21l1.738,-1.564c0.1,-0.09,0.199,-0.164,0.297,-0.217c0.084,-0.045,0.174,-0.067,0.274,-0.067l0.288,0c0.292,0,0.539,-0.056,0.732,-0.169c0.155,-0.088,0.339,-0.279,0.339,-0.691C140.176,215.396,140.061,215.157,139.836,215.028zM135.637,222.671c-0.332,0,-0.603,-0.271,-0.603,-0.604c0,-0.333,0.271,-0.604,0.603,-0.604c0.333,0,0.604,0.271,0.604,0.604C136.241,222.402,135.97,222.671,135.637,222.671z"/>
    <path  fill="#8C8C8C" d="M133.12,211.509c-0.193,-0.111,-0.44,-0.167,-0.731,-0.167l-0.59,0c-0.2,0,-0.389,0.004,-0.562,0.016c-0.176,0.009,-0.345,0.035,-0.506,0.07c-0.168,0.041,-0.336,0.109,-0.496,0.202c-0.158,0.093,-0.319,0.222,-0.48,0.382c-0.334,0.314,-0.554,0.656,-0.652,1.017c-0.094,0.348,-0.143,0.735,-0.143,1.151l0,0.678l-0.483,0c-0.292,0,-0.539,0.059,-0.73,0.169c-0.227,0.13,-0.342,0.369,-0.342,0.708c0,0.412,0.185,0.604,0.341,0.693c0.191,0.111,0.438,0.166,0.73,0.166l0.483,0l0,5.362c0,0.293,0.057,0.539,0.167,0.73c0.13,0.227,0.367,0.341,0.708,0.341c0.411,0,0.603,-0.187,0.692,-0.341c0.111,-0.191,0.168,-0.438,0.168,-0.73l0,-5.36l0.92,0c0.293,0,0.54,-0.057,0.732,-0.168c0.155,-0.09,0.34,-0.28,0.34,-0.692c0,-0.34,-0.114,-0.579,-0.34,-0.708c-0.189,-0.111,-0.436,-0.17,-0.729,-0.17l-0.92,0l0,-0.678c0,-0.218,0.019,-0.41,0.056,-0.571c0.032,-0.141,0.103,-0.261,0.218,-0.367l0.002,-0.004l0.002,-0.002c0.082,-0.082,0.176,-0.126,0.29,-0.136c0.15,-0.015,0.339,-0.022,0.564,-0.022l0.56,0c0.291,0,0.539,-0.058,0.731,-0.168c0.154,-0.088,0.339,-0.281,0.339,-0.693C133.46,211.878,133.345,211.639,133.12,211.509z"/>
    <path  fill="#8C8C8C" d="M185.113,215.126c-0.089,-0.156,-0.282,-0.34,-0.693,-0.34c-0.339,0,-0.578,0.113,-0.707,0.34c-0.078,0.133,-0.127,0.293,-0.152,0.477l-0.021,-0.021c-0.216,-0.236,-0.466,-0.42,-0.747,-0.539c-0.277,-0.119,-0.563,-0.183,-0.849,-0.183l-0.709,0c-0.249,0,-0.466,0.015,-0.64,0.041c-0.182,0.026,-0.352,0.074,-0.51,0.14c-0.158,0.066,-0.313,0.15,-0.459,0.254c-0.139,0.097,-0.303,0.226,-0.486,0.377c-0.188,0.156,-0.342,0.302,-0.463,0.434c-0.127,0.141,-0.23,0.293,-0.306,0.455c-0.069,0.16,-0.122,0.337,-0.147,0.523c-0.026,0.178,-0.041,0.391,-0.041,0.631l0,2.386c0,0.24,0.015,0.451,0.041,0.631c0.025,0.188,0.078,0.361,0.147,0.521c0.074,0.164,0.179,0.318,0.306,0.457c0.119,0.129,0.274,0.274,0.463,0.433c0.186,0.153,0.35,0.28,0.486,0.379c0.146,0.103,0.299,0.188,0.459,0.254c0.158,0.065,0.329,0.112,0.51,0.14c0.174,0.026,0.389,0.039,0.64,0.039l0.709,0c0.298,0,0.591,-0.066,0.87,-0.199c0.244,-0.114,0.492,-0.291,0.73,-0.523l0,1.434c0,0.18,-0.025,0.334,-0.072,0.465c-0.043,0.119,-0.159,0.258,-0.344,0.406c-0.154,0.127,-0.309,0.217,-0.457,0.264c-0.15,0.049,-0.341,0.074,-0.563,0.074l-2.203,0c-0.293,0,-0.538,0.055,-0.732,0.166c-0.152,0.088,-0.34,0.282,-0.34,0.692c0,0.341,0.115,0.579,0.34,0.71c0.194,0.109,0.439,0.167,0.732,0.167l2.326,0c0.247,0,0.463,-0.015,0.638,-0.041c0.179,-0.026,0.351,-0.073,0.513,-0.14c0.153,-0.064,0.31,-0.15,0.455,-0.254c0.143,-0.101,0.305,-0.227,0.487,-0.379c0.185,-0.153,0.343,-0.299,0.463,-0.431c0.128,-0.141,0.229,-0.294,0.304,-0.456c0.071,-0.162,0.123,-0.338,0.148,-0.523c0.025,-0.182,0.041,-0.393,0.041,-0.631l0,-7.898C185.28,215.564,185.226,215.317,185.113,215.126zM183.544,219.586c0,0.188,-0.062,0.35,-0.188,0.49c-0.15,0.172,-0.394,0.403,-0.716,0.686l-0.002,0.003l-0.002,0.004c-0.139,0.13,-0.291,0.237,-0.453,0.325c-0.148,0.082,-0.325,0.121,-0.526,0.121L181.356,221.215c-0.222,0,-0.41,-0.021,-0.563,-0.072c-0.148,-0.049,-0.301,-0.137,-0.453,-0.264c-0.231,-0.186,-0.315,-0.322,-0.346,-0.404c-0.049,-0.131,-0.072,-0.285,-0.072,-0.465l0,-2.206c0,-0.18,0.023,-0.336,0.072,-0.467c0.029,-0.082,0.113,-0.217,0.346,-0.403c0.152,-0.127,0.305,-0.216,0.453,-0.265c0.153,-0.049,0.342,-0.072,0.563,-0.072l0.301,0c0.212,0,0.388,0.037,0.526,0.113c0.152,0.082,0.308,0.191,0.457,0.324c0.322,0.293,0.564,0.529,0.716,0.7c0.128,0.146,0.188,0.304,0.188,0.492L183.544,219.586z"/>
    <path  fill="#8C8C8C" d="M165.134,210.366c-0.914,0,-1.66,0.745,-1.66,1.66c0,0.916,0.746,1.66,1.66,1.66s1.66,-0.744,1.66,-1.66C166.794,211.111,166.048,210.366,165.134,210.366zM165.134,212.629c-0.332,0,-0.604,-0.27,-0.604,-0.603s0.271,-0.603,0.604,-0.603s0.604,0.27,0.604,0.603C165.738,212.359,165.466,212.629,165.134,212.629z"/>
    <path  fill="#8C8C8C" d="M175.82,220.634l-0.107,-3.419c-0.011,-0.178,-0.021,-0.338,-0.031,-0.489c-0.01,-0.162,-0.037,-0.322,-0.082,-0.476c-0.045,-0.158,-0.11,-0.309,-0.198,-0.453c-0.093,-0.146,-0.216,-0.289,-0.37,-0.42c-0.225,-0.192,-0.443,-0.334,-0.646,-0.416c-0.207,-0.084,-0.461,-0.127,-0.754,-0.127l-1.012,0c-0.259,0,-0.501,0.058,-0.716,0.164c-0.197,0.098,-0.39,0.203,-0.572,0.315l-0.003,0.002l-0.003,0.003l-0.837,0.555l0,-0.041c0,-0.291,-0.057,-0.539,-0.168,-0.733c-0.129,-0.226,-0.367,-0.339,-0.707,-0.339c-0.411,0,-0.604,0.185,-0.693,0.339c-0.109,0.194,-0.168,0.438,-0.168,0.733l0,6.099c0,0.295,0.059,0.539,0.168,0.734c0.09,0.153,0.282,0.338,0.693,0.338c0.34,0,0.578,-0.114,0.707,-0.338c0.111,-0.195,0.168,-0.439,0.168,-0.734L170.489,217.896l1.953,-1.215c0.04,-0.024,0.082,-0.048,0.121,-0.063c0.031,-0.016,0.07,-0.025,0.115,-0.031c0.049,-0.012,0.117,-0.016,0.195,-0.016l0.362,0c0.188,0,0.334,0.021,0.435,0.059c0.082,0.029,0.143,0.076,0.18,0.143c0.05,0.078,0.08,0.18,0.098,0.303c0.02,0.139,0.034,0.309,0.045,0.504l0.096,3.097c-0.457,0.297,-0.762,0.811,-0.762,1.394c0,0.917,0.746,1.661,1.66,1.661c0.916,0,1.66,-0.744,1.66,-1.661C176.646,221.459,176.313,220.921,175.82,220.634zM174.986,222.671c-0.334,0,-0.602,-0.271,-0.602,-0.604c0,-0.333,0.268,-0.604,0.602,-0.604c0.333,0,0.604,0.271,0.604,0.604C175.591,222.402,175.319,222.671,174.986,222.671z"/>
    <path  fill="#8C8C8C" d="M165.197,214.858l-1.193,0c-0.293,0,-0.539,0.059,-0.731,0.169c-0.226,0.129,-0.341,0.368,-0.341,0.708c0,0.412,0.186,0.604,0.341,0.691c0.192,0.113,0.438,0.168,0.731,0.168l0.545,0l0,5.362c0,0.293,0.055,0.539,0.168,0.73c0.127,0.227,0.365,0.341,0.707,0.341c0.41,0,0.604,-0.187,0.691,-0.341c0.111,-0.191,0.17,-0.438,0.17,-0.73L166.285,215.946c0,-0.386,-0.085,-0.656,-0.259,-0.83C165.854,214.944,165.581,214.858,165.197,214.858z"/>
   </g>
  </g>
 </g>
 <g partID="854113900">
  <g transform="translate(39.4034,152.288)">
   <g transform="matrix(0,-1,1,0,0,0)">
    <g id="schematic">
     <path stroke-width="0.9" fill="#FFFFFF" stroke="#000000" d="M29.15,0.36c3.977,0,7.2,3.223,7.201,7.199s-3.224,7.2,-7.199,7.201c0,0,-0.001,0,-0.002,0l-14.4,0c-3.977,0.002,-7.2,-3.223,-7.201,-7.199c0,-3.977,3.224,-7.2,7.199,-7.201c0.001,0,0.001,0,0.002,0L29.15,0.36z"/>
     <line stroke-width="0.5" y1="0.36" stroke-linecap="round" x2="17.63" fill="none" stroke="#000000" x1="17.63" y2="1.8"/>
     <path stroke-width="0.5" fill="none" stroke="#000000" d="M17.63,1.8c0,0.795,0.646,1.44,1.44,1.44"/>
     <line stroke-width="0.5" y1="3.24" stroke-linecap="round" x2="25.55" fill="none" stroke="#000000" x1="19.07" y2="3.24"/>
     <path stroke-width="0.5" fill="none" stroke="#000000" d="M25.55,3.24c0.598,0,1.081,0.483,1.081,1.08c0,0.596,-0.482,1.08,-1.08,1.08c0,0,0,0,-0.001,0"/>
     <line stroke-width="0.5" y1="5.4" stroke-linecap="round" x2="25.55" fill="none" stroke="#000000" x1="18.35" y2="5.4"/>
     <path stroke-width="0.5" fill="none" stroke="#000000" d="M18.35,7.56c-0.598,0,-1.08,-0.483,-1.08,-1.08s0.482,-1.08,1.08,-1.08l0,0"/>
     <line stroke-width="0.5" y1="7.56" stroke-linecap="round" x2="25.55" fill="none" stroke="#000000" x1="18.35" y2="7.56"/>
     <path stroke-width="0.5" fill="none" stroke="#000000" d="M25.55,7.56c0.598,0,1.081,0.483,1.081,1.079c0.001,0.598,-0.481,1.082,-1.079,1.082c-0.001,0,-0.001,0,-0.002,0"/>
     <line stroke-width="0.5" y1="9.721" stroke-linecap="round" x2="25.55" fill="none" stroke="#000000" x1="18.35" y2="9.721"/>
     <path stroke-width="0.5" fill="none" stroke="#000000" d="M18.35,11.88c-0.598,0,-1.08,-0.483,-1.08,-1.08s0.482,-1.079,1.08,-1.079l0,0"/>
     <line stroke-width="0.5" y1="11.88" stroke-linecap="round" x2="24.83" fill="none" stroke="#000000" x1="18.35" y2="11.88"/>
     <path stroke-width="0.5" fill="none" stroke="#000000" d="M26.27,13.32c0,-0.795,-0.646,-1.439,-1.44,-1.439l0,0"/>
     <line stroke-width="0.5" y1="13.32" stroke-linecap="round" x2="26.27" fill="none" stroke="#000000" x1="26.27" y2="14.76"/>
     <line stroke-width="0.75" y1="7.56" stroke-linecap="round" x2="7.55" fill="none" id="connector0pin" stroke="#787878" x1="0.35" y2="7.56"/>
     <g points="1.137,7.889,0,7.92,0,7.269,1.153,7.264" fill="none" id="connector0terminal"/>
     <g transform="matrix(1, 0, 0, 1, 3.2615, 6.5107)">
      <text font-size="2.5" fill="#8C8C8C" font-family="'DroidSans'">1</text>
     </g>
     <line stroke-width="0.75" y1="7.56" stroke-linecap="round" x2="36.35" fill="none" id="connector1pin" stroke="#787878" x1="43.551" y2="7.56"/>
     <g points="42.872,7.92,43.9,7.936,43.9,7.217,42.841,7.217" fill="none" id="connector1terminal"/>
     <g transform="matrix(1, 0, 0, 1, 39.2615, 6.5107)">
      <text font-size="2.5" fill="#8C8C8C" font-family="'DroidSans'">2</text>
     </g>
    </g>
   </g>
  </g>
 </g>
 <g partID="58580">
  <g transform="translate(61.3798,22.5172)">
   <g id="schematic">
    <rect stroke-width="0.3175" x="14.85" y="14.85" stroke-linecap="round" fill="#FFFFFF" height="150.3" stroke="#000000" width="78.3"/>
    <line stroke-width="0.2469" y1="28.8" stroke-linecap="round" x2="107.65" fill="none" id="connector61pin" stroke="#787878" x1="93.25" y2="28.8"/>
    <g transform="matrix(1, 0, 0, 1, 82.2432, 29.5)">
     <text font-size="3.5" fill="#8C8C8C" font-family="'DroidSans'">D0/RX</text>
    </g>
    <g x="107.65" y="28.45" fill="none" height="0.7" id="connector61terminal" width="0.699"/>
    <line stroke-width="0.2469" y1="36" stroke-linecap="round" x2="107.65" fill="none" id="connector62pin" stroke="#787878" x1="93.25" y2="36"/>
    <g transform="matrix(1, 0, 0, 1, 82.4912, 36.7012)">
     <text font-size="3.5" fill="#8C8C8C" font-family="'DroidSans'">D1/TX</text>
    </g>
    <g x="107.65" y="35.65" fill="none" height="0.7" id="connector62terminal" width="0.699"/>
    <line stroke-width="0.2469" y1="43.2" stroke-linecap="round" x2="107.65" fill="none" id="connector63pin" stroke="#787878" x1="93.25" y2="43.2"/>
    <g transform="matrix(1, 0, 0, 1, 87.5283, 43.9004)">
     <text font-size="3.5" fill="#8C8C8C" font-family="'DroidSans'">D2</text>
    </g>
    <g x="107.65" y="42.85" fill="none" height="0.7" id="connector63terminal" width="0.699"/>
    <line stroke-width="0.2469" y1="50.4" stroke-linecap="round" x2="107.65" fill="none" id="connector64pin" stroke="#787878" x1="93.25" y2="50.4"/>
    <g transform="matrix(1, 0, 0, 1, 78.4639, 51.0996)">
     <text font-size="3.5" fill="#8C8C8C" font-family="'DroidSans'">D3 PWM</text>
    </g>
    <g x="107.65" y="50.05" fill="none" height="0.7" id="connector64terminal" width="0.699"/>
    <line stroke-width="0.2469" y1="57.6" stroke-linecap="round" x2="107.65" fill="none" id="connector65pin" stroke="#787878" x1="93.25" y2="57.6"/>
    <g transform="matrix(1, 0, 0, 1, 87.5283, 58.3008)">
     <text font-size="3.5" fill="#8C8C8C" font-family="'DroidSans'">D4</text>
    </g>
    <g x="107.65" y="57.25" fill="none" height="0.7" id="connector65terminal" width="0.699"/>
    <line stroke-width="0.2469" y1="64.8" stroke-linecap="round" x2="107.65" fill="none" id="connector66pin" stroke="#787878" x1="93.25" y2="64.8"/>
    <g transform="matrix(1, 0, 0, 1, 78.4639, 65.5)">
     <text font-size="3.5" fill="#8C8C8C" font-family="'DroidSans'">D5 PWM</text>
    </g>
    <g x="107.65" y="64.45" fill="none" height="0.7" id="connector66terminal" width="0.699"/>
    <line stroke-width="0.2469" y1="72" stroke-linecap="round" x2="107.65" fill="none" id="connector67pin" stroke="#787878" x1="93.25" y2="72"/>
    <g transform="matrix(1, 0, 0, 1, 78.4639, 72.7012)">
     <text font-size="3.5" fill="#8C8C8C" font-family="'DroidSans'">D6 PWM</text>
    </g>
    <g x="107.65" y="71.65" fill="none" height="0.7" id="connector67terminal" width="0.699"/>
    <line stroke-width="0.2469" y1="79.2" stroke-linecap="round" x2="107.65" fill="none" id="connector68pin" stroke="#787878" x1="93.25" y2="79.2"/>
    <g transform="matrix(1, 0, 0, 1, 87.5283, 79.9004)">
     <text font-size="3.5" fill="#8C8C8C" font-family="'DroidSans'">D7</text>
    </g>
    <g x="107.65" y="78.85" fill="none" height="0.7" id="connector68terminal" width="0.699"/>
    <line stroke-width="0.2469" y1="86.4" stroke-linecap="round" x2="107.65" fill="none" id="connector51pin" stroke="#787878" x1="93.25" y2="86.4"/>
    <g transform="matrix(1, 0, 0, 1, 87.5283, 87.0996)">
     <text font-size="3.5" fill="#8C8C8C" font-family="'DroidSans'">D8</text>
    </g>
    <g x="107.65" y="86.05" fill="none" height="0.7" id="connector51terminal" width="0.699"/>
    <line stroke-width="0.2469" y1="93.6" stroke-linecap="round" x2="107.65" fill="none" id="connector52pin" stroke="#787878" x1="93.25" y2="93.6"/>
    <g transform="matrix(1, 0, 0, 1, 78.4639, 94.3008)">
     <text font-size="3.5" fill="#8C8C8C" font-family="'DroidSans'">D9 PWM</text>
    </g>
    <g x="107.65" y="93.25" fill="none" height="0.699" id="connector52terminal" width="0.699"/>
    <line stroke-width="0.2469" y1="100.8" stroke-linecap="round" x2="107.65" fill="none" id="connector53pin" stroke="#787878" x1="93.25" y2="100.8"/>
    <g transform="matrix(1, 0, 0, 1, 71.5967, 101.5)">
     <text font-size="3.5" fill="#8C8C8C" font-family="'DroidSans'">D10 PWM/SS</text>
    </g>
    <g x="107.65" y="100.449" fill="none" height="0.701" id="connector53terminal" width="0.699"/>
    <line stroke-width="0.2469" y1="108" stroke-linecap="round" x2="107.65" fill="none" id="connector54pin" stroke="#787878" x1="93.25" y2="108"/>
    <g transform="matrix(1, 0, 0, 1, 66.585, 108.701)">
     <text font-size="3.5" fill="#8C8C8C" font-family="'DroidSans'">D11 PWM/MOSI</text>
    </g>
    <g x="107.65" y="107.65" fill="none" height="0.699" id="connector54terminal" width="0.699"/>
    <line stroke-width="0.2469" y1="115.2" stroke-linecap="round" x2="107.65" fill="none" id="connector55pin" stroke="#787878" x1="93.25" y2="115.2"/>
    <g transform="matrix(1, 0, 0, 1, 75.6494, 115.9)">
     <text font-size="3.5" fill="#8C8C8C" font-family="'DroidSans'">D12/MISO</text>
    </g>
    <g x="107.65" y="114.85" fill="none" height="0.7" id="connector55terminal" width="0.699"/>
    <line y1="122.4" x2="107.65" fill="none" id="connector41pin" x1="93.25" y2="122.4"/>
    <rect x="107.65" y="122.05" fill="none" height="0.7" id="connector41terminal" width="0.699"/>
    <line stroke-width="0.2469" y1="122.4" stroke-linecap="round" x2="107.65" fill="none" id="connector56pin" stroke="#787878" x1="93.25" y2="122.4"/>
    <g transform="matrix(1, 0, 0, 1, 78.3408, 123.1)">
     <text font-size="3.5" fill="#8C8C8C" font-family="'DroidSans'">D13/SCK</text>
    </g>
    <g x="107.65" y="122.05" fill="none" height="0.7" id="connector56terminal" width="0.699"/>
    <line y1="28.8" x2="14.75" fill="none" id="connector43pin" x1="0.35" y2="28.8"/>
    <g x="-0.35" y="28.45" fill="none" height="0.7" id="connector43terminal" width="0.7"/>
    <line stroke-width="0.2469" y1="28.8" stroke-linecap="round" x2="14.75" fill="none" id="connector85pin" stroke="#787878" x1="0.35" y2="28.8"/>
    <g transform="matrix(1, 0, 0, 1, 16.1494, 29.5)">
     <text font-size="3.5" fill="#8C8C8C" font-family="'DroidSans'">RESET</text>
    </g>
    <g x="-0.35" y="28.45" fill="none" height="0.7" id="connector85terminal" width="0.7"/>
    <line stroke-width="0.2469" y1="36" stroke-linecap="round" x2="14.75" fill="none" id="connector49pin" stroke="#787878" x1="0.35" y2="36"/>
    <g transform="matrix(1, 0, 0, 1, 16.1494, 36.7012)">
     <text font-size="3.5" fill="#8C8C8C" font-family="'DroidSans'">RESET2</text>
    </g>
    <rect x="-0.35" y="35.65" fill="none" height="0.7" id="connector49terminal" width="0.7"/>
    <line stroke-width="0.2469" y1="43.2" stroke-linecap="round" x2="14.75" fill="none" id="connector58pin" stroke="#787878" x1="0.35" y2="43.2"/>
    <g transform="matrix(1, 0, 0, 1, 16.1494, 43.9004)">
     <text font-size="3.5" fill="#8C8C8C" font-family="'DroidSans'">AREF</text>
    </g>
    <g x="-0.35" y="42.85" fill="none" height="0.7" id="connector58terminal" width="0.7"/>
    <line stroke-width="0.2469" y1="50.4" stroke-linecap="round" x2="14.75" fill="none" id="connector84pin" stroke="#787878" x1="0.35" y2="50.4"/>
    <g transform="matrix(1, 0, 0, 1, 16.1494, 51.0996)">
     <text font-size="3.5" fill="#8C8C8C" font-family="'DroidSans'">I</text>
    </g>
    <g transform="matrix(1, 0, 0, 1, 17.3013, 51.0996)">
     <text font-size="3.5" fill="#8C8C8C" font-family="'DroidSans'">O</text>
    </g>
    <g transform="matrix(1, 0, 0, 1, 19.8989, 51.0996)">
     <text font-size="3.5" fill="#8C8C8C" font-family="'DroidSans'">R</text>
    </g>
    <g transform="matrix(1, 0, 0, 1, 21.9634, 51.0996)">
     <text font-size="3.5" fill="#8C8C8C" font-family="'DroidSans'">E</text>
    </g>
    <g transform="matrix(1, 0, 0, 1, 23.8105, 51.0996)">
     <text font-size="3.5" fill="#8C8C8C" font-family="'DroidSans'">F</text>
    </g>
    <g x="-0.35" y="50.05" fill="none" height="0.7" id="connector84terminal" width="0.7"/>
    <line stroke-width="0.2469" y1="64.8" stroke-linecap="round" x2="14.75" fill="none" id="connector0pin" stroke="#787878" x1="0.35" y2="64.8"/>
    <g transform="matrix(1, 0, 0, 1, 16.1494, 65.5)">
     <text font-size="3.5" fill="#8C8C8C" font-family="'DroidSans'">A0</text>
    </g>
    <g x="-0.35" y="64.45" fill="none" height="0.7" id="connector0terminal" width="0.7"/>
    <line stroke-width="0.2469" y1="72" stroke-linecap="round" x2="14.75" fill="none" id="connector1pin" stroke="#787878" x1="0.35" y2="72"/>
    <g transform="matrix(1, 0, 0, 1, 16.1494, 72.7012)">
     <text font-size="3.5" fill="#8C8C8C" font-family="'DroidSans'">A1</text>
    </g>
    <g x="-0.35" y="71.65" fill="none" height="0.7" id="connector1terminal" width="0.7"/>
    <line stroke-width="0.2469" y1="79.2" stroke-linecap="round" x2="14.75" fill="none" id="connector2pin" stroke="#787878" x1="0.35" y2="79.2"/>
    <g transform="matrix(1, 0, 0, 1, 16.1494, 79.9004)">
     <text font-size="3.5" fill="#8C8C8C" font-family="'DroidSans'">A2</text>
    </g>
    <g x="-0.35" y="78.85" fill="none" height="0.7" id="connector2terminal" width="0.7"/>
    <line stroke-width="0.2469" y1="86.4" stroke-linecap="round" x2="14.75" fill="none" id="connector3pin" stroke="#787878" x1="0.35" y2="86.4"/>
    <g transform="matrix(1, 0, 0, 1, 16.1494, 87.0996)">
     <text font-size="3.5" fill="#8C8C8C" font-family="'DroidSans'">A3</text>
    </g>
    <g x="-0.35" y="86.05" fill="none" height="0.7" id="connector3terminal" width="0.7"/>
    <line y1="93.6" x2="14.75" fill="none" id="connector39pin" x1="0.35" y2="93.6"/>
    <g x="-0.35" y="93.25" fill="none" height="0.699" id="connector39terminal" width="0.7"/>
    <line stroke-width="0.2469" y1="93.6" stroke-linecap="round" x2="14.75" fill="none" id="connector42pin" stroke="#787878" x1="0.35" y2="93.6"/>
    <g x="-0.35" y="93.25" fill="none" height="0.699" id="connector42terminal" width="0.7"/>
    <line y1="93.6" x2="14.75" fill="none" id="connector4pin" x1="0.35" y2="93.6"/>
    <g x="-0.35" y="93.25" fill="none" height="0.699" id="connector4terminal" width="0.7"/>
    <line stroke-width="0.2469" y1="93.6" stroke-linecap="round" x2="14.75" fill="none" id="connector59pin" stroke="#787878" x1="0.35" y2="93.6"/>
    <g x="-0.35" y="93.25" fill="none" height="0.699" id="connector59terminal" width="0.7"/>
    <line y1="100.8" x2="14.75" fill="none" id="connector5pin" x1="0.35" y2="100.8"/>
    <g x="-0.35" y="100.449" fill="none" height="0.701" id="connector5terminal" width="0.7"/>
    <line stroke-width="0.2469" y1="100.8" stroke-linecap="round" x2="14.75" fill="none" id="connector60pin" stroke="#787878" x1="0.35" y2="100.8"/>
    <g x="-0.35" y="100.449" fill="none" height="0.701" id="connector60terminal" width="0.7"/>
    <line stroke-width="0.2469" y1="136.8" stroke-linecap="round" x2="14.75" fill="none" id="connector91pin" stroke="#787878" x1="0.35" y2="136.8"/>
    <g transform="matrix(1, 0, 0, 1, 16.1494, 137.5)">
     <text font-size="3.5" fill="#8C8C8C" font-family="'DroidSans'">N/C</text>
    </g>
    <g x="-0.35" y="136.449" fill="none" height="0.701" id="connector91terminal" width="0.7"/>
    <line y1="165.25" x2="57.6" fill="none" id="connector88pin" x1="57.6" y2="179.65"/>
    <g x="57.25" y="179.65" fill="none" height="0.699" id="connector88terminal" width="0.699"/>
    <line y1="165.25" x2="57.6" fill="none" id="connector57pin" x1="57.6" y2="179.65"/>
    <g x="57.25" y="179.65" fill="none" height="0.699" id="connector57terminal" width="0.699"/>
    <line y1="165.25" x2="57.6" fill="none" id="connector44pin" x1="57.6" y2="179.65"/>
    <g x="57.25" y="179.65" fill="none" height="0.699" id="connector44terminal" width="0.699"/>
    <line y1="165.25" x2="57.6" fill="none" id="connector50pin" x1="57.6" y2="179.65"/>
    <rect x="57.25" y="179.65" fill="none" height="0.699" id="connector50terminal" width="0.699"/>
    <line stroke-width="0.2469" y1="165.25" stroke-linecap="round" x2="57.6" fill="none" id="connector89pin" stroke="#787878" x1="57.6" y2="179.65"/>
    <g transform="matrix(1, 0, 0, 1, 20.5669, 57.8026)">
     <g>
      <g transform="rotate(270)">
       <g>
        <g transform="matrix(1, 0, 0, 1, -106.047, 37.7329)">
         <text font-size="3.5" fill="#8C8C8C" font-family="'DroidSans'">GND</text>
        </g>
       </g>
      </g>
     </g>
    </g>
    <g x="57.25" y="179.65" fill="none" height="0.699" id="connector89terminal" width="0.699"/>
    <line stroke-width="0.2469" y1="0.35" stroke-linecap="round" x2="36" fill="none" id="connector86pin" stroke="#787878" x1="36" y2="14.75"/>
    <g transform="matrix(1, 0, 0, 1, 12.9469, 5.69736)">
     <g>
      <g transform="rotate(270)">
       <g>
        <g transform="matrix(1, 0, 0, 1, -16.2968, 23.7533)">
         <text font-size="3.5" fill="#8C8C8C" font-family="'DroidSans'">3V3</text>
        </g>
       </g>
      </g>
     </g>
    </g>
    <g x="35.65" y="-0.35" fill="none" height="0.7" id="connector86terminal" width="0.7"/>
    <line y1="0.35" x2="50.4" fill="none" id="connector40pin" x1="50.4" y2="14.75"/>
    <g x="50.05" y="-0.35" fill="none" height="0.7" id="connector40terminal" width="0.7"/>
    <line y1="0.35" x2="50.4" fill="none" id="connector46pin" x1="50.4" y2="14.75"/>
    <rect x="50.05" y="-0.35" fill="none" height="0.7" id="connector46terminal" width="0.7"/>
    <line stroke-width="0.2469" y1="0.35" stroke-linecap="round" x2="50.4" fill="none" id="connector87pin" stroke="#787878" x1="50.4" y2="14.75"/>
    <g transform="matrix(1, 0, 0, 1, 18.0269, 5.69736)">
     <g>
      <g transform="rotate(270)">
       <g>
        <g transform="matrix(1, 0, 0, 1, -14.369, 33.0737)">
         <text font-size="3.5" fill="#8C8C8C" font-family="'DroidSans'">5V</text>
        </g>
       </g>
      </g>
     </g>
    </g>
    <g x="50.05" y="-0.35" fill="none" height="0.7" id="connector87terminal" width="0.7"/>
    <line stroke-width="0.2469" y1="0.35" stroke-linecap="round" x2="64.8" fill="none" id="connector90pin" stroke="#787878" x1="64.8" y2="14.75"/>
    <g transform="matrix(1, 0, 0, 1, 23.1069, 5.69736)">
     <g>
      <g transform="rotate(270)">
       <g>
        <g transform="matrix(1, 0, 0, 1, -16.1776, 42.3922)">
         <text font-size="3.5" fill="#8C8C8C" font-family="'DroidSans'">VIN</text>
        </g>
       </g>
      </g>
     </g>
    </g>
    <g x="64.449" y="-0.35" fill="none" height="0.7" id="connector90terminal" width="0.701"/>
    <g transform="matrix(1, 0, 0, 1, 46.7861, 81.3828)">
     <text font-size="4.25" font-family="'DroidSans'" id="label">Arduino</text>
    </g>
    <g transform="matrix(1, 0, 0, 1, 50.4893, 85.916)">
     <text font-size="4.25" font-family="'DroidSans'" id="label_1_">Uno</text>
    </g>
    <g transform="matrix(1, 0, 0, 1, 48.5928, 90.4512)">
     <text font-size="4.25" font-family="'DroidSans'" id="label_2_">(Rev3)</text>
    </g>
    <g transform="matrix(1, 0, 0, 1, 50.1416, 94.9844)">
     <text font-size="4.25" font-family="'DroidSans'">I</text>
    </g>
    <g transform="matrix(1, 0, 0, 1, 51.54, 94.9844)">
     <text font-size="4.25" font-family="'DroidSans'">C</text>
    </g>
    <g transform="matrix(1, 0, 0, 1, 54.103, 94.9844)">
     <text font-size="4.25" font-family="'DroidSans'">S</text>
    </g>
    <g transform="matrix(1, 0, 0, 1, 56.3086, 94.9844)">
     <text font-size="4.25" font-family="'DroidSans'">P</text>
    </g>
    <g transform="matrix(1, 0, 0, 1, 16.1494, 94.9844)">
     <text font-size="3.5" fill="#8C8C8C" font-family="'DroidSans'">A4/SDA</text>
    </g>
    <g transform="matrix(1, 0, 0, 1, 16.1494, 102.184)">
     <text font-size="3.5" fill="#8C8C8C" font-family="'DroidSans'">A5/SCL</text>
    </g>
   </g>
  </g>
 </g>
 <g partID="62470">
  <g transform="translate(13.68,51.1014)">
   <g transform="matrix(-1,0,0,1,0,0)">
    <g id="schematic">
     <g>
      <path d="M13.5,14.966L9.9,14.966c-0.193,0,-0.35,-0.156,-0.35,-0.35s0.156,-0.35,0.35,-0.35L13.5,14.266c0.193,0,0.35,0.156,0.35,0.35S13.694,14.966,13.5,14.966z"/>
     </g>
     <g>
      <path d="M9.9,14.966L6.3,14.966c-0.193,0,-0.35,-0.156,-0.35,-0.35s0.157,-0.35,0.35,-0.35l3.6,0c0.193,0,0.35,0.156,0.35,0.35S10.093,14.966,9.9,14.966z"/>
     </g>
     <g>
      <polygon points="9.9,14.616,6.3,7.416,9.9,7.416,13.5,7.416" fill="#FFFFFF"/>
      <path d="M9.9,15.398L5.734,7.066l8.333,0L9.9,15.398zM6.866,7.766L9.9,13.834l3.034,-6.068L6.866,7.766z"/>
     </g>
     <g>
      <path d="M9.9,14.841c-0.124,0,-0.225,-0.101,-0.225,-0.225l0,-7.2c0,-0.124,0.101,-0.225,0.225,-0.225s0.225,0.101,0.225,0.225l0,7.2C10.124,14.74,10.024,14.841,9.9,14.841z"/>
     </g>
     <g>
      <path d="M1.8,12.141c-0.058,0,-0.115,-0.021,-0.159,-0.065c-0.088,-0.088,-0.088,-0.23,0,-0.318l2.34,-2.341c0.088,-0.088,0.23,-0.088,0.318,0s0.088,0.23,0,0.318l-2.34,2.341C1.915,12.12,1.858,12.141,1.8,12.141z"/>
     </g>
     <g>
      <path d="M2.16,15.381c-0.058,0,-0.115,-0.021,-0.159,-0.065c-0.088,-0.088,-0.088,-0.23,0,-0.318l2.34,-2.34c0.088,-0.088,0.23,-0.088,0.318,0s0.088,0.23,0,0.318l-2.34,2.34C2.276,15.359,2.218,15.381,2.16,15.381z"/>
     </g>
     <g id="connector0pin">
      <path fill="#787878" d="M9.9,22.166c-0.193,0,-0.35,-0.156,-0.35,-0.35l0,-7.2c0,-0.193,0.156,-0.35,0.35,-0.35s0.35,0.156,0.35,0.35l0,7.2C10.249,22.01,10.093,22.166,9.9,22.166z"/>
     </g>
     <g id="connector0terminal">
      <rect x="9.9" y="21.816" fill="none" height="0.001" width="0.001"/>
     </g>
     <g transform="matrix(1, 0, 0, 1, 3.429, 6.4262)">
      <g>
       <g transform="rotate(270)">
        <g>
         <g enable-background="new    ">
          <path fill="#787878" d="M-11.647,5.54l-0.891,0L-12.538,5.388l0.342,-0.372c0.049,-0.053,0.093,-0.101,0.131,-0.145s0.071,-0.086,0.099,-0.128c0.026,-0.042,0.047,-0.084,0.062,-0.125c0.015,-0.043,0.021,-0.088,0.021,-0.138c0,-0.038,-0.005,-0.072,-0.017,-0.102s-0.027,-0.054,-0.047,-0.075c-0.021,-0.02,-0.045,-0.035,-0.073,-0.046s-0.06,-0.016,-0.094,-0.016c-0.062,0,-0.118,0.013,-0.167,0.038c-0.051,0.024,-0.098,0.057,-0.143,0.096l-0.1,-0.116c0.025,-0.023,0.055,-0.046,0.084,-0.065c0.029,-0.021,0.063,-0.039,0.097,-0.054s0.071,-0.026,0.109,-0.036c0.038,-0.008,0.079,-0.013,0.121,-0.013c0.063,0,0.119,0.009,0.169,0.026c0.051,0.018,0.094,0.043,0.129,0.076c0.035,0.032,0.063,0.072,0.082,0.119c0.019,0.048,0.028,0.101,0.028,0.16c0,0.056,-0.009,0.108,-0.026,0.158c-0.017,0.05,-0.041,0.1,-0.07,0.148c-0.031,0.048,-0.066,0.097,-0.109,0.146c-0.041,0.049,-0.087,0.1,-0.136,0.152L-12.32,5.37l0,0.008l0.673,0L-11.647,5.54z"/>
         </g>
        </g>
       </g>
      </g>
     </g>
     <g id="connector1pin">
      <path fill="#787878" d="M9.9,7.766c-0.193,0,-0.35,-0.157,-0.35,-0.35l0,-7.2c0,-0.193,0.156,-0.35,0.35,-0.35s0.35,0.157,0.35,0.35l0,7.2C10.249,7.609,10.093,7.766,9.9,7.766z"/>
     </g>
     <g id="connector1terminal">
      <polygon points="9.9,0.216,9.901,0.216,9.901,0.216" fill="none"/>
     </g>
     <g transform="matrix(1, 0, 0, 1, 3.429, 1.3462)">
      <g>
       <g transform="rotate(270)">
        <g>
         <g enable-background="new    ">
          <path fill="#787878" d="M-2.616,5.54l-0.172,0L-2.788,4.648c0,-0.028,0,-0.058,0,-0.09s0.001,-0.063,0.002,-0.095c0.001,-0.032,0.002,-0.063,0.003,-0.092c0.001,-0.028,0.002,-0.054,0.002,-0.076c-0.011,0.012,-0.021,0.021,-0.029,0.03s-0.017,0.017,-0.026,0.024s-0.018,0.016,-0.028,0.025c-0.01,0.008,-0.021,0.019,-0.035,0.03l-0.145,0.118l-0.094,-0.12l0.374,-0.292l0.146,0L-2.618,5.54z"/>
         </g>
        </g>
       </g>
      </g>
     </g>
     <g>
      <path d="M0.18,13.536l1.08,-2.521l1.44,1.438L0.18,13.536z"/>
     </g>
     <g>
      <path d="M0.54,16.776l1.08,-2.521l1.438,1.438L0.54,16.776z"/>
     </g>
    </g>
   </g>
  </g>
 </g>
 <g partID="854108540">
  <g transform="translate(50.076,22.1669)">
   <g transform="matrix(0,1,-1,0,0,0)">
    <g  id="schematic">
     <line stroke-width="0.432002" y1="3.096" class="other" x2="8.63003" stroke-linecap="round"  x1="7.55002" y2="0.216" stroke="#000000"/>
     <line stroke-width="0.432002" y1="0.216" class="other" x2="10.43" stroke-linecap="round"  x1="8.63003" y2="5.976" stroke="#000000"/>
     <line stroke-width="0.432002" y1="5.976" class="other" x2="12.23" stroke-linecap="round"  x1="10.43" y2="0.216" stroke="#000000"/>
     <line stroke-width="0.432002" y1="0.216" class="other" x2="14.03" stroke-linecap="round"  x1="12.23" y2="5.976" stroke="#000000"/>
     <line stroke-width="0.432002" y1="5.976" class="other" x2="15.8301" stroke-linecap="round"  x1="14.03" y2="0.216" stroke="#000000"/>
     <line stroke-width="0.432002" y1="0.216" class="other" x2="17.6301" stroke-linecap="round"  x1="15.8301" y2="5.976" stroke="#000000"/>
     <line stroke-width="0.432002" y1="5.976" class="other" x2="19.4301" stroke-linecap="round"  x1="17.6301" y2="0.216" stroke="#000000"/>
     <line stroke-width="0.432002" y1="0.216" class="other" x2="21.2301" stroke-linecap="round"  x1="19.4301" y2="5.976" stroke="#000000"/>
     <line stroke-width="0.432002" y1="5.976" class="other" x2="21.9501" stroke-linecap="round"  x1="21.2301" y2="3.096" stroke="#000000"/>
     <line connectorname="2" stroke-width="0.700001" y1="3.096" class="pin" x2="21.9501" stroke-linecap="round"  id="connector1pin" x1="29.1502" y2="3.096" stroke="#787878"/>
     <g stroke-width="0" x="29.1502" y="3.096" class="terminal"  fill="none" height="0.000283465" id="connector1terminal" width="0.000283466" stroke="none"/>
     <text font-size="2.50001" stroke-width="0" x="25.5501" y="2.046" class="text" text-anchor="middle"  fill="#8c8c8c" font-family="'Droid Sans'" stroke="none">2</text>
     <line connectorname="1" stroke-width="0.700001" y1="3.096" class="pin" x2="7.55002" stroke-linecap="round"  id="connector0pin" x1="0.350001" y2="3.096" stroke="#787878"/>
     <g stroke-width="0" x="0.350001" y="3.096" class="terminal"  fill="none" height="0.000283465" id="connector0terminal" width="0.000283466" stroke="none"/>
     <text font-size="2.50001" stroke-width="0" x="3.95001" y="2.046" class="text" text-anchor="middle"  fill="#8c8c8c" font-family="'Droid Sans'" stroke="none">1</text>
    </g>
   </g>
  </g>
 </g>
 <g partID="63770">
  <g transform="translate(0.68368,138.067)">
   <g transform="matrix(0,-1,1,0,0,0)">
    <g  id="schematic">
     <line stroke-width="0.432002" y1="3.096" class="other" x2="8.63003" stroke-linecap="round"  x1="7.55002" y2="0.216" stroke="#000000"/>
     <line stroke-width="0.432002" y1="0.216" class="other" x2="10.43" stroke-linecap="round"  x1="8.63003" y2="5.976" stroke="#000000"/>
     <line stroke-width="0.432002" y1="5.976" class="other" x2="12.23" stroke-linecap="round"  x1="10.43" y2="0.216" stroke="#000000"/>
     <line stroke-width="0.432002" y1="0.216" class="other" x2="14.03" stroke-linecap="round"  x1="12.23" y2="5.976" stroke="#000000"/>
     <line stroke-width="0.432002" y1="5.976" class="other" x2="15.8301" stroke-linecap="round"  x1="14.03" y2="0.216" stroke="#000000"/>
     <line stroke-width="0.432002" y1="0.216" class="other" x2="17.6301" stroke-linecap="round"  x1="15.8301" y2="5.976" stroke="#000000"/>
     <line stroke-width="0.432002" y1="5.976" class="other" x2="19.4301" stroke-linecap="round"  x1="17.6301" y2="0.216" stroke="#000000"/>
     <line stroke-width="0.432002" y1="0.216" class="other" x2="21.2301" stroke-linecap="round"  x1="19.4301" y2="5.976" stroke="#000000"/>
     <line stroke-width="0.432002" y1="5.976" class="other" x2="21.9501" stroke-linecap="round"  x1="21.2301" y2="3.096" stroke="#000000"/>
     <line connectorname="2" stroke-width="0.700001" y1="3.096" class="pin" x2="21.9501" stroke-linecap="round"  id="connector1pin" x1="29.1502" y2="3.096" stroke="#787878"/>
     <g stroke-width="0" x="29.1502" y="3.096" class="terminal"  fill="none" height="0.000283465" id="connector1terminal" width="0.000283466" stroke="none"/>
     <text font-size="2.50001" stroke-width="0" x="25.5501" y="2.046" class="text" text-anchor="middle"  fill="#8c8c8c" font-family="'Droid Sans'" stroke="none">2</text>
     <line connectorname="1" stroke-width="0.700001" y1="3.096" class="pin" x2="7.55002" stroke-linecap="round"  id="connector0pin" x1="0.350001" y2="3.096" stroke="#787878"/>
     <g stroke-width="0" x="0.350001" y="3.096" class="terminal"  fill="none" height="0.000283465" id="connector0terminal" width="0.000283466" stroke="none"/>
     <text font-size="2.50001" stroke-width="0" x="3.95001" y="2.046" class="text" text-anchor="middle"  fill="#8c8c8c" font-family="'Droid Sans'" stroke="none">1</text>
    </g>
   </g>
  </g>
 </g>
 <g partID="854114690">
  <line stroke-width="0.699998" y1="202.504" stroke-linecap="round" x2="46.9953" stroke="#404040" x1="47.0602" y2="151.711"/>
 </g>
 <circle stroke-width="0" fill="black" cx="46.9953" stroke="none" cy="151.711" r="1.44"/>
 <g partID="854114700">
  <line stroke-width="0.699998" y1="202.516" stroke-linecap="round" x2="47.0603" stroke="#404040" x1="118.979" y2="202.503"/>
 </g>
 <g partID="854114990">
  <line stroke-width="0.699998" y1="202.504" stroke-linecap="round" x2="46.9953" stroke="#404040" x1="47.0602" y2="151.711"/>
 </g>
 <circle stroke-width="0" fill="black" cx="46.9953" stroke="none" cy="151.711" r="1.44"/>
 <g partID="854114810">
  <line stroke-width="0.699998" y1="202.504" stroke-linecap="round" x2="47.0603" stroke="#404040" x1="3.8412" y2="202.504"/>
 </g>
 <g partID="854114820">
  <line stroke-width="0.699998" y1="137.717" stroke-linecap="round" x2="3.84119" stroke="#404040" x1="3.77984" y2="202.504"/>
 </g>
 <g partID="854115120">
  <line stroke-width="0.699998" y1="87.4262" stroke-linecap="round" x2="46.9798" stroke="#404040" x1="47.0602" y2="108.917"/>
 </g>
 <g partID="854115130">
  <line stroke-width="0.699998" y1="87.3172" stroke-linecap="round" x2="47.0602" stroke="#404040" x1="61.3798" y2="87.4262"/>
 </g>
 <circle stroke-width="0" fill="black" cx="61.3798" stroke="none" cy="87.3172" r="1.44"/>
 <g partID="854115240">
  <line stroke-width="0.699998" y1="87.4262" stroke-linecap="round" x2="61.3798" stroke="#404040" x1="47.0602" y2="87.3172"/>
 </g>
 <circle stroke-width="0" fill="black" cx="61.3798" stroke="none" cy="87.3172" r="1.44"/>
 <g partID="854115250">
  <line stroke-width="0.699998" y1="51.3172" stroke-linecap="round" x2="47.0602" stroke="#404040" x1="46.9798" y2="87.4262"/>
 </g>
 <g partID="854108360">
  <line stroke-width="0.699998" y1="144.862" stroke-linecap="round" x2="169.379" stroke="#404040" x1="183.949" y2="144.917"/>
 </g>
 <g partID="854108470">
  <line stroke-width="0.699998" y1="1.05168" stroke-linecap="round" x2="183.949" stroke="#404040" x1="3.92544" y2="1.05168"/>
 </g>
 <g partID="854108420">
  <line stroke-width="0.699998" y1="1.05168" stroke-linecap="round" x2="183.949" stroke="#404040" x1="183.949" y2="144.862"/>
 </g>
 <g partID="854108370">
  <line stroke-width="0.699998" y1="51.3174" stroke-linecap="round" x2="3.9254" stroke="#404040" x1="3.77952" y2="1.05168"/>
 </g>
 <g partID="854110290">
  <line stroke-width="0.699998" y1="15.3282" stroke-linecap="round" x2="111.78" stroke="#404040" x1="111.87" y2="22.5172"/>
 </g>
 <g partID="854110230">
  <line stroke-width="0.699998" y1="15.3077" stroke-linecap="round" x2="111.87" stroke="#404040" x1="47.0602" y2="15.3282"/>
 </g>
 <g partID="854110240">
  <line stroke-width="0.699998" y1="22.517" stroke-linecap="round" x2="47.0602" stroke="#404040" x1="46.9798" y2="15.3077"/>
 </g>
 <g partID="67710">
  <line stroke-width="0.699998" y1="87.4806" stroke-linecap="round" x2="3.77978" stroke="#404040" x1="3.63104" y2="108.917"/>
 </g>
 <g partID="67720">
  <line stroke-width="0.699998" y1="72.9178" stroke-linecap="round" x2="3.63106" stroke="#404040" x1="3.77952" y2="87.4806"/>
 </g>
 <g partID="62470" id="partLabel">
  <g transform="translate(6.01944,38.1603)">
   <g font-size="5" font-weight="normal" fill-opacity="1" font-style="normal" fill="#000000" font-family="'DroidSans'" id="schematicLabel" stroke="none">
    <text x="0" y="3.75">LED1</text>
    <text x="0" y="8.75">Red (633nm)</text>
   </g>
  </g>
 </g>
 <g partID="58580" id="partLabel">
  <g transform="translate(129.281,30.3872)">
   <g transform="matrix(1,0,0,1,0,0)">
    <g font-size="5" font-weight="normal" fill-opacity="1" font-style="normal" fill="#000000" font-family="'DroidSans'" id="schematicLabel" stroke="none">
     <text x="0" y="3.75">Microcontroller</text>
    </g>
   </g>
  </g>
 </g>
 <g partID="63770" id="partLabel">
  <g transform="translate(11.8144,106.575)">
   <g font-size="5" font-weight="normal" fill-opacity="1" font-style="normal" fill="#000000" font-family="'DroidSans'" id="schematicLabel" stroke="none">
    <text x="0" y="3.75">R1</text>
    <text x="0" y="8.75">220&#x3a9;</text>
    <text x="0" y="13.75">0.25</text>
   </g>
  </g>
 </g>
 <g partID="854108540" id="partLabel">
  <g transform="translate(51.7055,21.2187)">
   <g font-size="5" font-weight="normal" fill-opacity="1" font-style="normal" fill="#000000" font-family="'DroidSans'" id="schematicLabel" stroke="none">
    <text x="0" y="3.75">R2</text>
    <text x="0" y="8.75">1k&#x3a9;</text>
    <text x="0" y="13.75">0.25</text>
   </g>
  </g>
 </g>
 <g partID="854113900" id="partLabel">
  <g transform="translate(68.9138,117.177)">
   <g font-size="5" font-weight="normal" fill-opacity="1" font-style="normal" fill="#000000" font-family="'DroidSans'" id="schematicLabel" stroke="none">
    <text x="0" y="3.75">R3</text>
   </g>
  </g>
 </g>
</svg>
