<?xml version='1.0' encoding='UTF-8' standalone='no'?>
<!-- Created with Fritzing (https://fritzing.org/) -->
<svg xmlns="http://www.w3.org/2000/svg" baseProfile="tiny" version="1.2" width="2.03741in" height="3.05045in" x="0in" viewBox="0 0 146.694 219.632" xmlns:svg="http://www.w3.org/2000/svg"  y="0in">
 <g id="watermark" >
  <g >
   <g >
    <path d="M121.962,213.432c-0.604,0,-1.131,0.325,-1.422,0.809l-2.796,0l3.96,-4.071c0.146,-0.146,0.289,-0.322,0.428,-0.521c0.149,-0.222,0.228,-0.479,0.228,-0.768c0,-0.279,-0.097,-0.518,-0.287,-0.71c-0.19,-0.188,-0.444,-0.287,-0.754,-0.287l-4.636,0c-0.305,0,-0.555,0.06,-0.742,0.17c-0.219,0.13,-0.33,0.368,-0.33,0.707c0,0.329,0.111,0.562,0.33,0.692c0.188,0.111,0.438,0.168,0.742,0.168l3.148,0l-3.974,4.086c-0.146,0.147,-0.289,0.315,-0.425,0.504c-0.153,0.212,-0.23,0.472,-0.23,0.771c0,0.28,0.096,0.521,0.288,0.711c0.188,0.188,0.442,0.285,0.754,0.285l4.315,0c0.293,0.467,0.812,0.776,1.4,0.776c0.916,0,1.66,-0.744,1.66,-1.661C123.621,214.177,122.876,213.432,121.962,213.432zM121.962,215.695c-0.334,0,-0.604,-0.271,-0.604,-0.604c0,-0.333,0.27,-0.604,0.604,-0.604c0.332,0,0.604,0.271,0.604,0.604C122.565,215.426,122.294,215.695,121.962,215.695z" fill="#8C8C8C" />
    <path d="M105.019,203.39c-0.914,0,-1.659,0.745,-1.659,1.66c0,0.916,0.745,1.66,1.659,1.66s1.658,-0.744,1.658,-1.66C106.679,204.135,105.935,203.39,105.019,203.39zM105.02,205.653c-0.333,0,-0.604,-0.27,-0.604,-0.603s0.271,-0.603,0.604,-0.603c0.331,0,0.604,0.27,0.604,0.603S105.351,205.653,105.02,205.653z" fill="#8C8C8C" />
    <path d="M113.54,208.052c-0.193,-0.111,-0.439,-0.169,-0.732,-0.169l-1.465,0L111.343,205.361c0,-0.292,-0.057,-0.538,-0.166,-0.729C111.087,204.475,110.894,204.29,110.484,204.29c-0.34,0,-0.578,0.116,-0.709,0.342c-0.109,0.193,-0.167,0.438,-0.167,0.729l0,2.521l-0.481,0c-0.295,0,-0.539,0.06,-0.731,0.169c-0.228,0.129,-0.341,0.368,-0.341,0.708c0,0.412,0.185,0.603,0.341,0.692c0.192,0.111,0.438,0.168,0.731,0.168l0.481,0l0,4.362c0,0.277,0.026,0.533,0.081,0.768c0.056,0.246,0.154,0.464,0.298,0.645c0.146,0.186,0.345,0.332,0.595,0.436c0.241,0.098,0.555,0.146,0.93,0.146l0.896,0c0.292,0,0.539,-0.054,0.731,-0.166c0.154,-0.089,0.341,-0.281,0.341,-0.693c0,-0.338,-0.114,-0.578,-0.341,-0.709c-0.192,-0.109,-0.439,-0.168,-0.731,-0.168l-0.821,0c-0.138,0,-0.19,-0.019,-0.207,-0.024c-0.014,-0.034,-0.035,-0.103,-0.035,-0.231L111.345,209.62l1.465,0c0.295,0,0.541,-0.057,0.734,-0.168c0.152,-0.09,0.34,-0.28,0.34,-0.692C113.88,208.42,113.767,208.181,113.54,208.052z" fill="#8C8C8C" />
    <path d="M105.085,207.882l-1.191,0c-0.292,0,-0.538,0.059,-0.731,0.169c-0.226,0.129,-0.341,0.368,-0.341,0.708c0,0.412,0.188,0.604,0.341,0.691c0.193,0.113,0.439,0.168,0.731,0.168l0.544,0l0,5.362c0,0.293,0.057,0.539,0.167,0.73c0.131,0.227,0.367,0.341,0.708,0.341c0.411,0,0.604,-0.187,0.692,-0.341c0.111,-0.191,0.168,-0.438,0.168,-0.73L106.173,208.97c0,-0.386,-0.084,-0.656,-0.256,-0.83C105.742,207.968,105.472,207.882,105.085,207.882z" fill="#8C8C8C" />
    <path d="M101.25,208.052c-0.193,-0.111,-0.44,-0.169,-0.732,-0.169l-0.604,0c-0.25,0,-0.498,0.063,-0.734,0.187c-0.226,0.119,-0.433,0.271,-0.616,0.453l-0.644,0.604l0,-0.247c0,-0.291,-0.055,-0.538,-0.168,-0.729c-0.128,-0.228,-0.368,-0.34,-0.707,-0.34c-0.41,0,-0.604,0.184,-0.693,0.34c-0.11,0.191,-0.167,0.438,-0.167,0.729l0,4.801c-0.475,0.293,-0.791,0.816,-0.791,1.412c0,0.917,0.745,1.661,1.658,1.661c0.916,0,1.66,-0.744,1.66,-1.661c0,-0.596,-0.317,-1.119,-0.792,-1.412l0,-2.21l1.738,-1.564c0.1,-0.09,0.199,-0.164,0.297,-0.217c0.084,-0.045,0.174,-0.067,0.274,-0.067l0.288,0c0.292,0,0.539,-0.056,0.732,-0.169c0.155,-0.088,0.339,-0.279,0.339,-0.691C101.59,208.42,101.475,208.181,101.25,208.052zM97.0505,215.695c-0.332,0,-0.603,-0.271,-0.603,-0.604c0,-0.333,0.271,-0.604,0.603,-0.604c0.333,0,0.604,0.271,0.604,0.604C97.6545,215.426,97.3835,215.695,97.0505,215.695z" fill="#8C8C8C" />
    <path d="M94.5335,204.533c-0.193,-0.111,-0.44,-0.167,-0.731,-0.167l-0.59,0c-0.2,0,-0.389,0.004,-0.562,0.016c-0.176,0.009,-0.345,0.035,-0.506,0.07c-0.168,0.041,-0.336,0.109,-0.496,0.202c-0.158,0.093,-0.319,0.222,-0.48,0.382c-0.334,0.314,-0.554,0.656,-0.652,1.017c-0.094,0.348,-0.143,0.735,-0.143,1.151l0,0.678l-0.483,0c-0.292,0,-0.539,0.059,-0.73,0.169c-0.227,0.13,-0.342,0.369,-0.342,0.708c0,0.412,0.185,0.604,0.341,0.693c0.191,0.111,0.438,0.166,0.73,0.166l0.483,0l0,5.362c0,0.293,0.057,0.539,0.167,0.73c0.13,0.227,0.367,0.341,0.708,0.341c0.411,0,0.603,-0.187,0.692,-0.341c0.111,-0.191,0.168,-0.438,0.168,-0.73l0,-5.36l0.92,0c0.293,0,0.54,-0.057,0.732,-0.168c0.155,-0.09,0.34,-0.28,0.34,-0.692c0,-0.34,-0.114,-0.579,-0.34,-0.708c-0.189,-0.111,-0.436,-0.17,-0.729,-0.17l-0.92,0l0,-0.678c0,-0.218,0.019,-0.41,0.056,-0.571c0.032,-0.141,0.103,-0.261,0.218,-0.367l0.002,-0.004l0.002,-0.002c0.082,-0.082,0.176,-0.126,0.29,-0.136c0.15,-0.015,0.339,-0.022,0.564,-0.022l0.56,0c0.291,0,0.539,-0.058,0.731,-0.168c0.154,-0.088,0.339,-0.281,0.339,-0.693C94.8735,204.902,94.7585,204.663,94.5335,204.533z" fill="#8C8C8C" />
    <path d="M146.527,208.15c-0.089,-0.156,-0.282,-0.34,-0.693,-0.34c-0.339,0,-0.578,0.113,-0.707,0.34c-0.078,0.133,-0.127,0.293,-0.152,0.477l-0.021,-0.021c-0.216,-0.236,-0.466,-0.42,-0.747,-0.539c-0.277,-0.119,-0.563,-0.183,-0.849,-0.183l-0.709,0c-0.249,0,-0.466,0.015,-0.64,0.041c-0.182,0.026,-0.352,0.074,-0.51,0.14c-0.158,0.066,-0.313,0.15,-0.459,0.254c-0.139,0.097,-0.303,0.226,-0.486,0.377c-0.188,0.156,-0.342,0.302,-0.463,0.434c-0.127,0.141,-0.23,0.293,-0.306,0.455c-0.069,0.16,-0.122,0.337,-0.147,0.523c-0.026,0.178,-0.041,0.391,-0.041,0.631l0,2.386c0,0.24,0.015,0.451,0.041,0.631c0.025,0.188,0.078,0.361,0.147,0.521c0.074,0.164,0.179,0.318,0.306,0.457c0.119,0.129,0.274,0.274,0.463,0.433c0.186,0.153,0.35,0.28,0.486,0.379c0.146,0.103,0.299,0.188,0.459,0.254c0.158,0.065,0.329,0.112,0.51,0.14c0.174,0.026,0.389,0.039,0.64,0.039l0.709,0c0.298,0,0.591,-0.066,0.87,-0.199c0.244,-0.114,0.492,-0.291,0.73,-0.523l0,1.434c0,0.18,-0.025,0.334,-0.072,0.465c-0.043,0.119,-0.159,0.258,-0.344,0.406c-0.154,0.127,-0.309,0.217,-0.457,0.264c-0.15,0.049,-0.341,0.074,-0.563,0.074l-2.203,0c-0.293,0,-0.538,0.055,-0.732,0.166c-0.152,0.088,-0.34,0.282,-0.34,0.692c0,0.341,0.115,0.579,0.34,0.71c0.194,0.109,0.439,0.167,0.732,0.167l2.326,0c0.247,0,0.463,-0.015,0.638,-0.041c0.179,-0.026,0.351,-0.073,0.513,-0.14c0.153,-0.064,0.31,-0.15,0.455,-0.254c0.143,-0.101,0.305,-0.227,0.487,-0.379c0.185,-0.153,0.343,-0.299,0.463,-0.431c0.128,-0.141,0.229,-0.294,0.304,-0.456c0.071,-0.162,0.123,-0.338,0.148,-0.523c0.025,-0.182,0.041,-0.393,0.041,-0.631l0,-7.898C146.694,208.588,146.64,208.341,146.527,208.15zM144.958,212.61c0,0.188,-0.062,0.35,-0.188,0.49c-0.15,0.172,-0.394,0.403,-0.716,0.686l-0.002,0.003l-0.002,0.004c-0.139,0.13,-0.291,0.237,-0.453,0.325c-0.148,0.082,-0.325,0.121,-0.526,0.121L142.77,214.239c-0.222,0,-0.41,-0.021,-0.563,-0.072c-0.148,-0.049,-0.301,-0.137,-0.453,-0.264c-0.231,-0.186,-0.315,-0.322,-0.346,-0.404c-0.049,-0.131,-0.072,-0.285,-0.072,-0.465l0,-2.206c0,-0.18,0.023,-0.336,0.072,-0.467c0.029,-0.082,0.113,-0.217,0.346,-0.403c0.152,-0.127,0.305,-0.216,0.453,-0.265c0.153,-0.049,0.342,-0.072,0.563,-0.072l0.301,0c0.212,0,0.388,0.037,0.526,0.113c0.152,0.082,0.308,0.191,0.457,0.324c0.322,0.293,0.564,0.529,0.716,0.7c0.128,0.146,0.188,0.304,0.188,0.492L144.958,212.61z" fill="#8C8C8C" />
    <path d="M126.548,203.39c-0.914,0,-1.66,0.745,-1.66,1.66c0,0.916,0.746,1.66,1.66,1.66s1.66,-0.744,1.66,-1.66C128.208,204.135,127.462,203.39,126.548,203.39zM126.548,205.653c-0.332,0,-0.604,-0.27,-0.604,-0.603s0.271,-0.603,0.604,-0.603s0.604,0.27,0.604,0.603C127.152,205.383,126.88,205.653,126.548,205.653z" fill="#8C8C8C" />
    <path d="M137.234,213.658l-0.107,-3.419c-0.011,-0.178,-0.021,-0.338,-0.031,-0.489c-0.01,-0.162,-0.037,-0.322,-0.082,-0.476c-0.045,-0.158,-0.11,-0.309,-0.198,-0.453c-0.093,-0.146,-0.216,-0.289,-0.37,-0.42c-0.225,-0.192,-0.443,-0.334,-0.646,-0.416c-0.207,-0.084,-0.461,-0.127,-0.754,-0.127l-1.012,0c-0.259,0,-0.501,0.058,-0.716,0.164c-0.197,0.098,-0.39,0.203,-0.572,0.315l-0.003,0.002l-0.003,0.003l-0.837,0.555l0,-0.041c0,-0.291,-0.057,-0.539,-0.168,-0.733c-0.129,-0.226,-0.367,-0.339,-0.707,-0.339c-0.411,0,-0.604,0.185,-0.693,0.339c-0.109,0.194,-0.168,0.438,-0.168,0.733l0,6.099c0,0.295,0.059,0.539,0.168,0.734c0.09,0.153,0.282,0.338,0.693,0.338c0.34,0,0.578,-0.114,0.707,-0.338c0.111,-0.195,0.168,-0.439,0.168,-0.734L131.903,210.92l1.953,-1.215c0.04,-0.024,0.082,-0.048,0.121,-0.063c0.031,-0.016,0.07,-0.025,0.115,-0.031c0.049,-0.012,0.117,-0.016,0.195,-0.016l0.362,0c0.188,0,0.334,0.021,0.435,0.059c0.082,0.029,0.143,0.076,0.18,0.143c0.05,0.078,0.08,0.18,0.098,0.303c0.02,0.139,0.034,0.309,0.045,0.504l0.096,3.097c-0.457,0.297,-0.762,0.811,-0.762,1.394c0,0.917,0.746,1.661,1.66,1.661c0.916,0,1.66,-0.744,1.66,-1.661C138.06,214.483,137.727,213.945,137.234,213.658zM136.4,215.695c-0.334,0,-0.602,-0.271,-0.602,-0.604c0,-0.333,0.268,-0.604,0.602,-0.604c0.333,0,0.604,0.271,0.604,0.604C137.005,215.426,136.733,215.695,136.4,215.695z" fill="#8C8C8C" />
    <path d="M126.611,207.882l-1.193,0c-0.293,0,-0.539,0.059,-0.731,0.169c-0.226,0.129,-0.341,0.368,-0.341,0.708c0,0.412,0.186,0.604,0.341,0.691c0.192,0.113,0.438,0.168,0.731,0.168l0.545,0l0,5.362c0,0.293,0.055,0.539,0.168,0.73c0.127,0.227,0.365,0.341,0.707,0.341c0.41,0,0.604,-0.187,0.691,-0.341c0.111,-0.191,0.17,-0.438,0.17,-0.73L127.699,208.97c0,-0.386,-0.085,-0.656,-0.259,-0.83C127.268,207.968,126.995,207.882,126.611,207.882z" fill="#8C8C8C" />
   </g>
  </g>
 </g>
 <g partID="854107360">
  <g transform="translate(19.5661,72.7221)">
   <g transform="matrix(0,1,-1,0,0,0)">
    <g id="schematic">
     <line stroke-linecap="round" fill="none" y1="11.159" stroke-width="0.7" x1="19.8" y2="11.159" stroke="#000000" x2="21.6"/>
     <line stroke-linecap="round" fill="none" y1="11.159" stroke-width="0.7" x1="7.2" y2="7.559" stroke="#000000" x2="19.8"/>
     <circle r="0.36" fill="none" cy="11.159" stroke-width="0.7" cx="7.2" stroke="#000000"/>
     <circle r="0.36" fill="none" cy="11.159" stroke-width="0.7" cx="21.6" stroke="#000000"/>
     <g transform="matrix(1, 0, 0, 1, 2.7612, 2.718)">
      <text fill="#787878" font-size="2" font-family="'DroidSans'">1</text>
     </g>
     <g transform="matrix(1, 0, 0, 1, 24.604, 2.718)">
      <text fill="#787878" font-size="2" font-family="'DroidSans'">2</text>
     </g>
     <g transform="matrix(1, 0, 0, 1, 2.7612, 16.843)">
      <text fill="#787878" font-size="2" font-family="'DroidSans'">1</text>
     </g>
     <g transform="matrix(1, 0, 0, 1, 24.604, 16.843)">
      <text fill="#787878" font-size="2" font-family="'DroidSans'">2</text>
     </g>
     <line stroke-linecap="round" fill="none" y1="3.96" stroke-width="0.7" x1="21.6" y2="18.359" stroke="#000000" x2="21.6"/>
     <line stroke-linecap="round" fill="none" y1="3.96" stroke-width="0.7" x1="7.2" y2="18.359" stroke="#000000" x2="7.2"/>
     <line stroke-linecap="round" fill="none" y1="18.359" id="connector3pin" stroke-width="0.7" x1="0.322" y2="18.359" stroke="#555555" x2="7.2"/>
     <line stroke-linecap="round" fill="none" y1="3.96" id="connector2pin" stroke-width="0.7" x1="0.322" y2="3.96" stroke="#555555" x2="7.2"/>
     <g fill="none" points="0.822,4.281,0.837,3.64,0,3.64,0,4.281" id="connector2terminal"/>
     <g fill="none" points="0.822,18.694,0.837,18.053,0,18.053,0,18.694" id="connector3terminal"/>
     <line stroke-linecap="round" fill="none" y1="18.359" id="connector1pin" stroke-width="0.7" x1="28.451" y2="18.359" stroke="#555555" x2="21.6"/>
     <g fill="none" width="0.994" height="0.672" x="27.806" id="connector1terminal" y="18.006"/>
     <g fill="none" width="1.088" height="0.719" x="27.712" id="connector0terminal" y="3.6"/>
     <line stroke-linecap="round" fill="none" y1="3.96" id="connector0pin" stroke-width="0.7" x1="28.451" y2="3.96" stroke="#555555" x2="21.6"/>
    </g>
   </g>
  </g>
 </g>
 <g partID="58580">
  <g transform="translate(22.7927,15.5406)">
   <g id="schematic">
    <rect stroke-linecap="round" fill="#FFFFFF" width="78.3" height="150.3" x="14.85" stroke-width="0.3175" y="14.85" stroke="#000000"/>
    <line stroke-linecap="round" fill="none" y1="28.8" id="connector61pin" stroke-width="0.2469" x1="93.25" y2="28.8" stroke="#787878" x2="107.65"/>
    <g transform="matrix(1, 0, 0, 1, 82.2432, 29.5)">
     <text fill="#8C8C8C" font-size="3.5" font-family="'DroidSans'">D0/RX</text>
    </g>
    <g fill="none" width="0.699" height="0.7" x="107.65" id="connector61terminal" y="28.45"/>
    <line stroke-linecap="round" fill="none" y1="36" id="connector62pin" stroke-width="0.2469" x1="93.25" y2="36" stroke="#787878" x2="107.65"/>
    <g transform="matrix(1, 0, 0, 1, 82.4912, 36.7012)">
     <text fill="#8C8C8C" font-size="3.5" font-family="'DroidSans'">D1/TX</text>
    </g>
    <g fill="none" width="0.699" height="0.7" x="107.65" id="connector62terminal" y="35.65"/>
    <line stroke-linecap="round" fill="none" y1="43.2" id="connector63pin" stroke-width="0.2469" x1="93.25" y2="43.2" stroke="#787878" x2="107.65"/>
    <g transform="matrix(1, 0, 0, 1, 87.5283, 43.9004)">
     <text fill="#8C8C8C" font-size="3.5" font-family="'DroidSans'">D2</text>
    </g>
    <g fill="none" width="0.699" height="0.7" x="107.65" id="connector63terminal" y="42.85"/>
    <line stroke-linecap="round" fill="none" y1="50.4" id="connector64pin" stroke-width="0.2469" x1="93.25" y2="50.4" stroke="#787878" x2="107.65"/>
    <g transform="matrix(1, 0, 0, 1, 78.4639, 51.0996)">
     <text fill="#8C8C8C" font-size="3.5" font-family="'DroidSans'">D3 PWM</text>
    </g>
    <g fill="none" width="0.699" height="0.7" x="107.65" id="connector64terminal" y="50.05"/>
    <line stroke-linecap="round" fill="none" y1="57.6" id="connector65pin" stroke-width="0.2469" x1="93.25" y2="57.6" stroke="#787878" x2="107.65"/>
    <g transform="matrix(1, 0, 0, 1, 87.5283, 58.3008)">
     <text fill="#8C8C8C" font-size="3.5" font-family="'DroidSans'">D4</text>
    </g>
    <g fill="none" width="0.699" height="0.7" x="107.65" id="connector65terminal" y="57.25"/>
    <line stroke-linecap="round" fill="none" y1="64.8" id="connector66pin" stroke-width="0.2469" x1="93.25" y2="64.8" stroke="#787878" x2="107.65"/>
    <g transform="matrix(1, 0, 0, 1, 78.4639, 65.5)">
     <text fill="#8C8C8C" font-size="3.5" font-family="'DroidSans'">D5 PWM</text>
    </g>
    <g fill="none" width="0.699" height="0.7" x="107.65" id="connector66terminal" y="64.45"/>
    <line stroke-linecap="round" fill="none" y1="72" id="connector67pin" stroke-width="0.2469" x1="93.25" y2="72" stroke="#787878" x2="107.65"/>
    <g transform="matrix(1, 0, 0, 1, 78.4639, 72.7012)">
     <text fill="#8C8C8C" font-size="3.5" font-family="'DroidSans'">D6 PWM</text>
    </g>
    <g fill="none" width="0.699" height="0.7" x="107.65" id="connector67terminal" y="71.65"/>
    <line stroke-linecap="round" fill="none" y1="79.2" id="connector68pin" stroke-width="0.2469" x1="93.25" y2="79.2" stroke="#787878" x2="107.65"/>
    <g transform="matrix(1, 0, 0, 1, 87.5283, 79.9004)">
     <text fill="#8C8C8C" font-size="3.5" font-family="'DroidSans'">D7</text>
    </g>
    <g fill="none" width="0.699" height="0.7" x="107.65" id="connector68terminal" y="78.85"/>
    <line stroke-linecap="round" fill="none" y1="86.4" id="connector51pin" stroke-width="0.2469" x1="93.25" y2="86.4" stroke="#787878" x2="107.65"/>
    <g transform="matrix(1, 0, 0, 1, 87.5283, 87.0996)">
     <text fill="#8C8C8C" font-size="3.5" font-family="'DroidSans'">D8</text>
    </g>
    <g fill="none" width="0.699" height="0.7" x="107.65" id="connector51terminal" y="86.05"/>
    <line stroke-linecap="round" fill="none" y1="93.6" id="connector52pin" stroke-width="0.2469" x1="93.25" y2="93.6" stroke="#787878" x2="107.65"/>
    <g transform="matrix(1, 0, 0, 1, 78.4639, 94.3008)">
     <text fill="#8C8C8C" font-size="3.5" font-family="'DroidSans'">D9 PWM</text>
    </g>
    <g fill="none" width="0.699" height="0.699" x="107.65" id="connector52terminal" y="93.25"/>
    <line stroke-linecap="round" fill="none" y1="100.8" id="connector53pin" stroke-width="0.2469" x1="93.25" y2="100.8" stroke="#787878" x2="107.65"/>
    <g transform="matrix(1, 0, 0, 1, 71.5967, 101.5)">
     <text fill="#8C8C8C" font-size="3.5" font-family="'DroidSans'">D10 PWM/SS</text>
    </g>
    <g fill="none" width="0.699" height="0.701" x="107.65" id="connector53terminal" y="100.449"/>
    <line stroke-linecap="round" fill="none" y1="108" id="connector54pin" stroke-width="0.2469" x1="93.25" y2="108" stroke="#787878" x2="107.65"/>
    <g transform="matrix(1, 0, 0, 1, 66.585, 108.701)">
     <text fill="#8C8C8C" font-size="3.5" font-family="'DroidSans'">D11 PWM/MOSI</text>
    </g>
    <g fill="none" width="0.699" height="0.699" x="107.65" id="connector54terminal" y="107.65"/>
    <line stroke-linecap="round" fill="none" y1="115.2" id="connector55pin" stroke-width="0.2469" x1="93.25" y2="115.2" stroke="#787878" x2="107.65"/>
    <g transform="matrix(1, 0, 0, 1, 75.6494, 115.9)">
     <text fill="#8C8C8C" font-size="3.5" font-family="'DroidSans'">D12/MISO</text>
    </g>
    <g fill="none" width="0.699" height="0.7" x="107.65" id="connector55terminal" y="114.85"/>
    <line fill="none" y1="122.4" id="connector41pin" x1="93.25" y2="122.4" x2="107.65"/>
    <rect fill="none" width="0.699" height="0.7" x="107.65" id="connector41terminal" y="122.05"/>
    <line stroke-linecap="round" fill="none" y1="122.4" id="connector56pin" stroke-width="0.2469" x1="93.25" y2="122.4" stroke="#787878" x2="107.65"/>
    <g transform="matrix(1, 0, 0, 1, 78.3408, 123.1)">
     <text fill="#8C8C8C" font-size="3.5" font-family="'DroidSans'">D13/SCK</text>
    </g>
    <g fill="none" width="0.699" height="0.7" x="107.65" id="connector56terminal" y="122.05"/>
    <line fill="none" y1="28.8" id="connector43pin" x1="0.35" y2="28.8" x2="14.75"/>
    <g fill="none" width="0.7" height="0.7" x="-0.35" id="connector43terminal" y="28.45"/>
    <line stroke-linecap="round" fill="none" y1="28.8" id="connector85pin" stroke-width="0.2469" x1="0.35" y2="28.8" stroke="#787878" x2="14.75"/>
    <g transform="matrix(1, 0, 0, 1, 16.1494, 29.5)">
     <text fill="#8C8C8C" font-size="3.5" font-family="'DroidSans'">RESET</text>
    </g>
    <g fill="none" width="0.7" height="0.7" x="-0.35" id="connector85terminal" y="28.45"/>
    <line stroke-linecap="round" fill="none" y1="36" id="connector49pin" stroke-width="0.2469" x1="0.35" y2="36" stroke="#787878" x2="14.75"/>
    <g transform="matrix(1, 0, 0, 1, 16.1494, 36.7012)">
     <text fill="#8C8C8C" font-size="3.5" font-family="'DroidSans'">RESET2</text>
    </g>
    <rect fill="none" width="0.7" height="0.7" x="-0.35" id="connector49terminal" y="35.65"/>
    <line stroke-linecap="round" fill="none" y1="43.2" id="connector58pin" stroke-width="0.2469" x1="0.35" y2="43.2" stroke="#787878" x2="14.75"/>
    <g transform="matrix(1, 0, 0, 1, 16.1494, 43.9004)">
     <text fill="#8C8C8C" font-size="3.5" font-family="'DroidSans'">AREF</text>
    </g>
    <g fill="none" width="0.7" height="0.7" x="-0.35" id="connector58terminal" y="42.85"/>
    <line stroke-linecap="round" fill="none" y1="50.4" id="connector84pin" stroke-width="0.2469" x1="0.35" y2="50.4" stroke="#787878" x2="14.75"/>
    <g transform="matrix(1, 0, 0, 1, 16.1494, 51.0996)">
     <text fill="#8C8C8C" font-size="3.5" font-family="'DroidSans'">I</text>
    </g>
    <g transform="matrix(1, 0, 0, 1, 17.3013, 51.0996)">
     <text fill="#8C8C8C" font-size="3.5" font-family="'DroidSans'">O</text>
    </g>
    <g transform="matrix(1, 0, 0, 1, 19.8989, 51.0996)">
     <text fill="#8C8C8C" font-size="3.5" font-family="'DroidSans'">R</text>
    </g>
    <g transform="matrix(1, 0, 0, 1, 21.9634, 51.0996)">
     <text fill="#8C8C8C" font-size="3.5" font-family="'DroidSans'">E</text>
    </g>
    <g transform="matrix(1, 0, 0, 1, 23.8105, 51.0996)">
     <text fill="#8C8C8C" font-size="3.5" font-family="'DroidSans'">F</text>
    </g>
    <g fill="none" width="0.7" height="0.7" x="-0.35" id="connector84terminal" y="50.05"/>
    <line stroke-linecap="round" fill="none" y1="64.8" id="connector0pin" stroke-width="0.2469" x1="0.35" y2="64.8" stroke="#787878" x2="14.75"/>
    <g transform="matrix(1, 0, 0, 1, 16.1494, 65.5)">
     <text fill="#8C8C8C" font-size="3.5" font-family="'DroidSans'">A0</text>
    </g>
    <g fill="none" width="0.7" height="0.7" x="-0.35" id="connector0terminal" y="64.45"/>
    <line stroke-linecap="round" fill="none" y1="72" id="connector1pin" stroke-width="0.2469" x1="0.35" y2="72" stroke="#787878" x2="14.75"/>
    <g transform="matrix(1, 0, 0, 1, 16.1494, 72.7012)">
     <text fill="#8C8C8C" font-size="3.5" font-family="'DroidSans'">A1</text>
    </g>
    <g fill="none" width="0.7" height="0.7" x="-0.35" id="connector1terminal" y="71.65"/>
    <line stroke-linecap="round" fill="none" y1="79.2" id="connector2pin" stroke-width="0.2469" x1="0.35" y2="79.2" stroke="#787878" x2="14.75"/>
    <g transform="matrix(1, 0, 0, 1, 16.1494, 79.9004)">
     <text fill="#8C8C8C" font-size="3.5" font-family="'DroidSans'">A2</text>
    </g>
    <g fill="none" width="0.7" height="0.7" x="-0.35" id="connector2terminal" y="78.85"/>
    <line stroke-linecap="round" fill="none" y1="86.4" id="connector3pin" stroke-width="0.2469" x1="0.35" y2="86.4" stroke="#787878" x2="14.75"/>
    <g transform="matrix(1, 0, 0, 1, 16.1494, 87.0996)">
     <text fill="#8C8C8C" font-size="3.5" font-family="'DroidSans'">A3</text>
    </g>
    <g fill="none" width="0.7" height="0.7" x="-0.35" id="connector3terminal" y="86.05"/>
    <line fill="none" y1="93.6" id="connector39pin" x1="0.35" y2="93.6" x2="14.75"/>
    <g fill="none" width="0.7" height="0.699" x="-0.35" id="connector39terminal" y="93.25"/>
    <line stroke-linecap="round" fill="none" y1="93.6" id="connector42pin" stroke-width="0.2469" x1="0.35" y2="93.6" stroke="#787878" x2="14.75"/>
    <g fill="none" width="0.7" height="0.699" x="-0.35" id="connector42terminal" y="93.25"/>
    <line fill="none" y1="93.6" id="connector4pin" x1="0.35" y2="93.6" x2="14.75"/>
    <g fill="none" width="0.7" height="0.699" x="-0.35" id="connector4terminal" y="93.25"/>
    <line stroke-linecap="round" fill="none" y1="93.6" id="connector59pin" stroke-width="0.2469" x1="0.35" y2="93.6" stroke="#787878" x2="14.75"/>
    <g fill="none" width="0.7" height="0.699" x="-0.35" id="connector59terminal" y="93.25"/>
    <line fill="none" y1="100.8" id="connector5pin" x1="0.35" y2="100.8" x2="14.75"/>
    <g fill="none" width="0.7" height="0.701" x="-0.35" id="connector5terminal" y="100.449"/>
    <line stroke-linecap="round" fill="none" y1="100.8" id="connector60pin" stroke-width="0.2469" x1="0.35" y2="100.8" stroke="#787878" x2="14.75"/>
    <g fill="none" width="0.7" height="0.701" x="-0.35" id="connector60terminal" y="100.449"/>
    <line stroke-linecap="round" fill="none" y1="136.8" id="connector91pin" stroke-width="0.2469" x1="0.35" y2="136.8" stroke="#787878" x2="14.75"/>
    <g transform="matrix(1, 0, 0, 1, 16.1494, 137.5)">
     <text fill="#8C8C8C" font-size="3.5" font-family="'DroidSans'">N/C</text>
    </g>
    <g fill="none" width="0.7" height="0.701" x="-0.35" id="connector91terminal" y="136.449"/>
    <line fill="none" y1="165.25" id="connector88pin" x1="57.6" y2="179.65" x2="57.6"/>
    <g fill="none" width="0.699" height="0.699" x="57.25" id="connector88terminal" y="179.65"/>
    <line fill="none" y1="165.25" id="connector57pin" x1="57.6" y2="179.65" x2="57.6"/>
    <g fill="none" width="0.699" height="0.699" x="57.25" id="connector57terminal" y="179.65"/>
    <line fill="none" y1="165.25" id="connector44pin" x1="57.6" y2="179.65" x2="57.6"/>
    <g fill="none" width="0.699" height="0.699" x="57.25" id="connector44terminal" y="179.65"/>
    <line fill="none" y1="165.25" id="connector50pin" x1="57.6" y2="179.65" x2="57.6"/>
    <rect fill="none" width="0.699" height="0.699" x="57.25" id="connector50terminal" y="179.65"/>
    <line stroke-linecap="round" fill="none" y1="165.25" id="connector89pin" stroke-width="0.2469" x1="57.6" y2="179.65" stroke="#787878" x2="57.6"/>
    <g transform="matrix(1, 0, 0, 1, 20.5669, 57.8026)">
     <g>
      <g transform="rotate(270)">
       <g>
        <g transform="matrix(1, 0, 0, 1, -106.047, 37.7329)">
         <text fill="#8C8C8C" font-size="3.5" font-family="'DroidSans'">GND</text>
        </g>
       </g>
      </g>
     </g>
    </g>
    <g fill="none" width="0.699" height="0.699" x="57.25" id="connector89terminal" y="179.65"/>
    <line stroke-linecap="round" fill="none" y1="0.35" id="connector86pin" stroke-width="0.2469" x1="36" y2="14.75" stroke="#787878" x2="36"/>
    <g transform="matrix(1, 0, 0, 1, 12.9469, 5.69736)">
     <g>
      <g transform="rotate(270)">
       <g>
        <g transform="matrix(1, 0, 0, 1, -16.2968, 23.7533)">
         <text fill="#8C8C8C" font-size="3.5" font-family="'DroidSans'">3V3</text>
        </g>
       </g>
      </g>
     </g>
    </g>
    <g fill="none" width="0.7" height="0.7" x="35.65" id="connector86terminal" y="-0.35"/>
    <line fill="none" y1="0.35" id="connector40pin" x1="50.4" y2="14.75" x2="50.4"/>
    <g fill="none" width="0.7" height="0.7" x="50.05" id="connector40terminal" y="-0.35"/>
    <line fill="none" y1="0.35" id="connector46pin" x1="50.4" y2="14.75" x2="50.4"/>
    <rect fill="none" width="0.7" height="0.7" x="50.05" id="connector46terminal" y="-0.35"/>
    <line stroke-linecap="round" fill="none" y1="0.35" id="connector87pin" stroke-width="0.2469" x1="50.4" y2="14.75" stroke="#787878" x2="50.4"/>
    <g transform="matrix(1, 0, 0, 1, 18.0269, 5.69736)">
     <g>
      <g transform="rotate(270)">
       <g>
        <g transform="matrix(1, 0, 0, 1, -14.369, 33.0737)">
         <text fill="#8C8C8C" font-size="3.5" font-family="'DroidSans'">5V</text>
        </g>
       </g>
      </g>
     </g>
    </g>
    <g fill="none" width="0.7" height="0.7" x="50.05" id="connector87terminal" y="-0.35"/>
    <line stroke-linecap="round" fill="none" y1="0.35" id="connector90pin" stroke-width="0.2469" x1="64.8" y2="14.75" stroke="#787878" x2="64.8"/>
    <g transform="matrix(1, 0, 0, 1, 23.1069, 5.69736)">
     <g>
      <g transform="rotate(270)">
       <g>
        <g transform="matrix(1, 0, 0, 1, -16.1776, 42.3922)">
         <text fill="#8C8C8C" font-size="3.5" font-family="'DroidSans'">VIN</text>
        </g>
       </g>
      </g>
     </g>
    </g>
    <g fill="none" width="0.701" height="0.7" x="64.449" id="connector90terminal" y="-0.35"/>
    <g transform="matrix(1, 0, 0, 1, 46.7861, 81.3828)">
     <text font-size="4.25" id="label" font-family="'DroidSans'">Arduino</text>
    </g>
    <g transform="matrix(1, 0, 0, 1, 50.4893, 85.916)">
     <text font-size="4.25" id="label_1_" font-family="'DroidSans'">Uno</text>
    </g>
    <g transform="matrix(1, 0, 0, 1, 48.5928, 90.4512)">
     <text font-size="4.25" id="label_2_" font-family="'DroidSans'">(Rev3)</text>
    </g>
    <g transform="matrix(1, 0, 0, 1, 50.1416, 94.9844)">
     <text font-size="4.25" font-family="'DroidSans'">I</text>
    </g>
    <g transform="matrix(1, 0, 0, 1, 51.54, 94.9844)">
     <text font-size="4.25" font-family="'DroidSans'">C</text>
    </g>
    <g transform="matrix(1, 0, 0, 1, 54.103, 94.9844)">
     <text font-size="4.25" font-family="'DroidSans'">S</text>
    </g>
    <g transform="matrix(1, 0, 0, 1, 56.3086, 94.9844)">
     <text font-size="4.25" font-family="'DroidSans'">P</text>
    </g>
    <g transform="matrix(1, 0, 0, 1, 16.1494, 94.9844)">
     <text fill="#8C8C8C" font-size="3.5" font-family="'DroidSans'">A4/SDA</text>
    </g>
    <g transform="matrix(1, 0, 0, 1, 16.1494, 102.184)">
     <text fill="#8C8C8C" font-size="3.5" font-family="'DroidSans'">A5/SCL</text>
    </g>
   </g>
  </g>
 </g>
 <g partID="854108540">
  <g transform="translate(18.6889,15.1905)">
   <g transform="matrix(0,1,-1,0,0,0)">
    <g id="schematic" >
     <line stroke-linecap="round" y1="3.096" stroke-width="0.432002"  x1="7.55002" y2="0.216" class="other" x2="8.63003" stroke="#000000"/>
     <line stroke-linecap="round" y1="0.216" stroke-width="0.432002"  x1="8.63003" y2="5.976" class="other" x2="10.43" stroke="#000000"/>
     <line stroke-linecap="round" y1="5.976" stroke-width="0.432002"  x1="10.43" y2="0.216" class="other" x2="12.23" stroke="#000000"/>
     <line stroke-linecap="round" y1="0.216" stroke-width="0.432002"  x1="12.23" y2="5.976" class="other" x2="14.03" stroke="#000000"/>
     <line stroke-linecap="round" y1="5.976" stroke-width="0.432002"  x1="14.03" y2="0.216" class="other" x2="15.8301" stroke="#000000"/>
     <line stroke-linecap="round" y1="0.216" stroke-width="0.432002"  x1="15.8301" y2="5.976" class="other" x2="17.6301" stroke="#000000"/>
     <line stroke-linecap="round" y1="5.976" stroke-width="0.432002"  x1="17.6301" y2="0.216" class="other" x2="19.4301" stroke="#000000"/>
     <line stroke-linecap="round" y1="0.216" stroke-width="0.432002"  x1="19.4301" y2="5.976" class="other" x2="21.2301" stroke="#000000"/>
     <line stroke-linecap="round" y1="5.976" stroke-width="0.432002"  x1="21.2301" y2="3.096" class="other" x2="21.9501" stroke="#000000"/>
     <line stroke-linecap="round" y1="3.096" id="connector1pin" connectorname="2" stroke-width="0.700001"  x1="29.1502" y2="3.096" class="pin" x2="21.9501" stroke="#787878"/>
     <g fill="none" width="0.000283466" height="0.000283465" x="29.1502" id="connector1terminal" stroke-width="0"  class="terminal" y="3.096" stroke="none"/>
     <text fill="#8c8c8c" text-anchor="middle" font-size="2.50001" x="25.5501" stroke-width="0"  font-family="'Droid Sans'" class="text" stroke="none" y="2.046">2</text>
     <line stroke-linecap="round" y1="3.096" id="connector0pin" connectorname="1" stroke-width="0.700001"  x1="0.350001" y2="3.096" class="pin" x2="7.55002" stroke="#787878"/>
     <g fill="none" width="0.000283466" height="0.000283465" x="0.350001" id="connector0terminal" stroke-width="0"  class="terminal" y="3.096" stroke="none"/>
     <text fill="#8c8c8c" text-anchor="middle" font-size="2.50001" x="3.95001" stroke-width="0"  font-family="'Droid Sans'" class="text" stroke="none" y="2.046">1</text>
    </g>
   </g>
  </g>
 </g>
 <g partID="854113060">
  <line stroke-linecap="round" y1="195.534" stroke-width="0.699998" x1="15.6448" y2="100.978" stroke="#404040" x2="15.6066"/>
 </g>
 <g partID="854112460">
  <line stroke-linecap="round" y1="195.54" stroke-width="0.699998" x1="80.3922" y2="195.534" stroke="#404040" x2="15.6448"/>
 </g>
 <g partID="854110070">
  <line stroke-linecap="round" y1="73.1185" stroke-width="0.699998" x1="15.6038" y2="44.3409" stroke="#404040" x2="15.5927"/>
 </g>
 <g partID="854110080">
  <line stroke-linecap="round" y1="73.1406" stroke-width="0.699998" x1="15.6056" y2="73.1185" stroke="#404040" x2="15.6038"/>
 </g>
 <g partID="854110290">
  <line stroke-linecap="round" y1="8.35165" stroke-width="0.699998" x1="73.283" y2="15.5406" stroke="#404040" x2="73.1927"/>
 </g>
 <g partID="854110230">
  <line stroke-linecap="round" y1="8.35165" stroke-width="0.699998" x1="15.4803" y2="8.35165" stroke="#404040" x2="73.283"/>
 </g>
 <g partID="854110240">
  <line stroke-linecap="round" y1="15.5406" stroke-width="0.699998" x1="15.5927" y2="8.35167" stroke="#404040" x2="15.4803"/>
 </g>
 <g partID="854112890">
  <line stroke-linecap="round" y1="1.05113" stroke-width="0.699998" x1="1.05113" y2="73.1406" stroke="#404040" x2="1.19266"/>
 </g>
 <g partID="854112820">
  <line stroke-linecap="round" y1="1.05113" stroke-width="0.699998" x1="138.053" y2="1.05113" stroke="#404040" x2="1.05113"/>
 </g>
 <g partID="854112740">
  <line stroke-linecap="round" y1="58.8301" stroke-width="0.699998" x1="138.053" y2="1.05113" stroke="#404040" x2="138.053"/>
 </g>
 <g partID="854112750">
  <line stroke-linecap="round" y1="58.7406" stroke-width="0.699998" x1="130.792" y2="58.8301" stroke="#404040" x2="138.053"/>
 </g>
 <g id="partLabel" partID="58580">
  <g transform="translate(90.6934,23.4106)">
   <g transform="matrix(1,0,0,1,0,0)">
    <g font-weight="normal" fill="#000000" font-style="normal" fill-opacity="1" font-size="5" id="schematicLabel" font-family="'DroidSans'" stroke="none">
     <text x="0" y="3.75">Microcontroller</text>
    </g>
   </g>
  </g>
 </g>
 <g id="partLabel" partID="854108540">
  <g transform="translate(20.3184,14.2423)">
   <g font-weight="normal" fill="#000000" font-style="normal" fill-opacity="1" font-size="5" id="schematicLabel" font-family="'DroidSans'" stroke="none">
    <text x="0" y="3.75">R2</text>
    <text x="0" y="8.75">10k&#x3a9;</text>
    <text x="0" y="13.75">0.25</text>
   </g>
  </g>
 </g>
 <g id="partLabel" partID="854107360">
  <g transform="translate(0.65934,64.7156)">
   <g font-weight="normal" fill="#000000" font-style="normal" fill-opacity="1" font-size="5" id="schematicLabel" font-family="'DroidSans'" stroke="none">
    <text x="0" y="3.75">S1</text>
   </g>
  </g>
 </g>
</svg>
