<?xml version="1.0" encoding="UTF-8" standalone="no"?>
<!-- Created with Inkscape (http://www.inkscape.org/) -->

<svg
   xmlns:dc="http://purl.org/dc/elements/1.1/"
   xmlns:cc="http://creativecommons.org/ns#"
   xmlns:rdf="http://www.w3.org/1999/02/22-rdf-syntax-ns#"
   xmlns:svg="http://www.w3.org/2000/svg"
   xmlns="http://www.w3.org/2000/svg"
   xmlns:sodipodi="http://sodipodi.sourceforge.net/DTD/sodipodi-0.dtd"
   xmlns:inkscape="http://www.inkscape.org/namespaces/inkscape"
   version="1.1"
   id="svg815"
   xml:space="preserve"
   width="800"
   height="800"
   viewBox="0 0 800 800"
   sodipodi:docname="weather-symbol.svg"
   inkscape:version="0.92.4 (5da689c313, 2019-01-14)"><metadata
     id="metadata821"><rdf:RDF><cc:Work
         rdf:about=""><dc:format>image/svg+xml</dc:format><dc:type
           rdf:resource="http://purl.org/dc/dcmitype/StillImage" /><dc:title></dc:title></cc:Work></rdf:RDF></metadata><defs
     id="defs819"><clipPath
       clipPathUnits="userSpaceOnUse"
       id="clipPath831"><path
         d="M 0,600 H 600 V 0 H 0 Z"
         id="path829"
         inkscape:connector-curvature="0" /></clipPath><clipPath
       clipPathUnits="userSpaceOnUse"
       id="clipPath849"><path
         d="m 347.548,410.259 c -0.018,-0.461 -0.038,-0.962 -0.059,-1.489 -0.006,-0.564 -0.09,-0.981 -0.135,-1.499 -0.107,-0.999 -0.219,-2.062 -0.332,-3.126 -0.184,-1.109 -0.371,-2.215 -0.543,-3.25 -0.147,-1.043 -0.379,-1.998 -0.577,-2.816 -0.381,-1.641 -0.635,-2.731 -0.635,-2.731 l 14.806,-3.806 c 0,0 0.027,0.344 0.073,0.948 0.04,0.603 0.107,1.461 0.225,2.477 0.11,1.016 0.238,2.2 0.266,3.478 0.091,1.264 0.185,2.614 0.283,3.965 0.01,1.407 0.116,2.799 0.157,4.105 0.02,0.637 0.077,1.328 0.047,1.824 0.005,0.529 0.012,1.03 0.02,1.49 0.022,1.846 0.039,3.079 0.039,3.079 l -13.512,0.428 c 0,0 -0.048,-1.231 -0.123,-3.077"
         id="path847"
         inkscape:connector-curvature="0" /></clipPath><clipPath
       clipPathUnits="userSpaceOnUse"
       id="clipPath857"><path
         d="m 345.586,413.685 h 15.915 v -21.792 h -15.915 z"
         id="path855"
         inkscape:connector-curvature="0" /></clipPath><clipPath
       clipPathUnits="userSpaceOnUse"
       id="clipPath867"><path
         d="m 345.58594,413.68531 h 15.9155 V 391.8938 h -15.9155 z"
         id="path865"
         inkscape:connector-curvature="0" /></clipPath><linearGradient
       x1="0"
       y1="0"
       x2="1"
       y2="0"
       gradientUnits="userSpaceOnUse"
       gradientTransform="matrix(15.915497,0,0,-15.915497,345.58594,402.79004)"
       spreadMethod="pad"
       id="linearGradient879"><stop
         style="stop-opacity:1;stop-color:#f9ea3b"
         offset="0"
         id="stop869" /><stop
         style="stop-opacity:1;stop-color:#f5c317"
         offset="0.280899"
         id="stop871" /><stop
         style="stop-opacity:1;stop-color:#ec944c"
         offset="0.668539"
         id="stop873" /><stop
         style="stop-opacity:1;stop-color:#e5714e"
         offset="0.88764"
         id="stop875" /><stop
         style="stop-opacity:1;stop-color:#e14950"
         offset="1"
         id="stop877" /></linearGradient><clipPath
       clipPathUnits="userSpaceOnUse"
       id="clipPath889"><path
         d="m 338.774,379.481 c -0.224,-0.403 -0.471,-0.841 -0.729,-1.302 -0.263,-0.496 -0.524,-0.812 -0.799,-1.254 -0.545,-0.831 -1.123,-1.716 -1.704,-2.605 -0.666,-0.893 -1.332,-1.789 -1.957,-2.628 -0.317,-0.414 -0.595,-0.839 -0.911,-1.197 -0.311,-0.366 -0.604,-0.71 -0.875,-1.027 -1.078,-1.277 -1.797,-2.127 -1.797,-2.127 l 20.519,-17.518 c 0,0 0.533,1.535 1.33,3.84 0.194,0.568 0.402,1.18 0.622,1.83 0.233,0.633 0.423,1.339 0.645,2.042 0.431,1.42 0.855,2.924 1.326,4.381 0.44,1.579 0.877,3.157 1.291,4.638 0.102,0.36 0.202,0.715 0.301,1.062 l 0.143,0.511 0.07,0.424 c 0.09,0.552 0.175,1.073 0.254,1.554 0.362,1.896 0.606,3.162 0.606,3.162 l -16.829,8.899 c 0,0 -0.602,-1.077 -1.506,-2.685"
         id="path887"
         inkscape:connector-curvature="0" /></clipPath><clipPath
       clipPathUnits="userSpaceOnUse"
       id="clipPath897"><path
         d="m 330.272,382.445 h 27.106 v -32.341 h -27.106 z"
         id="path895"
         inkscape:connector-curvature="0" /></clipPath><clipPath
       clipPathUnits="userSpaceOnUse"
       id="clipPath907"><path
         d="m 330.27189,382.44534 h 27.10603 v -32.3413 h -27.10603 z"
         id="path905"
         inkscape:connector-curvature="0" /></clipPath><linearGradient
       x1="0"
       y1="0"
       x2="1"
       y2="0"
       gradientUnits="userSpaceOnUse"
       gradientTransform="matrix(27.105896,0,0,-27.105896,330.27148,366.27469)"
       spreadMethod="pad"
       id="linearGradient919"><stop
         style="stop-opacity:1;stop-color:#f9ea3b"
         offset="0"
         id="stop909" /><stop
         style="stop-opacity:1;stop-color:#f5c317"
         offset="0.280899"
         id="stop911" /><stop
         style="stop-opacity:1;stop-color:#ec944c"
         offset="0.668539"
         id="stop913" /><stop
         style="stop-opacity:1;stop-color:#e5714e"
         offset="0.88764"
         id="stop915" /><stop
         style="stop-opacity:1;stop-color:#e14950"
         offset="1"
         id="stop917" /></linearGradient><clipPath
       clipPathUnits="userSpaceOnUse"
       id="clipPath929"><path
         d="m 317.084,356.312 c -0.384,-0.256 -0.799,-0.537 -1.239,-0.831 -0.451,-0.316 -0.82,-0.477 -1.257,-0.739 -0.844,-0.479 -1.743,-0.997 -2.642,-1.51 -0.985,-0.487 -1.969,-0.974 -2.892,-1.43 -0.464,-0.221 -0.892,-0.475 -1.334,-0.641 -0.435,-0.182 -0.847,-0.353 -1.226,-0.51 -1.511,-0.638 -2.519,-1.059 -2.519,-1.059 l 19.657,-45.083 c 0,0 1.368,1.579 3.291,3.934 0.481,0.573 1.002,1.192 1.553,1.849 0.552,0.641 1.085,1.393 1.65,2.127 1.12,1.488 2.276,3.07 3.391,4.64 0.645,0.865 1.288,1.733 1.921,2.585 0.612,0.843 1.211,1.676 1.793,2.48 0.281,0.403 0.556,0.796 0.827,1.182 0.131,0.194 0.263,0.383 0.394,0.572 0.128,0.187 0.138,0.306 0.21,0.458 0.234,0.576 0.454,1.122 0.658,1.626 0.396,1.021 0.772,1.809 1.024,2.379 0.252,0.566 0.397,0.889 0.397,0.889 l -21.099,28.798 c 0,0 -1.022,-0.687 -2.558,-1.716"
         id="path927"
         inkscape:connector-curvature="0" /></clipPath><clipPath
       clipPathUnits="userSpaceOnUse"
       id="clipPath937"><path
         d="m 303.648,357.721 h 36.765 v -53.509 h -36.765 z"
         id="path935"
         inkscape:connector-curvature="0" /></clipPath><clipPath
       clipPathUnits="userSpaceOnUse"
       id="clipPath947"><path
         d="M 303.64844,357.72147 H 340.413 v -53.50873 h -36.76456 z"
         id="path945"
         inkscape:connector-curvature="0" /></clipPath><linearGradient
       x1="0"
       y1="0"
       x2="1"
       y2="0"
       gradientUnits="userSpaceOnUse"
       gradientTransform="matrix(36.765701,0,0,-36.765701,303.64844,330.97299)"
       spreadMethod="pad"
       id="linearGradient959"><stop
         style="stop-opacity:1;stop-color:#f9ea3b"
         offset="0"
         id="stop949" /><stop
         style="stop-opacity:1;stop-color:#f5c317"
         offset="0.280899"
         id="stop951" /><stop
         style="stop-opacity:1;stop-color:#ec944c"
         offset="0.668539"
         id="stop953" /><stop
         style="stop-opacity:1;stop-color:#e5714e"
         offset="0.88764"
         id="stop955" /><stop
         style="stop-opacity:1;stop-color:#e14950"
         offset="1"
         id="stop957" /></linearGradient><clipPath
       clipPathUnits="userSpaceOnUse"
       id="clipPath969"><path
         d="m 287.756,345.591 c -0.453,-0.061 -0.989,-0.151 -1.384,-0.162 -0.43,-0.034 -0.884,-0.067 -1.354,-0.1 -0.467,-0.04 -0.951,-0.079 -1.442,-0.119 -0.53,-0.017 -1.068,-0.034 -1.605,-0.05 -0.538,-0.016 -1.076,-0.035 -1.606,-0.053 -0.527,-0.032 -1.054,0.01 -1.557,0.013 -0.503,0.01 -0.992,0.022 -1.453,0.031 -0.232,0.004 -0.457,0.006 -0.674,0.013 l -0.291,0.005 c 0.033,0 0.078,-0.002 0.138,-0.002 l -0.012,0.002 -0.022,0.001 -0.089,0.004 -0.175,0.01 c -1.845,0.116 -3.074,0.195 -3.074,0.195 l -1.648,-77.449 c 0,0 1.251,0.927 3.128,2.326 l 0.179,0.134 0.088,0.065 0.023,0.019 0.012,0.007 0.006,0.004 c 1.769,-0.018 1.577,-0.014 1.382,-0.011 -0.109,0.002 -0.218,0.002 0,0.002 l 0.081,0.036 c 0.218,0.097 0.439,0.195 0.664,0.295 0.449,0.202 0.91,0.411 1.387,0.627 0.937,0.436 1.926,0.895 2.95,1.37 1.014,0.489 2.049,0.96 3.096,1.52 1.033,0.548 2.085,1.109 3.134,1.667 1.037,0.571 2.072,1.139 3.09,1.699 1.223,0.62 2.409,1.239 3.542,1.845 1.114,0.613 2.192,1.208 3.214,1.773 1.237,0.598 1.406,1.043 1.833,1.481 1.561,1.724 2.603,2.871 2.603,2.871 l -11.114,60.364 c 0,0 -1.221,-0.171 -3.05,-0.433 m -11.228,-0.424 h 0.006 z"
         id="path967"
         inkscape:connector-curvature="0" /></clipPath><clipPath
       clipPathUnits="userSpaceOnUse"
       id="clipPath977"><path
         d="m 271.766,346.323 h 30.412 v -78.095 h -30.412 z"
         id="path975"
         inkscape:connector-curvature="0" /></clipPath><clipPath
       clipPathUnits="userSpaceOnUse"
       id="clipPath987"><path
         d="m 271.76608,346.32303 h 30.41226 v -78.09508 h -30.41226 z"
         id="path985"
         inkscape:connector-curvature="0" /></clipPath><linearGradient
       x1="0"
       y1="0"
       x2="1"
       y2="0"
       gradientUnits="userSpaceOnUse"
       gradientTransform="matrix(30.411804,0,0,-30.411804,271.76562,307.27579)"
       spreadMethod="pad"
       id="linearGradient999"><stop
         style="stop-opacity:1;stop-color:#f9ea3b"
         offset="0"
         id="stop989" /><stop
         style="stop-opacity:1;stop-color:#f5c317"
         offset="0.280899"
         id="stop991" /><stop
         style="stop-opacity:1;stop-color:#ec944c"
         offset="0.668539"
         id="stop993" /><stop
         style="stop-opacity:1;stop-color:#e5714e"
         offset="0.88764"
         id="stop995" /><stop
         style="stop-opacity:1;stop-color:#e14950"
         offset="1"
         id="stop997" /></linearGradient><clipPath
       clipPathUnits="userSpaceOnUse"
       id="clipPath1009"><path
         d="m 194.49,262.538 c 0,0 2.793,-0.559 6.928,-1.251 1.031,-0.164 2.147,-0.343 3.328,-0.529 1.183,-0.169 2.458,-0.277 3.755,-0.41 1.295,-0.115 2.634,-0.232 3.994,-0.352 1.357,-0.1 2.738,-0.205 4.116,-0.305 3.394,-0.367 6.776,-0.602 9.912,-0.726 0.781,-0.027 1.549,-0.057 2.301,-0.085 0.374,-0.011 0.743,-0.021 1.109,-0.03 l 0.466,0.173 c 0.616,0.23 1.197,0.448 1.733,0.646 2.143,0.788 3.586,1.36 3.586,1.36 l 24.63,86.827 c 0,0 -1.171,0.383 -2.927,0.961 -0.438,0.144 -0.914,0.302 -1.418,0.467 l -0.382,0.126 -0.299,0.131 c -0.201,0.083 -0.405,0.172 -0.615,0.263 -0.832,0.346 -1.724,0.716 -2.611,1.085 -0.947,0.461 -1.891,0.917 -2.776,1.35 -0.44,0.22 -0.882,0.401 -1.268,0.63 -0.394,0.224 -0.764,0.434 -1.107,0.631 -1.368,0.772 -2.279,1.282 -2.279,1.282 z"
         id="path1007"
         inkscape:connector-curvature="0" /></clipPath><clipPath
       clipPathUnits="userSpaceOnUse"
       id="clipPath1027"><path
         d="m 194.02246,354.31207 h 65.8578 v -95.93379 h -65.8578 z"
         id="path1025"
         inkscape:connector-curvature="0" /></clipPath><linearGradient
       x1="0"
       y1="0"
       x2="1"
       y2="0"
       gradientUnits="userSpaceOnUse"
       gradientTransform="matrix(65.857803,0,0,-65.857788,194.02246,306.34567)"
       spreadMethod="pad"
       id="linearGradient1039"><stop
         style="stop-opacity:1;stop-color:#f9ea3b"
         offset="0"
         id="stop1029" /><stop
         style="stop-opacity:1;stop-color:#f5c317"
         offset="0.280899"
         id="stop1031" /><stop
         style="stop-opacity:1;stop-color:#ec944c"
         offset="0.668539"
         id="stop1033" /><stop
         style="stop-opacity:1;stop-color:#e5714e"
         offset="0.88764"
         id="stop1035" /><stop
         style="stop-opacity:1;stop-color:#e14950"
         offset="1"
         id="stop1037" /></linearGradient><clipPath
       clipPathUnits="userSpaceOnUse"
       id="clipPath1049"><path
         d="m 121.374,302.505 c 0,0 2.167,-2.142 5.489,-5.213 0.844,-0.753 1.756,-1.569 2.722,-2.432 0.959,-0.863 2.037,-1.71 3.118,-2.606 2.181,-1.78 4.568,-3.594 6.943,-5.378 2.995,-2.353 6.101,-4.563 9.001,-6.579 0.728,-0.496 1.443,-0.987 2.145,-1.464 0.352,-0.233 0.703,-0.465 1.049,-0.69 l 0.124,-0.081 0.055,-0.015 0.11,-0.028 0.221,-0.055 c 0.578,-0.144 1.127,-0.282 1.635,-0.408 1.013,-0.256 1.853,-0.471 2.466,-0.593 0.606,-0.13 0.952,-0.205 0.952,-0.205 l 76.929,85.806 c 0,0 -0.874,0.869 -2.227,2.129 -0.333,0.318 -0.698,0.661 -1.085,1.023 -0.214,0.194 -0.362,0.353 -0.491,0.506 -0.14,0.158 -0.284,0.319 -0.431,0.484 -0.595,0.644 -1.227,1.332 -1.861,2.021 -0.652,0.8 -1.304,1.603 -1.916,2.352 -0.3,0.378 -0.622,0.719 -0.87,1.087 -0.257,0.361 -0.499,0.703 -0.723,1.017 -0.904,1.253 -1.506,2.088 -1.506,2.088 z"
         id="path1047"
         inkscape:connector-curvature="0" /></clipPath><clipPath
       clipPathUnits="userSpaceOnUse"
       id="clipPath1067"><path
         d="m 121.01025,374.75949 h 112.9585 v -98.51291 h -112.9585 z"
         id="path1065"
         inkscape:connector-curvature="0" /></clipPath><linearGradient
       x1="0"
       y1="0"
       x2="1"
       y2="0"
       gradientUnits="userSpaceOnUse"
       gradientTransform="matrix(112.9585,0,0,-112.9585,121.01025,325.50394)"
       spreadMethod="pad"
       id="linearGradient1079"><stop
         style="stop-opacity:1;stop-color:#f9ea3b"
         offset="0"
         id="stop1069" /><stop
         style="stop-opacity:1;stop-color:#f5c317"
         offset="0.280899"
         id="stop1071" /><stop
         style="stop-opacity:1;stop-color:#ec944c"
         offset="0.668539"
         id="stop1073" /><stop
         style="stop-opacity:1;stop-color:#e5714e"
         offset="0.88764"
         id="stop1075" /><stop
         style="stop-opacity:1;stop-color:#e14950"
         offset="1"
         id="stop1077" /></linearGradient><clipPath
       clipPathUnits="userSpaceOnUse"
       id="clipPath1089"><path
         d="m 79.847,380.417 c 0,0 0.622,-3.091 1.815,-7.659 0.299,-1.142 0.625,-2.375 0.968,-3.684 0.337,-1.305 0.772,-2.667 1.227,-4.071 0.914,-2.806 1.929,-5.782 2.985,-8.732 0.671,-1.808 1.452,-3.78 2.199,-5.616 0.755,-1.859 1.519,-3.677 2.28,-5.421 0.386,-0.872 0.764,-1.728 1.137,-2.565 0.192,-0.413 0.382,-0.824 0.569,-1.23 l 0.14,-0.293 0.062,-0.085 0.117,-0.167 c 0.315,-0.442 0.614,-0.862 0.889,-1.249 1.081,-1.552 1.875,-2.558 1.875,-2.558 l 121.072,49.336 c 0,0 -0.456,1.143 -1.139,2.859 -0.169,0.43 -0.355,0.895 -0.549,1.385 -0.116,0.27 -0.163,0.451 -0.223,0.645 -0.061,0.199 -0.121,0.401 -0.185,0.606 -0.262,0.818 -0.542,1.692 -0.82,2.564 -0.253,0.986 -0.504,1.975 -0.739,2.902 -0.109,0.464 -0.261,0.902 -0.322,1.338 -0.079,0.43 -0.155,0.837 -0.225,1.213 -0.287,1.5 -0.478,2.501 -0.478,2.501 z"
         id="path1087"
         inkscape:connector-curvature="0" /></clipPath><clipPath
       clipPathUnits="userSpaceOnUse"
       id="clipPath1107"><path
         d="M 79.654297,402.0441 H 216.98949 V 336.6959 H 79.654297 Z"
         id="path1105"
         inkscape:connector-curvature="0" /></clipPath><linearGradient
       x1="0"
       y1="0"
       x2="1"
       y2="0"
       gradientUnits="userSpaceOnUse"
       gradientTransform="matrix(137.33519,0,0,-137.33519,79.654297,369.37)"
       spreadMethod="pad"
       id="linearGradient1119"><stop
         style="stop-opacity:1;stop-color:#f9ea3b"
         offset="0"
         id="stop1109" /><stop
         style="stop-opacity:1;stop-color:#f5c317"
         offset="0.280899"
         id="stop1111" /><stop
         style="stop-opacity:1;stop-color:#ec944c"
         offset="0.668539"
         id="stop1113" /><stop
         style="stop-opacity:1;stop-color:#e5714e"
         offset="0.88764"
         id="stop1115" /><stop
         style="stop-opacity:1;stop-color:#e14950"
         offset="1"
         id="stop1117" /></linearGradient><clipPath
       clipPathUnits="userSpaceOnUse"
       id="clipPath1129"><path
         d="m 84.327,461.845 c -0.359,-1.123 -0.748,-2.342 -1.16,-3.629 -0.412,-1.29 -0.767,-2.666 -1.135,-4.092 -0.357,-1.431 -0.726,-2.909 -1.102,-4.411 -0.18,-0.755 -0.362,-1.513 -0.545,-2.277 l -0.266,-1.147 -0.134,-0.576 c -0.041,-0.181 -0.088,-0.381 -0.136,-0.654 -0.728,-4.026 -1.354,-8.084 -1.853,-11.9 -0.264,-2.185 -0.508,-4.227 -0.718,-5.976 -0.111,-0.918 -0.204,-1.683 -0.27,-2.22 -0.045,-0.534 -0.071,-0.842 -0.071,-0.842 l 134.78,-9.082 c 0,0 0.072,1.23 0.18,3.073 0.028,0.461 0.057,0.961 0.088,1.488 l 0.023,0.401 0.041,0.312 c 0.029,0.203 0.059,0.412 0.086,0.626 0.104,0.85 0.214,1.756 0.326,2.662 0.185,1.002 0.371,1.999 0.543,2.936 0.095,0.466 0.151,0.929 0.262,1.352 0.11,0.424 0.212,0.825 0.307,1.195 0.369,1.485 0.616,2.474 0.616,2.474 L 86.895,469.263 c 0,0 -1.12,-2.929 -2.568,-7.418"
         id="path1127"
         inkscape:connector-curvature="0" /></clipPath><clipPath
       clipPathUnits="userSpaceOnUse"
       id="clipPath1147"><path
         d="M 77.132812,469.27448 H 214.38551 V 415.08629 H 77.132812 Z"
         id="path1145"
         inkscape:connector-curvature="0" /></clipPath><linearGradient
       x1="0"
       y1="0"
       x2="1"
       y2="0"
       gradientUnits="userSpaceOnUse"
       gradientTransform="matrix(137.2527,0,0,-137.2527,77.132812,442.19919)"
       spreadMethod="pad"
       id="linearGradient1159"><stop
         style="stop-opacity:1;stop-color:#f9ea3b"
         offset="0"
         id="stop1149" /><stop
         style="stop-opacity:1;stop-color:#f5c317"
         offset="0.280899"
         id="stop1151" /><stop
         style="stop-opacity:1;stop-color:#ec944c"
         offset="0.668539"
         id="stop1153" /><stop
         style="stop-opacity:1;stop-color:#e5714e"
         offset="0.88764"
         id="stop1155" /><stop
         style="stop-opacity:1;stop-color:#e14950"
         offset="1"
         id="stop1157" /></linearGradient><clipPath
       clipPathUnits="userSpaceOnUse"
       id="clipPath1169"><path
         d="m 133.705,534.018 c -0.877,-0.701 -1.839,-1.456 -2.822,-2.289 -0.998,-0.819 -1.989,-1.741 -3.042,-2.681 -2.106,-1.886 -4.299,-3.938 -6.466,-6.096 -2.619,-2.887 -5.176,-5.876 -7.474,-8.766 -0.573,-0.726 -1.139,-1.436 -1.692,-2.135 -0.272,-0.352 -0.542,-0.698 -0.811,-1.042 -0.178,-0.199 -0.239,-0.214 -0.362,-0.328 -0.44,-0.358 -0.843,-0.702 -1.204,-1.028 -1.462,-1.288 -2.436,-2.146 -2.436,-2.146 l 111.365,-64.159 c 0,0 0.59,1.081 1.472,2.704 0.22,0.407 0.458,0.846 0.713,1.309 l 0.187,0.347 0.168,0.259 c 0.114,0.176 0.228,0.355 0.344,0.537 0.458,0.738 0.945,1.526 1.433,2.312 0.598,0.837 1.197,1.674 1.758,2.459 0.288,0.387 0.532,0.789 0.821,1.125 0.281,0.343 0.545,0.669 0.79,0.966 0.974,1.206 1.623,2.009 1.623,2.009 l -88.471,81.2 c 0,0 -2.375,-1.764 -5.894,-4.557"
         id="path1167"
         inkscape:connector-curvature="0" /></clipPath><clipPath
       clipPathUnits="userSpaceOnUse"
       id="clipPath1187"><path
         d="m 107.35107,538.55076 h 120.6757 v -95.22434 h -120.6757 z"
         id="path1185"
         inkscape:connector-curvature="0" /></clipPath><linearGradient
       x1="0"
       y1="0"
       x2="1"
       y2="0"
       gradientUnits="userSpaceOnUse"
       gradientTransform="matrix(120.6757,0,0,-120.67569,107.35107,490.94046)"
       spreadMethod="pad"
       id="linearGradient1199"><stop
         style="stop-opacity:1;stop-color:#f9ea3b"
         offset="0"
         id="stop1189" /><stop
         style="stop-opacity:1;stop-color:#f5c317"
         offset="0.280899"
         id="stop1191" /><stop
         style="stop-opacity:1;stop-color:#ec944c"
         offset="0.668539"
         id="stop1193" /><stop
         style="stop-opacity:1;stop-color:#e5714e"
         offset="0.88764"
         id="stop1195" /><stop
         style="stop-opacity:1;stop-color:#e14950"
         offset="1"
         id="stop1197" /></linearGradient><clipPath
       clipPathUnits="userSpaceOnUse"
       id="clipPath1209"><path
         d="m 209.441,565.233 c -1.038,-0.105 -2.162,-0.219 -3.348,-0.34 -1.2,-0.117 -2.428,-0.325 -3.726,-0.51 -2.567,-0.426 -5.321,-0.925 -8.096,-1.476 -1.649,-0.458 -3.361,-0.984 -5.02,-1.5 -1.663,-0.523 -3.305,-1.059 -4.893,-1.604 -0.788,-0.288 -1.561,-0.569 -2.318,-0.845 -0.38,-0.144 -0.753,-0.282 -1.124,-0.419 -0.231,-0.1 -0.261,-0.073 -0.347,-0.083 l -0.236,-0.007 c -0.621,-0.029 -1.207,-0.054 -1.749,-0.079 -2.166,-0.097 -3.61,-0.162 -3.61,-0.162 l 62.333,-91.845 c 0,0 0.99,0.732 2.476,1.834 0.371,0.274 0.776,0.571 1.201,0.888 0.228,0.176 0.402,0.287 0.579,0.396 0.179,0.116 0.362,0.236 0.55,0.356 0.747,0.494 1.542,1.021 2.34,1.547 0.911,0.518 1.822,1.036 2.676,1.523 0.432,0.234 0.829,0.505 1.241,0.685 0.405,0.199 0.79,0.385 1.143,0.555 1.417,0.697 2.364,1.161 2.364,1.161 l -35.6,90.489 c 0,0 -2.703,-0.169 -6.836,-0.564"
         id="path1207"
         inkscape:connector-curvature="0" /></clipPath><clipPath
       clipPathUnits="userSpaceOnUse"
       id="clipPath1227"><path
         d="m 175.08057,565.86045 h 76.9024 v -99.43232 h -76.9024 z"
         id="path1225"
         inkscape:connector-curvature="0" /></clipPath><linearGradient
       x1="0"
       y1="0"
       x2="1"
       y2="0"
       gradientUnits="userSpaceOnUse"
       gradientTransform="matrix(76.902405,0,0,-76.902389,175.08057,516.14429)"
       spreadMethod="pad"
       id="linearGradient1239"><stop
         style="stop-opacity:1;stop-color:#f9ea3b"
         offset="0"
         id="stop1229" /><stop
         style="stop-opacity:1;stop-color:#f5c317"
         offset="0.280899"
         id="stop1231" /><stop
         style="stop-opacity:1;stop-color:#ec944c"
         offset="0.668539"
         id="stop1233" /><stop
         style="stop-opacity:1;stop-color:#e5714e"
         offset="0.88764"
         id="stop1235" /><stop
         style="stop-opacity:1;stop-color:#e14950"
         offset="1"
         id="stop1237" /></linearGradient><clipPath
       clipPathUnits="userSpaceOnUse"
       id="clipPath1249"><path
         d="m 264.258,479.5 c 0,0 1.214,0.208 3.037,0.52 0.912,0.154 1.975,0.338 3.113,0.532 l 0.43,0.073 0.358,0.028 c 0.237,0.02 0.478,0.037 0.722,0.057 0.484,0.04 0.977,0.081 1.471,0.122 0.989,0.094 1.982,0.189 2.91,0.279 l 0.011,0.001 h 0.007 c -0.027,10e-4 -0.13,0.003 -0.234,0.004 -0.179,0.005 -0.361,0.008 -0.157,0.005 h 0.026 0.054 0.107 l 0.215,0.002 h 0.422 0.815 c 0.529,0.001 1.03,0.002 1.49,0.002 1.851,0.003 3.083,0.005 3.083,0.005 l 2.702,68.851 c 0,0 -1.194,0.998 -2.982,2.498 -0.448,0.375 -0.933,0.781 -1.445,1.209 -0.258,0.216 -0.52,0.435 -0.791,0.66 l -0.408,0.341 -0.206,0.174 -0.105,0.088 -0.051,0.044 -0.025,0.021 c 1.268,-0.025 0.111,-10e-4 -1.027,0.023 -0.867,0.018 -1.72,0.035 -1.487,0.033 l -0.016,0.003 -0.03,0.01 c -2.544,0.842 -5.329,1.694 -8.176,2.482 -1.424,0.394 -2.863,0.774 -4.295,1.132 -0.717,0.178 -1.431,0.351 -2.137,0.523 -0.345,0.083 -0.689,0.168 -1.031,0.25 l -0.477,0.28 c -1.26,0.736 -2.434,1.422 -3.441,2.011 -2.016,1.178 -3.36,1.965 -3.36,1.965 z m 12.059,1.612 c 0.007,0 0.009,0 0,0"
         id="path1247"
         inkscape:connector-curvature="0" /></clipPath><clipPath
       clipPathUnits="userSpaceOnUse"
       id="clipPath1267"><path
         d="m 253.19971,563.57176 h 31.48892 v -84.21209 h -31.48892 z"
         id="path1265"
         inkscape:connector-curvature="0" /></clipPath><linearGradient
       x1="0"
       y1="0"
       x2="1"
       y2="0"
       gradientUnits="userSpaceOnUse"
       gradientTransform="matrix(31.489395,0,0,-31.489395,253.19971,521.47327)"
       spreadMethod="pad"
       id="linearGradient1279"><stop
         style="stop-opacity:1;stop-color:#f9ea3b"
         offset="0"
         id="stop1269" /><stop
         style="stop-opacity:1;stop-color:#f5c317"
         offset="0.280899"
         id="stop1271" /><stop
         style="stop-opacity:1;stop-color:#ec944c"
         offset="0.668539"
         id="stop1273" /><stop
         style="stop-opacity:1;stop-color:#e5714e"
         offset="0.88764"
         id="stop1275" /><stop
         style="stop-opacity:1;stop-color:#e14950"
         offset="1"
         id="stop1277" /></linearGradient><clipPath
       clipPathUnits="userSpaceOnUse"
       id="clipPath1289"><path
         d="m 295.174,479.404 c 0,0 1.186,-0.33 2.966,-0.827 0.445,-0.124 0.927,-0.258 1.437,-0.402 0.561,-0.139 0.886,-0.296 1.368,-0.452 0.906,-0.309 1.871,-0.638 2.838,-0.967 1.007,-0.42 2.016,-0.839 2.962,-1.234 0.471,-0.205 0.943,-0.367 1.361,-0.582 0.421,-0.208 0.821,-0.407 1.191,-0.589 1.479,-0.725 2.467,-1.21 2.467,-1.21 l 21.317,36.006 c 0,0 -1.104,1.561 -2.883,3.924 -0.449,0.59 -0.937,1.232 -1.453,1.91 -0.52,0.684 -1.112,1.345 -1.712,2.063 -1.226,1.401 -2.498,3 -3.886,4.558 -1.68,1.621 -3.436,3.234 -5.142,4.733 -0.43,0.375 -0.852,0.745 -1.264,1.105 -0.209,0.183 -0.416,0.366 -0.62,0.544 l -0.297,0.404 c -0.384,0.529 -0.746,1.031 -1.083,1.494 -1.342,1.847 -2.237,3.082 -2.237,3.082 z"
         id="path1287"
         inkscape:connector-curvature="0" /></clipPath><clipPath
       clipPathUnits="userSpaceOnUse"
       id="clipPath1307"><path
         d="m 295.04297,532.84377 h 37.90747 v -59.82264 h -37.90747 z"
         id="path1305"
         inkscape:connector-curvature="0" /></clipPath><linearGradient
       x1="0"
       y1="0"
       x2="1"
       y2="0"
       gradientUnits="userSpaceOnUse"
       gradientTransform="matrix(37.906708,0,0,-37.906692,295.04297,502.93304)"
       spreadMethod="pad"
       id="linearGradient1319"><stop
         style="stop-opacity:1;stop-color:#f9ea3b"
         offset="0"
         id="stop1309" /><stop
         style="stop-opacity:1;stop-color:#f5c317"
         offset="0.280899"
         id="stop1311" /><stop
         style="stop-opacity:1;stop-color:#ec944c"
         offset="0.668539"
         id="stop1313" /><stop
         style="stop-opacity:1;stop-color:#e5714e"
         offset="0.88764"
         id="stop1315" /><stop
         style="stop-opacity:1;stop-color:#e14950"
         offset="1"
         id="stop1317" /></linearGradient><clipPath
       clipPathUnits="userSpaceOnUse"
       id="clipPath1329"><path
         d="m 323.311,465.438 c 0,0 0.909,-0.833 2.268,-2.082 0.342,-0.312 0.709,-0.649 1.099,-1.009 0.418,-0.367 0.669,-0.681 1.031,-1.048 0.687,-0.709 1.42,-1.466 2.152,-2.222 0.722,-0.85 1.444,-1.697 2.119,-2.493 0.332,-0.404 0.687,-0.767 0.963,-1.16 0.286,-0.382 0.556,-0.747 0.807,-1.081 1.007,-1.34 1.677,-2.233 1.677,-2.233 l 18.806,12.432 c 0,0 -0.476,1.437 -1.148,3.706 -0.175,0.566 -0.364,1.18 -0.564,1.829 -0.198,0.656 -0.463,1.309 -0.696,2.027 -0.505,1.432 -1.042,2.958 -1.58,4.485 -0.686,1.627 -1.431,3.265 -2.138,4.839 -0.175,0.397 -0.351,0.787 -0.52,1.17 -0.086,0.191 -0.173,0.379 -0.258,0.567 -0.074,0.177 -0.108,0.293 -0.163,0.439 -0.198,0.555 -0.388,1.082 -0.561,1.566 -0.663,1.977 -1.101,3.293 -1.101,3.293 z"
         id="path1327"
         inkscape:connector-curvature="0" /></clipPath><clipPath
       clipPathUnits="userSpaceOnUse"
       id="clipPath1347"><path
         d="m 323.64941,488.86926 h 30.9218 v -36.35349 h -30.9218 z"
         id="path1345"
         inkscape:connector-curvature="0" /></clipPath><linearGradient
       x1="0"
       y1="0"
       x2="1"
       y2="0"
       gradientUnits="userSpaceOnUse"
       gradientTransform="matrix(30.921799,0,0,-30.921799,323.64941,470.69299)"
       spreadMethod="pad"
       id="linearGradient1359"><stop
         style="stop-opacity:1;stop-color:#f9ea3b"
         offset="0"
         id="stop1349" /><stop
         style="stop-opacity:1;stop-color:#f5c317"
         offset="0.280899"
         id="stop1351" /><stop
         style="stop-opacity:1;stop-color:#ec944c"
         offset="0.668539"
         id="stop1353" /><stop
         style="stop-opacity:1;stop-color:#e5714e"
         offset="0.88764"
         id="stop1355" /><stop
         style="stop-opacity:1;stop-color:#e14950"
         offset="1"
         id="stop1357" /></linearGradient><clipPath
       clipPathUnits="userSpaceOnUse"
       id="clipPath1369"><path
         d="m 342.251,439.803 c 0,0 0.432,-1.151 1.082,-2.881 0.16,-0.435 0.337,-0.901 0.524,-1.398 0.19,-0.502 0.282,-0.918 0.439,-1.411 0.292,-0.959 0.602,-1.981 0.913,-3.002 0.258,-1.092 0.516,-2.183 0.759,-3.206 0.11,-0.514 0.264,-1.002 0.327,-1.481 0.082,-0.476 0.158,-0.926 0.226,-1.34 0.286,-1.661 0.478,-2.768 0.478,-2.768 l 13.897,1.788 c 0,0 -0.103,1.347 -0.256,3.366 -0.047,0.506 -0.063,1.059 -0.093,1.646 -0.012,0.589 -0.109,1.193 -0.167,1.832 -0.152,1.266 -0.276,2.631 -0.376,4.015 -0.189,1.42 -0.431,2.854 -0.582,4.229 -0.09,0.67 -0.178,1.315 -0.258,1.928 -0.081,0.533 -0.159,1.036 -0.229,1.503 -0.228,1.884 -0.38,3.141 -0.38,3.141 z"
         id="path1367"
         inkscape:connector-curvature="0" /></clipPath><clipPath
       clipPathUnits="userSpaceOnUse"
       id="clipPath1387"><path
         d="m 342.1416,445.65172 h 18.6452 v -23.44706 h -18.6452 z"
         id="path1385"
         inkscape:connector-curvature="0" /></clipPath><linearGradient
       x1="0"
       y1="0"
       x2="1"
       y2="0"
       gradientUnits="userSpaceOnUse"
       gradientTransform="matrix(18.645203,0,0,-18.645203,342.1416,433.92819)"
       spreadMethod="pad"
       id="linearGradient1399"><stop
         style="stop-opacity:1;stop-color:#f9ea3b"
         offset="0"
         id="stop1389" /><stop
         style="stop-opacity:1;stop-color:#f5c317"
         offset="0.280899"
         id="stop1391" /><stop
         style="stop-opacity:1;stop-color:#ec944c"
         offset="0.668539"
         id="stop1393" /><stop
         style="stop-opacity:1;stop-color:#e5714e"
         offset="0.88764"
         id="stop1395" /><stop
         style="stop-opacity:1;stop-color:#e14950"
         offset="1"
         id="stop1397" /></linearGradient><clipPath
       clipPathUnits="userSpaceOnUse"
       id="clipPath1409"><path
         d="m 198.208,413.123 c 0,-43.138 34.972,-78.11 78.109,-78.11 43.14,0 78.111,34.972 78.111,78.11 0,43.137 -34.971,78.109 -78.111,78.109 -43.137,0 -78.109,-34.972 -78.109,-78.109"
         id="path1407"
         inkscape:connector-curvature="0" /></clipPath><clipPath
       clipPathUnits="userSpaceOnUse"
       id="clipPath1427"><path
         d="M 198.23975,491.29625 H 354.45824 V 335.07776 H 198.23975 Z"
         id="path1425"
         inkscape:connector-curvature="0" /></clipPath><linearGradient
       x1="0"
       y1="0"
       x2="1"
       y2="0"
       gradientUnits="userSpaceOnUse"
       gradientTransform="matrix(156.21849,0,0,-156.21849,198.23975,413.18701)"
       spreadMethod="pad"
       id="linearGradient1439"><stop
         style="stop-opacity:1;stop-color:#f9ea3b"
         offset="0"
         id="stop1429" /><stop
         style="stop-opacity:1;stop-color:#f5c317"
         offset="0.280899"
         id="stop1431" /><stop
         style="stop-opacity:1;stop-color:#ec944c"
         offset="0.668539"
         id="stop1433" /><stop
         style="stop-opacity:1;stop-color:#e5714e"
         offset="0.88764"
         id="stop1435" /><stop
         style="stop-opacity:1;stop-color:#e14950"
         offset="1"
         id="stop1437" /></linearGradient></defs><sodipodi:namedview
     pagecolor="#ffffff"
     bordercolor="#666666"
     borderopacity="1"
     objecttolerance="10"
     gridtolerance="10"
     guidetolerance="10"
     inkscape:pageopacity="0"
     inkscape:pageshadow="2"
     inkscape:window-width="1920"
     inkscape:window-height="1018"
     id="namedview817"
     showgrid="false"
     inkscape:zoom="1.06125"
     inkscape:cx="400"
     inkscape:cy="400"
     inkscape:window-x="-8"
     inkscape:window-y="-8"
     inkscape:window-maximized="1"
     inkscape:current-layer="g823" /><g
     id="g823"
     inkscape:groupmode="layer"
     inkscape:label="weather-symbol-publicdomainvectors.org"
     transform="matrix(1.3333333,0,0,-1.3333333,0,800)"><g
       id="g825"><g
         id="g827"
         clip-path="url(#clipPath831)"><path
           d="m 270.559,339.244 c 0,-46.678 -49.879,-84.517 -111.413,-84.517 -61.532,0 -111.412,37.839 -111.412,84.517 0,46.679 49.88,84.517 111.412,84.517 61.534,0 111.413,-37.838 111.413,-84.517"
           style="fill:#28b0eb;fill-opacity:1;fill-rule:nonzero;stroke:none"
           id="path833"
           inkscape:connector-curvature="0" /><path
           d="m 553.633,373.349 c 0,-55.25 -59.041,-100.039 -131.876,-100.039 -72.831,0 -131.875,44.789 -131.875,100.039 0,55.251 59.044,100.042 131.875,100.042 72.835,0 131.876,-44.791 131.876,-100.042"
           style="fill:#28b0eb;fill-opacity:1;fill-rule:nonzero;stroke:none"
           id="path835"
           inkscape:connector-curvature="0" /><path
           d="m 399.148,410.865 c 0,-50.542 -54.008,-91.515 -120.632,-91.515 -66.623,0 -120.639,40.973 -120.639,91.515 0,50.543 54.016,91.515 120.639,91.515 66.624,0 120.632,-40.972 120.632,-91.515"
           style="fill:#28b0eb;fill-opacity:1;fill-rule:nonzero;stroke:none"
           id="path837"
           inkscape:connector-curvature="0" /><path
           d="m 421.425,284.678 c 0,-49.876 -53.296,-90.303 -119.036,-90.303 -65.736,0 -119.033,40.427 -119.033,90.303 0,49.87 53.297,90.298 119.033,90.298 65.74,0 119.036,-40.428 119.036,-90.298"
           style="fill:#28b0eb;fill-opacity:1;fill-rule:nonzero;stroke:none"
           id="path839"
           inkscape:connector-curvature="0" /><path
           d="m 556.708,305.138 c 0,-46.536 -49.73,-84.267 -111.079,-84.267 -61.339,0 -111.074,37.731 -111.074,84.267 0,46.539 49.735,84.266 111.074,84.266 61.349,0 111.079,-37.727 111.079,-84.266"
           style="fill:#28b0eb;fill-opacity:1;fill-rule:nonzero;stroke:none"
           id="path841"
           inkscape:connector-curvature="0" /><g
           id="g843"><g
             id="g845"
             clip-path="url(#clipPath849)"><g
               id="g851"><g
                 id="g853"
                 clip-path="url(#clipPath857)"><g
                   id="g859"><g
                     id="g861"><g
                       id="g863"
                       clip-path="url(#clipPath867)"><path
                         d="m 345.586,413.685 h 15.915 v -21.792 h -15.915 z"
                         style="fill:url(#linearGradient879);stroke:none"
                         id="path881"
                         inkscape:connector-curvature="0" /></g></g></g></g></g></g></g><g
           id="g883"><g
             id="g885"
             clip-path="url(#clipPath889)"><g
               id="g891"><g
                 id="g893"
                 clip-path="url(#clipPath897)"><g
                   id="g899"><g
                     id="g901"><g
                       id="g903"
                       clip-path="url(#clipPath907)"><path
                         d="m 330.272,382.445 h 27.106 v -32.341 h -27.106 z"
                         style="fill:url(#linearGradient919);stroke:none"
                         id="path921"
                         inkscape:connector-curvature="0" /></g></g></g></g></g></g></g><g
           id="g923"><g
             id="g925"
             clip-path="url(#clipPath929)"><g
               id="g931"><g
                 id="g933"
                 clip-path="url(#clipPath937)"><g
                   id="g939"><g
                     id="g941"><g
                       id="g943"
                       clip-path="url(#clipPath947)"><path
                         d="m 303.648,357.721 h 36.765 v -53.509 h -36.765 z"
                         style="fill:url(#linearGradient959);stroke:none"
                         id="path961"
                         inkscape:connector-curvature="0" /></g></g></g></g></g></g></g><g
           id="g963"><g
             id="g965"
             clip-path="url(#clipPath969)"><g
               id="g971"><g
                 id="g973"
                 clip-path="url(#clipPath977)"><g
                   id="g979"><g
                     id="g981"><g
                       id="g983"
                       clip-path="url(#clipPath987)"><path
                         d="m 271.766,346.323 h 30.412 v -78.095 h -30.412 z"
                         style="fill:url(#linearGradient999);stroke:none"
                         id="path1001"
                         inkscape:connector-curvature="0" /></g></g></g></g></g></g></g><g
           id="g1003"><g
             id="g1005"
             clip-path="url(#clipPath1009)"><g
               id="g1011"><g
                 id="g1013"><g
                   id="g1019"><g
                     id="g1021"><g
                       id="g1023"
                       clip-path="url(#clipPath1027)"><path
                         d="M 194.022,354.312 H 259.88 V 258.378 H 194.022 Z"
                         style="fill:url(#linearGradient1039);stroke:none"
                         id="path1041"
                         inkscape:connector-curvature="0" /></g></g></g></g></g></g></g><g
           id="g1043"><g
             id="g1045"
             clip-path="url(#clipPath1049)"><g
               id="g1051"><g
                 id="g1053"><g
                   id="g1059"><g
                     id="g1061"><g
                       id="g1063"
                       clip-path="url(#clipPath1067)"><path
                         d="M 121.01,374.759 H 233.968 V 276.246 H 121.01 Z"
                         style="fill:url(#linearGradient1079);stroke:none"
                         id="path1081"
                         inkscape:connector-curvature="0" /></g></g></g></g></g></g></g><g
           id="g1083"><g
             id="g1085"
             clip-path="url(#clipPath1089)"><g
               id="g1091"><g
                 id="g1093"><g
                   id="g1099"><g
                     id="g1101"><g
                       id="g1103"
                       clip-path="url(#clipPath1107)"><path
                         d="M 79.654,402.044 H 216.989 V 336.696 H 79.654 Z"
                         style="fill:url(#linearGradient1119);stroke:none"
                         id="path1121"
                         inkscape:connector-curvature="0" /></g></g></g></g></g></g></g><g
           id="g1123"><g
             id="g1125"
             clip-path="url(#clipPath1129)"><g
               id="g1131"><g
                 id="g1133"><g
                   id="g1139"><g
                     id="g1141"><g
                       id="g1143"
                       clip-path="url(#clipPath1147)"><path
                         d="M 77.133,469.274 H 214.386 V 415.086 H 77.133 Z"
                         style="fill:url(#linearGradient1159);stroke:none"
                         id="path1161"
                         inkscape:connector-curvature="0" /></g></g></g></g></g></g></g><g
           id="g1163"><g
             id="g1165"
             clip-path="url(#clipPath1169)"><g
               id="g1171"><g
                 id="g1173"><g
                   id="g1179"><g
                     id="g1181"><g
                       id="g1183"
                       clip-path="url(#clipPath1187)"><path
                         d="M 107.351,538.551 H 228.027 V 443.327 H 107.351 Z"
                         style="fill:url(#linearGradient1199);stroke:none"
                         id="path1201"
                         inkscape:connector-curvature="0" /></g></g></g></g></g></g></g><g
           id="g1203"><g
             id="g1205"
             clip-path="url(#clipPath1209)"><g
               id="g1211"><g
                 id="g1213"><g
                   id="g1219"><g
                     id="g1221"><g
                       id="g1223"
                       clip-path="url(#clipPath1227)"><path
                         d="m 175.081,565.86 h 76.902 v -99.432 h -76.902 z"
                         style="fill:url(#linearGradient1239);stroke:none"
                         id="path1241"
                         inkscape:connector-curvature="0" /></g></g></g></g></g></g></g><g
           id="g1243"><g
             id="g1245"
             clip-path="url(#clipPath1249)"><g
               id="g1251"><g
                 id="g1253"><g
                   id="g1259"><g
                     id="g1261"><g
                       id="g1263"
                       clip-path="url(#clipPath1267)"><path
                         d="m 253.2,563.572 h 31.489 V 479.36 H 253.2 Z"
                         style="fill:url(#linearGradient1279);stroke:none"
                         id="path1281"
                         inkscape:connector-curvature="0" /></g></g></g></g></g></g></g><g
           id="g1283"><g
             id="g1285"
             clip-path="url(#clipPath1289)"><g
               id="g1291"><g
                 id="g1293"><g
                   id="g1299"><g
                     id="g1301"><g
                       id="g1303"
                       clip-path="url(#clipPath1307)"><path
                         d="M 295.043,532.844 H 332.95 V 473.021 H 295.043 Z"
                         style="fill:url(#linearGradient1319);stroke:none"
                         id="path1321"
                         inkscape:connector-curvature="0" /></g></g></g></g></g></g></g><g
           id="g1323"><g
             id="g1325"
             clip-path="url(#clipPath1329)"><g
               id="g1331"><g
                 id="g1333"><g
                   id="g1339"><g
                     id="g1341"><g
                       id="g1343"
                       clip-path="url(#clipPath1347)"><path
                         d="m 323.649,488.869 h 30.922 v -36.353 h -30.922 z"
                         style="fill:url(#linearGradient1359);stroke:none"
                         id="path1361"
                         inkscape:connector-curvature="0" /></g></g></g></g></g></g></g><g
           id="g1363"><g
             id="g1365"
             clip-path="url(#clipPath1369)"><g
               id="g1371"><g
                 id="g1373"><g
                   id="g1379"><g
                     id="g1381"><g
                       id="g1383"
                       clip-path="url(#clipPath1387)"><path
                         d="m 342.142,445.652 h 18.645 v -23.447 h -18.645 z"
                         style="fill:url(#linearGradient1399);stroke:none"
                         id="path1401"
                         inkscape:connector-curvature="0" /></g></g></g></g></g></g></g><g
           id="g1403"><g
             id="g1405"
             clip-path="url(#clipPath1409)"><g
               id="g1411"><g
                 id="g1413"><g
                   id="g1419"><g
                     id="g1421"><g
                       id="g1423"
                       clip-path="url(#clipPath1427)"><path
                         d="M 198.24,491.296 H 354.459 V 335.077 H 198.24 Z"
                         style="fill:url(#linearGradient1439);stroke:none"
                         id="path1441"
                         inkscape:connector-curvature="0" /></g></g></g></g></g></g></g><path
           d="m 226.272,372.475 c 0,0 -0.541,0.634 -1.557,1.825 -0.493,0.609 -1.146,1.317 -1.829,2.225 -0.657,0.939 -1.414,2.018 -2.261,3.227 -0.833,1.227 -1.583,2.672 -2.501,4.212 -0.882,1.556 -1.597,3.354 -2.491,5.231 -1.437,3.871 -3.059,8.345 -3.7,13.474 -0.096,0.636 -0.245,1.279 -0.299,1.933 -0.054,0.655 -0.111,1.318 -0.167,1.986 -0.055,0.671 -0.113,1.348 -0.169,2.03 l -0.041,0.515 -0.021,0.258 -0.012,0.13 -0.005,0.063 c 0,0.072 -0.007,-0.071 -0.003,0.179 l 0.01,1.006 c 0.021,1.346 0.043,2.714 0.066,4.103 l 0.02,1.046 0.128,1.106 c 0.09,0.744 0.181,1.492 0.27,2.245 0.249,3.072 1.07,6.005 1.744,9.086 0.975,2.983 1.932,6.072 3.412,8.999 0.344,0.745 0.69,1.492 1.035,2.242 0.359,0.745 0.817,1.44 1.223,2.167 0.42,0.719 0.843,1.44 1.265,2.166 0.42,0.727 0.84,1.458 1.358,2.128 0.99,1.37 1.987,2.75 2.987,4.136 1.142,1.276 2.289,2.557 3.441,3.844 4.807,4.958 10.487,9.226 16.722,12.481 1.594,0.74 3.147,1.579 4.783,2.214 1.652,0.601 3.301,1.198 4.948,1.793 3.376,0.931 6.758,1.817 10.202,2.186 l 2.562,0.362 c 0.858,0.038 1.715,0.073 2.57,0.112 0.854,0.028 1.707,0.055 2.557,0.082 l 1.272,0.039 0.079,0.003 0.213,-0.005 0.149,-0.01 0.302,-0.016 0.6,-0.038 c 0.802,-0.049 1.601,-0.095 2.396,-0.144 0.803,-0.057 1.562,-0.062 2.435,-0.21 1.685,-0.25 3.385,-0.44 5.009,-0.754 6.457,-1.186 12.415,-3.541 17.625,-6.427 5.235,-2.869 9.677,-6.38 13.357,-9.984 3.69,-3.617 6.46,-7.456 8.698,-10.938 0.54,-0.884 1.006,-1.776 1.487,-2.614 0.454,-0.853 0.963,-1.633 1.299,-2.465 0.707,-1.645 1.436,-3.109 1.943,-4.496 0.479,-1.389 0.91,-2.633 1.283,-3.712 0.334,-1.092 0.529,-2.047 0.732,-2.803 0.367,-1.521 0.563,-2.331 0.563,-2.331 0,0 -0.327,0.767 -0.942,2.205 -0.315,0.715 -0.646,1.614 -1.135,2.627 -0.51,1 -1.099,2.148 -1.756,3.436 -0.665,1.276 -1.563,2.605 -2.442,4.086 -0.951,1.441 -2.054,2.951 -3.216,4.552 -0.638,0.761 -1.294,1.545 -1.97,2.353 -0.345,0.4 -0.667,0.821 -1.039,1.213 -0.378,0.385 -0.763,0.775 -1.151,1.172 -0.795,0.771 -1.524,1.641 -2.392,2.409 -0.865,0.771 -1.749,1.555 -2.653,2.36 -3.737,3.06 -8.107,5.941 -13.034,8.314 -4.938,2.354 -10.467,4.111 -16.319,5.018 -1.445,0.224 -2.879,0.32 -4.332,0.498 -0.693,0.11 -1.528,0.09 -2.315,0.117 -0.799,0.018 -1.597,0.037 -2.4,0.054 l -0.602,0.016 -0.302,0.007 -0.15,0.003 c -0.147,0.003 0.114,-0.001 0.061,-0.003 l -0.072,-0.006 -1.141,-0.083 c -0.763,-0.053 -1.526,-0.107 -2.29,-0.161 l -2.302,-0.135 -2.285,-0.375 -2.292,-0.372 -1.148,-0.19 -1.125,-0.304 c -1.496,-0.421 -3.015,-0.772 -4.51,-1.214 -1.466,-0.542 -2.934,-1.084 -4.401,-1.628 -1.456,-0.571 -2.827,-1.345 -4.251,-1.996 -5.589,-2.832 -10.71,-6.583 -15.073,-10.967 -4.397,-4.363 -7.929,-9.427 -10.627,-14.683 -1.462,-2.59 -2.356,-5.37 -3.456,-8.013 -0.763,-2.743 -1.703,-5.439 -2.063,-8.068 -0.126,-0.66 -0.249,-1.312 -0.374,-1.962 l -0.182,-0.977 -0.086,-1.042 c -0.117,-1.385 -0.232,-2.749 -0.346,-4.089 l -0.094,-1 0.002,-0.844 v -1.893 c -0.002,-0.628 -0.002,-1.251 -0.005,-1.868 -0.002,-0.615 0.091,-1.217 0.127,-1.821 0.106,-1.203 0.207,-2.383 0.307,-3.537 0.19,-1.144 0.375,-2.261 0.555,-3.35 0.096,-0.546 0.153,-1.094 0.275,-1.618 0.129,-0.524 0.256,-1.041 0.38,-1.549 0.252,-1.025 0.496,-2.02 0.733,-2.984 0.651,-1.866 1.179,-3.663 1.813,-5.266 0.684,-1.582 1.235,-3.092 1.878,-4.372 0.655,-1.283 1.24,-2.432 1.748,-3.428 0.534,-0.996 1.077,-1.799 1.471,-2.473 0.804,-1.342 1.234,-2.056 1.234,-2.056"
           style="fill:#ffffff;fill-opacity:1;fill-rule:nonzero;stroke:none"
           id="path1443"
           inkscape:connector-curvature="0" /><path
           d="m 455.83,384.284 c -7.162,0 -13.958,-1.025 -20.095,-2.85 -8.85,11.674 -27.732,19.739 -49.601,19.739 -9.083,0 -17.644,-1.399 -25.193,-3.862 -9.011,11.054 -27.001,18.601 -47.735,18.601 -29.763,0 -53.89,-15.535 -53.89,-34.698 0,-1.389 0.142,-2.755 0.389,-4.1 -31.122,-1.335 -55.658,-16.304 -55.658,-34.589 0,-19.164 26.945,-34.697 60.184,-34.697 4.472,0 8.826,0.289 13.019,0.823 6.939,-20.212 25.181,-30.07 48.372,-30.07 16.582,0 30.638,9.259 39.533,18.147 9.266,-4.586 20.908,-7.325 33.567,-7.325 27.593,0 50.398,12.982 54.113,29.85 0.993,-0.039 1.99,-0.065 2.995,-0.065 27.138,0 49.131,14.572 49.131,32.548 0,17.976 -21.993,32.548 -49.131,32.548"
           style="fill:#d1d5db;fill-opacity:1;fill-rule:nonzero;stroke:none"
           id="path1445"
           inkscape:connector-curvature="0" /><path
           d="m 279.416,310.578 0.243,-0.709 c 6.519,-18.988 23.388,-29.446 47.498,-29.446 18.26,0 32.2,11.199 38.886,17.878 l 0.467,0.465 0.593,-0.294 c 9.554,-4.729 21.019,-7.228 33.154,-7.228 26.681,0 49.557,12.522 53.216,29.127 l 0.165,0.753 0.77,-0.03 c 0.982,-0.039 1.965,-0.064 2.96,-0.064 26.583,0 48.207,14.187 48.207,31.626 0,17.438 -21.624,31.625 -48.207,31.625 -6.89,0 -13.562,-0.945 -19.833,-2.812 l -0.612,-0.182 -0.386,0.509 c -8.922,11.77 -28.103,19.375 -48.868,19.375 -8.765,0 -17.144,-1.284 -24.906,-3.818 l -0.6,-0.195 -0.4,0.488 c -9.18,11.266 -27.199,18.263 -47.022,18.263 -29.204,0 -52.965,-15.152 -52.965,-33.777 0,-1.28 0.12,-2.567 0.372,-3.933 l 0.19,-1.042 -1.059,-0.044 c -30.714,-1.318 -54.773,-16.107 -54.773,-33.669 0,-18.624 26.585,-33.777 59.261,-33.777 4.311,0 8.654,0.275 12.904,0.818 z m 47.15,-33.836 c -24.662,0 -43.625,11.08 -50.59,30.425 -4.092,-0.492 -7.816,-0.586 -11.953,-0.608 -35.415,-0.194 -62.434,17.244 -62.434,36.883 0,18.352 23.014,34.475 58.578,35.462 -0.154,1.098 -0.235,2.181 -0.235,3.228 0,19.64 24.587,35.62 54.809,35.62 20.082,0 38.412,-7.057 48.048,-18.454 7.777,2.465 16.145,3.714 24.88,3.714 21.355,0 40.412,-7.493 49.948,-19.6 6.263,1.8 12.904,2.712 19.751,2.712 27.598,0 50.051,-15.015 50.051,-33.468 0,-18.455 -22.453,-33.469 -50.051,-33.469 -0.764,0 -1.52,0.014 -2.273,0.039 -4.343,-17.056 -27.709,-29.825 -54.838,-29.825 -12.168,0 -23.694,2.465 -33.381,7.13 -6.931,-9.222 -21.804,-19.789 -40.31,-19.789"
           style="fill:#29b0eb;fill-opacity:1;fill-rule:nonzero;stroke:none"
           id="path1447"
           inkscape:connector-curvature="0" /><path
           d="m 279.416,310.578 0.243,-0.709 c 6.519,-18.988 23.388,-29.446 47.498,-29.446 18.26,0 32.2,11.199 38.886,17.878 l 0.467,0.465 0.593,-0.294 c 9.554,-4.729 21.019,-7.228 33.154,-7.228 26.681,0 49.557,12.522 53.216,29.127 l 0.165,0.753 0.77,-0.03 c 0.982,-0.039 1.965,-0.064 2.96,-0.064 26.583,0 48.207,14.187 48.207,31.626 0,17.438 -21.624,31.625 -48.207,31.625 -6.89,0 -13.562,-0.945 -19.833,-2.812 l -0.612,-0.182 -0.386,0.509 c -8.922,11.77 -28.103,19.375 -48.868,19.375 -8.765,0 -17.144,-1.284 -24.906,-3.818 l -0.6,-0.195 -0.4,0.488 c -9.18,11.266 -27.199,18.263 -47.022,18.263 -29.204,0 -52.965,-15.152 -52.965,-33.777 0,-1.28 0.12,-2.567 0.372,-3.933 l 0.19,-1.042 -1.059,-0.044 c -30.714,-1.318 -54.773,-16.107 -54.773,-33.669 0,-18.624 26.585,-33.777 59.261,-33.777 4.311,0 8.654,0.275 12.904,0.818 z m 47.15,-33.836 c -24.662,0 -43.625,11.08 -50.59,30.425 -4.092,-0.492 -7.816,-0.586 -11.953,-0.608 -35.415,-0.194 -62.434,17.244 -62.434,36.883 0,18.352 23.014,34.475 58.578,35.462 -0.154,1.098 -0.235,2.181 -0.235,3.228 0,19.64 24.587,35.62 54.809,35.62 20.082,0 38.412,-7.057 48.048,-18.454 7.777,2.465 16.145,3.714 24.88,3.714 21.355,0 40.412,-7.493 49.948,-19.6 6.263,1.8 12.904,2.712 19.751,2.712 27.598,0 50.051,-15.015 50.051,-33.468 0,-18.455 -22.453,-33.469 -50.051,-33.469 -0.764,0 -1.52,0.014 -2.273,0.039 -4.343,-17.056 -27.709,-29.825 -54.838,-29.825 -12.168,0 -23.694,2.465 -33.381,7.13 -6.931,-9.222 -21.804,-19.789 -40.31,-19.789 z"
           style="fill:none;stroke:#29b0eb;stroke-width:4;stroke-linecap:butt;stroke-linejoin:miter;stroke-miterlimit:10;stroke-dasharray:none;stroke-opacity:1"
           id="path1449"
           inkscape:connector-curvature="0" /><path
           d="m 365.541,295.378 c 0,0 -0.472,0.249 -1.302,0.685 -0.849,0.433 -2.083,1.037 -3.591,1.705 -3.009,1.333 -7.141,2.933 -11.426,3.854 -1.07,0.213 -2.149,0.408 -3.214,0.516 -1.065,0.124 -2.119,0.164 -3.134,0.136 -1.019,-0.024 -1.99,-0.152 -2.897,-0.352 -0.897,-0.225 -1.74,-0.499 -2.452,-0.891 -0.36,-0.186 -0.708,-0.371 -0.997,-0.605 -0.303,-0.215 -0.6,-0.416 -0.828,-0.661 -0.509,-0.441 -0.862,-0.911 -1.159,-1.299 -0.302,-0.384 -0.454,-0.745 -0.599,-0.965 -0.131,-0.23 -0.204,-0.351 -0.204,-0.351 0,0 0.055,0.13 0.157,0.373 0.117,0.236 0.223,0.62 0.477,1.048 0.249,0.43 0.55,0.962 1.02,1.49 0.208,0.288 0.486,0.538 0.78,0.808 0.279,0.288 0.618,0.53 0.978,0.781 0.711,0.518 1.576,0.933 2.515,1.302 0.948,0.341 1.981,0.613 3.064,0.781 1.082,0.171 2.214,0.272 3.357,0.287 1.148,0.032 2.308,-0.025 3.465,-0.106 4.627,-0.388 9.127,-1.496 12.442,-2.478 1.659,-0.494 3.029,-0.955 3.988,-1.296 0.482,-0.177 0.86,-0.314 1.12,-0.41 0.262,-0.102 0.403,-0.156 0.403,-0.156 z"
           style="fill:#29b0eb;fill-opacity:1;fill-rule:nonzero;stroke:none"
           id="path1451"
           inkscape:connector-curvature="0" /><path
           d="m 273.628,312.255 c 0,0 0.458,0.084 1.262,0.232 0.42,0.07 0.873,0.169 1.362,0.29 0.503,0.116 1.074,0.244 1.713,0.445 0.639,0.177 1.325,0.395 2.038,0.662 0.731,0.237 1.463,0.569 2.241,0.884 0.757,0.351 1.555,0.706 2.325,1.133 0.387,0.213 0.779,0.426 1.169,0.641 l 1.144,0.714 c 0.763,0.48 1.493,1.012 2.2,1.552 0.7,0.55 1.377,1.111 1.987,1.703 0.647,0.562 1.167,1.198 1.715,1.765 0.475,0.618 0.994,1.165 1.357,1.749 0.389,0.565 0.755,1.086 1.01,1.588 0.27,0.491 0.533,0.914 0.679,1.292 0.328,0.745 0.518,1.171 0.518,1.171 0,0 -0.121,-0.451 -0.333,-1.243 -0.088,-0.404 -0.28,-0.862 -0.477,-1.404 -0.182,-0.549 -0.466,-1.132 -0.775,-1.774 -0.282,-0.66 -0.718,-1.295 -1.116,-2.017 -0.466,-0.667 -0.915,-1.423 -1.492,-2.109 -0.543,-0.719 -1.156,-1.417 -1.802,-2.112 -0.654,-0.684 -1.339,-1.367 -2.065,-2.002 l -1.097,-0.947 c -0.383,-0.296 -0.761,-0.589 -1.139,-0.88 -0.754,-0.586 -1.545,-1.099 -2.303,-1.606 -0.781,-0.472 -1.527,-0.957 -2.275,-1.338 -0.734,-0.412 -1.446,-0.769 -2.117,-1.073 -0.657,-0.325 -1.304,-0.585 -1.882,-0.817 -0.585,-0.241 -1.077,-0.43 -1.45,-0.551 -0.771,-0.271 -1.212,-0.424 -1.212,-0.424 z"
           style="fill:#29b0eb;fill-opacity:1;fill-rule:nonzero;stroke:none"
           id="path1453"
           inkscape:connector-curvature="0" /><path
           d="m 260.433,379.961 c 0,0 2.041,-0.471 5.101,-1.181 0.775,-0.197 1.633,-0.475 2.524,-0.733 0.891,-0.271 1.829,-0.554 2.799,-0.847 0.941,-0.357 1.914,-0.731 2.901,-1.106 0.492,-0.189 0.985,-0.38 1.482,-0.572 l 1.452,-0.692 c 0.963,-0.478 1.947,-0.885 2.861,-1.412 0.904,-0.536 1.793,-1.063 2.655,-1.573 0.855,-0.514 1.606,-1.143 2.35,-1.665 0.366,-0.272 0.723,-0.535 1.067,-0.789 0.318,-0.29 0.625,-0.571 0.919,-0.84 0.583,-0.534 1.12,-1.025 1.592,-1.461 0.423,-0.486 0.789,-0.909 1.094,-1.257 0.6,-0.692 0.942,-1.088 0.942,-1.088 0,0 -0.395,0.345 -1.085,0.948 -0.342,0.3 -0.758,0.662 -1.236,1.078 -0.52,0.36 -1.108,0.767 -1.75,1.208 -0.319,0.22 -0.652,0.448 -0.993,0.683 -0.368,0.201 -0.749,0.407 -1.139,0.62 -0.793,0.405 -1.578,0.902 -2.469,1.28 -0.887,0.372 -1.804,0.755 -2.736,1.146 -0.934,0.378 -1.939,0.637 -2.905,0.963 l -1.458,0.462 c -0.499,0.116 -0.994,0.231 -1.485,0.344 -0.98,0.226 -1.943,0.449 -2.877,0.665 -0.939,0.147 -1.844,0.287 -2.705,0.422 -0.863,0.125 -1.651,0.27 -2.418,0.358 -3.131,0.281 -5.217,0.466 -5.217,0.466 z"
           style="fill:#29b0eb;fill-opacity:1;fill-rule:nonzero;stroke:none"
           id="path1455"
           inkscape:connector-curvature="0" /><path
           d="m 368.003,396.875 c 0,0 -0.515,-0.162 -1.417,-0.446 -0.911,-0.295 -2.211,-0.759 -3.761,-1.35 -0.768,-0.311 -1.601,-0.65 -2.483,-1.009 -0.865,-0.39 -1.806,-0.764 -2.736,-1.222 -1.882,-0.88 -3.859,-1.896 -5.765,-3.034 -0.978,-0.533 -1.875,-1.178 -2.802,-1.762 -0.913,-0.6 -1.75,-1.273 -2.599,-1.884 -0.805,-0.657 -1.553,-1.329 -2.288,-1.95 -0.669,-0.683 -1.299,-1.334 -1.882,-1.932 -0.541,-0.635 -0.993,-1.255 -1.42,-1.791 -0.453,-0.523 -0.704,-1.063 -0.966,-1.48 -0.502,-0.853 -0.789,-1.34 -0.789,-1.34 0,0 0.222,0.52 0.611,1.431 0.209,0.45 0.397,1.04 0.781,1.617 0.36,0.593 0.742,1.286 1.21,2.008 0.518,0.688 1.079,1.434 1.673,2.224 0.662,0.727 1.347,1.519 2.091,2.302 0.782,0.735 1.562,1.545 2.422,2.283 0.871,0.72 1.723,1.512 2.653,2.19 1.815,1.423 3.718,2.731 5.545,3.89 0.901,0.602 1.815,1.107 2.66,1.629 0.865,0.487 1.684,0.95 2.438,1.374 1.53,0.822 2.82,1.479 3.746,1.917 0.471,0.219 0.842,0.393 1.096,0.511 0.248,0.112 0.377,0.171 0.377,0.171 z"
           style="fill:#29b0eb;fill-opacity:1;fill-rule:nonzero;stroke:none"
           id="path1457"
           inkscape:connector-curvature="0" /><path
           d="m 438.987,379.48 c 0,0 -0.118,-0.03 -0.336,-0.086 -0.21,-0.059 -0.516,-0.143 -0.908,-0.25 -0.805,-0.226 -1.953,-0.601 -3.325,-1.085 -0.676,-0.264 -1.429,-0.518 -2.195,-0.849 -0.774,-0.315 -1.589,-0.658 -2.412,-1.051 -0.838,-0.368 -1.67,-0.807 -2.525,-1.249 -0.864,-0.429 -1.682,-0.956 -2.538,-1.435 -0.818,-0.527 -1.642,-1.057 -2.432,-1.608 -0.751,-0.593 -1.547,-1.128 -2.227,-1.741 -0.668,-0.623 -1.392,-1.168 -1.951,-1.797 -0.564,-0.623 -1.156,-1.18 -1.61,-1.764 -0.449,-0.591 -0.861,-1.132 -1.225,-1.613 -0.365,-0.486 -0.589,-0.966 -0.823,-1.334 -0.445,-0.757 -0.698,-1.188 -0.698,-1.188 0,0 0.189,0.462 0.52,1.276 0.178,0.401 0.339,0.923 0.633,1.464 0.297,0.538 0.634,1.149 1.004,1.815 0.378,0.664 0.89,1.31 1.382,2.041 0.489,0.738 1.136,1.396 1.742,2.148 0.615,0.74 1.348,1.406 2.048,2.14 0.734,0.693 1.508,1.366 2.285,2.043 0.81,0.624 1.596,1.302 2.427,1.878 0.823,0.591 1.632,1.179 2.448,1.691 0.804,0.537 1.606,1.02 2.37,1.47 0.755,0.465 1.503,0.845 2.178,1.229 1.372,0.724 2.537,1.299 3.379,1.672 0.431,0.19 0.77,0.338 1,0.44 0.225,0.093 0.347,0.144 0.347,0.144 z"
           style="fill:#29b0eb;fill-opacity:1;fill-rule:nonzero;stroke:none"
           id="path1459"
           inkscape:connector-curvature="0" /><path
           d="m 452.65,318.624 c 0,0 -0.056,0.076 -0.166,0.217 -0.119,0.152 -0.296,0.371 -0.524,0.65 -0.464,0.561 -1.158,1.358 -2.039,2.271 -1.76,1.829 -4.3,4.131 -7.216,5.851 -1.457,0.853 -3.003,1.552 -4.525,1.985 -0.761,0.211 -1.515,0.355 -2.242,0.436 -0.725,0.072 -1.417,0.078 -2.059,0.041 -0.319,-0.036 -0.629,-0.068 -0.92,-0.1 -0.289,-0.058 -0.563,-0.116 -0.822,-0.168 -0.52,-0.105 -0.949,-0.284 -1.319,-0.387 -0.711,-0.302 -1.113,-0.475 -1.113,-0.475 0,0 0.373,0.239 1.026,0.655 0.353,0.165 0.763,0.419 1.276,0.614 0.258,0.098 0.532,0.204 0.82,0.313 0.299,0.084 0.611,0.172 0.941,0.263 0.667,0.15 1.403,0.267 2.194,0.317 0.79,0.042 1.628,0.022 2.49,-0.07 1.726,-0.192 3.527,-0.673 5.253,-1.335 3.456,-1.336 6.573,-3.348 8.785,-4.997 1.111,-0.824 2.003,-1.559 2.621,-2.096 0.311,-0.275 0.554,-0.491 0.718,-0.639 0.173,-0.16 0.265,-0.248 0.265,-0.248 z"
           style="fill:#29b0eb;fill-opacity:1;fill-rule:nonzero;stroke:none"
           id="path1461"
           inkscape:connector-curvature="0" /><path
           d="m 269.277,216.436 -8.21,-21.243 c -0.65,-1.678 -2.54,-2.517 -4.221,-1.865 -1.594,0.614 -2.426,2.359 -1.953,3.971 l 6.473,21.833 c 0.656,2.215 2.983,3.479 5.198,2.823 2.215,-0.657 3.479,-2.986 2.821,-5.199 -0.03,-0.108 -0.07,-0.219 -0.108,-0.32"
           style="fill:#278ace;fill-opacity:1;fill-rule:nonzero;stroke:none"
           id="path1463"
           inkscape:connector-curvature="0" /><path
           d="m 252.858,173.953 -8.211,-21.242 c -0.282,-0.735 -1.11,-1.101 -1.845,-0.816 -0.698,0.267 -1.061,1.033 -0.853,1.735 l 6.471,21.835 c 0.369,1.241 1.676,1.951 2.916,1.584 1.243,-0.369 1.953,-1.675 1.583,-2.919 -0.017,-0.055 -0.039,-0.12 -0.061,-0.177"
           style="fill:#278ace;fill-opacity:1;fill-rule:nonzero;stroke:none"
           id="path1465"
           inkscape:connector-curvature="0" /><path
           d="m 237.978,135.244 -7.651,-19.795 6.029,20.345 c 0.137,0.453 0.613,0.713 1.066,0.577 0.453,-0.135 0.711,-0.609 0.579,-1.064 -0.009,-0.022 -0.018,-0.044 -0.023,-0.063"
           style="fill:#278ace;fill-opacity:1;fill-rule:nonzero;stroke:none"
           id="path1467"
           inkscape:connector-curvature="0" /><path
           d="m 247.7,255.297 -11.875,-30.244 c -0.419,-1.06 -1.613,-1.583 -2.674,-1.167 -0.999,0.391 -1.516,1.486 -1.227,2.497 l 9.067,31.201 c 0.547,1.88 2.514,2.965 4.396,2.416 1.882,-0.546 2.965,-2.513 2.418,-4.396 -0.03,-0.102 -0.067,-0.208 -0.105,-0.307"
           style="fill:#278ace;fill-opacity:1;fill-rule:nonzero;stroke:none"
           id="path1469"
           inkscape:connector-curvature="0" /><path
           d="m 228.873,200.391 -12.616,-24.053 6.466,26.368 c 0.171,0.498 3.079,1.524 3.859,1.47 0.781,-0.059 2.5,-3.205 2.325,-3.706 -0.008,-0.025 -0.019,-0.053 -0.034,-0.079"
           style="fill:#278ace;fill-opacity:1;fill-rule:nonzero;stroke:none"
           id="path1471"
           inkscape:connector-curvature="0" /><path
           d="m 211.651,160.459 -10.061,-21.224 6.868,22.394 c 0.171,0.499 0.943,0.854 1.722,0.8 0.781,-0.06 1.679,-1.389 1.504,-1.891 -0.009,-0.024 -0.02,-0.053 -0.033,-0.079"
           style="fill:#278ace;fill-opacity:1;fill-rule:nonzero;stroke:none"
           id="path1473"
           inkscape:connector-curvature="0" /><path
           d="m 317.68,254.832 -4.598,-11.756 c -1.017,-2.598 -3.945,-3.88 -6.543,-2.865 -2.45,0.961 -3.723,3.641 -3.009,6.119 l 3.539,12.119 c 0.869,2.974 3.984,4.682 6.96,3.813 2.974,-0.869 4.681,-3.984 3.812,-6.957 -0.044,-0.16 -0.102,-0.323 -0.161,-0.473"
           style="fill:#278ace;fill-opacity:1;fill-rule:nonzero;stroke:none"
           id="path1475"
           inkscape:connector-curvature="0" /><path
           d="m 305.722,224.262 -7.36,-18.815 c -0.654,-1.673 -2.544,-2.499 -4.217,-1.843 -1.579,0.619 -2.4,2.344 -1.938,3.94 l 5.662,19.393 c 0.643,2.201 2.947,3.465 5.152,2.824 2.198,-0.644 3.461,-2.948 2.82,-5.151 -0.034,-0.115 -0.075,-0.237 -0.119,-0.348"
           style="fill:#278ace;fill-opacity:1;fill-rule:nonzero;stroke:none"
           id="path1477"
           inkscape:connector-curvature="0" /><path
           d="m 291,186.635 -7.358,-18.815 c -0.294,-0.751 -1.141,-1.121 -1.891,-0.828 -0.707,0.276 -1.076,1.052 -0.868,1.77 l 5.661,19.391 c 0.365,1.25 1.673,1.965 2.921,1.6 1.25,-0.363 1.969,-1.671 1.604,-2.922 -0.019,-0.066 -0.043,-0.134 -0.069,-0.196"
           style="fill:#278ace;fill-opacity:1;fill-rule:nonzero;stroke:none"
           id="path1479"
           inkscape:connector-curvature="0" /><path
           d="m 278.085,153.35 -8.238,-21.051 6.338,21.701 c 0.154,0.531 0.714,0.838 1.245,0.686 0.532,-0.159 0.839,-0.717 0.683,-1.248 -0.009,-0.029 -0.019,-0.057 -0.028,-0.088"
           style="fill:#278ace;fill-opacity:1;fill-rule:nonzero;stroke:none"
           id="path1481"
           inkscape:connector-curvature="0" /><path
           d="m 350.051,236.223 -9.357,-24.69 c -0.642,-1.691 -2.534,-2.544 -4.225,-1.9 -1.613,0.609 -2.458,2.371 -1.974,3.999 l 7.574,25.297 c 0.666,2.23 3.018,3.497 5.248,2.829 2.231,-0.67 3.498,-3.019 2.831,-5.251 -0.028,-0.094 -0.062,-0.194 -0.097,-0.284"
           style="fill:#278ace;fill-opacity:1;fill-rule:nonzero;stroke:none"
           id="path1483"
           inkscape:connector-curvature="0" /><path
           d="m 331.336,187.089 -9.357,-24.691 c -0.271,-0.718 -1.076,-1.08 -1.796,-0.808 -0.685,0.26 -1.045,1.009 -0.839,1.701 l 7.577,25.292 c 0.367,1.236 1.668,1.939 2.9,1.567 1.238,-0.369 1.94,-1.671 1.568,-2.904 -0.013,-0.054 -0.034,-0.106 -0.053,-0.157"
           style="fill:#278ace;fill-opacity:1;fill-rule:nonzero;stroke:none"
           id="path1485"
           inkscape:connector-curvature="0" /><path
           d="m 316.04,146.326 -11.357,-29.972 9.195,30.701 c 0.181,0.605 0.815,0.95 1.422,0.769 0.603,-0.182 0.949,-0.818 0.768,-1.423 -0.007,-0.028 -0.017,-0.052 -0.028,-0.075"
           style="fill:#278ace;fill-opacity:1;fill-rule:nonzero;stroke:none"
           id="path1487"
           inkscape:connector-curvature="0" /><path
           d="m 431.459,256.275 -4.551,-11.774 c -1.016,-2.629 -3.969,-3.935 -6.597,-2.919 -2.493,0.964 -3.79,3.689 -3.051,6.21 l 3.587,12.099 c 0.881,2.969 4.003,4.665 6.97,3.784 2.974,-0.879 4.667,-4.001 3.787,-6.972 -0.041,-0.141 -0.093,-0.292 -0.145,-0.428"
           style="fill:#278ace;fill-opacity:1;fill-rule:nonzero;stroke:none"
           id="path1489"
           inkscape:connector-curvature="0" /><path
           d="m 418.698,223.261 -8.211,-21.242 c -0.647,-1.682 -2.538,-2.52 -4.219,-1.871 -1.595,0.618 -2.425,2.364 -1.955,3.975 l 6.474,21.833 c 0.656,2.215 2.983,3.478 5.198,2.822 2.214,-0.658 3.478,-2.984 2.822,-5.199 -0.031,-0.105 -0.071,-0.219 -0.109,-0.318"
           style="fill:#278ace;fill-opacity:1;fill-rule:nonzero;stroke:none"
           id="path1491"
           inkscape:connector-curvature="0" /><path
           d="m 402.28,180.778 -8.211,-21.243 c -0.285,-0.736 -1.111,-1.101 -1.846,-0.817 -0.697,0.269 -1.061,1.033 -0.854,1.737 l 6.475,21.831 c 0.367,1.244 1.671,1.953 2.914,1.586 1.243,-0.37 1.949,-1.675 1.583,-2.918 -0.018,-0.058 -0.039,-0.121 -0.061,-0.176"
           style="fill:#278ace;fill-opacity:1;fill-rule:nonzero;stroke:none"
           id="path1493"
           inkscape:connector-curvature="0" /><path
           d="m 388.485,144.339 -9.609,-24.452 7.466,25.184 c 0,0 0.506,1.032 1.41,0.762 0.6,-0.179 0.943,-0.811 0.768,-1.407 -0.01,-0.032 -0.024,-0.061 -0.035,-0.087"
           style="fill:#278ace;fill-opacity:1;fill-rule:nonzero;stroke:none"
           id="path1495"
           inkscape:connector-curvature="0" /><path
           d="m 469.001,260.297 -4.55,-11.775 c -1.017,-2.628 -3.969,-3.934 -6.597,-2.918 -2.493,0.961 -3.79,3.688 -3.052,6.208 l 3.587,12.1 c 0.882,2.97 4.004,4.663 6.971,3.784 2.973,-0.879 4.667,-4.001 3.787,-6.973 -0.043,-0.14 -0.094,-0.29 -0.146,-0.426"
           style="fill:#278ace;fill-opacity:1;fill-rule:nonzero;stroke:none"
           id="path1497"
           inkscape:connector-curvature="0" /><path
           d="M 456.241,227.282 448.03,206.04 c -0.648,-1.682 -2.539,-2.519 -4.219,-1.87 -1.595,0.617 -2.425,2.363 -1.956,3.975 l 6.474,21.833 c 0.657,2.212 2.984,3.477 5.199,2.82 2.214,-0.656 3.478,-2.985 2.821,-5.197 -0.031,-0.108 -0.07,-0.219 -0.108,-0.319"
           style="fill:#278ace;fill-opacity:1;fill-rule:nonzero;stroke:none"
           id="path1499"
           inkscape:connector-curvature="0" /><path
           d="m 439.821,184.798 -8.209,-21.241 c -0.285,-0.735 -1.112,-1.102 -1.846,-0.82 -0.697,0.272 -1.061,1.034 -0.854,1.74 l 6.475,21.831 c 0.366,1.244 1.671,1.953 2.913,1.586 1.243,-0.371 1.95,-1.675 1.585,-2.918 -0.019,-0.059 -0.04,-0.122 -0.064,-0.178"
           style="fill:#278ace;fill-opacity:1;fill-rule:nonzero;stroke:none"
           id="path1501"
           inkscape:connector-curvature="0" /><path
           d="m 426.028,148.36 -9.609,-24.452 7.466,25.185 c 0,0 0.505,1.031 1.409,0.761 0.601,-0.178 0.943,-0.81 0.768,-1.407 -0.009,-0.032 -0.024,-0.06 -0.034,-0.087"
           style="fill:#278ace;fill-opacity:1;fill-rule:nonzero;stroke:none"
           id="path1503"
           inkscape:connector-curvature="0" /><path
           d="m 395.477,264.204 -4.551,-11.771 c -1.017,-2.627 -3.968,-3.937 -6.598,-2.922 -2.492,0.963 -3.789,3.688 -3.05,6.21 l 3.588,12.101 c 0.879,2.97 4.002,4.663 6.971,3.784 2.973,-0.881 4.666,-4.003 3.786,-6.973 -0.043,-0.143 -0.095,-0.292 -0.146,-0.429"
           style="fill:#278ace;fill-opacity:1;fill-rule:nonzero;stroke:none"
           id="path1505"
           inkscape:connector-curvature="0" /><path
           d="m 360.593,268.054 -4.551,-11.773 c -1.016,-2.627 -3.968,-3.936 -6.596,-2.921 -2.494,0.964 -3.791,3.691 -3.052,6.21 l 3.588,12.101 c 0.88,2.97 4.003,4.663 6.971,3.782 2.972,-0.881 4.666,-3.999 3.786,-6.972 -0.042,-0.141 -0.095,-0.292 -0.146,-0.427"
           style="fill:#278ace;fill-opacity:1;fill-rule:nonzero;stroke:none"
           id="path1507"
           inkscape:connector-curvature="0" /><path
           d="m 382.717,231.189 -8.211,-21.242 c -0.649,-1.68 -2.537,-2.518 -4.221,-1.867 -1.594,0.615 -2.425,2.36 -1.953,3.973 l 6.474,21.833 c 0.655,2.215 2.982,3.479 5.197,2.822 2.215,-0.658 3.477,-2.984 2.822,-5.199 -0.03,-0.106 -0.07,-0.218 -0.108,-0.32"
           style="fill:#278ace;fill-opacity:1;fill-rule:nonzero;stroke:none"
           id="path1509"
           inkscape:connector-curvature="0" /><path
           d="m 366.299,188.707 -8.212,-21.242 c -0.284,-0.735 -1.111,-1.101 -1.847,-0.819 -0.697,0.271 -1.059,1.034 -0.853,1.739 l 6.474,21.833 c 0.368,1.242 1.673,1.951 2.915,1.583 1.244,-0.367 1.95,-1.673 1.583,-2.915 -0.018,-0.061 -0.04,-0.124 -0.06,-0.179"
           style="fill:#278ace;fill-opacity:1;fill-rule:nonzero;stroke:none"
           id="path1511"
           inkscape:connector-curvature="0" /><path
           d="m 352.049,151.689 -9.923,-25.671 7.82,26.384 c 0.176,0.586 0.795,0.921 1.382,0.749 0.589,-0.172 0.923,-0.794 0.747,-1.38 -0.007,-0.029 -0.019,-0.059 -0.026,-0.082"
           style="fill:#278ace;fill-opacity:1;fill-rule:nonzero;stroke:none"
           id="path1513"
           inkscape:connector-curvature="0" /><path
           d="m 279.908,363.491 c 0,0 -0.318,0.071 -0.911,0.209 -0.586,0.18 -1.48,0.28 -2.555,0.459 -1.109,0.125 -2.455,0.222 -3.994,0.274 -1.544,0.041 -3.286,-0.015 -5.175,-0.085 -1.895,-0.129 -3.936,-0.306 -6.088,-0.563 -2.151,-0.252 -4.405,-0.641 -6.722,-1.068 -1.161,-0.206 -2.325,-0.486 -3.512,-0.72 -1.174,-0.296 -2.371,-0.554 -3.56,-0.877 -2.381,-0.631 -4.772,-1.355 -7.108,-2.199 -2.331,-0.848 -4.632,-1.778 -6.781,-2.874 -1.096,-0.515 -2.106,-1.136 -3.141,-1.701 -0.505,-0.3 -0.972,-0.636 -1.459,-0.946 -0.49,-0.309 -0.965,-0.626 -1.4,-0.981 -1.844,-1.311 -3.374,-2.829 -4.654,-4.394 -0.299,-0.407 -0.592,-0.81 -0.885,-1.204 -0.267,-0.407 -0.463,-0.844 -0.716,-1.248 l -0.358,-0.611 c -0.101,-0.209 -0.176,-0.426 -0.265,-0.637 -0.175,-0.427 -0.345,-0.844 -0.514,-1.254 -0.204,-0.854 -0.464,-1.679 -0.574,-2.491 -0.046,-0.412 -0.092,-0.81 -0.134,-1.199 -0.055,-0.392 -0.094,-0.776 -0.06,-1.147 0.032,-0.746 0.025,-1.457 0.082,-2.113 0.097,-0.657 0.187,-1.261 0.267,-1.806 0.158,-1.102 0.464,-1.934 0.588,-2.529 0.147,-0.594 0.224,-0.911 0.224,-0.911 0,0 -0.164,0.281 -0.468,0.806 -0.152,0.267 -0.337,0.596 -0.555,0.984 -0.224,0.39 -0.486,0.836 -0.671,1.382 -0.21,0.542 -0.444,1.144 -0.7,1.799 -0.226,0.667 -0.34,1.428 -0.532,2.235 -0.112,0.402 -0.15,0.828 -0.174,1.27 -0.032,0.445 -0.067,0.903 -0.099,1.371 -0.067,0.475 0.03,0.954 0.065,1.452 0.049,0.495 0.083,1.011 0.158,1.531 0.431,2.04 1.138,4.28 2.482,6.293 1.301,2.009 2.927,4.002 4.921,5.625 1.952,1.676 4.148,3.169 6.491,4.407 2.319,1.301 4.801,2.317 7.298,3.249 2.514,0.879 5.06,1.635 7.607,2.199 2.538,0.583 5.063,1.006 7.519,1.288 2.456,0.298 4.845,0.424 7.109,0.455 1.128,0.04 2.234,0.006 3.296,-0.022 1.064,-0.045 2.093,-0.14 3.075,-0.206 0.986,-0.117 1.926,-0.197 2.818,-0.337 0.891,-0.168 1.732,-0.294 2.517,-0.471 1.576,-0.326 2.913,-0.761 4.002,-1.135 1.095,-0.427 1.908,-0.792 2.43,-1.103 0.532,-0.297 0.816,-0.456 0.816,-0.456"
           style="fill:#ffffff;fill-opacity:1;fill-rule:nonzero;stroke:none"
           id="path1515"
           inkscape:connector-curvature="0" /><path
           d="m 270.076,382.883 c 0,0 0.056,0.339 0.162,0.974 0.059,0.317 0.128,0.708 0.211,1.168 0.124,0.453 0.277,0.974 0.461,1.566 0.386,1.168 0.94,2.56 1.809,4.054 0.402,0.767 0.954,1.498 1.479,2.324 0.606,0.752 1.215,1.591 1.96,2.35 1.417,1.612 3.194,3.115 5.179,4.547 2.001,1.417 4.241,2.716 6.668,3.82 2.431,1.085 5.016,2.041 7.71,2.772 2.696,0.717 5.483,1.216 8.287,1.563 2.809,0.264 5.63,0.444 8.401,0.336 2.771,-0.058 5.485,-0.363 8.082,-0.776 2.606,-0.366 5.076,-1 7.384,-1.659 2.315,-0.651 4.442,-1.452 6.366,-2.261 1.923,-0.812 3.645,-1.647 5.115,-2.479 1.503,-0.765 2.713,-1.617 3.738,-2.25 1.014,-0.652 1.753,-1.258 2.277,-1.625 0.515,-0.388 0.79,-0.594 0.79,-0.594 0,0 -1.27,0.509 -3.491,1.402 -1.126,0.401 -2.457,0.942 -4.028,1.443 -1.55,0.542 -3.335,1.042 -5.265,1.588 -1.945,0.505 -4.058,0.984 -6.305,1.41 -1.125,0.194 -2.276,0.417 -3.468,0.546 -0.595,0.07 -1.192,0.158 -1.795,0.245 -0.607,0.062 -1.217,0.126 -1.835,0.189 -1.231,0.154 -2.492,0.177 -3.763,0.265 -0.635,0.03 -1.278,0.024 -1.92,0.038 -0.641,0.018 -1.287,0.048 -1.936,0.025 -2.594,0.003 -5.22,-0.176 -7.831,-0.446 -2.609,-0.298 -5.195,-0.745 -7.71,-1.31 -2.496,-0.626 -4.945,-1.29 -7.231,-2.172 -2.263,-0.919 -4.439,-1.858 -6.383,-2.973 -0.96,-0.57 -1.902,-1.128 -2.759,-1.735 -0.434,-0.302 -0.861,-0.596 -1.281,-0.885 -0.396,-0.319 -0.785,-0.632 -1.167,-0.937 -0.788,-0.595 -1.41,-1.293 -2.095,-1.881 -0.597,-0.659 -1.235,-1.247 -1.724,-1.882 -1.016,-1.239 -1.832,-2.414 -2.42,-3.417 -0.287,-0.514 -0.545,-0.97 -0.767,-1.368 -0.194,-0.425 -0.356,-0.785 -0.49,-1.08 -0.27,-0.583 -0.415,-0.895 -0.415,-0.895"
           style="fill:#ffffff;fill-opacity:1;fill-rule:nonzero;stroke:none"
           id="path1517"
           inkscape:connector-curvature="0" /><path
           d="m 346.5,367.83 c 0,0 0.057,0.339 0.162,0.975 0.059,0.317 0.128,0.706 0.211,1.166 0.124,0.453 0.277,0.975 0.461,1.566 0.387,1.169 0.94,2.561 1.809,4.054 0.402,0.768 0.954,1.499 1.478,2.326 0.608,0.751 1.215,1.589 1.96,2.35 1.417,1.611 3.194,3.113 5.181,4.546 2,1.417 4.24,2.716 6.668,3.82 2.429,1.084 5.016,2.041 7.708,2.772 2.696,0.717 5.484,1.215 8.287,1.562 2.809,0.265 5.631,0.445 8.401,0.336 2.773,-0.057 5.487,-0.363 8.084,-0.775 2.605,-0.365 5.075,-1 7.384,-1.66 2.313,-0.649 4.44,-1.451 6.367,-2.261 1.922,-0.812 3.641,-1.647 5.112,-2.479 1.503,-0.764 2.714,-1.617 3.738,-2.25 1.013,-0.651 1.754,-1.258 2.28,-1.625 0.513,-0.388 0.788,-0.593 0.788,-0.593 0,0 -1.269,0.509 -3.49,1.402 -1.127,0.4 -2.458,0.942 -4.028,1.442 -1.551,0.542 -3.335,1.043 -5.264,1.589 -1.945,0.505 -4.061,0.984 -6.305,1.41 -1.127,0.194 -2.278,0.416 -3.47,0.545 -0.594,0.071 -1.191,0.159 -1.794,0.246 -0.606,0.062 -1.218,0.125 -1.836,0.189 -1.23,0.153 -2.494,0.178 -3.763,0.264 -0.634,0.031 -1.275,0.025 -1.92,0.039 -0.642,0.018 -1.287,0.047 -1.936,0.025 -2.594,0.002 -5.22,-0.177 -7.831,-0.446 -2.608,-0.298 -5.195,-0.745 -7.71,-1.309 -2.497,-0.626 -4.945,-1.29 -7.231,-2.173 -2.264,-0.919 -4.439,-1.859 -6.384,-2.972 -0.959,-0.572 -1.9,-1.129 -2.758,-1.736 -0.433,-0.302 -0.86,-0.596 -1.281,-0.886 -0.396,-0.319 -0.785,-0.63 -1.167,-0.936 -0.788,-0.595 -1.41,-1.294 -2.096,-1.882 -0.596,-0.658 -1.234,-1.246 -1.723,-1.882 -1.016,-1.239 -1.831,-2.412 -2.42,-3.416 -0.287,-0.514 -0.545,-0.969 -0.767,-1.367 -0.194,-0.426 -0.356,-0.787 -0.49,-1.08 -0.27,-0.584 -0.415,-0.896 -0.415,-0.896"
           style="fill:#ffffff;fill-opacity:1;fill-rule:nonzero;stroke:none"
           id="path1519"
           inkscape:connector-curvature="0" /><path
           d="m 418.291,351.619 c 0,0 0.058,0.339 0.164,0.975 0.056,0.316 0.128,0.706 0.209,1.166 0.126,0.453 0.278,0.976 0.462,1.566 0.387,1.169 0.939,2.56 1.807,4.054 0.405,0.769 0.956,1.498 1.482,2.326 0.605,0.75 1.213,1.589 1.96,2.35 1.417,1.611 3.193,3.113 5.181,4.546 1.997,1.417 4.239,2.715 6.664,3.82 2.432,1.084 5.017,2.041 7.712,2.771 2.694,0.718 5.483,1.216 8.286,1.563 2.809,0.265 5.628,0.445 8.401,0.336 2.772,-0.057 5.485,-0.363 8.082,-0.775 2.606,-0.365 5.077,-1 7.383,-1.66 2.315,-0.649 4.441,-1.451 6.366,-2.259 1.924,-0.814 3.645,-1.648 5.114,-2.481 1.504,-0.764 2.717,-1.617 3.742,-2.25 1.012,-0.652 1.751,-1.258 2.276,-1.625 0.516,-0.388 0.788,-0.594 0.788,-0.594 0,0 -1.269,0.51 -3.489,1.403 -1.126,0.4 -2.458,0.942 -4.027,1.442 -1.552,0.542 -3.338,1.042 -5.266,1.588 -1.945,0.505 -4.061,0.985 -6.303,1.411 -1.129,0.193 -2.277,0.417 -3.47,0.546 -0.596,0.07 -1.193,0.158 -1.794,0.245 -0.608,0.062 -1.221,0.125 -1.835,0.188 -1.232,0.154 -2.494,0.178 -3.763,0.265 -0.637,0.03 -1.278,0.026 -1.921,0.039 -0.644,0.018 -1.289,0.047 -1.936,0.025 -2.595,0.002 -5.222,-0.177 -7.834,-0.446 -2.607,-0.298 -5.192,-0.746 -7.707,-1.312 -2.497,-0.624 -4.947,-1.289 -7.231,-2.171 -2.263,-0.918 -4.44,-1.858 -6.385,-2.971 -0.957,-0.572 -1.9,-1.129 -2.759,-1.737 -0.433,-0.301 -0.862,-0.596 -1.279,-0.885 -0.397,-0.319 -0.786,-0.63 -1.169,-0.937 -0.787,-0.594 -1.41,-1.293 -2.096,-1.881 -0.595,-0.658 -1.233,-1.246 -1.722,-1.882 -1.017,-1.239 -1.833,-2.412 -2.419,-3.417 -0.288,-0.513 -0.544,-0.968 -0.77,-1.367 -0.193,-0.425 -0.354,-0.786 -0.489,-1.079 -0.27,-0.584 -0.415,-0.896 -0.415,-0.896"
           style="fill:#ffffff;fill-opacity:1;fill-rule:nonzero;stroke:none"
           id="path1521"
           inkscape:connector-curvature="0" /></g></g></g></svg>