<?xml version='1.0' encoding='UTF-8' standalone='no'?>
<!-- Created with Fritzing (https://fritzing.org/) -->
<svg xmlns="http://www.w3.org/2000/svg" viewBox="0 0 146.544 219.765" y="0in" version="1.2"  xmlns:svg="http://www.w3.org/2000/svg" baseProfile="tiny" x="0in" width="2.03534in" height="3.0523in">
 <g id="watermark" >
  <g >
   <g >
    <path fill="#8C8C8C" d="M121.812,213.565c-0.604,0,-1.131,0.325,-1.422,0.809l-2.796,0l3.96,-4.071c0.146,-0.146,0.289,-0.322,0.428,-0.521c0.149,-0.222,0.228,-0.479,0.228,-0.768c0,-0.279,-0.097,-0.518,-0.287,-0.71c-0.19,-0.188,-0.444,-0.287,-0.754,-0.287l-4.636,0c-0.305,0,-0.555,0.06,-0.742,0.17c-0.219,0.13,-0.33,0.368,-0.33,0.707c0,0.329,0.111,0.562,0.33,0.692c0.188,0.111,0.438,0.168,0.742,0.168l3.148,0l-3.974,4.086c-0.146,0.147,-0.289,0.315,-0.425,0.504c-0.153,0.212,-0.23,0.472,-0.23,0.771c0,0.28,0.096,0.521,0.288,0.711c0.188,0.188,0.442,0.285,0.754,0.285l4.315,0c0.293,0.467,0.812,0.776,1.4,0.776c0.916,0,1.66,-0.744,1.66,-1.661C123.471,214.31,122.726,213.565,121.812,213.565zM121.812,215.828c-0.334,0,-0.604,-0.271,-0.604,-0.604c0,-0.333,0.27,-0.604,0.604,-0.604c0.332,0,0.604,0.271,0.604,0.604C122.415,215.559,122.144,215.828,121.812,215.828z" />
    <path fill="#8C8C8C" d="M104.869,203.523c-0.914,0,-1.659,0.745,-1.659,1.66c0,0.916,0.745,1.66,1.659,1.66s1.658,-0.744,1.658,-1.66C106.529,204.268,105.785,203.523,104.869,203.523zM104.87,205.786c-0.333,0,-0.604,-0.27,-0.604,-0.603s0.271,-0.603,0.604,-0.603c0.331,0,0.604,0.27,0.604,0.603S105.201,205.786,104.87,205.786z" />
    <path fill="#8C8C8C" d="M113.39,208.185c-0.193,-0.111,-0.439,-0.169,-0.732,-0.169l-1.465,0L111.193,205.494c0,-0.292,-0.057,-0.538,-0.166,-0.729C110.937,204.608,110.744,204.423,110.334,204.423c-0.34,0,-0.578,0.116,-0.709,0.342c-0.109,0.193,-0.167,0.438,-0.167,0.729l0,2.521l-0.481,0c-0.295,0,-0.539,0.06,-0.731,0.169c-0.228,0.129,-0.341,0.368,-0.341,0.708c0,0.412,0.185,0.603,0.341,0.692c0.192,0.111,0.438,0.168,0.731,0.168l0.481,0l0,4.362c0,0.277,0.026,0.533,0.081,0.768c0.056,0.246,0.154,0.464,0.298,0.645c0.146,0.186,0.345,0.332,0.595,0.436c0.241,0.098,0.555,0.146,0.93,0.146l0.896,0c0.292,0,0.539,-0.054,0.731,-0.166c0.154,-0.089,0.341,-0.281,0.341,-0.693c0,-0.338,-0.114,-0.578,-0.341,-0.709c-0.192,-0.109,-0.439,-0.168,-0.731,-0.168l-0.821,0c-0.138,0,-0.19,-0.019,-0.207,-0.024c-0.014,-0.034,-0.035,-0.103,-0.035,-0.231L111.195,209.753l1.465,0c0.295,0,0.541,-0.057,0.734,-0.168c0.152,-0.09,0.34,-0.28,0.34,-0.692C113.73,208.553,113.617,208.314,113.39,208.185z" />
    <path fill="#8C8C8C" d="M104.935,208.015l-1.191,0c-0.292,0,-0.538,0.059,-0.731,0.169c-0.226,0.129,-0.341,0.368,-0.341,0.708c0,0.412,0.188,0.604,0.341,0.691c0.193,0.113,0.439,0.168,0.731,0.168l0.544,0l0,5.362c0,0.293,0.057,0.539,0.167,0.73c0.131,0.227,0.367,0.341,0.708,0.341c0.411,0,0.604,-0.187,0.692,-0.341c0.111,-0.191,0.168,-0.438,0.168,-0.73L106.023,209.103c0,-0.386,-0.084,-0.656,-0.256,-0.83C105.592,208.101,105.322,208.015,104.935,208.015z" />
    <path fill="#8C8C8C" d="M101.1,208.185c-0.193,-0.111,-0.44,-0.169,-0.732,-0.169l-0.604,0c-0.25,0,-0.498,0.063,-0.734,0.187c-0.226,0.119,-0.433,0.271,-0.616,0.453l-0.644,0.604l0,-0.247c0,-0.291,-0.055,-0.538,-0.168,-0.729c-0.128,-0.228,-0.368,-0.34,-0.707,-0.34c-0.41,0,-0.604,0.184,-0.693,0.34c-0.11,0.191,-0.167,0.438,-0.167,0.729l0,4.801c-0.475,0.293,-0.791,0.816,-0.791,1.412c0,0.917,0.745,1.661,1.658,1.661c0.916,0,1.66,-0.744,1.66,-1.661c0,-0.596,-0.317,-1.119,-0.792,-1.412l0,-2.21l1.738,-1.564c0.1,-0.09,0.199,-0.164,0.297,-0.217c0.084,-0.045,0.174,-0.067,0.274,-0.067l0.288,0c0.292,0,0.539,-0.056,0.732,-0.169c0.155,-0.088,0.339,-0.279,0.339,-0.691C101.44,208.553,101.325,208.314,101.1,208.185zM96.9015,215.828c-0.332,0,-0.603,-0.271,-0.603,-0.604c0,-0.333,0.271,-0.604,0.603,-0.604c0.333,0,0.604,0.271,0.604,0.604C97.5055,215.559,97.2345,215.828,96.9015,215.828z" />
    <path fill="#8C8C8C" d="M94.3845,204.666c-0.193,-0.111,-0.44,-0.167,-0.731,-0.167l-0.59,0c-0.2,0,-0.389,0.004,-0.562,0.016c-0.176,0.009,-0.345,0.035,-0.506,0.07c-0.168,0.041,-0.336,0.109,-0.496,0.202c-0.158,0.093,-0.319,0.222,-0.48,0.382c-0.334,0.314,-0.554,0.656,-0.652,1.017c-0.094,0.348,-0.143,0.735,-0.143,1.151l0,0.678l-0.483,0c-0.292,0,-0.539,0.059,-0.73,0.169c-0.227,0.13,-0.342,0.369,-0.342,0.708c0,0.412,0.185,0.604,0.341,0.693c0.191,0.111,0.438,0.166,0.73,0.166l0.483,0l0,5.362c0,0.293,0.057,0.539,0.167,0.73c0.13,0.227,0.367,0.341,0.708,0.341c0.411,0,0.603,-0.187,0.692,-0.341c0.111,-0.191,0.168,-0.438,0.168,-0.73l0,-5.36l0.92,0c0.293,0,0.54,-0.057,0.732,-0.168c0.155,-0.09,0.34,-0.28,0.34,-0.692c0,-0.34,-0.114,-0.579,-0.34,-0.708c-0.189,-0.111,-0.436,-0.17,-0.729,-0.17l-0.92,0l0,-0.678c0,-0.218,0.019,-0.41,0.056,-0.571c0.032,-0.141,0.103,-0.261,0.218,-0.367l0.002,-0.004l0.002,-0.002c0.082,-0.082,0.176,-0.126,0.29,-0.136c0.15,-0.015,0.339,-0.022,0.564,-0.022l0.56,0c0.291,0,0.539,-0.058,0.731,-0.168c0.154,-0.088,0.339,-0.281,0.339,-0.693C94.7245,205.035,94.6095,204.796,94.3845,204.666z" />
    <path fill="#8C8C8C" d="M146.377,208.283c-0.089,-0.156,-0.282,-0.34,-0.693,-0.34c-0.339,0,-0.578,0.113,-0.707,0.34c-0.078,0.133,-0.127,0.293,-0.152,0.477l-0.021,-0.021c-0.216,-0.236,-0.466,-0.42,-0.747,-0.539c-0.277,-0.119,-0.563,-0.183,-0.849,-0.183l-0.709,0c-0.249,0,-0.466,0.015,-0.64,0.041c-0.182,0.026,-0.352,0.074,-0.51,0.14c-0.158,0.066,-0.313,0.15,-0.459,0.254c-0.139,0.097,-0.303,0.226,-0.486,0.377c-0.188,0.156,-0.342,0.302,-0.463,0.434c-0.127,0.141,-0.23,0.293,-0.306,0.455c-0.069,0.16,-0.122,0.337,-0.147,0.523c-0.026,0.178,-0.041,0.391,-0.041,0.631l0,2.386c0,0.24,0.015,0.451,0.041,0.631c0.025,0.188,0.078,0.361,0.147,0.521c0.074,0.164,0.179,0.318,0.306,0.457c0.119,0.129,0.274,0.274,0.463,0.433c0.186,0.153,0.35,0.28,0.486,0.379c0.146,0.103,0.299,0.188,0.459,0.254c0.158,0.065,0.329,0.112,0.51,0.14c0.174,0.026,0.389,0.039,0.64,0.039l0.709,0c0.298,0,0.591,-0.066,0.87,-0.199c0.244,-0.114,0.492,-0.291,0.73,-0.523l0,1.434c0,0.18,-0.025,0.334,-0.072,0.465c-0.043,0.119,-0.159,0.258,-0.344,0.406c-0.154,0.127,-0.309,0.217,-0.457,0.264c-0.15,0.049,-0.341,0.074,-0.563,0.074l-2.203,0c-0.293,0,-0.538,0.055,-0.732,0.166c-0.152,0.088,-0.34,0.282,-0.34,0.692c0,0.341,0.115,0.579,0.34,0.71c0.194,0.109,0.439,0.167,0.732,0.167l2.326,0c0.247,0,0.463,-0.015,0.638,-0.041c0.179,-0.026,0.351,-0.073,0.513,-0.14c0.153,-0.064,0.31,-0.15,0.455,-0.254c0.143,-0.101,0.305,-0.227,0.487,-0.379c0.185,-0.153,0.343,-0.299,0.463,-0.431c0.128,-0.141,0.229,-0.294,0.304,-0.456c0.071,-0.162,0.123,-0.338,0.148,-0.523c0.025,-0.182,0.041,-0.393,0.041,-0.631l0,-7.898C146.544,208.721,146.49,208.474,146.377,208.283zM144.808,212.743c0,0.188,-0.062,0.35,-0.188,0.49c-0.15,0.172,-0.394,0.403,-0.716,0.686l-0.002,0.003l-0.002,0.004c-0.139,0.13,-0.291,0.237,-0.453,0.325c-0.148,0.082,-0.325,0.121,-0.526,0.121L142.62,214.372c-0.222,0,-0.41,-0.021,-0.563,-0.072c-0.148,-0.049,-0.301,-0.137,-0.453,-0.264c-0.231,-0.186,-0.315,-0.322,-0.346,-0.404c-0.049,-0.131,-0.072,-0.285,-0.072,-0.465l0,-2.206c0,-0.18,0.023,-0.336,0.072,-0.467c0.029,-0.082,0.113,-0.217,0.346,-0.403c0.152,-0.127,0.305,-0.216,0.453,-0.265c0.153,-0.049,0.342,-0.072,0.563,-0.072l0.301,0c0.212,0,0.388,0.037,0.526,0.113c0.152,0.082,0.308,0.191,0.457,0.324c0.322,0.293,0.564,0.529,0.716,0.7c0.128,0.146,0.188,0.304,0.188,0.492L144.808,212.743z" />
    <path fill="#8C8C8C" d="M126.398,203.523c-0.914,0,-1.66,0.745,-1.66,1.66c0,0.916,0.746,1.66,1.66,1.66s1.66,-0.744,1.66,-1.66C128.058,204.268,127.312,203.523,126.398,203.523zM126.398,205.786c-0.332,0,-0.604,-0.27,-0.604,-0.603s0.271,-0.603,0.604,-0.603s0.604,0.27,0.604,0.603C127.002,205.516,126.73,205.786,126.398,205.786z" />
    <path fill="#8C8C8C" d="M137.084,213.791l-0.107,-3.419c-0.011,-0.178,-0.021,-0.338,-0.031,-0.489c-0.01,-0.162,-0.037,-0.322,-0.082,-0.476c-0.045,-0.158,-0.11,-0.309,-0.198,-0.453c-0.093,-0.146,-0.216,-0.289,-0.37,-0.42c-0.225,-0.192,-0.443,-0.334,-0.646,-0.416c-0.207,-0.084,-0.461,-0.127,-0.754,-0.127l-1.012,0c-0.259,0,-0.501,0.058,-0.716,0.164c-0.197,0.098,-0.39,0.203,-0.572,0.315l-0.003,0.002l-0.003,0.003l-0.837,0.555l0,-0.041c0,-0.291,-0.057,-0.539,-0.168,-0.733c-0.129,-0.226,-0.367,-0.339,-0.707,-0.339c-0.411,0,-0.604,0.185,-0.693,0.339c-0.109,0.194,-0.168,0.438,-0.168,0.733l0,6.099c0,0.295,0.059,0.539,0.168,0.734c0.09,0.153,0.282,0.338,0.693,0.338c0.34,0,0.578,-0.114,0.707,-0.338c0.111,-0.195,0.168,-0.439,0.168,-0.734L131.753,211.053l1.953,-1.215c0.04,-0.024,0.082,-0.048,0.121,-0.063c0.031,-0.016,0.07,-0.025,0.115,-0.031c0.049,-0.012,0.117,-0.016,0.195,-0.016l0.362,0c0.188,0,0.334,0.021,0.435,0.059c0.082,0.029,0.143,0.076,0.18,0.143c0.05,0.078,0.08,0.18,0.098,0.303c0.02,0.139,0.034,0.309,0.045,0.504l0.096,3.097c-0.457,0.297,-0.762,0.811,-0.762,1.394c0,0.917,0.746,1.661,1.66,1.661c0.916,0,1.66,-0.744,1.66,-1.661C137.91,214.616,137.577,214.078,137.084,213.791zM136.25,215.828c-0.334,0,-0.602,-0.271,-0.602,-0.604c0,-0.333,0.268,-0.604,0.602,-0.604c0.333,0,0.604,0.271,0.604,0.604C136.855,215.559,136.583,215.828,136.25,215.828z" />
    <path fill="#8C8C8C" d="M126.461,208.015l-1.193,0c-0.293,0,-0.539,0.059,-0.731,0.169c-0.226,0.129,-0.341,0.368,-0.341,0.708c0,0.412,0.186,0.604,0.341,0.691c0.192,0.113,0.438,0.168,0.731,0.168l0.545,0l0,5.362c0,0.293,0.055,0.539,0.168,0.73c0.127,0.227,0.365,0.341,0.707,0.341c0.41,0,0.604,-0.187,0.691,-0.341c0.111,-0.191,0.17,-0.438,0.17,-0.73L127.549,209.103c0,-0.386,-0.085,-0.656,-0.259,-0.83C127.118,208.101,126.845,208.015,126.461,208.015z" />
   </g>
  </g>
 </g>
 <g partID="854107360">
  <g transform="translate(19.4174,72.7329)">
   <g transform="matrix(0,1,-1,0,0,0)">
    <g id="schematic">
     <line fill="none" y1="11.159" y2="11.159" x1="19.8" x2="21.6" stroke-width="0.7" stroke-linecap="round" stroke="#000000"/>
     <line fill="none" y1="11.159" y2="7.559" x1="7.2" x2="19.8" stroke-width="0.7" stroke-linecap="round" stroke="#000000"/>
     <circle r="0.36" fill="none" cx="7.2" cy="11.159" stroke-width="0.7" stroke="#000000"/>
     <circle r="0.36" fill="none" cx="21.6" cy="11.159" stroke-width="0.7" stroke="#000000"/>
     <g transform="matrix(1, 0, 0, 1, 2.7612, 2.718)">
      <text fill="#787878" font-size="2" font-family="'DroidSans'">1</text>
     </g>
     <g transform="matrix(1, 0, 0, 1, 24.604, 2.718)">
      <text fill="#787878" font-size="2" font-family="'DroidSans'">2</text>
     </g>
     <g transform="matrix(1, 0, 0, 1, 2.7612, 16.843)">
      <text fill="#787878" font-size="2" font-family="'DroidSans'">1</text>
     </g>
     <g transform="matrix(1, 0, 0, 1, 24.604, 16.843)">
      <text fill="#787878" font-size="2" font-family="'DroidSans'">2</text>
     </g>
     <line fill="none" y1="3.96" y2="18.359" x1="21.6" x2="21.6" stroke-width="0.7" stroke-linecap="round" stroke="#000000"/>
     <line fill="none" y1="3.96" y2="18.359" x1="7.2" x2="7.2" stroke-width="0.7" stroke-linecap="round" stroke="#000000"/>
     <line id="connector3pin" fill="none" y1="18.359" y2="18.359" x1="0.322" x2="7.2" stroke-width="0.7" stroke-linecap="round" stroke="#555555"/>
     <line id="connector2pin" fill="none" y1="3.96" y2="3.96" x1="0.322" x2="7.2" stroke-width="0.7" stroke-linecap="round" stroke="#555555"/>
     <g id="connector2terminal" fill="none" points="0.822,4.281,0.837,3.64,0,3.64,0,4.281"/>
     <g id="connector3terminal" fill="none" points="0.822,18.694,0.837,18.053,0,18.053,0,18.694"/>
     <line id="connector1pin" fill="none" y1="18.359" y2="18.359" x1="28.451" x2="21.6" stroke-width="0.7" stroke-linecap="round" stroke="#555555"/>
     <g id="connector1terminal" fill="none" y="18.006" x="27.806" width="0.994" height="0.672"/>
     <g id="connector0terminal" fill="none" y="3.6" x="27.712" width="1.088" height="0.719"/>
     <line id="connector0pin" fill="none" y1="3.96" y2="3.96" x1="28.451" x2="21.6" stroke-width="0.7" stroke-linecap="round" stroke="#555555"/>
    </g>
   </g>
  </g>
 </g>
 <g partID="58580">
  <g transform="translate(22.644,15.5514)">
   <g id="schematic">
    <rect fill="#FFFFFF" y="14.85" stroke-width="0.3175" stroke-linecap="round" x="14.85" stroke="#000000" width="78.3" height="150.3"/>
    <line id="connector61pin" fill="none" y1="28.8" y2="28.8" x1="93.25" x2="107.65" stroke-width="0.2469" stroke-linecap="round" stroke="#787878"/>
    <g transform="matrix(1, 0, 0, 1, 82.2432, 29.5)">
     <text fill="#8C8C8C" font-size="3.5" font-family="'DroidSans'">D0/RX</text>
    </g>
    <g id="connector61terminal" fill="none" y="28.45" x="107.65" width="0.699" height="0.7"/>
    <line id="connector62pin" fill="none" y1="36" y2="36" x1="93.25" x2="107.65" stroke-width="0.2469" stroke-linecap="round" stroke="#787878"/>
    <g transform="matrix(1, 0, 0, 1, 82.4912, 36.7012)">
     <text fill="#8C8C8C" font-size="3.5" font-family="'DroidSans'">D1/TX</text>
    </g>
    <g id="connector62terminal" fill="none" y="35.65" x="107.65" width="0.699" height="0.7"/>
    <line id="connector63pin" fill="none" y1="43.2" y2="43.2" x1="93.25" x2="107.65" stroke-width="0.2469" stroke-linecap="round" stroke="#787878"/>
    <g transform="matrix(1, 0, 0, 1, 87.5283, 43.9004)">
     <text fill="#8C8C8C" font-size="3.5" font-family="'DroidSans'">D2</text>
    </g>
    <g id="connector63terminal" fill="none" y="42.85" x="107.65" width="0.699" height="0.7"/>
    <line id="connector64pin" fill="none" y1="50.4" y2="50.4" x1="93.25" x2="107.65" stroke-width="0.2469" stroke-linecap="round" stroke="#787878"/>
    <g transform="matrix(1, 0, 0, 1, 78.4639, 51.0996)">
     <text fill="#8C8C8C" font-size="3.5" font-family="'DroidSans'">D3 PWM</text>
    </g>
    <g id="connector64terminal" fill="none" y="50.05" x="107.65" width="0.699" height="0.7"/>
    <line id="connector65pin" fill="none" y1="57.6" y2="57.6" x1="93.25" x2="107.65" stroke-width="0.2469" stroke-linecap="round" stroke="#787878"/>
    <g transform="matrix(1, 0, 0, 1, 87.5283, 58.3008)">
     <text fill="#8C8C8C" font-size="3.5" font-family="'DroidSans'">D4</text>
    </g>
    <g id="connector65terminal" fill="none" y="57.25" x="107.65" width="0.699" height="0.7"/>
    <line id="connector66pin" fill="none" y1="64.8" y2="64.8" x1="93.25" x2="107.65" stroke-width="0.2469" stroke-linecap="round" stroke="#787878"/>
    <g transform="matrix(1, 0, 0, 1, 78.4639, 65.5)">
     <text fill="#8C8C8C" font-size="3.5" font-family="'DroidSans'">D5 PWM</text>
    </g>
    <g id="connector66terminal" fill="none" y="64.45" x="107.65" width="0.699" height="0.7"/>
    <line id="connector67pin" fill="none" y1="72" y2="72" x1="93.25" x2="107.65" stroke-width="0.2469" stroke-linecap="round" stroke="#787878"/>
    <g transform="matrix(1, 0, 0, 1, 78.4639, 72.7012)">
     <text fill="#8C8C8C" font-size="3.5" font-family="'DroidSans'">D6 PWM</text>
    </g>
    <g id="connector67terminal" fill="none" y="71.65" x="107.65" width="0.699" height="0.7"/>
    <line id="connector68pin" fill="none" y1="79.2" y2="79.2" x1="93.25" x2="107.65" stroke-width="0.2469" stroke-linecap="round" stroke="#787878"/>
    <g transform="matrix(1, 0, 0, 1, 87.5283, 79.9004)">
     <text fill="#8C8C8C" font-size="3.5" font-family="'DroidSans'">D7</text>
    </g>
    <g id="connector68terminal" fill="none" y="78.85" x="107.65" width="0.699" height="0.7"/>
    <line id="connector51pin" fill="none" y1="86.4" y2="86.4" x1="93.25" x2="107.65" stroke-width="0.2469" stroke-linecap="round" stroke="#787878"/>
    <g transform="matrix(1, 0, 0, 1, 87.5283, 87.0996)">
     <text fill="#8C8C8C" font-size="3.5" font-family="'DroidSans'">D8</text>
    </g>
    <g id="connector51terminal" fill="none" y="86.05" x="107.65" width="0.699" height="0.7"/>
    <line id="connector52pin" fill="none" y1="93.6" y2="93.6" x1="93.25" x2="107.65" stroke-width="0.2469" stroke-linecap="round" stroke="#787878"/>
    <g transform="matrix(1, 0, 0, 1, 78.4639, 94.3008)">
     <text fill="#8C8C8C" font-size="3.5" font-family="'DroidSans'">D9 PWM</text>
    </g>
    <g id="connector52terminal" fill="none" y="93.25" x="107.65" width="0.699" height="0.699"/>
    <line id="connector53pin" fill="none" y1="100.8" y2="100.8" x1="93.25" x2="107.65" stroke-width="0.2469" stroke-linecap="round" stroke="#787878"/>
    <g transform="matrix(1, 0, 0, 1, 71.5967, 101.5)">
     <text fill="#8C8C8C" font-size="3.5" font-family="'DroidSans'">D10 PWM/SS</text>
    </g>
    <g id="connector53terminal" fill="none" y="100.449" x="107.65" width="0.699" height="0.701"/>
    <line id="connector54pin" fill="none" y1="108" y2="108" x1="93.25" x2="107.65" stroke-width="0.2469" stroke-linecap="round" stroke="#787878"/>
    <g transform="matrix(1, 0, 0, 1, 66.585, 108.701)">
     <text fill="#8C8C8C" font-size="3.5" font-family="'DroidSans'">D11 PWM/MOSI</text>
    </g>
    <g id="connector54terminal" fill="none" y="107.65" x="107.65" width="0.699" height="0.699"/>
    <line id="connector55pin" fill="none" y1="115.2" y2="115.2" x1="93.25" x2="107.65" stroke-width="0.2469" stroke-linecap="round" stroke="#787878"/>
    <g transform="matrix(1, 0, 0, 1, 75.6494, 115.9)">
     <text fill="#8C8C8C" font-size="3.5" font-family="'DroidSans'">D12/MISO</text>
    </g>
    <g id="connector55terminal" fill="none" y="114.85" x="107.65" width="0.699" height="0.7"/>
    <line id="connector41pin" fill="none" y1="122.4" y2="122.4" x1="93.25" x2="107.65"/>
    <rect id="connector41terminal" fill="none" y="122.05" x="107.65" width="0.699" height="0.7"/>
    <line id="connector56pin" fill="none" y1="122.4" y2="122.4" x1="93.25" x2="107.65" stroke-width="0.2469" stroke-linecap="round" stroke="#787878"/>
    <g transform="matrix(1, 0, 0, 1, 78.3408, 123.1)">
     <text fill="#8C8C8C" font-size="3.5" font-family="'DroidSans'">D13/SCK</text>
    </g>
    <g id="connector56terminal" fill="none" y="122.05" x="107.65" width="0.699" height="0.7"/>
    <line id="connector43pin" fill="none" y1="28.8" y2="28.8" x1="0.35" x2="14.75"/>
    <g id="connector43terminal" fill="none" y="28.45" x="-0.35" width="0.7" height="0.7"/>
    <line id="connector85pin" fill="none" y1="28.8" y2="28.8" x1="0.35" x2="14.75" stroke-width="0.2469" stroke-linecap="round" stroke="#787878"/>
    <g transform="matrix(1, 0, 0, 1, 16.1494, 29.5)">
     <text fill="#8C8C8C" font-size="3.5" font-family="'DroidSans'">RESET</text>
    </g>
    <g id="connector85terminal" fill="none" y="28.45" x="-0.35" width="0.7" height="0.7"/>
    <line id="connector49pin" fill="none" y1="36" y2="36" x1="0.35" x2="14.75" stroke-width="0.2469" stroke-linecap="round" stroke="#787878"/>
    <g transform="matrix(1, 0, 0, 1, 16.1494, 36.7012)">
     <text fill="#8C8C8C" font-size="3.5" font-family="'DroidSans'">RESET2</text>
    </g>
    <rect id="connector49terminal" fill="none" y="35.65" x="-0.35" width="0.7" height="0.7"/>
    <line id="connector58pin" fill="none" y1="43.2" y2="43.2" x1="0.35" x2="14.75" stroke-width="0.2469" stroke-linecap="round" stroke="#787878"/>
    <g transform="matrix(1, 0, 0, 1, 16.1494, 43.9004)">
     <text fill="#8C8C8C" font-size="3.5" font-family="'DroidSans'">AREF</text>
    </g>
    <g id="connector58terminal" fill="none" y="42.85" x="-0.35" width="0.7" height="0.7"/>
    <line id="connector84pin" fill="none" y1="50.4" y2="50.4" x1="0.35" x2="14.75" stroke-width="0.2469" stroke-linecap="round" stroke="#787878"/>
    <g transform="matrix(1, 0, 0, 1, 16.1494, 51.0996)">
     <text fill="#8C8C8C" font-size="3.5" font-family="'DroidSans'">I</text>
    </g>
    <g transform="matrix(1, 0, 0, 1, 17.3013, 51.0996)">
     <text fill="#8C8C8C" font-size="3.5" font-family="'DroidSans'">O</text>
    </g>
    <g transform="matrix(1, 0, 0, 1, 19.8989, 51.0996)">
     <text fill="#8C8C8C" font-size="3.5" font-family="'DroidSans'">R</text>
    </g>
    <g transform="matrix(1, 0, 0, 1, 21.9634, 51.0996)">
     <text fill="#8C8C8C" font-size="3.5" font-family="'DroidSans'">E</text>
    </g>
    <g transform="matrix(1, 0, 0, 1, 23.8105, 51.0996)">
     <text fill="#8C8C8C" font-size="3.5" font-family="'DroidSans'">F</text>
    </g>
    <g id="connector84terminal" fill="none" y="50.05" x="-0.35" width="0.7" height="0.7"/>
    <line id="connector0pin" fill="none" y1="64.8" y2="64.8" x1="0.35" x2="14.75" stroke-width="0.2469" stroke-linecap="round" stroke="#787878"/>
    <g transform="matrix(1, 0, 0, 1, 16.1494, 65.5)">
     <text fill="#8C8C8C" font-size="3.5" font-family="'DroidSans'">A0</text>
    </g>
    <g id="connector0terminal" fill="none" y="64.45" x="-0.35" width="0.7" height="0.7"/>
    <line id="connector1pin" fill="none" y1="72" y2="72" x1="0.35" x2="14.75" stroke-width="0.2469" stroke-linecap="round" stroke="#787878"/>
    <g transform="matrix(1, 0, 0, 1, 16.1494, 72.7012)">
     <text fill="#8C8C8C" font-size="3.5" font-family="'DroidSans'">A1</text>
    </g>
    <g id="connector1terminal" fill="none" y="71.65" x="-0.35" width="0.7" height="0.7"/>
    <line id="connector2pin" fill="none" y1="79.2" y2="79.2" x1="0.35" x2="14.75" stroke-width="0.2469" stroke-linecap="round" stroke="#787878"/>
    <g transform="matrix(1, 0, 0, 1, 16.1494, 79.9004)">
     <text fill="#8C8C8C" font-size="3.5" font-family="'DroidSans'">A2</text>
    </g>
    <g id="connector2terminal" fill="none" y="78.85" x="-0.35" width="0.7" height="0.7"/>
    <line id="connector3pin" fill="none" y1="86.4" y2="86.4" x1="0.35" x2="14.75" stroke-width="0.2469" stroke-linecap="round" stroke="#787878"/>
    <g transform="matrix(1, 0, 0, 1, 16.1494, 87.0996)">
     <text fill="#8C8C8C" font-size="3.5" font-family="'DroidSans'">A3</text>
    </g>
    <g id="connector3terminal" fill="none" y="86.05" x="-0.35" width="0.7" height="0.7"/>
    <line id="connector39pin" fill="none" y1="93.6" y2="93.6" x1="0.35" x2="14.75"/>
    <g id="connector39terminal" fill="none" y="93.25" x="-0.35" width="0.7" height="0.699"/>
    <line id="connector42pin" fill="none" y1="93.6" y2="93.6" x1="0.35" x2="14.75" stroke-width="0.2469" stroke-linecap="round" stroke="#787878"/>
    <g id="connector42terminal" fill="none" y="93.25" x="-0.35" width="0.7" height="0.699"/>
    <line id="connector4pin" fill="none" y1="93.6" y2="93.6" x1="0.35" x2="14.75"/>
    <g id="connector4terminal" fill="none" y="93.25" x="-0.35" width="0.7" height="0.699"/>
    <line id="connector59pin" fill="none" y1="93.6" y2="93.6" x1="0.35" x2="14.75" stroke-width="0.2469" stroke-linecap="round" stroke="#787878"/>
    <g id="connector59terminal" fill="none" y="93.25" x="-0.35" width="0.7" height="0.699"/>
    <line id="connector5pin" fill="none" y1="100.8" y2="100.8" x1="0.35" x2="14.75"/>
    <g id="connector5terminal" fill="none" y="100.449" x="-0.35" width="0.7" height="0.701"/>
    <line id="connector60pin" fill="none" y1="100.8" y2="100.8" x1="0.35" x2="14.75" stroke-width="0.2469" stroke-linecap="round" stroke="#787878"/>
    <g id="connector60terminal" fill="none" y="100.449" x="-0.35" width="0.7" height="0.701"/>
    <line id="connector91pin" fill="none" y1="136.8" y2="136.8" x1="0.35" x2="14.75" stroke-width="0.2469" stroke-linecap="round" stroke="#787878"/>
    <g transform="matrix(1, 0, 0, 1, 16.1494, 137.5)">
     <text fill="#8C8C8C" font-size="3.5" font-family="'DroidSans'">N/C</text>
    </g>
    <g id="connector91terminal" fill="none" y="136.449" x="-0.35" width="0.7" height="0.701"/>
    <line id="connector88pin" fill="none" y1="165.25" y2="179.65" x1="57.6" x2="57.6"/>
    <g id="connector88terminal" fill="none" y="179.65" x="57.25" width="0.699" height="0.699"/>
    <line id="connector57pin" fill="none" y1="165.25" y2="179.65" x1="57.6" x2="57.6"/>
    <g id="connector57terminal" fill="none" y="179.65" x="57.25" width="0.699" height="0.699"/>
    <line id="connector44pin" fill="none" y1="165.25" y2="179.65" x1="57.6" x2="57.6"/>
    <g id="connector44terminal" fill="none" y="179.65" x="57.25" width="0.699" height="0.699"/>
    <line id="connector50pin" fill="none" y1="165.25" y2="179.65" x1="57.6" x2="57.6"/>
    <rect id="connector50terminal" fill="none" y="179.65" x="57.25" width="0.699" height="0.699"/>
    <line id="connector89pin" fill="none" y1="165.25" y2="179.65" x1="57.6" x2="57.6" stroke-width="0.2469" stroke-linecap="round" stroke="#787878"/>
    <g transform="matrix(1, 0, 0, 1, 20.5669, 57.8026)">
     <g>
      <g transform="rotate(270)">
       <g>
        <g transform="matrix(1, 0, 0, 1, -106.047, 37.7329)">
         <text fill="#8C8C8C" font-size="3.5" font-family="'DroidSans'">GND</text>
        </g>
       </g>
      </g>
     </g>
    </g>
    <g id="connector89terminal" fill="none" y="179.65" x="57.25" width="0.699" height="0.699"/>
    <line id="connector86pin" fill="none" y1="0.35" y2="14.75" x1="36" x2="36" stroke-width="0.2469" stroke-linecap="round" stroke="#787878"/>
    <g transform="matrix(1, 0, 0, 1, 12.9469, 5.69736)">
     <g>
      <g transform="rotate(270)">
       <g>
        <g transform="matrix(1, 0, 0, 1, -16.2968, 23.7533)">
         <text fill="#8C8C8C" font-size="3.5" font-family="'DroidSans'">3V3</text>
        </g>
       </g>
      </g>
     </g>
    </g>
    <g id="connector86terminal" fill="none" y="-0.35" x="35.65" width="0.7" height="0.7"/>
    <line id="connector40pin" fill="none" y1="0.35" y2="14.75" x1="50.4" x2="50.4"/>
    <g id="connector40terminal" fill="none" y="-0.35" x="50.05" width="0.7" height="0.7"/>
    <line id="connector46pin" fill="none" y1="0.35" y2="14.75" x1="50.4" x2="50.4"/>
    <rect id="connector46terminal" fill="none" y="-0.35" x="50.05" width="0.7" height="0.7"/>
    <line id="connector87pin" fill="none" y1="0.35" y2="14.75" x1="50.4" x2="50.4" stroke-width="0.2469" stroke-linecap="round" stroke="#787878"/>
    <g transform="matrix(1, 0, 0, 1, 18.0269, 5.69736)">
     <g>
      <g transform="rotate(270)">
       <g>
        <g transform="matrix(1, 0, 0, 1, -14.369, 33.0737)">
         <text fill="#8C8C8C" font-size="3.5" font-family="'DroidSans'">5V</text>
        </g>
       </g>
      </g>
     </g>
    </g>
    <g id="connector87terminal" fill="none" y="-0.35" x="50.05" width="0.7" height="0.7"/>
    <line id="connector90pin" fill="none" y1="0.35" y2="14.75" x1="64.8" x2="64.8" stroke-width="0.2469" stroke-linecap="round" stroke="#787878"/>
    <g transform="matrix(1, 0, 0, 1, 23.1069, 5.69736)">
     <g>
      <g transform="rotate(270)">
       <g>
        <g transform="matrix(1, 0, 0, 1, -16.1776, 42.3922)">
         <text fill="#8C8C8C" font-size="3.5" font-family="'DroidSans'">VIN</text>
        </g>
       </g>
      </g>
     </g>
    </g>
    <g id="connector90terminal" fill="none" y="-0.35" x="64.449" width="0.701" height="0.7"/>
    <g transform="matrix(1, 0, 0, 1, 46.7861, 81.3828)">
     <text id="label" font-size="4.25" font-family="'DroidSans'">Arduino</text>
    </g>
    <g transform="matrix(1, 0, 0, 1, 50.4893, 85.916)">
     <text id="label_1_" font-size="4.25" font-family="'DroidSans'">Uno</text>
    </g>
    <g transform="matrix(1, 0, 0, 1, 48.5928, 90.4512)">
     <text id="label_2_" font-size="4.25" font-family="'DroidSans'">(Rev3)</text>
    </g>
    <g transform="matrix(1, 0, 0, 1, 50.1416, 94.9844)">
     <text font-size="4.25" font-family="'DroidSans'">I</text>
    </g>
    <g transform="matrix(1, 0, 0, 1, 51.54, 94.9844)">
     <text font-size="4.25" font-family="'DroidSans'">C</text>
    </g>
    <g transform="matrix(1, 0, 0, 1, 54.103, 94.9844)">
     <text font-size="4.25" font-family="'DroidSans'">S</text>
    </g>
    <g transform="matrix(1, 0, 0, 1, 56.3086, 94.9844)">
     <text font-size="4.25" font-family="'DroidSans'">P</text>
    </g>
    <g transform="matrix(1, 0, 0, 1, 16.1494, 94.9844)">
     <text fill="#8C8C8C" font-size="3.5" font-family="'DroidSans'">A4/SDA</text>
    </g>
    <g transform="matrix(1, 0, 0, 1, 16.1494, 102.184)">
     <text fill="#8C8C8C" font-size="3.5" font-family="'DroidSans'">A5/SCL</text>
    </g>
   </g>
  </g>
 </g>
 <g partID="854108540">
  <g transform="translate(18.5401,15.2013)">
   <g transform="matrix(0,1,-1,0,0,0)">
    <g id="schematic" >
     <line y1="3.096" y2="0.216" x1="7.55002" x2="8.63003" class="other" stroke-width="0.432002" stroke-linecap="round"  stroke="#000000"/>
     <line y1="0.216" y2="5.976" x1="8.63003" x2="10.43" class="other" stroke-width="0.432002" stroke-linecap="round"  stroke="#000000"/>
     <line y1="5.976" y2="0.216" x1="10.43" x2="12.23" class="other" stroke-width="0.432002" stroke-linecap="round"  stroke="#000000"/>
     <line y1="0.216" y2="5.976" x1="12.23" x2="14.03" class="other" stroke-width="0.432002" stroke-linecap="round"  stroke="#000000"/>
     <line y1="5.976" y2="0.216" x1="14.03" x2="15.8301" class="other" stroke-width="0.432002" stroke-linecap="round"  stroke="#000000"/>
     <line y1="0.216" y2="5.976" x1="15.8301" x2="17.6301" class="other" stroke-width="0.432002" stroke-linecap="round"  stroke="#000000"/>
     <line y1="5.976" y2="0.216" x1="17.6301" x2="19.4301" class="other" stroke-width="0.432002" stroke-linecap="round"  stroke="#000000"/>
     <line y1="0.216" y2="5.976" x1="19.4301" x2="21.2301" class="other" stroke-width="0.432002" stroke-linecap="round"  stroke="#000000"/>
     <line y1="5.976" y2="3.096" x1="21.2301" x2="21.9501" class="other" stroke-width="0.432002" stroke-linecap="round"  stroke="#000000"/>
     <line id="connector1pin" y1="3.096" y2="3.096" x1="29.1502" x2="21.9501" class="pin" connectorname="2" stroke-width="0.700001" stroke-linecap="round"  stroke="#787878"/>
     <g id="connector1terminal" fill="none" y="3.096" class="terminal" stroke-width="0"  x="29.1502" stroke="none" width="0.000283466" height="0.000283465"/>
     <text text-anchor="middle" fill="#8c8c8c" font-size="2.50001" font-family="'Droid Sans'" y="2.046" class="text" stroke-width="0"  stroke="none" x="25.5501">2</text>
     <line id="connector0pin" y1="3.096" y2="3.096" x1="0.350001" x2="7.55002" class="pin" connectorname="1" stroke-width="0.700001" stroke-linecap="round"  stroke="#787878"/>
     <g id="connector0terminal" fill="none" y="3.096" class="terminal" stroke-width="0"  x="0.350001" stroke="none" width="0.000283466" height="0.000283465"/>
     <text text-anchor="middle" fill="#8c8c8c" font-size="2.50001" font-family="'Droid Sans'" y="2.046" class="text" stroke-width="0"  stroke="none" x="3.95001">1</text>
    </g>
   </g>
  </g>
 </g>
 <g partID="854112460">
  <line y1="195.672" y2="100.989" x1="15.3623" x2="15.4579" stroke-linecap="round" stroke-width="0.699998" stroke="#404040"/>
 </g>
 <g partID="854112470">
  <line y1="195.551" y2="195.672" x1="80.2435" x2="15.3623" stroke-linecap="round" stroke-width="0.699998" stroke="#404040"/>
 </g>
 <g partID="854110070">
  <line y1="73.1293" y2="44.3516" x1="15.455" x2="15.444" stroke-linecap="round" stroke-width="0.699998" stroke="#404040"/>
 </g>
 <g partID="854110080">
  <line y1="73.1514" y2="73.1293" x1="15.4569" x2="15.455" stroke-linecap="round" stroke-width="0.699998" stroke="#404040"/>
 </g>
 <circle r="1.44" fill="black" cx="15.4569" cy="73.1514" stroke-width="0" stroke="none"/>
 <g partID="854110290">
  <line y1="8.36246" y2="15.5514" x1="73.1342" x2="73.044" stroke-linecap="round" stroke-width="0.699998" stroke="#404040"/>
 </g>
 <g partID="854110230">
  <line y1="8.36247" y2="8.36246" x1="15.3316" x2="73.1342" stroke-linecap="round" stroke-width="0.699998" stroke="#404040"/>
 </g>
 <g partID="854110240">
  <line y1="15.5514" y2="8.36247" x1="15.444" x2="15.3316" stroke-linecap="round" stroke-width="0.699998" stroke="#404040"/>
 </g>
 <g partID="854111200">
  <line y1="51.5453" y2="73.1514" x1="15.3623" x2="15.4569" stroke-linecap="round" stroke-width="0.699998" stroke="#404040"/>
 </g>
 <circle r="1.44" fill="black" cx="15.4569" cy="73.1514" stroke-width="0" stroke="none"/>
 <g partID="854111130">
  <line y1="51.5453" y2="51.5453" x1="15.3623" x2="15.3623" stroke-linecap="round" stroke-width="0.699998" stroke="#404040"/>
 </g>
 <g partID="854111420">
  <line y1="51.5453" y2="51.5453" x1="1.05006" x2="15.3623" stroke-linecap="round" stroke-width="0.699998" stroke="#404040"/>
 </g>
 <g partID="854110510">
  <line y1="1.05006" y2="51.5453" x1="1.05518" x2="1.05006" stroke-linecap="round" stroke-width="0.699998" stroke="#404040"/>
 </g>
 <g partID="854110440">
  <line y1="1.05014" y2="1.05006" x1="137.901" x2="1.05518" stroke-linecap="round" stroke-width="0.699998" stroke="#404040"/>
 </g>
 <g partID="854110360">
  <line y1="58.8528" y2="1.05014" x1="137.901" x2="137.901" stroke-linecap="round" stroke-width="0.699998" stroke="#404040"/>
 </g>
 <g partID="854110370">
  <line y1="58.7514" y2="58.8528" x1="130.643" x2="137.901" stroke-linecap="round" stroke-width="0.699998" stroke="#404040"/>
 </g>
 <g id="partLabel" partID="58580">
  <g transform="translate(90.5447,23.4214)">
   <g transform="matrix(1,0,0,1,0,0)">
    <g id="schematicLabel" fill="#000000" font-size="5" font-style="normal" font-family="'DroidSans'" fill-opacity="1" font-weight="normal" stroke="none">
     <text y="3.75" x="0">Microcontroller</text>
    </g>
   </g>
  </g>
 </g>
 <g id="partLabel" partID="854107360">
  <g transform="translate(0.510592,64.7264)">
   <g id="schematicLabel" fill="#000000" font-size="5" font-style="normal" font-family="'DroidSans'" fill-opacity="1" font-weight="normal" stroke="none">
    <text y="3.75" x="0">S1</text>
   </g>
  </g>
 </g>
 <g id="partLabel" partID="854108540">
  <g transform="translate(20.1697,14.2531)">
   <g id="schematicLabel" fill="#000000" font-size="5" font-style="normal" font-family="'DroidSans'" fill-opacity="1" font-weight="normal" stroke="none">
    <text y="3.75" x="0">R2</text>
    <text y="8.75" x="0">10k&#x3a9;</text>
    <text y="13.75" x="0">0.25</text>
   </g>
  </g>
 </g>
</svg>
