<?xml version="1.0" encoding="UTF-8" standalone="no"?>
<!-- Created with Inkscape (http://www.inkscape.org/) -->
<svg xmlns:dc="http://purl.org/dc/elements/1.1/" xmlns:cc="http://creativecommons.org/ns#" xmlns:rdf="http://www.w3.org/1999/02/22-rdf-syntax-ns#" xmlns:svg="http://www.w3.org/2000/svg" xmlns="http://www.w3.org/2000/svg" xmlns:sodipodi="http://sodipodi.sourceforge.net/DTD/sodipodi-0.dtd" xmlns:inkscape="http://www.inkscape.org/namespaces/inkscape" width="61.793877mm" height="59.846996mm" viewBox="0 0 61.793877 59.846996" version="1.1" id="svg8" inkscape:version="0.92.2 5c3e80d, 2017-08-06" sodipodi:docname="kitchensink.svg">
  <defs id="defs2"/>
  <sodipodi:namedview id="base" pagecolor="#ffffff" bordercolor="#666666" borderopacity="1.0" inkscape:pageopacity="0.0" inkscape:pageshadow="2" inkscape:zoom="0.98994949" inkscape:cx="142.96316" inkscape:cy="64.879311" inkscape:document-units="mm" inkscape:current-layer="layer2" showgrid="false" inkscape:snap-global="false" inkscape:window-width="1148" inkscape:window-height="929" inkscape:window-x="715" inkscape:window-y="88" inkscape:window-maximized="0" showguides="false" fit-margin-top="0" fit-margin-left="0" fit-margin-right="0" fit-margin-bottom="0"/>
  <metadata id="metadata5">
    <rdf:RDF>
      <cc:Work rdf:about="">
        <dc:format>image/svg+xml</dc:format>
        <dc:type rdf:resource="http://purl.org/dc/dcmitype/StillImage"/>
        <dc:title/>
      </cc:Work>
    </rdf:RDF>
  </metadata>
  <g inkscape:groupmode="layer" id="layer2" inkscape:label="Layer 2" style="display:inline" transform="translate(-88.789521,-111.93573)"/>
  <g inkscape:label="Layer 1" inkscape:groupmode="layer" id="layer1" style="display:inline" transform="translate(-88.789521,-111.93573)">
    <path style="fill:none;fill-opacity:1;stroke:#0b0000;stroke-width:1.32291663;stroke-linecap:round;stroke-linejoin:round;stroke-miterlimit:4;stroke-dasharray:none;stroke-opacity:1" d="m 119.44048,128.6116 c 0,0 -29.522161,12.78842 -29.980327,14.63037 -0.302401,1.21573 29.368827,16.64701 31.492227,16.74166 2.1234,0.0947 28.5372,-19.46578 28.5372,-19.46578 z" id="path817" inkscape:connector-curvature="0" sodipodi:nodetypes="cszcc"/>
    <path style="fill:none;stroke:#000000;stroke-width:1.32291663;stroke-linecap:round;stroke-linejoin:round;stroke-miterlimit:4;stroke-dasharray:none;stroke-opacity:1" d="m 101.50201,147.18779 11.24722,-5.06238 16.74723,8.19133" id="path849" inkscape:connector-curvature="0" sodipodi:nodetypes="ccc"/>
    <path style="fill:#cccccc;fill-opacity:0.90686275;stroke:none;stroke-width:0.26458332px;stroke-linecap:butt;stroke-linejoin:miter;stroke-opacity:1" d="m 90.336308,143.73065 c 2.084297,6.31499 2.620992,12.30879 30.616072,24.00149 10.62519,-7.94516 28.63111,-10.57619 27.97024,-26.64732 l 0.75595,6.61458 v 3.02381 L 122.2753,170.94494 89.391369,152.6131 Z" id="path945" inkscape:connector-curvature="0" sodipodi:nodetypes="ccc"/>
    <path style="fill:none;stroke:#000000;stroke-width:1.32291663;stroke-linecap:round;stroke-linejoin:round;stroke-miterlimit:4;stroke-dasharray:none;stroke-opacity:1" d="m 89.802561,143.32002 0.133634,9.6217 31.671445,18.17433 -0.66818,-11.22532" id="path855" inkscape:connector-curvature="0" sodipodi:nodetypes="cccc"/>
    <path style="fill:none;stroke:#000000;stroke-width:1.32291663;stroke-linecap:round;stroke-linejoin:round;stroke-miterlimit:4;stroke-dasharray:none;stroke-opacity:1" d="m 121.60763,171.11605 c 0,0 25.04435,-16.53979 27.92967,-20.31248 0.86513,-1.1312 0,-10.15624 0,-10.15624" id="path857" inkscape:connector-curvature="0" sodipodi:nodetypes="csc"/>
    <path style="fill:#cccccc;fill-opacity:0.90686275;stroke:none;stroke-width:0.26458332px;stroke-linecap:butt;stroke-linejoin:miter;stroke-opacity:1" d="m 110.93601,132.95833 c 7.07212,-4.49666 23.89831,0.86384 34.77381,10.20535 l 3.2128,-2.45684 -29.29316,-11.71726 z" id="path951" inkscape:connector-curvature="0" sodipodi:nodetypes="ccccc"/>
    <ellipse style="opacity:1;fill:#ffffff;fill-opacity:1;stroke:#000000;stroke-width:1.05833328;stroke-linecap:round;stroke-linejoin:round;stroke-miterlimit:4;stroke-dasharray:none;stroke-opacity:1" id="path908" cx="160.7971" cy="97.380783" rx="3.7417734" ry="1.3363476" transform="rotate(15.542367)"/>
    <path style="opacity:1;fill:#a3a3a3;fill-opacity:1;stroke:#000000;stroke-width:1.05833328;stroke-linecap:round;stroke-linejoin:round;stroke-miterlimit:4;stroke-dasharray:none;stroke-opacity:1" d="m 127.65114,112.52055 c -4.20167,-0.49036 -7.97935,2.29624 -8.43749,6.22391 -0.003,0.0416 -0.006,1.08536 -0.008,1.12702 l 1.81752,-0.79019 c 0.002,-0.0416 0.005,-0.0832 0.009,-0.12466 1.19438,-3.0573 3.39807,-4.2727 6.2192,-3.93387 3.19689,0.37298 3.00954,1.80017 2.66076,4.78856 -0.0144,0.10216 -0.0323,0.20382 -0.0524,0.30504 0.006,0.0271 0.009,0.0542 0.006,0.0832 l -2.07719,17.80373 1.55532,0.18152 c 0.14654,0.0167 0.27792,-0.0874 0.29501,-0.23394 l 2.09159,-17.92717 0.008,-0.0666 c 0.001,-0.006 -0.001,-0.011 -0.002,-0.0164 0.40609,-3.89965 0.0786,-6.93262 -4.08716,-7.42023 z" id="path893" inkscape:connector-curvature="0" sodipodi:nodetypes="ccccccccccccccccc"/>
    <path sodipodi:nodetypes="ccccc" inkscape:connector-curvature="0" id="path853" d="m 114.40254,134.7781 -19.340646,9.05916 25.245706,13.16419 17.34134,-11.38725 z" style="fill:none;fill-opacity:1;stroke:#0b0000;stroke-width:1.32291663;stroke-linecap:round;stroke-linejoin:round;stroke-miterlimit:4;stroke-dasharray:none;stroke-opacity:1"/>
    <path style="fill:#72a8bc;fill-opacity:0.90686275;stroke:#006fb4;stroke-width:0.26458332px;stroke-linecap:butt;stroke-linejoin:miter;stroke-opacity:1" d="m 114.52678,137.49405 c -11.72048,6.71356 -10.87639,5.13151 -15.874996,7.37053 l 21.733636,11.52827 13.98511,-8.88244 c -6.46176,-3.58092 -16.46351,-6.82289 -19.84375,-10.01636 z" id="path922" inkscape:connector-curvature="0" sodipodi:nodetypes="ccccc"/>
    <path style="opacity:1;fill:#ffffff;fill-opacity:0.90686275;stroke:none;stroke-width:3.57142854;stroke-linecap:round;stroke-linejoin:round;stroke-miterlimit:4;stroke-dasharray:none;stroke-opacity:0.99509804" d="m 500.63641,552.94528 c -2.73399,-1.40253 -13.98399,-6.55216 -25,-11.44362 -25.26802,-11.21979 -31.96878,-14.70892 -42.10196,-21.92272 -0.58523,-0.41663 -4.39337,1.31366 -11.26032,5.11631 -12.30925,6.81638 -21.62324,11.49265 -27.02399,13.56791 -2.16071,0.83026 -8.34486,3.14264 -13.74254,5.13862 l -9.81397,3.62904 -2.93382,-1.49672 c -1.6136,-0.8232 -2.80158,-1.62896 -2.63995,-1.79059 0.16163,-0.16163 15.05885,-7.23646 33.10494,-15.72184 28.20556,-13.26243 33.06171,-15.33358 34.59677,-14.75556 0.98214,0.36982 19.56504,8.97102 41.29534,19.11379 l 39.50962,18.44139 -3.76224,2.37216 c -2.06923,1.30469 -4.09856,2.35635 -4.50962,2.33703 -0.41106,-0.0193 -2.98429,-1.18266 -5.71826,-2.5852 z" id="path941" inkscape:connector-curvature="0" transform="scale(0.26458333)"/>
    <path style="opacity:1;fill:#ffffff;fill-opacity:0.90686275;stroke:none;stroke-width:3.57142854;stroke-linecap:round;stroke-linejoin:round;stroke-miterlimit:4;stroke-dasharray:none;stroke-opacity:0.99509804" d="m 442.75014,627.60355 c -48.40538,-21.16029 -77.93466,-40.38759 -90.2069,-58.73611 -4.03846,-6.03801 -10.13124,-19.92881 -8.26248,-18.83747 26.56807,15.51549 44.04666,24.97589 73.46959,39.76593 11.39297,5.72691 24.0894,11.83872 28.21428,13.58179 4.12489,1.74308 7.71262,3.35022 7.97273,3.57143 0.46342,0.39412 2.29016,25.77283 1.87906,26.10561 -0.11502,0.0931 -5.99485,-2.35992 -13.06628,-5.45118 z" id="path947" inkscape:connector-curvature="0" transform="scale(0.26458333)"/>
    <path style="opacity:1;fill:#ffffff;fill-opacity:0.90686275;stroke:none;stroke-width:3.57142854;stroke-linecap:round;stroke-linejoin:round;stroke-miterlimit:4;stroke-dasharray:none;stroke-opacity:0.99509804" d="m 461.38869,627.78443 c -0.2095,-1.41678 -0.58054,-6.75453 -0.82454,-11.86168 l -0.44362,-9.28571 4.82491,-2.46016 c 9.16116,-4.67116 48.78696,-31.96662 84.7724,-58.3938 6.58223,-4.83389 12.17445,-8.7889 12.42716,-8.7889 0.2527,0 0.27164,2.8125 0.0421,6.25 -1.38794,20.78398 -14.20305,38.27576 -39.19863,53.50357 -3.65074,2.2241 -15.32285,8.54025 -25.93801,14.03587 -10.61517,5.49563 -22.89592,12.14862 -27.29057,14.78442 l -7.99026,4.79236 -0.38092,-2.57597 z" id="path949" inkscape:connector-curvature="0" transform="scale(0.26458333)"/>
    <path style="opacity:1;fill:#ffffff;fill-opacity:0.90686275;stroke:none;stroke-width:3.57142854;stroke-linecap:round;stroke-linejoin:round;stroke-miterlimit:4;stroke-dasharray:none;stroke-opacity:0.99509804" d="m 450.60728,599.3884 c -24.81449,-10.61215 -105.54212,-53.64844 -107.95387,-57.55073 -0.52131,-0.8435 -0.54873,-0.82507 9.71123,-6.52831 9.18359,-5.10493 32.12234,-16.10637 59.23339,-28.40839 18.99751,-8.62039 20.67769,-9.24618 26.63776,-9.92135 7.88842,-0.89361 19.15907,0.0603 30.39447,2.57238 12.82475,2.86749 13.36656,3.12718 13.62091,6.52862 l 0.21532,2.8794 -4.4287,0.32034 c -4.84856,0.35072 -7.07336,2.0047 -7.07336,5.25857 0,2.49193 4.43116,6.35247 9.87478,8.60314 4.11177,1.70001 5.78412,1.9779 12.1498,2.01888 6.98811,0.045 7.45702,-0.0453 8.79395,-1.69303 2.51515,-3.09989 0.43469,-6.99539 -5.38479,-10.08262 -2.64137,-1.40124 -2.97612,-1.84996 -2.71375,-3.63762 0.16461,-1.12157 0.59449,-2.03921 0.95527,-2.03921 1.45993,0 18.03042,7.94883 25.32151,12.14668 12.69246,7.30769 27.8168,17.97299 27.84987,19.63903 0.0346,1.74008 -67.84729,49.44629 -83.67391,58.80463 -5.8739,3.47326 -7.62616,3.61437 -13.52988,1.08959 z m 38.33406,-25.07279 c 18.625,-12.22803 33.64487,-22.55369 33.88373,-23.29393 0.23597,-0.73131 -0.006,-1.76481 -0.53797,-2.29666 -0.53185,-0.53186 -20.96207,-10.29798 -45.40047,-21.70251 l -44.43347,-20.7355 -34.36168,16.07909 c -44.43817,20.79425 -41.55127,19.29087 -41.27832,21.49603 0.19847,1.60347 5.50556,4.55154 48.79412,27.10504 26.71429,13.91825 48.86572,25.30743 49.2254,25.30931 0.35968,0.002 15.70858,-9.88051 34.10866,-21.96087 z" id="path955" inkscape:connector-curvature="0" transform="scale(0.26458333)"/>
  </g>
<script xmlns="" public-path="moz-extension://db1fa48b-1189-4743-b750-27e05f94d06a/"/></svg>