<?xml version="1.0" encoding="UTF-8" standalone="no"?>
<!-- Created with Inkscape (http://www.inkscape.org/) -->

<svg
   id="svg2"
   sodipodi:docname="toilet_closed.svg"
   inkscape:export-filename="/Users/schoolfreeware/Desktop/S4m_Pics/Toilet.png"
   viewBox="0 0 238.68598 293.82502"
   sodipodi:version="0.32"
   inkscape:export-xdpi="90"
   version="1.0"
   inkscape:output_extension="org.inkscape.output.svg.inkscape"
   inkscape:export-ydpi="90"
   inkscape:version="1.2.2 (b0a8486541, 2022-12-01)"
   width="238.68597"
   height="293.82501"
   xmlns:inkscape="http://www.inkscape.org/namespaces/inkscape"
   xmlns:sodipodi="http://sodipodi.sourceforge.net/DTD/sodipodi-0.dtd"
   xmlns="http://www.w3.org/2000/svg"
   xmlns:svg="http://www.w3.org/2000/svg"
   xmlns:rdf="http://www.w3.org/1999/02/22-rdf-syntax-ns#"
   xmlns:cc="http://creativecommons.org/ns#"
   xmlns:dc="http://purl.org/dc/elements/1.1/">
  <defs
     id="defs18859">
    <filter
       style="color-interpolation-filters:sRGB"
       inkscape:label="Drop Shadow"
       id="filter20554"
       x="-0.14088977"
       y="-0.10747118"
       width="1.2803021"
       height="1.2149375">
      <feFlood
         flood-opacity="1"
         flood-color="rgb(204,200,31)"
         result="flood"
         id="feFlood20544" />
      <feComposite
         in="flood"
         in2="SourceGraphic"
         operator="in"
         result="composite1"
         id="feComposite20546" />
      <feGaussianBlur
         in="composite1"
         stdDeviation="10.6608"
         result="blur"
         id="feGaussianBlur20548" />
      <feOffset
         dx="0"
         dy="0"
         result="offset"
         id="feOffset20550" />
      <feComposite
         in="SourceGraphic"
         in2="offset"
         operator="over"
         result="composite2"
         id="feComposite20552" />
    </filter>
  </defs>
  <sodipodi:namedview
     id="base"
     bordercolor="#666666"
     inkscape:pageshadow="2"
     guidetolerance="10.0"
     pagecolor="#ffffff"
     gridtolerance="10.0"
     inkscape:zoom="2.6918918"
     objecttolerance="10.0"
     borderopacity="1.0"
     inkscape:current-layer="svg2"
     inkscape:cx="168.28314"
     inkscape:cy="145.62249"
     inkscape:window-y="0"
     inkscape:window-x="0"
     inkscape:window-height="1029"
     showgrid="false"
     inkscape:pageopacity="0.0"
     inkscape:window-width="1920"
     inkscape:showpageshadow="2"
     inkscape:pagecheckerboard="0"
     inkscape:deskcolor="#d1d1d1"
     inkscape:window-maximized="1" />
  <g
     id="g19357"
     style="filter:url(#filter20554)"
     transform="translate(25.861898,25.587034)">
    <path
       id="path2384"
       sodipodi:nodetypes="cccccccccccccccccsscccccc"
       style="fill:#f9f9f9;fill-rule:evenodd;stroke:#000000;stroke-width:0.8082px"
       d="m 0.4041,5.3181 9.2453,17.472 1.9806,78.08 7.925,7.64 10.566,0.55 8.585,8.19 5.943,12.56 c 0,0 -4.622,8.19 -3.302,14.74 -5.943,6.55 -4.622,9.72 -4.622,9.72 l -0.661,25.22 -7.924,12.56 42.264,46.96 c 0,0 81.886,11.46 106.32,-8.74 -9.9,-16.38 -9.24,-15.83 -9.24,-15.83 l -2.64,-53.51 c 0,0 24.43,-22.39 21.79,-50.23 0.66,-1.09 -0.66,-10.38 -0.66,-10.38 0,0 1.32,-6.549 -0.66,-10.917 -0.55,-1.218 -5.57,-4.073 -12.43,-7.219 -9.93,-4.552 -23.23,-9.161 -23.23,-9.161 l 1.32,-49.141 7.92,-18.564 -15.84,-4.9139 -138.02,2.73 -4.6259,2.184 z" />
    <path
       id="path2386"
       style="fill:none;stroke:#000000;stroke-width:0.8082px"
       d="M 0.4041,6.4102 Z" />
    <path
       id="path2388"
       sodipodi:nodetypes="ccs"
       style="fill:none;stroke:#000000;stroke-width:0.8082px"
       d="m 36.725,181.13 40.943,38.77 c 0,0 68.682,10.92 88.492,-4.92" />
    <path
       id="path2390"
       style="fill:#000000;fill-rule:evenodd;stroke:#000000;stroke-width:0.8082px"
       d="m 17.574,32.072 23.113,-0.546 c 0,0 6.604,5.46 0.66,6.552 -5.943,1.092 -11.886,-0.546 -11.886,-0.546 h -7.925 z" />
    <path
       id="path2392"
       style="fill:none;stroke:#000000;stroke-width:0.8082px"
       d="m 9.6494,23.882 5.2826,1.638 135.38,-2.73 h 0.66" />
    <path
       id="path2394"
       sodipodi:nodetypes="ccc"
       style="fill:none;stroke:#000000;stroke-width:0.8082px"
       d="M 15.593,25.52 7.6682,8.048 l 149.9,-3.2759" />
    <path
       id="path2396"
       style="fill:none;stroke:#000000;stroke-width:0.8082px"
       d="M 2.3852,5.3181 8.3286,9.1402" />
    <path
       id="path2398"
       sodipodi:nodetypes="cs"
       style="fill:none;stroke:#000000;stroke-width:0.84237px"
       d="m 32.781,87.234 c 0,0 72.749,41.586 153.01,14.646" />
    <path
       id="path2400"
       sodipodi:nodetypes="cs"
       style="fill:none;stroke:#000000;stroke-width:0.80139px"
       d="m 34.079,98.136 c 0,0 60.368,40.964 151.89,15.294" />
    <path
       id="path2402"
       sodipodi:nodetypes="ccc"
       style="fill:none;stroke:#000000;stroke-width:0.81068px"
       d="M 149.65,72.478 32.04,78.484 34.031,106.87" />
    <path
       id="path2404"
       sodipodi:nodetypes="css"
       style="fill:none;stroke:#000000;stroke-width:0.8082px"
       d="m 44.278,129.96 c 0,0 16.881,28.24 33.39,34.25 16.509,6 80.192,5.63 87.462,-3.11" />
    <path
       id="path2406"
       style="fill:#808080;stroke:#000000;stroke-width:1.2009"
       d="m 97.772,240.93 c -4.54,-0.27 -12.415,-0.92 -17.5,-1.45 l -9.245,-0.96 -13.346,-14.75 c -7.34,-8.1 -16.79,-18.59 -21.002,-23.31 l -7.656,-8.57 3.519,-5.43 3.519,-5.43 1.304,1.48 c 0.717,0.81 10.006,9.71 20.642,19.77 l 19.338,18.3 10.379,1.19 c 19.676,2.26 39.626,2.93 51.666,1.71 11.58,-1.16 21.63,-3.96 25.74,-7.16 l 1.65,-1.29 4.48,7.63 4.48,7.63 -1.51,0.98 c -6.58,4.27 -15.75,7.02 -29.9,8.98 -7.22,1 -34.59,1.4 -46.558,0.68 z" />
    <path
       id="path2418"
       sodipodi:nodetypes="cccccccssssssssscccccsccccc"
       style="fill:#cccccc;stroke:#000000;stroke-width:0.71607"
       d="m 25.359,108.29 c -5.86,-0.42 -5.263,-0.1 -11.144,-5.91 l -1.843,-1.82 -0.85,-31.487 C 11.055,51.756 10.657,34.734 10.637,31.247 l -0.035,-6.339 2.612,0.576 c 1.888,0.417 21.111,0.217 69.329,-0.722 36.697,-0.714 66.907,-1.144 67.127,-0.956 0.23,0.188 0.2,10.941 -0.07,23.896 -0.49,23.301 -0.51,23.559 -1.89,24.003 -0.77,0.248 -26.96,1.727 -58.193,3.288 -31.236,1.561 -56.96,2.997 -57.165,3.191 -0.206,0.195 0.066,6.677 0.604,14.407 0.936,13.459 0.927,14.099 -0.224,15.149 -0.661,0.61 -2.184,0.32 -1.967,0.28 2.385,-0.42 -2.444,0.49 -5.406,0.27 z M 42.814,38.102 c 1.946,-1.127 1.88,-3.241 -0.17,-5.463 l -1.637,-1.775 -12.066,0.295 c -6.636,0.162 -12.171,0.37 -12.301,0.463 -0.13,0.092 0.85,1.647 2.178,3.455 l 2.415,3.287 5.746,0.182 c 13.773,0.435 14.345,0.419 15.835,-0.444 z" />
    <path
       id="path3190"
       style="fill:none;stroke:#000000;stroke-width:0.8082px"
       d="m 14.932,24.428 3.963,82.452 1.32,0.54" />
    <path
       id="path3200"
       sodipodi:nodetypes="cccssssscc"
       style="fill:#4d4d4d;stroke:#000000;stroke-width:0.56105"
       d="m 15.148,102.65 -2.615,-2.32 -0.84,-27.546 C 11.231,57.634 10.857,40.879 10.862,35.55 c 0.008,-9.322 0.854,-8.626 -0.38,-9.316 -1.3296,-0.743 4.452,-1.487 4.468,-0.902 0.015,0.525 -0.141,19.756 1.016,40.92 1.157,21.164 2.034,38.538 1.95,38.598 -0.084,0.07 -1.33,-0.92 -2.768,-2.2 z" />
    <path
       id="path3202"
       sodipodi:nodetypes="csssssscc"
       style="fill:#4d4d4d;stroke:#000000;stroke-width:0.53202"
       d="M 12.093,24.009 C 11.094,23.703 10.277,23.23 10.277,22.956 10.277,22.683 8.3454,18.788 5.9845,14.3 3.6237,9.8121 1.6921,6.0125 1.6921,5.8564 c 0,-0.156 3.157,1.7112 4.7454,2.7873 2.6026,1.7633 1.3659,1.5783 4.4235,8.2893 1.866,4.096 3.315,7.489 3.22,7.54 -0.095,0.051 -0.989,-0.158 -1.988,-0.464 z" />
  </g>
  <metadata
     id="metadata18856">
    <rdf:RDF>
      <cc:Work>
        <dc:format>image/svg+xml</dc:format>
        <dc:type
           rdf:resource="http://purl.org/dc/dcmitype/StillImage" />
        <cc:license
           rdf:resource="http://creativecommons.org/publicdomain/zero/1.0/" />
        <dc:publisher>
          <cc:Agent
             rdf:about="http://openclipart.org/">
            <dc:title>Openclipart</dc:title>
          </cc:Agent>
        </dc:publisher>
        <dc:title>Toilet</dc:title>
        <dc:date>2008-10-18T20:29:15</dc:date>
        <dc:description />
        <dc:source>https://openclipart.org/detail/19634/toilet-by-schoolfreeware</dc:source>
        <dc:creator>
          <cc:Agent>
            <dc:title>schoolfreeware</dc:title>
          </cc:Agent>
        </dc:creator>
        <dc:subject>
          <rdf:Bag>
            <rdf:li>bathroom</rdf:li>
            <rdf:li>toilet</rdf:li>
            <rdf:li>washroom</rdf:li>
            <rdf:li>water closet</rdf:li>
          </rdf:Bag>
        </dc:subject>
      </cc:Work>
      <cc:License
         rdf:about="http://creativecommons.org/publicdomain/zero/1.0/">
        <cc:permits
           rdf:resource="http://creativecommons.org/ns#Reproduction" />
        <cc:permits
           rdf:resource="http://creativecommons.org/ns#Distribution" />
        <cc:permits
           rdf:resource="http://creativecommons.org/ns#DerivativeWorks" />
      </cc:License>
    </rdf:RDF>
  </metadata>
</svg>
