<?xml version="1.0" encoding="UTF-8" standalone="no"?>
<!-- Created with Inkscape (http://www.inkscape.org/) -->

<svg
   xmlns:dc="http://purl.org/dc/elements/1.1/"
   xmlns:cc="http://creativecommons.org/ns#"
   xmlns:rdf="http://www.w3.org/1999/02/22-rdf-syntax-ns#"
   xmlns:svg="http://www.w3.org/2000/svg"
   xmlns="http://www.w3.org/2000/svg"
   xmlns:xlink="http://www.w3.org/1999/xlink"
   xmlns:sodipodi="http://sodipodi.sourceforge.net/DTD/sodipodi-0.dtd"
   xmlns:inkscape="http://www.inkscape.org/namespaces/inkscape"
   id="svg2"
   version="1.1"
   inkscape:version="0.91 r13725"
   width="786.76575"
   height="870.79797"
   viewBox="0 0 786.76575 870.79797"
   sodipodi:docname="gnome.svg">
  <metadata
     id="metadata8">
    <rdf:RDF>
      <cc:Work
         rdf:about="">
        <dc:format>image/svg+xml</dc:format>
        <dc:type
           rdf:resource="http://purl.org/dc/dcmitype/StillImage" />
        <dc:title></dc:title>
      </cc:Work>
    </rdf:RDF>
  </metadata>
  <defs
     id="defs6">
    <pattern
       inkscape:collect="always"
       xlink:href="#pattern6073"
       id="pattern6152"
       patternTransform="translate(36.282891,6.8164063e-6)" />
    <pattern
       patternUnits="userSpaceOnUse"
       width="25.974415"
       height="25.87859"
       patternTransform="translate(1426.6773,412.47602)"
       id="pattern6073">
      <circle
         r="3.9297125"
         cy="21.948877"
         cx="3.9297125"
         id="path6056"
         style="opacity:1;fill:#dc5473;fill-opacity:1;fill-rule:nonzero;stroke:none;stroke-width:1.5;stroke-linecap:round;stroke-linejoin:round;stroke-miterlimit:4;stroke-dasharray:none;stroke-dashoffset:0;stroke-opacity:1" />
      <circle
         r="3.9297125"
         cy="3.9297125"
         cx="22.044703"
         id="path6056-3"
         style="opacity:1;fill:#dc5473;fill-opacity:1;fill-rule:nonzero;stroke:none;stroke-width:1.5;stroke-linecap:round;stroke-linejoin:round;stroke-miterlimit:4;stroke-dasharray:none;stroke-dashoffset:0;stroke-opacity:1" />
    </pattern>
    <pattern
       patternTransform="translate(-9.1796876e-6,36.482237)"
       id="pattern6091"
       xlink:href="#pattern6073-6"
       inkscape:collect="always" />
    <pattern
       patternUnits="userSpaceOnUse"
       width="25.974415"
       height="25.87859"
       patternTransform="translate(1426.6773,412.47602)"
       id="pattern6073-6">
      <circle
         r="3.9297125"
         cy="21.948877"
         cx="3.9297125"
         id="path6056-7"
         style="opacity:1;fill:#dc5473;fill-opacity:1;fill-rule:nonzero;stroke:none;stroke-width:1.5;stroke-linecap:round;stroke-linejoin:round;stroke-miterlimit:4;stroke-dasharray:none;stroke-dashoffset:0;stroke-opacity:1" />
      <circle
         r="3.9297125"
         cy="3.9297125"
         cx="22.044703"
         id="path6056-3-5"
         style="opacity:1;fill:#dc5473;fill-opacity:1;fill-rule:nonzero;stroke:none;stroke-width:1.5;stroke-linecap:round;stroke-linejoin:round;stroke-miterlimit:4;stroke-dasharray:none;stroke-dashoffset:0;stroke-opacity:1" />
    </pattern>
    <pattern
       patternTransform="translate(36.426791,36.421767)"
       id="pattern6091-5"
       xlink:href="#pattern6073-62"
       inkscape:collect="always" />
    <pattern
       patternUnits="userSpaceOnUse"
       width="25.974415"
       height="25.87859"
       patternTransform="translate(1426.6773,412.47602)"
       id="pattern6073-62">
      <circle
         r="3.9297125"
         cy="21.948877"
         cx="3.9297125"
         id="path6056-9"
         style="opacity:1;fill:#dc5473;fill-opacity:1;fill-rule:nonzero;stroke:none;stroke-width:1.5;stroke-linecap:round;stroke-linejoin:round;stroke-miterlimit:4;stroke-dasharray:none;stroke-dashoffset:0;stroke-opacity:1" />
      <circle
         r="3.9297125"
         cy="3.9297125"
         cx="22.044703"
         id="path6056-3-1"
         style="opacity:1;fill:#dc5473;fill-opacity:1;fill-rule:nonzero;stroke:none;stroke-width:1.5;stroke-linecap:round;stroke-linejoin:round;stroke-miterlimit:4;stroke-dasharray:none;stroke-dashoffset:0;stroke-opacity:1" />
    </pattern>
    <pattern
       patternTransform="translate(73.231891,36.325907)"
       id="pattern6091-7"
       xlink:href="#pattern6073-0"
       inkscape:collect="always" />
    <pattern
       patternUnits="userSpaceOnUse"
       width="25.974415"
       height="25.87859"
       patternTransform="translate(1426.6773,412.47602)"
       id="pattern6073-0">
      <circle
         r="3.9297125"
         cy="21.948877"
         cx="3.9297125"
         id="path6056-93"
         style="opacity:1;fill:#dc5473;fill-opacity:1;fill-rule:nonzero;stroke:none;stroke-width:1.5;stroke-linecap:round;stroke-linejoin:round;stroke-miterlimit:4;stroke-dasharray:none;stroke-dashoffset:0;stroke-opacity:1" />
      <circle
         r="3.9297125"
         cy="3.9297125"
         cx="22.044703"
         id="path6056-3-6"
         style="opacity:1;fill:#dc5473;fill-opacity:1;fill-rule:nonzero;stroke:none;stroke-width:1.5;stroke-linecap:round;stroke-linejoin:round;stroke-miterlimit:4;stroke-dasharray:none;stroke-dashoffset:0;stroke-opacity:1" />
    </pattern>
    <pattern
       patternTransform="translate(72.957191,0.20079682)"
       id="pattern6091-6"
       xlink:href="#pattern6073-2"
       inkscape:collect="always" />
    <pattern
       patternUnits="userSpaceOnUse"
       width="25.974415"
       height="25.87859"
       patternTransform="translate(1426.6773,412.47602)"
       id="pattern6073-2">
      <circle
         r="3.9297125"
         cy="21.948877"
         cx="3.9297125"
         id="path6056-6"
         style="opacity:1;fill:#dc5473;fill-opacity:1;fill-rule:nonzero;stroke:none;stroke-width:1.5;stroke-linecap:round;stroke-linejoin:round;stroke-miterlimit:4;stroke-dasharray:none;stroke-dashoffset:0;stroke-opacity:1" />
      <circle
         r="3.9297125"
         cy="3.9297125"
         cx="22.044703"
         id="path6056-3-18"
         style="opacity:1;fill:#dc5473;fill-opacity:1;fill-rule:nonzero;stroke:none;stroke-width:1.5;stroke-linecap:round;stroke-linejoin:round;stroke-miterlimit:4;stroke-dasharray:none;stroke-dashoffset:0;stroke-opacity:1" />
    </pattern>
    <pattern
       patternUnits="userSpaceOnUse"
       width="99.206226"
       height="62.360798"
       patternTransform="translate(1390.3944,412.47601)"
       id="pattern6149">
      <rect
         id="rect6077"
         y="0"
         x="36.282837"
         height="25.87859"
         width="25.974415"
         style="fill:url(#pattern6152);stroke:none" />
      <rect
         id="rect6077-3"
         y="36.482208"
         x="0"
         height="25.87859"
         width="25.974415"
         style="fill:url(#pattern6091);stroke:none" />
      <rect
         id="rect6077-2"
         y="36.421753"
         x="36.426636"
         height="25.87859"
         width="25.974415"
         style="fill:url(#pattern6091-5);stroke:none" />
      <rect
         id="rect6077-0"
         y="36.325897"
         x="73.231812"
         height="25.87859"
         width="25.974415"
         style="fill:url(#pattern6091-7);stroke:none" />
      <rect
         id="rect6077-7"
         y="0.20080566"
         x="72.957031"
         height="25.87859"
         width="25.974415"
         style="fill:url(#pattern6091-6);stroke:none" />
    </pattern>
  </defs>
  <sodipodi:namedview
     pagecolor="#ffffff"
     bordercolor="#666666"
     borderopacity="1"
     objecttolerance="10"
     gridtolerance="10"
     guidetolerance="10"
     inkscape:pageopacity="0"
     inkscape:pageshadow="2"
     inkscape:window-width="1855"
     inkscape:window-height="1056"
     id="namedview4"
     showgrid="false"
     inkscape:snap-nodes="false"
     inkscape:zoom="0.46109255"
     inkscape:cx="265.53152"
     inkscape:cy="259.56728"
     inkscape:window-x="65"
     inkscape:window-y="24"
     inkscape:window-maximized="1"
     inkscape:current-layer="svg2"
     fit-margin-top="5"
     fit-margin-left="5"
     fit-margin-right="5"
     fit-margin-bottom="5" />
  <g
     id="g4531"
     transform="translate(-512.09956,-34.014534)">
    <path
       sodipodi:nodetypes="csccsscscsccscc"
       inkscape:connector-curvature="0"
       id="path8320"
       d="m 1110.6772,656.73417 c 0,0 -20.0852,50.28177 -30.9048,75.09339 -12.2506,28.09313 -38.4955,83.49734 -38.4955,83.49734 l -52.86361,0 c 0,0 3.41957,-17.2687 4.06643,-26.02515 0.88546,-11.98624 0.24429,-24.04783 -0.2711,-36.05567 -0.19823,-4.61852 -1.08438,-13.82585 -1.08438,-13.82585 0,0 -51.31019,3.86099 -76.99105,4.4033 -23.1283,0.48841 -69.40038,-1.15016 -69.40038,-1.15016 0,0 -5.11096,18.75684 -6.394,26.92347 -2.41377,15.36379 -2.02711,49.09491 3.67506,46.56061 L 787.9151,804.6286 c 0,0 -24.74343,-44.14695 -36.98125,-66.29476 -14.74695,-26.68878 -43.91743,-80.24419 -43.91743,-80.24419 z"
       style="opacity:1;fill:#789590;fill-opacity:1;fill-rule:nonzero;stroke:none;stroke-width:6;stroke-linecap:round;stroke-linejoin:round;stroke-miterlimit:4;stroke-dasharray:none;stroke-dashoffset:0;stroke-opacity:1" />
    <path
       sodipodi:nodetypes="cssssscsssscssssscssssssscc"
       inkscape:connector-curvature="0"
       id="path8316"
       d="m 1192.1406,322.85942 c 0,0 12.5559,-24.24218 16.4856,-37.95527 1.3102,-4.57196 -1.4903,-9.42951 -1.5335,-14.1853 -0.045,-5.00385 0.1766,-10.08556 1.3418,-14.95208 0.4006,-1.67321 0.2924,-4.22574 1.9169,-4.79233 1.9457,-0.67861 3.8891,1.63156 5.3675,3.06709 3.8682,3.75603 8.4345,13.80192 8.4345,13.80192 0,0 7.176,-16.10926 12.0766,-23.38658 1.3162,-1.95458 2.6452,-4.05256 4.6007,-5.36742 0.8384,-0.56374 1.8788,-1.12407 2.8754,-0.95846 1.6641,0.27653 3.1762,1.60957 4.0255,3.06709 3.5716,6.1291 2.8754,21.08626 2.8754,21.08626 0,0 5.8784,-11.30147 9.7764,-16.29393 1.1678,-1.49574 2.3742,-3.09059 4.0255,-4.02556 1.1463,-0.64903 2.5328,-1.16418 3.8339,-0.95846 1.1908,0.18828 2.441,0.8866 3.0671,1.91693 1.6644,2.73908 1.0759,6.39451 0.7668,9.58467 -0.6399,6.6046 -5.3674,19.16932 -5.3674,19.16932 0,0 9.7162,-6.45262 15.1437,-8.4345 2.2013,-0.8038 4.5595,-1.43669 6.901,-1.34185 1.6575,0.0671 4.0145,-0.12337 4.7923,1.34185 1.1369,2.14169 -1.0338,4.83326 -2.3003,6.90096 -2.9501,4.81632 -7.9745,9.53627 -12.0767,13.41853 -6.2475,5.9126 -12.8691,9.8624 -19.1693,15.71885 -10.0277,9.32139 -18.8668,18.70416 -28.5623,28.3706 -4.6396,4.62573 -13.9936,14.95208 -13.9936,14.95208 z"
       style="opacity:1;fill:#f6c7a9;fill-opacity:1;fill-rule:nonzero;stroke:none;stroke-width:6;stroke-linecap:round;stroke-linejoin:round;stroke-miterlimit:4;stroke-dasharray:none;stroke-dashoffset:0;stroke-opacity:1" />
    <path
       sodipodi:nodetypes="csssssscc"
       inkscape:connector-curvature="0"
       id="path8314"
       d="m 1134.7285,354.87221 c -0.5966,-4.32991 6.6805,-12.7846 9.0095,-17.15655 4.5415,-8.52513 5.1044,-16.60574 11.7892,-23.57828 1.9587,-2.04304 4.4555,-3.06918 7.2843,-3.16294 15.0896,-0.50014 28.7926,10.2039 41.2141,18.78594 9.5536,6.60057 18.7075,14.60763 24.7284,24.53674 3.0181,4.97709 6.6568,10.79377 6.0383,16.58147 -1.1652,10.90344 -37.0926,44.18531 -37.0926,44.18531 -20.1159,-19.24747 -43.0118,-42.5198 -62.9712,-60.19169 z"
       style="opacity:1;fill:#4560ad;fill-opacity:1;fill-rule:nonzero;stroke:none;stroke-width:6;stroke-linecap:round;stroke-linejoin:round;stroke-miterlimit:4;stroke-dasharray:none;stroke-dashoffset:0;stroke-opacity:1" />
    <path
       sodipodi:nodetypes="csccccscssssssssssssscc"
       inkscape:connector-curvature="0"
       id="path8310"
       d="m 627.04238,465.84899 c 12.00527,-8.95598 22.81732,-16.16051 35.64133,-23.75634 12.90858,-7.64593 40.0639,-20.51118 40.0639,-20.51118 l 428.62619,-53.29074 8.8179,-10.92651 47.3482,46.38977 c 0,0 -20.2033,16.06049 -31.0543,23.0032 -11.6583,7.45918 -36.4217,19.9361 -36.4217,19.9361 0,0 16.1964,20.212 22.0604,31.66021 10.3062,20.12068 19.0833,41.63167 22.5009,63.97848 2.3648,15.46278 1.2587,31.52533 -1.6266,46.89948 -2.525,13.45444 -5.8044,27.48251 -13.5547,38.76662 -9.7278,14.16327 -24.4316,24.74844 -39.3088,33.34471 -22.9422,13.25633 -49.0755,20.57933 -74.8223,26.83843 -39.86315,9.69081 -81.03499,13.93504 -121.9929,16.26572 -23.91233,1.36071 -48.10206,1.83036 -71.84024,-1.35548 -36.49312,-4.89765 -73.13772,-12.84493 -107.08262,-27.10952 -13.75898,-5.7819 -27.25001,-13.19975 -38.22443,-23.31419 -12.08152,-11.13479 -22.39715,-24.80927 -29.00719,-39.85101 -4.78412,-10.88669 -6.41354,-23.09674 -7.04848,-34.97128 -0.62991,-11.78058 1.16249,-23.63171 3.25314,-35.24239 1.41013,-7.83132 3.20316,-12.15461 6.23519,-23.04309 -13.57632,-15.87466 -29.53241,-35.05455 -42.56289,-53.71099 z"
       style="opacity:1;fill:#3d54a4;fill-opacity:1;fill-rule:nonzero;stroke:none;stroke-width:6;stroke-linecap:round;stroke-linejoin:round;stroke-miterlimit:4;stroke-dasharray:none;stroke-dashoffset:0;stroke-opacity:1" />
    <path
       inkscape:connector-curvature="0"
       id="path8308"
       d="m 877.1885,501.32588 37.38019,61.72524 28.37061,-59.04154 z"
       style="opacity:1;fill:#f6c7a9;fill-opacity:1;fill-rule:nonzero;stroke:none;stroke-width:6;stroke-linecap:round;stroke-linejoin:round;stroke-miterlimit:4;stroke-dasharray:none;stroke-dashoffset:0;stroke-opacity:1" />
    <path
       sodipodi:nodetypes="cssccsscc"
       inkscape:connector-curvature="0"
       id="path8269"
       d="m 1027.451,477.26912 c 0,0 9.3748,47.95508 11.9282,73.73791 2.7002,27.26528 3.045,54.74328 2.982,82.14186 -0.046,19.89689 -1.4561,39.64111 -2.4398,59.64095 10.2628,1.73965 22.5696,-1.7374 31.9892,-8.67505 2.2175,-14.35145 3.2569,-29.26058 2.711,-43.91743 -1.5616,-41.9269 -9.1861,-83.49694 -17.079,-124.70381 -3.1871,-16.63922 -11.386,-46.62839 -11.386,-46.62839 z"
       style="opacity:1;fill:#ee4f65;fill-opacity:1;fill-rule:nonzero;stroke:none;stroke-width:1.5;stroke-linecap:round;stroke-linejoin:round;stroke-miterlimit:4;stroke-dasharray:none;stroke-dashoffset:0;stroke-opacity:1" />
    <path
       sodipodi:nodetypes="cssscscc"
       inkscape:connector-curvature="0"
       id="path8271"
       d="m 764.48861,466.9675 c 0,0 -16.82561,72.28068 -21.95871,108.98029 -4.11857,29.44609 -7.82866,59.19676 -7.04848,88.91924 0.16264,6.19628 -1.34351,13.52465 2.43986,18.43448 13.60668,17.65795 34.158,11.386 34.158,11.386 0,0 -4.99654,-62.53012 -3.79534,-93.79896 1.63114,-42.46084 14.91024,-126.60148 14.91024,-126.60148 z"
       style="opacity:1;fill:#ee4f65;fill-opacity:1;fill-rule:nonzero;stroke:none;stroke-width:1.5;stroke-linecap:round;stroke-linejoin:round;stroke-miterlimit:4;stroke-dasharray:none;stroke-dashoffset:0;stroke-opacity:1" />
    <path
       sodipodi:nodetypes="csssscscssssssssssssscc"
       inkscape:connector-curvature="0"
       id="path8306"
       d="m 730.35144,304.84025 c 0,0 -9.51047,-9.5943 -11.88498,-15.71885 -2.50527,-6.46182 -2.76155,-13.82405 -1.91694,-20.70287 1.32005,-10.75102 5.79055,-21.03345 10.73483,-30.67093 7.62232,-14.85758 17.58328,-28.61017 28.75399,-41.02236 10.54334,-11.71509 35.65495,-31.05432 35.65495,-31.05432 0,0 2.62018,-15.37381 5.36741,-22.6198 2.87822,-7.59148 11.5016,-21.46965 11.5016,-21.46965 0,0 -12.51057,-1.22794 -18.78594,-1.53355 -8.0426,-0.39168 -16.2052,0.90642 -24.15336,-0.38339 -7.54028,-1.22362 -15.29206,-2.98857 -21.85303,-6.90095 -4.89026,-2.91612 -10.0478,-6.64214 -12.26837,-11.88499 -1.69458,-4.000978 -1.53979,-8.972078 0,-13.035141 5.26159,-13.883836 17.62472,-24.470423 29.52077,-33.354633 8.47449,-6.328916 18.4105,-11.208468 28.75399,-13.41853 15.9987,-3.418395 32.97791,-2.161779 49.07348,0.766773 38.73586,7.047899 76.33579,21.545357 111.18211,39.872204 24.39037,12.827711 47.05829,29.384117 67.09265,48.306707 18.2968,17.28149 34.7801,36.96454 47.5399,58.65815 6.7736,11.51623 11.8834,24.18509 14.9521,37.1885 2.5326,10.73197 2.8185,21.9453 2.6837,32.97124 -0.1037,8.48118 -2.6837,25.30352 -2.6837,25.30352 z"
       style="opacity:1;fill:#ee4f65;fill-opacity:1;fill-rule:nonzero;stroke:none;stroke-width:6;stroke-linecap:round;stroke-linejoin:round;stroke-miterlimit:4;stroke-dasharray:none;stroke-dashoffset:0;stroke-opacity:1" />
    <path
       sodipodi:nodetypes="csssssscsssssssscc"
       inkscape:connector-curvature="0"
       id="path8302"
       d="m 763.94642,272.05001 c 0,0 -29.06475,21.36262 -39.851,35.51348 -12.34728,16.19884 -22.30507,34.96793 -27.10953,54.76124 -3.85864,15.89672 -6.77797,33.83613 -0.81328,49.06824 7.29437,18.62773 24.94363,32.1134 41.47757,43.37524 18.15481,12.36587 40.24955,17.72419 60.99643,24.94076 30.73946,10.69238 63.25927,15.85926 93.79896,27.10953 6.79309,2.50245 19.78995,8.94614 19.78995,8.94614 0,0 14.35564,-5.88385 21.68762,-8.40395 24.89997,-8.55846 51.01207,-13.44787 75.63556,-22.772 20.0032,-7.57456 40.1884,-15.43689 58.2855,-26.83843 15.7999,-9.95423 31.1493,-21.4387 43.1041,-35.78457 7.5631,-9.07578 13.4286,-19.76068 17.3501,-30.90486 2.7368,-7.77757 4.6158,-16.17185 4.0665,-24.39858 -0.8189,-12.26367 -4.8857,-24.49207 -10.8438,-35.24238 -10.3722,-18.7148 -27.0117,-33.2754 -42.0198,-48.52605 -12.075,-12.27015 -38.4955,-34.4291 -38.4955,-34.4291 z"
       style="opacity:1;fill:#ffffff;fill-opacity:1;fill-rule:nonzero;stroke:#000000;stroke-width:1;stroke-linecap:round;stroke-linejoin:round;stroke-miterlimit:4;stroke-dasharray:none;stroke-dashoffset:0;stroke-opacity:1" />
    <path
       sodipodi:nodetypes="sssssssssssssssssss"
       inkscape:connector-curvature="0"
       id="path8304"
       d="m 913.04881,443.38221 c 26.31856,-0.773 53.33661,-1.62177 78.38889,-9.72406 23.9988,-7.76158 47.8446,-19.25701 66.3259,-36.42173 10.8306,-10.05903 19.6637,-23.10559 24.1533,-37.1885 3.7684,-11.82056 3.962,-25.02178 1.5336,-37.1885 -4.331,-21.69871 -15.7912,-41.72963 -27.9872,-60.19169 -11.2726,-17.06412 -25.2547,-32.59861 -41.0224,-45.623 -17.37072,-14.34852 -37.06713,-26.28745 -57.89138,-34.88818 -14.35263,-5.92785 -29.8236,-9.25164 -45.23961,-11.11821 -13.19437,-1.59757 -26.77133,-2.23844 -39.87221,0 -16.69328,2.85225 -33.29158,8.34182 -47.92332,16.86901 -15.96456,9.30394 -30.40926,21.86394 -41.78914,36.42172 -11.22864,14.3643 -17.9024,31.86254 -24.92013,48.6901 -6.78208,16.2625 -12.65497,33.02505 -16.48562,50.22364 -3.21865,14.45088 -6.52957,29.33015 -5.36741,44.08946 0.87638,11.12994 2.4908,23.28186 9.20128,32.20447 9.69731,12.89406 26.03319,19.7187 41.02236,25.6869 22.88904,9.11368 48.03623,11.33699 72.46006,14.56869 18.34979,2.428 36.91128,4.13329 55.41303,3.58988 z"
       style="opacity:1;fill:#f6c7a9;fill-opacity:1;fill-rule:nonzero;stroke:none;stroke-width:6;stroke-linecap:round;stroke-linejoin:round;stroke-miterlimit:4;stroke-dasharray:none;stroke-dashoffset:0;stroke-opacity:1" />
    <circle
       r="10.708262"
       cy="608.47925"
       cx="920.36841"
       id="path8273"
       style="opacity:1;fill:#000000;fill-opacity:1;fill-rule:nonzero;stroke:none;stroke-width:1.5;stroke-linecap:round;stroke-linejoin:round;stroke-miterlimit:4;stroke-dasharray:none;stroke-dashoffset:0;stroke-opacity:1" />
    <circle
       style="opacity:1;fill:#000000;fill-opacity:1;fill-rule:nonzero;stroke:none;stroke-width:1.5;stroke-linecap:round;stroke-linejoin:round;stroke-miterlimit:4;stroke-dasharray:none;stroke-dashoffset:0;stroke-opacity:1"
       id="circle8275"
       cx="920.36841"
       cy="660.6651"
       r="10.708262" />
    <g
       id="g8284">
      <path
         style="opacity:1;fill:#f04e65;fill-opacity:1;fill-rule:nonzero;stroke:none;stroke-width:1.5;stroke-linecap:round;stroke-linejoin:round;stroke-miterlimit:4;stroke-dasharray:none;stroke-dashoffset:0;stroke-opacity:1"
         d="m 880.58515,264.18824 c -6.53915,12.15856 -9.41542,26.77963 -10.50493,31.65038 -0.58377,2.60979 -2.49624,15.70454 -1.76213,24.19525 0.17358,2.00758 0.65311,4.22475 2.03322,5.693 3.77078,4.01159 9.77883,5.44583 15.18133,6.50629 5.1438,1.00968 10.62964,0.96597 15.72353,-0.2711 4.4573,-1.08247 8.76662,-3.21743 12.33483,-6.09964 1.52602,-1.23264 3.01379,-2.75637 3.65979,-4.60862 0.72907,-2.09045 0.43293,-4.47062 0,-6.64183 -1.55012,-7.7741 -4.47493,-19.60862 -8.20064,-29.00719 -3.57441,-9.0169 -6.17048,-19.65729 -13.48698,-26.02515 -1.55213,-1.35088 -4.23943,-2.36034 -6.50629,-2.23654 -3.31392,0.18097 -6.94931,4.01444 -8.47173,6.84515 z"
         id="path8277"
         inkscape:connector-curvature="0"
         sodipodi:nodetypes="sssssssssssss" />
      <path
         style="opacity:1;fill:#ffffff;fill-opacity:1;fill-rule:nonzero;stroke:none;stroke-width:1.5;stroke-linecap:round;stroke-linejoin:round;stroke-miterlimit:4;stroke-dasharray:none;stroke-dashoffset:0;stroke-opacity:1"
         d="m 908.86914,285.125 c -4.92024,1.27567 -12.81804,3.26053 -17.57617,4.07227 -5.71129,0.97433 -14.59219,1.74542 -20.2168,2.18359 -0.40568,1.77747 -0.76656,3.43088 -0.99609,4.45703 -0.2903,1.29781 -0.90859,5.19235 -1.36719,9.82031 4.56946,-0.023 16.07302,-0.1565 22.64844,-0.9414 6.37819,-0.76137 17.39488,-3.24633 22.48242,-4.43555 -1.36627,-4.97153 -2.98273,-10.10924 -4.79297,-14.67578 -0.0623,-0.15704 -0.11995,-0.32247 -0.18164,-0.48047 z"
         id="path8279"
         inkscape:connector-curvature="0" />
    </g>
    <circle
       r="10.84381"
       cy="277.06528"
       cx="834.02454"
       id="path8288"
       style="opacity:1;fill:#000000;fill-opacity:1;fill-rule:nonzero;stroke:none;stroke-width:1.5;stroke-linecap:round;stroke-linejoin:round;stroke-miterlimit:4;stroke-dasharray:none;stroke-dashoffset:0;stroke-opacity:1" />
    <circle
       style="opacity:1;fill:#000000;fill-opacity:1;fill-rule:nonzero;stroke:none;stroke-width:1.5;stroke-linecap:round;stroke-linejoin:round;stroke-miterlimit:4;stroke-dasharray:none;stroke-dashoffset:0;stroke-opacity:1"
       id="circle8290"
       cx="945.85132"
       cy="270.69455"
       r="10.84381" />
    <circle
       r="22.975323"
       cy="313.45981"
       cx="777.43341"
       id="path8292"
       style="opacity:1;fill:#efa7b3;fill-opacity:1;fill-rule:nonzero;stroke:none;stroke-width:1.5;stroke-linecap:round;stroke-linejoin:round;stroke-miterlimit:4;stroke-dasharray:none;stroke-dashoffset:0;stroke-opacity:1" />
    <circle
       style="opacity:1;fill:#efa7b3;fill-opacity:1;fill-rule:nonzero;stroke:none;stroke-width:1.5;stroke-linecap:round;stroke-linejoin:round;stroke-miterlimit:4;stroke-dasharray:none;stroke-dashoffset:0;stroke-opacity:1"
       id="circle8294"
       cx="1011.1075"
       cy="296.01572"
       r="22.975323" />
    <path
       sodipodi:nodetypes="cszsc"
       inkscape:connector-curvature="0"
       id="path8296"
       d="m 786.17623,341.99259 c 0,0 17.22336,26.25452 44.45962,43.10414 19.6153,12.13494 46.11613,18.92036 71.56915,18.16338 25.45301,-0.75698 59.0244,-9.39451 86.75048,-29.54938 31.01152,-22.54314 39.03772,-48.79714 39.03772,-48.79714"
       style="opacity:1;fill:none;fill-opacity:1;fill-rule:nonzero;stroke:#000000;stroke-width:6;stroke-linecap:round;stroke-linejoin:round;stroke-miterlimit:4;stroke-dasharray:none;stroke-dashoffset:0;stroke-opacity:1" />
    <path
       sodipodi:nodetypes="csccsscssc"
       inkscape:connector-curvature="0"
       id="path8298"
       d="m 776.07793,269.13574 c 0,0 -1.01905,-12.37366 16.67236,-28.46501 12.31339,-11.19974 31.17596,-13.01257 31.17596,-13.01257 l -8.33618,-5.15081 c 0,0 9.63409,-2.67655 25.21186,2.50763 7.071,2.35318 13.20127,7.13658 18.90889,11.9282 3.52774,2.96158 9.28501,10.23384 9.28501,10.23384 0,0 -18.40144,-3.40131 -28.19391,-2.77872 -12.32098,0.78333 -25.83541,3.83035 -37.27559,8.47173 -9.93396,4.03028 -27.4484,16.26571 -27.4484,16.26571 z"
       style="opacity:1;fill:#ffffff;fill-opacity:1;fill-rule:nonzero;stroke:none;stroke-width:6;stroke-linecap:round;stroke-linejoin:round;stroke-miterlimit:4;stroke-dasharray:none;stroke-dashoffset:0;stroke-opacity:1" />
    <path
       style="opacity:1;fill:#ffffff;fill-opacity:1;fill-rule:nonzero;stroke:none;stroke-width:6;stroke-linecap:round;stroke-linejoin:round;stroke-miterlimit:4;stroke-dasharray:none;stroke-dashoffset:0;stroke-opacity:1"
       d="m 998.29224,246.27203 c 0,0 -1.71087,-12.29711 -22.49233,-24.1313 -14.4641,-8.23671 -33.26668,-5.88177 -33.26668,-5.88177 l 7.00838,-6.84874 c 0,0 -9.9862,-0.5055 -24.05368,7.95905 -6.38547,3.84218 -11.32164,9.85011 -15.84358,15.77368 -2.7949,3.6612 -6.82296,12.01624 -6.82296,12.01624 0,0 17.21265,-7.34214 26.90432,-8.87554 12.19417,-1.92935 26.04782,-1.91071 38.22599,0.11722 10.57478,1.76091 30.34054,9.87116 30.34054,9.87116 z"
       id="path8300"
       inkscape:connector-curvature="0"
       sodipodi:nodetypes="csccsscssc" />
    <path
       sodipodi:nodetypes="ccssssscssssscssssscsssssssscc"
       inkscape:connector-curvature="0"
       id="path8318"
       d="m 617.63578,551.74121 -14.95207,24.15336 c 0,0 0.72952,8.5744 0.38338,12.84345 -0.35243,4.34673 -1.24806,8.66364 -2.49201,12.84345 -0.53139,1.78553 -0.84286,3.80885 -2.10862,5.17572 -0.87372,0.94351 -2.19129,1.98606 -3.45048,1.72524 -2.04288,-0.42315 -2.98513,-2.98405 -4.02556,-4.79234 -2.54013,-4.41482 -5.17572,-14.37699 -5.17572,-14.37699 0,0 -9.5418,14.49059 -15.14377,21.08626 -1.46246,1.72188 -2.82644,3.67926 -4.79233,4.79233 -1.37556,0.77883 -3.11286,1.68425 -4.60064,1.15016 -1.72005,-0.61747 -2.69808,-2.66956 -3.25879,-4.40894 -1.5293,-4.74403 -7.8e-4,-9.97136 0.19169,-14.95208 0.0766,-1.98347 0.38339,-5.94249 0.38339,-5.94249 0,0 -6.82515,9.98261 -11.11821,14.1853 -1.59812,1.56448 -3.24575,3.31834 -5.36741,4.02556 -1.63671,0.54557 -3.64169,0.78944 -5.17572,0 -0.9775,-0.50304 -1.6776,-1.61074 -1.91693,-2.68371 -0.84857,-3.80427 0.97189,-7.77327 2.10862,-11.50159 1.72753,-5.66606 7.09265,-16.29393 7.09265,-16.29393 0,0 -6.66613,3.44494 -10.15974,4.79233 -2.8666,1.10558 -5.77894,2.2315 -8.81789,2.68371 -1.89606,0.28214 -3.94544,0.64445 -5.7508,0 -0.8553,-0.30531 -1.75732,-0.88778 -2.10863,-1.72524 -0.54605,-1.30166 -0.22889,-2.94542 0.38339,-4.21726 1.84268,-3.82767 5.9086,-6.13372 9.20128,-8.81789 5.23414,-4.26684 10.98104,-7.87467 16.67731,-11.5016 3.62371,-2.30729 7.52255,-4.16681 11.11821,-6.51757 12.29171,-8.03604 35.65496,-25.87859 35.65496,-25.87859 z"
       style="opacity:1;fill:#f6c7a9;fill-opacity:1;fill-rule:nonzero;stroke:none;stroke-width:6;stroke-linecap:round;stroke-linejoin:round;stroke-miterlimit:4;stroke-dasharray:none;stroke-dashoffset:0;stroke-opacity:1" />
    <path
       sodipodi:nodetypes="csssssscccsc"
       inkscape:connector-curvature="0"
       id="path8312"
       d="m 620.40149,457.34362 c -11.07012,7.37702 -37.2321,29.69851 -41.88422,38.35997 -2.23,4.15189 -1.35098,10.07867 0.27109,14.5036 4.4327,12.09215 14.29492,21.84627 23.44974,30.90486 8.45659,8.36771 18.48599,15.31493 29.14274,20.60324 3.22569,1.60072 6.72323,3.65622 10.30162,3.25314 3.01857,-0.34002 5.66673,-2.5088 7.86176,-4.60862 6.72865,-6.4368 15.18134,-23.44974 15.18134,-23.44974 0,0 2.54095,-8.60133 5.01526,-17.35009 -14.81342,-16.77038 -43.10414,-53.54132 -43.10414,-53.54132 0,0 -0.17997,-2.65174 -2.43986,-5.15081 -0.85822,-0.94905 -2.51579,-3.52811 -3.79533,-3.52423 z"
       style="opacity:1;fill:#4560ad;fill-opacity:1;fill-rule:nonzero;stroke:none;stroke-width:6;stroke-linecap:round;stroke-linejoin:round;stroke-miterlimit:4;stroke-dasharray:none;stroke-dashoffset:0;stroke-opacity:1" />
    <path
       sodipodi:nodetypes="cssssssssssssssssssssssssssssssssscssssssc"
       inkscape:connector-curvature="0"
       id="path8322"
       d="m 837.54878,802.71897 c 0,0 3.84209,3.35176 5.28636,5.4219 1.91953,2.75136 3.56545,5.81696 4.33752,9.08169 1.10242,4.66162 0.72955,9.59984 0.2711,14.36805 -0.57927,6.02482 -1.89042,12.01171 -3.79533,17.75674 -1.50168,4.52894 -3.16243,9.15032 -5.9641,13.01257 -0.93874,1.2941 -2.05872,2.61428 -3.52424,3.25315 -1.62008,0.70625 -3.55714,0.77166 -5.28636,0.40664 -2.70972,-0.57199 -4.74511,-2.91013 -7.31957,-3.93088 -1.78296,-0.70693 -3.64037,-1.43185 -5.55745,-1.49103 -2.94933,-0.091 -5.87454,0.83262 -8.67505,1.76212 -6.6372,2.20292 -12.69555,5.87161 -18.97667,8.94615 -5.82583,2.85169 -11.28782,6.50378 -17.35009,8.81059 -4.1483,1.57851 -8.50602,2.61773 -12.87703,3.38869 -3.39599,0.59899 -6.85329,0.92581 -10.30162,0.94884 -4.03358,0.0269 -8.0925,-0.24191 -12.06374,-0.94884 -4.11223,-0.73203 -8.18147,-1.8478 -12.06373,-3.38869 -5.16563,-2.05026 -10.30504,-4.42326 -14.7747,-7.72621 -4.59938,-3.39882 -8.63037,-7.62564 -12.06373,-12.19929 -2.73212,-3.63952 -4.96853,-7.69609 -6.64184,-11.92819 -1.78093,-4.5043 -2.97868,-9.28417 -3.52424,-14.09695 -0.52937,-4.66995 -0.76119,-9.51187 0.2711,-14.09696 0.55521,-2.46607 1.75085,-4.78648 3.11759,-6.91293 0.77907,-1.21212 1.57989,-2.56623 2.84651,-3.25314 0.56169,-0.30462 1.25953,-0.30401 1.89766,-0.27109 0.74418,0.0384 1.51675,0.18142 2.16876,0.54219 1.42597,0.78901 2.11334,2.57303 3.52424,3.38869 1.26267,0.72997 2.74967,1.08573 4.20198,1.21993 3.20984,0.2966 6.49154,-0.18758 9.62388,-0.94884 4.15797,-1.01052 8.10947,-2.81355 11.92819,-4.74416 4.41949,-2.23433 8.4578,-5.15675 12.60593,-7.86177 4.16742,-2.7176 7.92789,-6.09492 12.33483,-8.40395 3.34463,-1.75243 6.95117,-2.99782 10.57272,-4.06643 2.74522,-0.81003 5.55466,-1.4902 8.40395,-1.76212 2.74404,-0.26187 8.26841,0.13555 8.26841,0.13555 0,0 6.47618,5.7049 10.03052,8.13286 4.97929,3.40135 10.3594,6.19138 15.72353,8.94614 3.36297,1.72706 6.68056,3.65778 10.30162,4.74417 2.58287,0.77491 5.30235,1.12567 7.99731,1.21993 2.21995,0.0777 4.51006,0.0821 6.64183,-0.54219 1.57121,-0.46014 3.79533,-2.16877 4.33752,-2.30431 0.54219,-0.13555 4.06643,-4.60862 4.06643,-4.60862 z"
       style="opacity:1;fill:#edeb87;fill-opacity:1;fill-rule:nonzero;stroke:none;stroke-width:6;stroke-linecap:round;stroke-linejoin:round;stroke-miterlimit:4;stroke-dasharray:none;stroke-dashoffset:0;stroke-opacity:1" />
    <path
       sodipodi:nodetypes="ccsssscssssssssssssssssssssssssssssssssssc"
       inkscape:connector-curvature="0"
       id="path8324"
       d="m 990.95847,801.70926 0,2.01278 c 0,0 2.70709,3.15962 4.40895,4.3131 2.02469,1.37228 4.30955,2.49813 6.70928,2.97125 4.5468,0.89643 9.3276,0.38571 13.8977,-0.38339 7.533,-1.26774 14.7858,-4.00151 21.8531,-6.90096 4.3491,-1.78429 12.5559,-6.42172 12.5559,-6.42172 0,0 3.4767,-0.11469 5.1757,0.19169 5.1006,0.91979 10.1598,2.50133 14.7604,4.88818 4.6227,2.39829 8.6112,5.89708 12.5559,9.29713 5.6127,4.83781 10.0873,10.90305 15.7189,15.71885 2.4332,2.08073 4.9939,4.04896 7.7635,5.65495 2.6351,1.52798 5.3713,3.05027 8.3387,3.73802 2.7405,0.63516 5.6363,0.57742 8.4345,0.28754 1.7342,-0.17966 3.5256,-0.45608 5.0799,-1.24601 0.7075,-0.35956 1.083,-1.24197 1.8211,-1.53355 0.5653,-0.22333 1.2348,-0.25659 1.821,-0.0958 0.7776,0.21331 1.5696,0.66819 2.0128,1.34185 1.4637,2.22501 1.2336,5.20398 1.4377,7.85943 0.267,3.4735 0.3969,7.03143 -0.2875,10.44728 -1.1167,5.57326 -3.1794,11.0549 -6.1342,15.91054 -4.3061,7.07611 -9.822,13.67389 -16.4856,18.59425 -6.2111,4.58622 -13.6444,7.5281 -21.0863,9.58467 -5.2065,1.43881 -10.7062,2.06701 -16.1022,1.82108 -6.9416,-0.31637 -13.8499,-1.94137 -20.4154,-4.21725 -5.3999,-1.87183 -10.4973,-4.62541 -15.3354,-7.66773 -5.9184,-3.72162 -10.9377,-8.71722 -16.5815,-12.84345 -4.135,-3.02318 -8.3038,-6.01405 -12.6518,-8.72205 -2.3311,-1.45188 -4.5805,-3.16497 -7.1885,-4.02556 -1.4375,-0.47436 -2.9929,-0.6506 -4.50475,-0.57508 -1.70288,0.0851 -3.35041,0.66196 -4.98402,1.15016 -1.5012,0.44863 -2.86663,1.35352 -4.40895,1.6294 -1.22654,0.21939 -2.5145,0.23563 -3.73802,0 -1.01367,-0.19522 -2.03604,-0.54923 -2.8754,-1.15016 -1.67651,-1.20027 -3.21691,-2.7998 -4.02555,-4.69649 -2.19059,-5.13809 -1.29073,-11.10201 -1.6294,-16.67731 -0.3236,-5.32717 -0.88561,-10.69308 -0.38338,-16.00639 0.31371,-3.31893 0.96064,-6.64652 2.10862,-9.77636 0.91055,-2.48252 2.29656,-4.78001 3.73802,-6.99681 1.1044,-1.69843 2.24623,-3.42159 3.73802,-4.79233 0.64599,-0.59357 1.43724,-1.01227 2.20447,-1.4377 0.86256,-0.47829 2.68371,-1.24605 2.68371,-1.24605 z"
       style="opacity:1;fill:#edeb87;fill-opacity:1;fill-rule:nonzero;stroke:none;stroke-width:6;stroke-linecap:round;stroke-linejoin:round;stroke-miterlimit:4;stroke-dasharray:none;stroke-dashoffset:0;stroke-opacity:1" />
  </g>
</svg>
