<?xml version='1.0' encoding='UTF-8' standalone='no'?>
<!-- Created with Fritzing (https://fritzing.org/) -->
<svg xmlns="http://www.w3.org/2000/svg" x="0in"  y="0in" xmlns:svg="http://www.w3.org/2000/svg" baseProfile="tiny" width="2.02607in" viewBox="0 0 145.877 212.357" version="1.2" height="2.94941in">
 <g  id="watermark">
  <g >
   <g >
    <path  fill="#8C8C8C" d="M121.145,206.157c-0.604,0,-1.131,0.325,-1.422,0.809l-2.796,0l3.96,-4.071c0.146,-0.146,0.289,-0.322,0.428,-0.521c0.149,-0.222,0.228,-0.479,0.228,-0.768c0,-0.279,-0.097,-0.518,-0.287,-0.71c-0.19,-0.188,-0.444,-0.287,-0.754,-0.287l-4.636,0c-0.305,0,-0.555,0.06,-0.742,0.17c-0.219,0.13,-0.33,0.368,-0.33,0.707c0,0.329,0.111,0.562,0.33,0.692c0.188,0.111,0.438,0.168,0.742,0.168l3.148,0l-3.974,4.086c-0.146,0.147,-0.289,0.315,-0.425,0.504c-0.153,0.212,-0.23,0.472,-0.23,0.771c0,0.28,0.096,0.521,0.288,0.711c0.188,0.188,0.442,0.285,0.754,0.285l4.315,0c0.293,0.467,0.812,0.776,1.4,0.776c0.916,0,1.66,-0.744,1.66,-1.661C122.804,206.902,122.059,206.157,121.145,206.157zM121.145,208.42c-0.334,0,-0.604,-0.271,-0.604,-0.604c0,-0.333,0.27,-0.604,0.604,-0.604c0.332,0,0.604,0.271,0.604,0.604C121.748,208.151,121.477,208.42,121.145,208.42z"/>
    <path  fill="#8C8C8C" d="M104.202,196.115c-0.914,0,-1.659,0.745,-1.659,1.66c0,0.916,0.745,1.66,1.659,1.66s1.658,-0.744,1.658,-1.66C105.862,196.86,105.118,196.115,104.202,196.115zM104.203,198.378c-0.333,0,-0.604,-0.27,-0.604,-0.603s0.271,-0.603,0.604,-0.603c0.331,0,0.604,0.27,0.604,0.603S104.534,198.378,104.203,198.378z"/>
    <path  fill="#8C8C8C" d="M112.723,200.777c-0.193,-0.111,-0.439,-0.169,-0.732,-0.169l-1.465,0L110.526,198.086c0,-0.292,-0.057,-0.538,-0.166,-0.729C110.27,197.2,110.077,197.015,109.667,197.015c-0.34,0,-0.578,0.116,-0.709,0.342c-0.109,0.193,-0.167,0.438,-0.167,0.729l0,2.521l-0.481,0c-0.295,0,-0.539,0.06,-0.731,0.169c-0.228,0.129,-0.341,0.368,-0.341,0.708c0,0.412,0.185,0.603,0.341,0.692c0.192,0.111,0.438,0.168,0.731,0.168l0.481,0l0,4.362c0,0.277,0.026,0.533,0.081,0.768c0.056,0.246,0.154,0.464,0.298,0.645c0.146,0.186,0.345,0.332,0.595,0.436c0.241,0.098,0.555,0.146,0.93,0.146l0.896,0c0.292,0,0.539,-0.054,0.731,-0.166c0.154,-0.089,0.341,-0.281,0.341,-0.693c0,-0.338,-0.114,-0.578,-0.341,-0.709c-0.192,-0.109,-0.439,-0.168,-0.731,-0.168l-0.821,0c-0.138,0,-0.19,-0.019,-0.207,-0.024c-0.014,-0.034,-0.035,-0.103,-0.035,-0.231L110.528,202.345l1.465,0c0.295,0,0.541,-0.057,0.734,-0.168c0.152,-0.09,0.34,-0.28,0.34,-0.692C113.063,201.145,112.95,200.906,112.723,200.777z"/>
    <path  fill="#8C8C8C" d="M104.268,200.607l-1.191,0c-0.292,0,-0.538,0.059,-0.731,0.169c-0.226,0.129,-0.341,0.368,-0.341,0.708c0,0.412,0.188,0.604,0.341,0.691c0.193,0.113,0.439,0.168,0.731,0.168l0.544,0l0,5.362c0,0.293,0.057,0.539,0.167,0.73c0.131,0.227,0.367,0.341,0.708,0.341c0.411,0,0.604,-0.187,0.692,-0.341c0.111,-0.191,0.168,-0.438,0.168,-0.73L105.356,201.695c0,-0.386,-0.084,-0.656,-0.256,-0.83C104.925,200.693,104.655,200.607,104.268,200.607z"/>
    <path  fill="#8C8C8C" d="M100.433,200.777c-0.193,-0.111,-0.44,-0.169,-0.732,-0.169l-0.604,0c-0.25,0,-0.498,0.063,-0.734,0.187c-0.226,0.119,-0.433,0.271,-0.616,0.453l-0.644,0.604l0,-0.247c0,-0.291,-0.055,-0.538,-0.168,-0.729c-0.128,-0.228,-0.368,-0.34,-0.707,-0.34c-0.41,0,-0.604,0.184,-0.693,0.34c-0.11,0.191,-0.167,0.438,-0.167,0.729l0,4.801c-0.475,0.293,-0.791,0.816,-0.791,1.412c0,0.917,0.745,1.661,1.658,1.661c0.916,0,1.66,-0.744,1.66,-1.661c0,-0.596,-0.317,-1.119,-0.792,-1.412l0,-2.21l1.738,-1.564c0.1,-0.09,0.199,-0.164,0.297,-0.217c0.084,-0.045,0.174,-0.067,0.274,-0.067l0.288,0c0.292,0,0.539,-0.056,0.732,-0.169c0.155,-0.088,0.339,-0.279,0.339,-0.691C100.773,201.145,100.658,200.906,100.433,200.777zM96.234,208.42c-0.332,0,-0.603,-0.271,-0.603,-0.604c0,-0.333,0.271,-0.604,0.603,-0.604c0.333,0,0.604,0.271,0.604,0.604C96.838,208.151,96.567,208.42,96.234,208.42z"/>
    <path  fill="#8C8C8C" d="M93.717,197.258c-0.193,-0.111,-0.44,-0.167,-0.731,-0.167l-0.59,0c-0.2,0,-0.389,0.004,-0.562,0.016c-0.176,0.009,-0.345,0.035,-0.506,0.07c-0.168,0.041,-0.336,0.109,-0.496,0.202c-0.158,0.093,-0.319,0.222,-0.48,0.382c-0.334,0.314,-0.554,0.656,-0.652,1.017c-0.094,0.348,-0.143,0.735,-0.143,1.151l0,0.678l-0.483,0c-0.292,0,-0.539,0.059,-0.73,0.169c-0.227,0.13,-0.342,0.369,-0.342,0.708c0,0.412,0.185,0.604,0.341,0.693c0.191,0.111,0.438,0.166,0.73,0.166l0.483,0l0,5.362c0,0.293,0.057,0.539,0.167,0.73c0.13,0.227,0.367,0.341,0.708,0.341c0.411,0,0.603,-0.187,0.692,-0.341c0.111,-0.191,0.168,-0.438,0.168,-0.73l0,-5.36l0.92,0c0.293,0,0.54,-0.057,0.732,-0.168c0.155,-0.09,0.34,-0.28,0.34,-0.692c0,-0.34,-0.114,-0.579,-0.34,-0.708c-0.189,-0.111,-0.436,-0.17,-0.729,-0.17l-0.92,0l0,-0.678c0,-0.218,0.019,-0.41,0.056,-0.571c0.032,-0.141,0.103,-0.261,0.218,-0.367l0.002,-0.004l0.002,-0.002c0.082,-0.082,0.176,-0.126,0.29,-0.136c0.15,-0.015,0.339,-0.022,0.564,-0.022l0.56,0c0.291,0,0.539,-0.058,0.731,-0.168c0.154,-0.088,0.339,-0.281,0.339,-0.693C94.057,197.627,93.942,197.388,93.717,197.258z"/>
    <path  fill="#8C8C8C" d="M145.71,200.875c-0.089,-0.156,-0.282,-0.34,-0.693,-0.34c-0.339,0,-0.578,0.113,-0.707,0.34c-0.078,0.133,-0.127,0.293,-0.152,0.477l-0.021,-0.021c-0.216,-0.236,-0.466,-0.42,-0.747,-0.539c-0.277,-0.119,-0.563,-0.183,-0.849,-0.183l-0.709,0c-0.249,0,-0.466,0.015,-0.64,0.041c-0.182,0.026,-0.352,0.074,-0.51,0.14c-0.158,0.066,-0.313,0.15,-0.459,0.254c-0.139,0.097,-0.303,0.226,-0.486,0.377c-0.188,0.156,-0.342,0.302,-0.463,0.434c-0.127,0.141,-0.23,0.293,-0.306,0.455c-0.069,0.16,-0.122,0.337,-0.147,0.523c-0.026,0.178,-0.041,0.391,-0.041,0.631l0,2.386c0,0.24,0.015,0.451,0.041,0.631c0.025,0.188,0.078,0.361,0.147,0.521c0.074,0.164,0.179,0.318,0.306,0.457c0.119,0.129,0.274,0.274,0.463,0.433c0.186,0.153,0.35,0.28,0.486,0.379c0.146,0.103,0.299,0.188,0.459,0.254c0.158,0.065,0.329,0.112,0.51,0.14c0.174,0.026,0.389,0.039,0.64,0.039l0.709,0c0.298,0,0.591,-0.066,0.87,-0.199c0.244,-0.114,0.492,-0.291,0.73,-0.523l0,1.434c0,0.18,-0.025,0.334,-0.072,0.465c-0.043,0.119,-0.159,0.258,-0.344,0.406c-0.154,0.127,-0.309,0.217,-0.457,0.264c-0.15,0.049,-0.341,0.074,-0.563,0.074l-2.203,0c-0.293,0,-0.538,0.055,-0.732,0.166c-0.152,0.088,-0.34,0.282,-0.34,0.692c0,0.341,0.115,0.579,0.34,0.71c0.194,0.109,0.439,0.167,0.732,0.167l2.326,0c0.247,0,0.463,-0.015,0.638,-0.041c0.179,-0.026,0.351,-0.073,0.513,-0.14c0.153,-0.064,0.31,-0.15,0.455,-0.254c0.143,-0.101,0.305,-0.227,0.487,-0.379c0.185,-0.153,0.343,-0.299,0.463,-0.431c0.128,-0.141,0.229,-0.294,0.304,-0.456c0.071,-0.162,0.123,-0.338,0.148,-0.523c0.025,-0.182,0.041,-0.393,0.041,-0.631l0,-7.898C145.877,201.313,145.823,201.066,145.71,200.875zM144.141,205.335c0,0.188,-0.062,0.35,-0.188,0.49c-0.15,0.172,-0.394,0.403,-0.716,0.686l-0.002,0.003l-0.002,0.004c-0.139,0.13,-0.291,0.237,-0.453,0.325c-0.148,0.082,-0.325,0.121,-0.526,0.121L141.953,206.964c-0.222,0,-0.41,-0.021,-0.563,-0.072c-0.148,-0.049,-0.301,-0.137,-0.453,-0.264c-0.231,-0.186,-0.315,-0.322,-0.346,-0.404c-0.049,-0.131,-0.072,-0.285,-0.072,-0.465l0,-2.206c0,-0.18,0.023,-0.336,0.072,-0.467c0.029,-0.082,0.113,-0.217,0.346,-0.403c0.152,-0.127,0.305,-0.216,0.453,-0.265c0.153,-0.049,0.342,-0.072,0.563,-0.072l0.301,0c0.212,0,0.388,0.037,0.526,0.113c0.152,0.082,0.308,0.191,0.457,0.324c0.322,0.293,0.564,0.529,0.716,0.7c0.128,0.146,0.188,0.304,0.188,0.492L144.141,205.335z"/>
    <path  fill="#8C8C8C" d="M125.731,196.115c-0.914,0,-1.66,0.745,-1.66,1.66c0,0.916,0.746,1.66,1.66,1.66s1.66,-0.744,1.66,-1.66C127.391,196.86,126.645,196.115,125.731,196.115zM125.731,198.378c-0.332,0,-0.604,-0.27,-0.604,-0.603s0.271,-0.603,0.604,-0.603s0.604,0.27,0.604,0.603C126.335,198.108,126.063,198.378,125.731,198.378z"/>
    <path  fill="#8C8C8C" d="M136.417,206.383l-0.107,-3.419c-0.011,-0.178,-0.021,-0.338,-0.031,-0.489c-0.01,-0.162,-0.037,-0.322,-0.082,-0.476c-0.045,-0.158,-0.11,-0.309,-0.198,-0.453c-0.093,-0.146,-0.216,-0.289,-0.37,-0.42c-0.225,-0.192,-0.443,-0.334,-0.646,-0.416c-0.207,-0.084,-0.461,-0.127,-0.754,-0.127l-1.012,0c-0.259,0,-0.501,0.058,-0.716,0.164c-0.197,0.098,-0.39,0.203,-0.572,0.315l-0.003,0.002l-0.003,0.003l-0.837,0.555l0,-0.041c0,-0.291,-0.057,-0.539,-0.168,-0.733c-0.129,-0.226,-0.367,-0.339,-0.707,-0.339c-0.411,0,-0.604,0.185,-0.693,0.339c-0.109,0.194,-0.168,0.438,-0.168,0.733l0,6.099c0,0.295,0.059,0.539,0.168,0.734c0.09,0.153,0.282,0.338,0.693,0.338c0.34,0,0.578,-0.114,0.707,-0.338c0.111,-0.195,0.168,-0.439,0.168,-0.734L131.086,203.645l1.953,-1.215c0.04,-0.024,0.082,-0.048,0.121,-0.063c0.031,-0.016,0.07,-0.025,0.115,-0.031c0.049,-0.012,0.117,-0.016,0.195,-0.016l0.362,0c0.188,0,0.334,0.021,0.435,0.059c0.082,0.029,0.143,0.076,0.18,0.143c0.05,0.078,0.08,0.18,0.098,0.303c0.02,0.139,0.034,0.309,0.045,0.504l0.096,3.097c-0.457,0.297,-0.762,0.811,-0.762,1.394c0,0.917,0.746,1.661,1.66,1.661c0.916,0,1.66,-0.744,1.66,-1.661C137.243,207.208,136.91,206.67,136.417,206.383zM135.583,208.42c-0.334,0,-0.602,-0.271,-0.602,-0.604c0,-0.333,0.268,-0.604,0.602,-0.604c0.333,0,0.604,0.271,0.604,0.604C136.188,208.151,135.916,208.42,135.583,208.42z"/>
    <path  fill="#8C8C8C" d="M125.794,200.607l-1.193,0c-0.293,0,-0.539,0.059,-0.731,0.169c-0.226,0.129,-0.341,0.368,-0.341,0.708c0,0.412,0.186,0.604,0.341,0.691c0.192,0.113,0.438,0.168,0.731,0.168l0.545,0l0,5.362c0,0.293,0.055,0.539,0.168,0.73c0.127,0.227,0.365,0.341,0.707,0.341c0.41,0,0.604,-0.187,0.691,-0.341c0.111,-0.191,0.17,-0.438,0.17,-0.73L126.882,201.695c0,-0.386,-0.085,-0.656,-0.259,-0.83C126.451,200.693,126.178,200.607,125.794,200.607z"/>
   </g>
  </g>
 </g>
 <g partID="58580">
  <g transform="translate(21.9765,8.26595)">
   <g id="schematic">
    <rect x="14.85" y="14.85" stroke="#000000" fill="#FFFFFF" width="78.3" stroke-width="0.3175" stroke-linecap="round" height="150.3"/>
    <line x2="107.65" id="connector61pin" stroke="#787878" fill="none" y1="28.8" stroke-width="0.2469" x1="93.25" y2="28.8" stroke-linecap="round"/>
    <g transform="matrix(1, 0, 0, 1, 82.2432, 29.5)">
     <text fill="#8C8C8C" font-size="3.5" font-family="'DroidSans'">D0/RX</text>
    </g>
    <g x="107.65" y="28.45" id="connector61terminal" fill="none" width="0.699" height="0.7"/>
    <line x2="107.65" id="connector62pin" stroke="#787878" fill="none" y1="36" stroke-width="0.2469" x1="93.25" y2="36" stroke-linecap="round"/>
    <g transform="matrix(1, 0, 0, 1, 82.4912, 36.7012)">
     <text fill="#8C8C8C" font-size="3.5" font-family="'DroidSans'">D1/TX</text>
    </g>
    <g x="107.65" y="35.65" id="connector62terminal" fill="none" width="0.699" height="0.7"/>
    <line x2="107.65" id="connector63pin" stroke="#787878" fill="none" y1="43.2" stroke-width="0.2469" x1="93.25" y2="43.2" stroke-linecap="round"/>
    <g transform="matrix(1, 0, 0, 1, 87.5283, 43.9004)">
     <text fill="#8C8C8C" font-size="3.5" font-family="'DroidSans'">D2</text>
    </g>
    <g x="107.65" y="42.85" id="connector63terminal" fill="none" width="0.699" height="0.7"/>
    <line x2="107.65" id="connector64pin" stroke="#787878" fill="none" y1="50.4" stroke-width="0.2469" x1="93.25" y2="50.4" stroke-linecap="round"/>
    <g transform="matrix(1, 0, 0, 1, 78.4639, 51.0996)">
     <text fill="#8C8C8C" font-size="3.5" font-family="'DroidSans'">D3 PWM</text>
    </g>
    <g x="107.65" y="50.05" id="connector64terminal" fill="none" width="0.699" height="0.7"/>
    <line x2="107.65" id="connector65pin" stroke="#787878" fill="none" y1="57.6" stroke-width="0.2469" x1="93.25" y2="57.6" stroke-linecap="round"/>
    <g transform="matrix(1, 0, 0, 1, 87.5283, 58.3008)">
     <text fill="#8C8C8C" font-size="3.5" font-family="'DroidSans'">D4</text>
    </g>
    <g x="107.65" y="57.25" id="connector65terminal" fill="none" width="0.699" height="0.7"/>
    <line x2="107.65" id="connector66pin" stroke="#787878" fill="none" y1="64.8" stroke-width="0.2469" x1="93.25" y2="64.8" stroke-linecap="round"/>
    <g transform="matrix(1, 0, 0, 1, 78.4639, 65.5)">
     <text fill="#8C8C8C" font-size="3.5" font-family="'DroidSans'">D5 PWM</text>
    </g>
    <g x="107.65" y="64.45" id="connector66terminal" fill="none" width="0.699" height="0.7"/>
    <line x2="107.65" id="connector67pin" stroke="#787878" fill="none" y1="72" stroke-width="0.2469" x1="93.25" y2="72" stroke-linecap="round"/>
    <g transform="matrix(1, 0, 0, 1, 78.4639, 72.7012)">
     <text fill="#8C8C8C" font-size="3.5" font-family="'DroidSans'">D6 PWM</text>
    </g>
    <g x="107.65" y="71.65" id="connector67terminal" fill="none" width="0.699" height="0.7"/>
    <line x2="107.65" id="connector68pin" stroke="#787878" fill="none" y1="79.2" stroke-width="0.2469" x1="93.25" y2="79.2" stroke-linecap="round"/>
    <g transform="matrix(1, 0, 0, 1, 87.5283, 79.9004)">
     <text fill="#8C8C8C" font-size="3.5" font-family="'DroidSans'">D7</text>
    </g>
    <g x="107.65" y="78.85" id="connector68terminal" fill="none" width="0.699" height="0.7"/>
    <line x2="107.65" id="connector51pin" stroke="#787878" fill="none" y1="86.4" stroke-width="0.2469" x1="93.25" y2="86.4" stroke-linecap="round"/>
    <g transform="matrix(1, 0, 0, 1, 87.5283, 87.0996)">
     <text fill="#8C8C8C" font-size="3.5" font-family="'DroidSans'">D8</text>
    </g>
    <g x="107.65" y="86.05" id="connector51terminal" fill="none" width="0.699" height="0.7"/>
    <line x2="107.65" id="connector52pin" stroke="#787878" fill="none" y1="93.6" stroke-width="0.2469" x1="93.25" y2="93.6" stroke-linecap="round"/>
    <g transform="matrix(1, 0, 0, 1, 78.4639, 94.3008)">
     <text fill="#8C8C8C" font-size="3.5" font-family="'DroidSans'">D9 PWM</text>
    </g>
    <g x="107.65" y="93.25" id="connector52terminal" fill="none" width="0.699" height="0.699"/>
    <line x2="107.65" id="connector53pin" stroke="#787878" fill="none" y1="100.8" stroke-width="0.2469" x1="93.25" y2="100.8" stroke-linecap="round"/>
    <g transform="matrix(1, 0, 0, 1, 71.5967, 101.5)">
     <text fill="#8C8C8C" font-size="3.5" font-family="'DroidSans'">D10 PWM/SS</text>
    </g>
    <g x="107.65" y="100.449" id="connector53terminal" fill="none" width="0.699" height="0.701"/>
    <line x2="107.65" id="connector54pin" stroke="#787878" fill="none" y1="108" stroke-width="0.2469" x1="93.25" y2="108" stroke-linecap="round"/>
    <g transform="matrix(1, 0, 0, 1, 66.585, 108.701)">
     <text fill="#8C8C8C" font-size="3.5" font-family="'DroidSans'">D11 PWM/MOSI</text>
    </g>
    <g x="107.65" y="107.65" id="connector54terminal" fill="none" width="0.699" height="0.699"/>
    <line x2="107.65" id="connector55pin" stroke="#787878" fill="none" y1="115.2" stroke-width="0.2469" x1="93.25" y2="115.2" stroke-linecap="round"/>
    <g transform="matrix(1, 0, 0, 1, 75.6494, 115.9)">
     <text fill="#8C8C8C" font-size="3.5" font-family="'DroidSans'">D12/MISO</text>
    </g>
    <g x="107.65" y="114.85" id="connector55terminal" fill="none" width="0.699" height="0.7"/>
    <line x2="107.65" id="connector41pin" fill="none" y1="122.4" x1="93.25" y2="122.4"/>
    <rect x="107.65" y="122.05" id="connector41terminal" fill="none" width="0.699" height="0.7"/>
    <line x2="107.65" id="connector56pin" stroke="#787878" fill="none" y1="122.4" stroke-width="0.2469" x1="93.25" y2="122.4" stroke-linecap="round"/>
    <g transform="matrix(1, 0, 0, 1, 78.3408, 123.1)">
     <text fill="#8C8C8C" font-size="3.5" font-family="'DroidSans'">D13/SCK</text>
    </g>
    <g x="107.65" y="122.05" id="connector56terminal" fill="none" width="0.699" height="0.7"/>
    <line x2="14.75" id="connector43pin" fill="none" y1="28.8" x1="0.35" y2="28.8"/>
    <g x="-0.35" y="28.45" id="connector43terminal" fill="none" width="0.7" height="0.7"/>
    <line x2="14.75" id="connector85pin" stroke="#787878" fill="none" y1="28.8" stroke-width="0.2469" x1="0.35" y2="28.8" stroke-linecap="round"/>
    <g transform="matrix(1, 0, 0, 1, 16.1494, 29.5)">
     <text fill="#8C8C8C" font-size="3.5" font-family="'DroidSans'">RESET</text>
    </g>
    <g x="-0.35" y="28.45" id="connector85terminal" fill="none" width="0.7" height="0.7"/>
    <line x2="14.75" id="connector49pin" stroke="#787878" fill="none" y1="36" stroke-width="0.2469" x1="0.35" y2="36" stroke-linecap="round"/>
    <g transform="matrix(1, 0, 0, 1, 16.1494, 36.7012)">
     <text fill="#8C8C8C" font-size="3.5" font-family="'DroidSans'">RESET2</text>
    </g>
    <rect x="-0.35" y="35.65" id="connector49terminal" fill="none" width="0.7" height="0.7"/>
    <line x2="14.75" id="connector58pin" stroke="#787878" fill="none" y1="43.2" stroke-width="0.2469" x1="0.35" y2="43.2" stroke-linecap="round"/>
    <g transform="matrix(1, 0, 0, 1, 16.1494, 43.9004)">
     <text fill="#8C8C8C" font-size="3.5" font-family="'DroidSans'">AREF</text>
    </g>
    <g x="-0.35" y="42.85" id="connector58terminal" fill="none" width="0.7" height="0.7"/>
    <line x2="14.75" id="connector84pin" stroke="#787878" fill="none" y1="50.4" stroke-width="0.2469" x1="0.35" y2="50.4" stroke-linecap="round"/>
    <g transform="matrix(1, 0, 0, 1, 16.1494, 51.0996)">
     <text fill="#8C8C8C" font-size="3.5" font-family="'DroidSans'">I</text>
    </g>
    <g transform="matrix(1, 0, 0, 1, 17.3013, 51.0996)">
     <text fill="#8C8C8C" font-size="3.5" font-family="'DroidSans'">O</text>
    </g>
    <g transform="matrix(1, 0, 0, 1, 19.8989, 51.0996)">
     <text fill="#8C8C8C" font-size="3.5" font-family="'DroidSans'">R</text>
    </g>
    <g transform="matrix(1, 0, 0, 1, 21.9634, 51.0996)">
     <text fill="#8C8C8C" font-size="3.5" font-family="'DroidSans'">E</text>
    </g>
    <g transform="matrix(1, 0, 0, 1, 23.8105, 51.0996)">
     <text fill="#8C8C8C" font-size="3.5" font-family="'DroidSans'">F</text>
    </g>
    <g x="-0.35" y="50.05" id="connector84terminal" fill="none" width="0.7" height="0.7"/>
    <line x2="14.75" id="connector0pin" stroke="#787878" fill="none" y1="64.8" stroke-width="0.2469" x1="0.35" y2="64.8" stroke-linecap="round"/>
    <g transform="matrix(1, 0, 0, 1, 16.1494, 65.5)">
     <text fill="#8C8C8C" font-size="3.5" font-family="'DroidSans'">A0</text>
    </g>
    <g x="-0.35" y="64.45" id="connector0terminal" fill="none" width="0.7" height="0.7"/>
    <line x2="14.75" id="connector1pin" stroke="#787878" fill="none" y1="72" stroke-width="0.2469" x1="0.35" y2="72" stroke-linecap="round"/>
    <g transform="matrix(1, 0, 0, 1, 16.1494, 72.7012)">
     <text fill="#8C8C8C" font-size="3.5" font-family="'DroidSans'">A1</text>
    </g>
    <g x="-0.35" y="71.65" id="connector1terminal" fill="none" width="0.7" height="0.7"/>
    <line x2="14.75" id="connector2pin" stroke="#787878" fill="none" y1="79.2" stroke-width="0.2469" x1="0.35" y2="79.2" stroke-linecap="round"/>
    <g transform="matrix(1, 0, 0, 1, 16.1494, 79.9004)">
     <text fill="#8C8C8C" font-size="3.5" font-family="'DroidSans'">A2</text>
    </g>
    <g x="-0.35" y="78.85" id="connector2terminal" fill="none" width="0.7" height="0.7"/>
    <line x2="14.75" id="connector3pin" stroke="#787878" fill="none" y1="86.4" stroke-width="0.2469" x1="0.35" y2="86.4" stroke-linecap="round"/>
    <g transform="matrix(1, 0, 0, 1, 16.1494, 87.0996)">
     <text fill="#8C8C8C" font-size="3.5" font-family="'DroidSans'">A3</text>
    </g>
    <g x="-0.35" y="86.05" id="connector3terminal" fill="none" width="0.7" height="0.7"/>
    <line x2="14.75" id="connector39pin" fill="none" y1="93.6" x1="0.35" y2="93.6"/>
    <g x="-0.35" y="93.25" id="connector39terminal" fill="none" width="0.7" height="0.699"/>
    <line x2="14.75" id="connector42pin" stroke="#787878" fill="none" y1="93.6" stroke-width="0.2469" x1="0.35" y2="93.6" stroke-linecap="round"/>
    <g x="-0.35" y="93.25" id="connector42terminal" fill="none" width="0.7" height="0.699"/>
    <line x2="14.75" id="connector4pin" fill="none" y1="93.6" x1="0.35" y2="93.6"/>
    <g x="-0.35" y="93.25" id="connector4terminal" fill="none" width="0.7" height="0.699"/>
    <line x2="14.75" id="connector59pin" stroke="#787878" fill="none" y1="93.6" stroke-width="0.2469" x1="0.35" y2="93.6" stroke-linecap="round"/>
    <g x="-0.35" y="93.25" id="connector59terminal" fill="none" width="0.7" height="0.699"/>
    <line x2="14.75" id="connector5pin" fill="none" y1="100.8" x1="0.35" y2="100.8"/>
    <g x="-0.35" y="100.449" id="connector5terminal" fill="none" width="0.7" height="0.701"/>
    <line x2="14.75" id="connector60pin" stroke="#787878" fill="none" y1="100.8" stroke-width="0.2469" x1="0.35" y2="100.8" stroke-linecap="round"/>
    <g x="-0.35" y="100.449" id="connector60terminal" fill="none" width="0.7" height="0.701"/>
    <line x2="14.75" id="connector91pin" stroke="#787878" fill="none" y1="136.8" stroke-width="0.2469" x1="0.35" y2="136.8" stroke-linecap="round"/>
    <g transform="matrix(1, 0, 0, 1, 16.1494, 137.5)">
     <text fill="#8C8C8C" font-size="3.5" font-family="'DroidSans'">N/C</text>
    </g>
    <g x="-0.35" y="136.449" id="connector91terminal" fill="none" width="0.7" height="0.701"/>
    <line x2="57.6" id="connector88pin" fill="none" y1="165.25" x1="57.6" y2="179.65"/>
    <g x="57.25" y="179.65" id="connector88terminal" fill="none" width="0.699" height="0.699"/>
    <line x2="57.6" id="connector57pin" fill="none" y1="165.25" x1="57.6" y2="179.65"/>
    <g x="57.25" y="179.65" id="connector57terminal" fill="none" width="0.699" height="0.699"/>
    <line x2="57.6" id="connector44pin" fill="none" y1="165.25" x1="57.6" y2="179.65"/>
    <g x="57.25" y="179.65" id="connector44terminal" fill="none" width="0.699" height="0.699"/>
    <line x2="57.6" id="connector50pin" fill="none" y1="165.25" x1="57.6" y2="179.65"/>
    <rect x="57.25" y="179.65" id="connector50terminal" fill="none" width="0.699" height="0.699"/>
    <line x2="57.6" id="connector89pin" stroke="#787878" fill="none" y1="165.25" stroke-width="0.2469" x1="57.6" y2="179.65" stroke-linecap="round"/>
    <g transform="matrix(1, 0, 0, 1, 20.5669, 57.8026)">
     <g>
      <g transform="rotate(270)">
       <g>
        <g transform="matrix(1, 0, 0, 1, -106.047, 37.7329)">
         <text fill="#8C8C8C" font-size="3.5" font-family="'DroidSans'">GND</text>
        </g>
       </g>
      </g>
     </g>
    </g>
    <g x="57.25" y="179.65" id="connector89terminal" fill="none" width="0.699" height="0.699"/>
    <line x2="36" id="connector86pin" stroke="#787878" fill="none" y1="0.35" stroke-width="0.2469" x1="36" y2="14.75" stroke-linecap="round"/>
    <g transform="matrix(1, 0, 0, 1, 12.9469, 5.69736)">
     <g>
      <g transform="rotate(270)">
       <g>
        <g transform="matrix(1, 0, 0, 1, -16.2968, 23.7533)">
         <text fill="#8C8C8C" font-size="3.5" font-family="'DroidSans'">3V3</text>
        </g>
       </g>
      </g>
     </g>
    </g>
    <g x="35.65" y="-0.35" id="connector86terminal" fill="none" width="0.7" height="0.7"/>
    <line x2="50.4" id="connector40pin" fill="none" y1="0.35" x1="50.4" y2="14.75"/>
    <g x="50.05" y="-0.35" id="connector40terminal" fill="none" width="0.7" height="0.7"/>
    <line x2="50.4" id="connector46pin" fill="none" y1="0.35" x1="50.4" y2="14.75"/>
    <rect x="50.05" y="-0.35" id="connector46terminal" fill="none" width="0.7" height="0.7"/>
    <line x2="50.4" id="connector87pin" stroke="#787878" fill="none" y1="0.35" stroke-width="0.2469" x1="50.4" y2="14.75" stroke-linecap="round"/>
    <g transform="matrix(1, 0, 0, 1, 18.0269, 5.69736)">
     <g>
      <g transform="rotate(270)">
       <g>
        <g transform="matrix(1, 0, 0, 1, -14.369, 33.0737)">
         <text fill="#8C8C8C" font-size="3.5" font-family="'DroidSans'">5V</text>
        </g>
       </g>
      </g>
     </g>
    </g>
    <g x="50.05" y="-0.35" id="connector87terminal" fill="none" width="0.7" height="0.7"/>
    <line x2="64.8" id="connector90pin" stroke="#787878" fill="none" y1="0.35" stroke-width="0.2469" x1="64.8" y2="14.75" stroke-linecap="round"/>
    <g transform="matrix(1, 0, 0, 1, 23.1069, 5.69736)">
     <g>
      <g transform="rotate(270)">
       <g>
        <g transform="matrix(1, 0, 0, 1, -16.1776, 42.3922)">
         <text fill="#8C8C8C" font-size="3.5" font-family="'DroidSans'">VIN</text>
        </g>
       </g>
      </g>
     </g>
    </g>
    <g x="64.449" y="-0.35" id="connector90terminal" fill="none" width="0.701" height="0.7"/>
    <g transform="matrix(1, 0, 0, 1, 46.7861, 81.3828)">
     <text id="label" font-size="4.25" font-family="'DroidSans'">Arduino</text>
    </g>
    <g transform="matrix(1, 0, 0, 1, 50.4893, 85.916)">
     <text id="label_1_" font-size="4.25" font-family="'DroidSans'">Uno</text>
    </g>
    <g transform="matrix(1, 0, 0, 1, 48.5928, 90.4512)">
     <text id="label_2_" font-size="4.25" font-family="'DroidSans'">(Rev3)</text>
    </g>
    <g transform="matrix(1, 0, 0, 1, 50.1416, 94.9844)">
     <text font-size="4.25" font-family="'DroidSans'">I</text>
    </g>
    <g transform="matrix(1, 0, 0, 1, 51.54, 94.9844)">
     <text font-size="4.25" font-family="'DroidSans'">C</text>
    </g>
    <g transform="matrix(1, 0, 0, 1, 54.103, 94.9844)">
     <text font-size="4.25" font-family="'DroidSans'">S</text>
    </g>
    <g transform="matrix(1, 0, 0, 1, 56.3086, 94.9844)">
     <text font-size="4.25" font-family="'DroidSans'">P</text>
    </g>
    <g transform="matrix(1, 0, 0, 1, 16.1494, 94.9844)">
     <text fill="#8C8C8C" font-size="3.5" font-family="'DroidSans'">A4/SDA</text>
    </g>
    <g transform="matrix(1, 0, 0, 1, 16.1494, 102.184)">
     <text fill="#8C8C8C" font-size="3.5" font-family="'DroidSans'">A5/SCL</text>
    </g>
   </g>
  </g>
 </g>
 <g partID="854108540">
  <g transform="translate(10.6726,7.91562)">
   <g transform="matrix(0,1,-1,0,0,0)">
    <g  id="schematic">
     <line x2="8.63003"  stroke="#000000" class="other" y1="3.096" stroke-width="0.432002" x1="7.55002" y2="0.216" stroke-linecap="round"/>
     <line x2="10.43"  stroke="#000000" class="other" y1="0.216" stroke-width="0.432002" x1="8.63003" y2="5.976" stroke-linecap="round"/>
     <line x2="12.23"  stroke="#000000" class="other" y1="5.976" stroke-width="0.432002" x1="10.43" y2="0.216" stroke-linecap="round"/>
     <line x2="14.03"  stroke="#000000" class="other" y1="0.216" stroke-width="0.432002" x1="12.23" y2="5.976" stroke-linecap="round"/>
     <line x2="15.8301"  stroke="#000000" class="other" y1="5.976" stroke-width="0.432002" x1="14.03" y2="0.216" stroke-linecap="round"/>
     <line x2="17.6301"  stroke="#000000" class="other" y1="0.216" stroke-width="0.432002" x1="15.8301" y2="5.976" stroke-linecap="round"/>
     <line x2="19.4301"  stroke="#000000" class="other" y1="5.976" stroke-width="0.432002" x1="17.6301" y2="0.216" stroke-linecap="round"/>
     <line x2="21.2301"  stroke="#000000" class="other" y1="0.216" stroke-width="0.432002" x1="19.4301" y2="5.976" stroke-linecap="round"/>
     <line x2="21.9501"  stroke="#000000" class="other" y1="5.976" stroke-width="0.432002" x1="21.2301" y2="3.096" stroke-linecap="round"/>
     <line x2="21.9501"  id="connector1pin" stroke="#787878" class="pin" y1="3.096" stroke-width="0.700001" x1="29.1502" y2="3.096" stroke-linecap="round" connectorname="2"/>
     <g x="29.1502"  y="3.096" id="connector1terminal" stroke="none" width="0.000283466" fill="none" class="terminal" stroke-width="0" height="0.000283465"/>
     <text x="25.5501"  y="2.046" text-anchor="middle" stroke="none" fill="#8c8c8c" class="text" font-size="2.50001" stroke-width="0" font-family="'Droid Sans'">2</text>
     <line x2="7.55002"  id="connector0pin" stroke="#787878" class="pin" y1="3.096" stroke-width="0.700001" x1="0.350001" y2="3.096" stroke-linecap="round" connectorname="1"/>
     <g x="0.350001"  y="3.096" id="connector0terminal" stroke="none" width="0.000283466" fill="none" class="terminal" stroke-width="0" height="0.000283465"/>
     <text x="3.95001"  y="2.046" text-anchor="middle" stroke="none" fill="#8c8c8c" class="text" font-size="2.50001" stroke-width="0" font-family="'Droid Sans'">1</text>
    </g>
   </g>
  </g>
 </g>
 <g partID="854113900">
  <g transform="translate(0,138.036)">
   <g transform="matrix(0,-1,1,0,0,0)">
    <g id="schematic">
     <path stroke="#000000" fill="#FFFFFF" stroke-width="0.9" d="M29.15,0.36c3.977,0,7.2,3.223,7.201,7.199s-3.224,7.2,-7.199,7.201c0,0,-0.001,0,-0.002,0l-14.4,0c-3.977,0.002,-7.2,-3.223,-7.201,-7.199c0,-3.977,3.224,-7.2,7.199,-7.201c0.001,0,0.001,0,0.002,0L29.15,0.36z"/>
     <line x2="17.63" stroke="#000000" fill="none" y1="0.36" stroke-width="0.5" x1="17.63" y2="1.8" stroke-linecap="round"/>
     <path stroke="#000000" fill="none" stroke-width="0.5" d="M17.63,1.8c0,0.795,0.646,1.44,1.44,1.44"/>
     <line x2="25.55" stroke="#000000" fill="none" y1="3.24" stroke-width="0.5" x1="19.07" y2="3.24" stroke-linecap="round"/>
     <path stroke="#000000" fill="none" stroke-width="0.5" d="M25.55,3.24c0.598,0,1.081,0.483,1.081,1.08c0,0.596,-0.482,1.08,-1.08,1.08c0,0,0,0,-0.001,0"/>
     <line x2="25.55" stroke="#000000" fill="none" y1="5.4" stroke-width="0.5" x1="18.35" y2="5.4" stroke-linecap="round"/>
     <path stroke="#000000" fill="none" stroke-width="0.5" d="M18.35,7.56c-0.598,0,-1.08,-0.483,-1.08,-1.08s0.482,-1.08,1.08,-1.08l0,0"/>
     <line x2="25.55" stroke="#000000" fill="none" y1="7.56" stroke-width="0.5" x1="18.35" y2="7.56" stroke-linecap="round"/>
     <path stroke="#000000" fill="none" stroke-width="0.5" d="M25.55,7.56c0.598,0,1.081,0.483,1.081,1.079c0.001,0.598,-0.481,1.082,-1.079,1.082c-0.001,0,-0.001,0,-0.002,0"/>
     <line x2="25.55" stroke="#000000" fill="none" y1="9.721" stroke-width="0.5" x1="18.35" y2="9.721" stroke-linecap="round"/>
     <path stroke="#000000" fill="none" stroke-width="0.5" d="M18.35,11.88c-0.598,0,-1.08,-0.483,-1.08,-1.08s0.482,-1.079,1.08,-1.079l0,0"/>
     <line x2="24.83" stroke="#000000" fill="none" y1="11.88" stroke-width="0.5" x1="18.35" y2="11.88" stroke-linecap="round"/>
     <path stroke="#000000" fill="none" stroke-width="0.5" d="M26.27,13.32c0,-0.795,-0.646,-1.439,-1.44,-1.439l0,0"/>
     <line x2="26.27" stroke="#000000" fill="none" y1="13.32" stroke-width="0.5" x1="26.27" y2="14.76" stroke-linecap="round"/>
     <line x2="7.55" id="connector0pin" stroke="#787878" fill="none" y1="7.56" stroke-width="0.75" x1="0.35" y2="7.56" stroke-linecap="round"/>
     <g id="connector0terminal" fill="none" points="1.137,7.889,0,7.92,0,7.269,1.153,7.264"/>
     <g transform="matrix(1, 0, 0, 1, 3.2615, 6.5107)">
      <text fill="#8C8C8C" font-size="2.5" font-family="'DroidSans'">1</text>
     </g>
     <line x2="36.35" id="connector1pin" stroke="#787878" fill="none" y1="7.56" stroke-width="0.75" x1="43.551" y2="7.56" stroke-linecap="round"/>
     <g id="connector1terminal" fill="none" points="42.872,7.92,43.9,7.936,43.9,7.217,42.841,7.217"/>
     <g transform="matrix(1, 0, 0, 1, 39.2615, 6.5107)">
      <text fill="#8C8C8C" font-size="2.5" font-family="'DroidSans'">2</text>
     </g>
    </g>
   </g>
  </g>
 </g>
 <g partID="854110290">
  <line x2="72.3765" stroke="#404040" y1="1.07699" stroke-width="0.699998" x1="72.4667" y2="8.26595" stroke-linecap="round"/>
 </g>
 <g partID="854110230">
  <line x2="72.4667" stroke="#404040" y1="1.0564" stroke-width="0.699998" x1="7.65692" y2="1.07699" stroke-linecap="round"/>
 </g>
 <g partID="854110240">
  <line x2="7.65692" stroke="#404040" y1="8.26576" stroke-width="0.699998" x1="7.5765" y2="1.0564" stroke-linecap="round"/>
 </g>
 <g partID="854114690">
  <line x2="7.592" stroke="#404040" y1="188.252" stroke-width="0.699998" x1="7.65692" y2="137.46" stroke-linecap="round"/>
 </g>
 <g partID="854114700">
  <line x2="7.65692" stroke="#404040" y1="188.265" stroke-width="0.699998" x1="79.576" y2="188.252" stroke-linecap="round"/>
 </g>
 <g partID="854115120">
  <line x2="7.5765" stroke="#404040" y1="73.175" stroke-width="0.699998" x1="7.65692" y2="94.6659" stroke-linecap="round"/>
 </g>
 <g partID="854115130">
  <line x2="7.65692" stroke="#404040" y1="73.0659" stroke-width="0.699998" x1="21.9765" y2="73.175" stroke-linecap="round"/>
 </g>
 <circle stroke="none" fill="black" cx="21.9765" cy="73.0659" r="1.44" stroke-width="0"/>
 <g partID="854115240">
  <line x2="21.9765" stroke="#404040" y1="73.175" stroke-width="0.699998" x1="7.65692" y2="73.0659" stroke-linecap="round"/>
 </g>
 <circle stroke="none" fill="black" cx="21.9765" cy="73.0659" r="1.44" stroke-width="0"/>
 <g partID="854115250">
  <line x2="7.65692" stroke="#404040" y1="37.0659" stroke-width="0.699998" x1="7.5765" y2="73.175" stroke-linecap="round"/>
 </g>
 <g id="partLabel" partID="58580">
  <g transform="translate(89.8772,16.1359)">
   <g transform="matrix(1,0,0,1,0,0)">
    <g font-style="normal" font-weight="normal" id="schematicLabel" fill-opacity="1" stroke="none" fill="#000000" font-size="5" font-family="'DroidSans'">
     <text x="0" y="3.75">Microcontroller</text>
    </g>
   </g>
  </g>
 </g>
 <g id="partLabel" partID="854108540">
  <g transform="translate(12.3022,6.96746)">
   <g font-style="normal" font-weight="normal" id="schematicLabel" fill-opacity="1" stroke="none" fill="#000000" font-size="5" font-family="'DroidSans'">
    <text x="0" y="3.75">R2</text>
    <text x="0" y="8.75">10k&#x3a9;</text>
    <text x="0" y="13.75">0.25</text>
   </g>
  </g>
 </g>
 <g id="partLabel" partID="854113900">
  <g transform="translate(29.5105,102.926)">
   <g font-style="normal" font-weight="normal" id="schematicLabel" fill-opacity="1" stroke="none" fill="#000000" font-size="5" font-family="'DroidSans'">
    <text x="0" y="3.75">R3</text>
   </g>
  </g>
 </g>
</svg>
